<svg width="724" height="314" viewBox="0 0 724 314" fill="none" xmlns="http://www.w3.org/2000/svg">
<g clip-path="url(#clip0)">
<rect width="724" height="314" fill="white"/>
<g filter="url(#filter0_ddd)">
<path d="M0 2C0 0.895426 0.895431 0 2 0H722C723.105 0 724 0.895431 724 2V314H0V2Z" fill="#E91E63"/>
</g>
<path d="M228.516 125.891C221.969 125.891 217.828 130.438 217.828 137.719C217.828 145 221.891 149.562 228.516 149.562C235.094 149.562 239.156 144.984 239.156 137.719C239.156 130.438 235.062 125.891 228.516 125.891ZM228.516 129.469C232.516 129.469 235.031 132.672 235.031 137.719C235.031 142.75 232.531 145.984 228.516 145.984C224.438 145.984 221.953 142.75 221.953 137.719C221.953 132.672 224.5 129.469 228.516 129.469ZM243.375 149H247.25V139.047C247.25 136.531 248.703 134.938 251.016 134.938C253.375 134.938 254.469 136.25 254.469 138.859V149H258.344V137.938C258.344 133.859 256.266 131.562 252.453 131.562C249.906 131.562 248.188 132.734 247.375 134.641H247.109V131.906H243.375V149ZM263.094 149H266.969V125.297H263.094V149ZM271.922 149H275.781V131.906H271.922V149ZM273.844 129.125C275.266 129.125 276.234 128.219 276.234 126.984C276.234 125.75 275.266 124.844 273.844 124.844C272.438 124.844 271.453 125.75 271.453 126.984C271.453 128.219 272.438 129.125 273.844 129.125ZM280.594 149H284.469V139.047C284.469 136.531 285.922 134.938 288.234 134.938C290.594 134.938 291.688 136.25 291.688 138.859V149H295.562V137.938C295.562 133.859 293.484 131.562 289.672 131.562C287.125 131.562 285.406 132.734 284.594 134.641H284.328V131.906H280.594V149ZM307.328 134.641C309.656 134.641 311.188 136.266 311.266 138.797H303.219C303.391 136.297 305.016 134.641 307.328 134.641ZM311.297 144.297C310.734 145.562 309.406 146.266 307.484 146.266C304.938 146.266 303.297 144.484 303.203 141.641V141.438H315.141V140.188C315.141 134.797 312.219 131.562 307.344 131.562C302.391 131.562 299.312 135.016 299.312 140.516C299.312 146.016 302.344 149.344 307.375 149.344C311.406 149.344 314.234 147.406 314.969 144.297H311.297ZM337.375 149.562C342.578 149.562 346.391 146.453 346.922 141.844H342.953C342.406 144.375 340.234 145.969 337.375 145.969C333.531 145.969 331.141 142.812 331.141 137.719C331.141 132.641 333.531 129.484 337.359 129.484C340.203 129.484 342.375 131.234 342.938 133.938H346.906C346.438 129.234 342.484 125.891 337.359 125.891C330.969 125.891 327.016 130.406 327.016 137.734C327.016 145.031 330.984 149.562 337.375 149.562ZM358.375 149.344C363.484 149.344 366.594 146 366.594 140.453C366.594 134.922 363.469 131.562 358.375 131.562C353.297 131.562 350.156 134.938 350.156 140.453C350.156 146 353.25 149.344 358.375 149.344ZM358.375 146.094C355.672 146.094 354.125 144.031 354.125 140.453C354.125 136.891 355.672 134.812 358.375 134.812C361.062 134.812 362.609 136.891 362.609 140.453C362.609 144.031 361.078 146.094 358.375 146.094ZM370.5 149H374.375V139.047C374.375 136.531 375.828 134.938 378.141 134.938C380.5 134.938 381.594 136.25 381.594 138.859V149H385.469V137.938C385.469 133.859 383.391 131.562 379.578 131.562C377.031 131.562 375.312 132.734 374.5 134.641H374.234V131.906H370.5V149ZM391.297 127.719V132.016H388.594V135.109H391.297V144.438C391.297 147.75 392.859 149.078 396.781 149.078C397.531 149.078 398.25 149 398.812 148.891V145.859C398.344 145.906 398.047 145.938 397.5 145.938C395.875 145.938 395.156 145.188 395.156 143.5V135.109H398.812V132.016H395.156V127.719H391.297ZM409.703 134.641C412.031 134.641 413.562 136.266 413.641 138.797H405.594C405.766 136.297 407.391 134.641 409.703 134.641ZM413.672 144.297C413.109 145.562 411.781 146.266 409.859 146.266C407.312 146.266 405.672 144.484 405.578 141.641V141.438H417.516V140.188C417.516 134.797 414.594 131.562 409.719 131.562C404.766 131.562 401.688 135.016 401.688 140.516C401.688 146.016 404.719 149.344 409.75 149.344C413.781 149.344 416.609 147.406 417.344 144.297H413.672ZM421.406 149H425.281V139.047C425.281 136.531 426.734 134.938 429.047 134.938C431.406 134.938 432.5 136.25 432.5 138.859V149H436.375V137.938C436.375 133.859 434.297 131.562 430.484 131.562C427.938 131.562 426.219 132.734 425.406 134.641H425.141V131.906H421.406V149ZM442.203 127.719V132.016H439.5V135.109H442.203V144.438C442.203 147.75 443.766 149.078 447.688 149.078C448.438 149.078 449.156 149 449.719 148.891V145.859C449.25 145.906 448.953 145.938 448.406 145.938C446.781 145.938 446.062 145.188 446.062 143.5V135.109H449.719V132.016H446.062V127.719H442.203ZM461.5 142.875C461.703 146.969 465.125 149.562 470.297 149.562C475.766 149.562 479.156 146.828 479.156 142.438C479.156 139 477.234 137.094 472.656 136.062L470.062 135.469C467.266 134.828 466.125 133.938 466.125 132.422C466.125 130.5 467.844 129.25 470.438 129.25C472.906 129.25 474.656 130.5 474.938 132.484H478.797C478.609 128.609 475.188 125.891 470.453 125.891C465.406 125.891 462.062 128.609 462.062 132.703C462.062 136.062 463.984 138.094 468.078 139.016L471 139.688C473.891 140.359 475.125 141.312 475.125 142.938C475.125 144.828 473.203 146.188 470.547 146.188C467.688 146.188 465.688 144.891 465.438 142.875H461.5ZM484.516 127.719V132.016H481.812V135.109H484.516V144.438C484.516 147.75 486.078 149.078 490 149.078C490.75 149.078 491.469 149 492.031 148.891V145.859C491.562 145.906 491.266 145.938 490.719 145.938C489.094 145.938 488.375 145.188 488.375 143.5V135.109H492.031V132.016H488.375V127.719H484.516ZM503.125 149.344C508.234 149.344 511.344 146 511.344 140.453C511.344 134.922 508.219 131.562 503.125 131.562C498.047 131.562 494.906 134.938 494.906 140.453C494.906 146 498 149.344 503.125 149.344ZM503.125 146.094C500.422 146.094 498.875 144.031 498.875 140.453C498.875 136.891 500.422 134.812 503.125 134.812C505.812 134.812 507.359 136.891 507.359 140.453C507.359 144.031 505.828 146.094 503.125 146.094ZM515.25 149H519.125V139.125C519.125 136.734 520.875 135.172 523.391 135.172C524.047 135.172 525.078 135.281 525.375 135.391V131.797C525.016 131.688 524.328 131.625 523.766 131.625C521.562 131.625 519.719 132.875 519.25 134.562H518.984V131.906H515.25V149ZM535.297 134.641C537.625 134.641 539.156 136.266 539.234 138.797H531.188C531.359 136.297 532.984 134.641 535.297 134.641ZM539.266 144.297C538.703 145.562 537.375 146.266 535.453 146.266C532.906 146.266 531.266 144.484 531.172 141.641V141.438H543.109V140.188C543.109 134.797 540.188 131.562 535.312 131.562C530.359 131.562 527.281 135.016 527.281 140.516C527.281 146.016 530.312 149.344 535.344 149.344C539.375 149.344 542.203 147.406 542.938 144.297H539.266Z" fill="white"/>
<path d="M218.844 177.977V182.289H221.617C222.341 182.289 222.898 182.104 223.289 181.734C223.685 181.359 223.883 180.826 223.883 180.133C223.883 179.456 223.677 178.927 223.266 178.547C222.854 178.167 222.284 177.977 221.555 177.977H218.844ZM218.844 183.539V188H217.438V176.727H221.742C222.831 176.727 223.701 177.034 224.352 177.648C225.008 178.258 225.336 179.07 225.336 180.086C225.336 180.872 225.135 181.552 224.734 182.125C224.333 182.698 223.779 183.096 223.07 183.32L225.68 188H224.031L221.617 183.539H218.844ZM230.844 180.617C230.172 180.617 229.62 180.844 229.188 181.297C228.755 181.75 228.513 182.349 228.461 183.094H233.102C233.086 182.349 232.872 181.75 232.461 181.297C232.049 180.844 231.51 180.617 230.844 180.617ZM233.062 185.82H234.406C234.203 186.549 233.789 187.12 233.164 187.531C232.544 187.943 231.776 188.148 230.859 188.148C229.693 188.148 228.768 187.758 228.086 186.977C227.404 186.19 227.062 185.13 227.062 183.797C227.062 182.469 227.406 181.409 228.094 180.617C228.781 179.826 229.703 179.43 230.859 179.43C231.995 179.43 232.888 179.807 233.539 180.562C234.19 181.318 234.516 182.352 234.516 183.664V184.18H228.461V184.242C228.497 185.076 228.732 185.737 229.164 186.227C229.602 186.716 230.177 186.961 230.891 186.961C231.979 186.961 232.703 186.581 233.062 185.82ZM239.219 186.969C239.911 186.969 240.484 186.768 240.938 186.367C241.396 185.966 241.625 185.464 241.625 184.859V184.086L239.359 184.234C238.724 184.276 238.258 184.409 237.961 184.633C237.664 184.857 237.516 185.182 237.516 185.609C237.516 186.031 237.674 186.365 237.992 186.609C238.31 186.849 238.719 186.969 239.219 186.969ZM238.969 188.148C238.141 188.148 237.458 187.922 236.922 187.469C236.391 187.01 236.125 186.401 236.125 185.641C236.125 184.891 236.391 184.302 236.922 183.875C237.453 183.448 238.211 183.206 239.195 183.148L241.625 183V182.234C241.625 181.714 241.464 181.315 241.141 181.039C240.818 180.763 240.344 180.625 239.719 180.625C239.214 180.625 238.794 180.716 238.461 180.898C238.128 181.081 237.914 181.339 237.82 181.672H236.461C236.549 181 236.896 180.458 237.5 180.047C238.109 179.635 238.865 179.43 239.766 179.43C240.786 179.43 241.576 179.677 242.133 180.172C242.69 180.667 242.969 181.354 242.969 182.234V188H241.688V186.758H241.562C241.292 187.206 240.932 187.549 240.484 187.789C240.036 188.029 239.531 188.148 238.969 188.148ZM252.422 182.156H251.062C250.948 181.714 250.701 181.352 250.32 181.07C249.945 180.784 249.469 180.641 248.891 180.641C248.135 180.641 247.534 180.922 247.086 181.484C246.643 182.047 246.422 182.805 246.422 183.758C246.422 184.727 246.646 185.5 247.094 186.078C247.542 186.651 248.141 186.938 248.891 186.938C249.458 186.938 249.93 186.81 250.305 186.555C250.685 186.299 250.938 185.935 251.062 185.461H252.422C252.297 186.258 251.924 186.906 251.305 187.406C250.685 187.901 249.883 188.148 248.898 188.148C247.716 188.148 246.776 187.753 246.078 186.961C245.38 186.164 245.031 185.096 245.031 183.758C245.031 182.445 245.38 181.396 246.078 180.609C246.776 179.823 247.714 179.43 248.891 179.43C249.875 179.43 250.677 179.688 251.297 180.203C251.922 180.719 252.297 181.37 252.422 182.156ZM254.484 188V176.234H255.828V180.906H255.953C256.167 180.432 256.492 180.068 256.93 179.812C257.372 179.557 257.911 179.43 258.547 179.43C259.443 179.43 260.151 179.706 260.672 180.258C261.193 180.805 261.453 181.568 261.453 182.547V188H260.109V182.875C260.109 181.385 259.461 180.641 258.164 180.641C257.424 180.641 256.849 180.857 256.438 181.289C256.031 181.716 255.828 182.292 255.828 183.016V188H254.484ZM274.719 186.984C274.026 187.76 273.081 188.148 271.883 188.148C270.685 188.148 269.737 187.76 269.039 186.984C268.346 186.203 268 185.138 268 183.789C268 182.435 268.346 181.37 269.039 180.594C269.732 179.818 270.68 179.43 271.883 179.43C273.086 179.43 274.034 179.818 274.727 180.594C275.419 181.37 275.766 182.435 275.766 183.789C275.766 185.138 275.417 186.203 274.719 186.984ZM270.039 186.117C270.471 186.664 271.086 186.938 271.883 186.938C272.68 186.938 273.294 186.664 273.727 186.117C274.159 185.565 274.375 184.789 274.375 183.789C274.375 182.789 274.159 182.016 273.727 181.469C273.294 180.917 272.68 180.641 271.883 180.641C271.086 180.641 270.471 180.917 270.039 181.469C269.607 182.016 269.391 182.789 269.391 183.789C269.391 184.789 269.607 185.565 270.039 186.117ZM284.688 179.578V188H283.406V186.68H283.281C283.068 187.154 282.74 187.518 282.297 187.773C281.854 188.023 281.312 188.148 280.672 188.148C279.734 188.148 279.021 187.88 278.531 187.344C278.042 186.807 277.797 186.036 277.797 185.031V179.578H279.141V184.703C279.141 185.469 279.292 186.031 279.594 186.391C279.896 186.745 280.38 186.922 281.047 186.922C281.781 186.922 282.346 186.716 282.742 186.305C283.143 185.888 283.344 185.307 283.344 184.562V179.578H284.688ZM287.781 177.398H289.125V179.578H291V180.703H289.125V185.469C289.125 185.964 289.224 186.323 289.422 186.547C289.62 186.771 289.938 186.883 290.375 186.883C290.568 186.883 290.776 186.872 291 186.852V187.984C290.703 188.036 290.44 188.062 290.211 188.062C289.341 188.062 288.719 187.888 288.344 187.539C287.969 187.19 287.781 186.615 287.781 185.812V180.703H286.422V179.578H287.781V177.398ZM298.109 177.398H299.453V179.578H301.328V180.703H299.453V185.469C299.453 185.964 299.552 186.323 299.75 186.547C299.948 186.771 300.266 186.883 300.703 186.883C300.896 186.883 301.104 186.872 301.328 186.852V187.984C301.031 188.036 300.768 188.062 300.539 188.062C299.669 188.062 299.047 187.888 298.672 187.539C298.297 187.19 298.109 186.615 298.109 185.812V180.703H296.75V179.578H298.109V177.398ZM309.531 186.984C308.839 187.76 307.893 188.148 306.695 188.148C305.497 188.148 304.549 187.76 303.852 186.984C303.159 186.203 302.812 185.138 302.812 183.789C302.812 182.435 303.159 181.37 303.852 180.594C304.544 179.818 305.492 179.43 306.695 179.43C307.898 179.43 308.846 179.818 309.539 180.594C310.232 181.37 310.578 182.435 310.578 183.789C310.578 185.138 310.229 186.203 309.531 186.984ZM304.852 186.117C305.284 186.664 305.898 186.938 306.695 186.938C307.492 186.938 308.107 186.664 308.539 186.117C308.971 185.565 309.188 184.789 309.188 183.789C309.188 182.789 308.971 182.016 308.539 181.469C308.107 180.917 307.492 180.641 306.695 180.641C305.898 180.641 305.284 180.917 304.852 181.469C304.419 182.016 304.203 182.789 304.203 183.789C304.203 184.789 304.419 185.565 304.852 186.117ZM317.203 188V179.578H318.484V180.906H318.609C318.802 180.438 319.102 180.076 319.508 179.82C319.914 179.56 320.398 179.43 320.961 179.43C321.513 179.43 321.987 179.562 322.383 179.828C322.784 180.094 323.086 180.453 323.289 180.906H323.414C323.643 180.453 323.987 180.094 324.445 179.828C324.904 179.562 325.419 179.43 325.992 179.43C326.852 179.43 327.513 179.669 327.977 180.148C328.44 180.622 328.672 181.299 328.672 182.18V188H327.328V182.492C327.328 181.258 326.737 180.641 325.555 180.641C324.982 180.641 324.513 180.828 324.148 181.203C323.784 181.578 323.602 182.039 323.602 182.586V188H322.258V182.281C322.258 181.781 322.096 181.383 321.773 181.086C321.456 180.789 321.031 180.641 320.5 180.641C319.953 180.641 319.49 180.849 319.109 181.266C318.734 181.682 318.547 182.188 318.547 182.781V188H317.203ZM331.156 188V179.578H332.5V188H331.156ZM332.492 177.594C332.31 177.776 332.089 177.867 331.828 177.867C331.568 177.867 331.346 177.776 331.164 177.594C330.982 177.406 330.891 177.185 330.891 176.93C330.891 176.674 330.982 176.456 331.164 176.273C331.346 176.086 331.568 175.992 331.828 175.992C332.089 175.992 332.31 176.086 332.492 176.273C332.674 176.456 332.766 176.674 332.766 176.93C332.766 177.185 332.674 177.406 332.492 177.594ZM335.141 188V176.234H336.484V188H335.141ZM339.172 188V176.234H340.516V188H339.172ZM343.156 188V179.578H344.5V188H343.156ZM344.492 177.594C344.31 177.776 344.089 177.867 343.828 177.867C343.568 177.867 343.346 177.776 343.164 177.594C342.982 177.406 342.891 177.185 342.891 176.93C342.891 176.674 342.982 176.456 343.164 176.273C343.346 176.086 343.568 175.992 343.828 175.992C344.089 175.992 344.31 176.086 344.492 176.273C344.674 176.456 344.766 176.674 344.766 176.93C344.766 177.185 344.674 177.406 344.492 177.594ZM353.359 186.984C352.667 187.76 351.721 188.148 350.523 188.148C349.326 188.148 348.378 187.76 347.68 186.984C346.987 186.203 346.641 185.138 346.641 183.789C346.641 182.435 346.987 181.37 347.68 180.594C348.372 179.818 349.32 179.43 350.523 179.43C351.727 179.43 352.674 179.818 353.367 180.594C354.06 181.37 354.406 182.435 354.406 183.789C354.406 185.138 354.057 186.203 353.359 186.984ZM348.68 186.117C349.112 186.664 349.727 186.938 350.523 186.938C351.32 186.938 351.935 186.664 352.367 186.117C352.799 185.565 353.016 184.789 353.016 183.789C353.016 182.789 352.799 182.016 352.367 181.469C351.935 180.917 351.32 180.641 350.523 180.641C349.727 180.641 349.112 180.917 348.68 181.469C348.247 182.016 348.031 182.789 348.031 183.789C348.031 184.789 348.247 185.565 348.68 186.117ZM356.516 188V179.578H357.797V180.906H357.922C358.37 179.922 359.214 179.43 360.453 179.43C361.396 179.43 362.122 179.701 362.633 180.242C363.143 180.779 363.398 181.547 363.398 182.547V188H362.055V182.875C362.055 182.12 361.891 181.56 361.562 181.195C361.24 180.826 360.742 180.641 360.07 180.641C359.393 180.641 358.854 180.854 358.453 181.281C358.057 181.703 357.859 182.281 357.859 183.016V188H356.516ZM365.664 181.883C365.664 181.185 365.964 180.602 366.562 180.133C367.161 179.664 367.909 179.43 368.805 179.43C369.685 179.43 370.411 179.633 370.984 180.039C371.557 180.445 371.888 180.995 371.977 181.688H370.648C370.555 181.344 370.346 181.073 370.023 180.875C369.706 180.672 369.297 180.57 368.797 180.57C368.292 180.57 367.867 180.688 367.523 180.922C367.185 181.156 367.016 181.458 367.016 181.828C367.016 182.115 367.133 182.354 367.367 182.547C367.607 182.734 367.977 182.888 368.477 183.008L369.773 183.32C370.576 183.513 371.167 183.792 371.547 184.156C371.932 184.521 372.125 185.003 372.125 185.602C372.125 186.346 371.805 186.958 371.164 187.438C370.523 187.911 369.719 188.148 368.75 188.148C367.812 188.148 367.044 187.94 366.445 187.523C365.846 187.107 365.51 186.549 365.438 185.852H366.82C366.935 186.216 367.161 186.503 367.5 186.711C367.839 186.914 368.271 187.016 368.797 187.016C369.365 187.016 369.831 186.893 370.195 186.648C370.56 186.404 370.742 186.089 370.742 185.703C370.742 185.13 370.297 184.734 369.406 184.516L367.961 184.164C367.164 183.971 366.581 183.695 366.211 183.336C365.846 182.971 365.664 182.487 365.664 181.883ZM385.047 186.984C384.354 187.76 383.409 188.148 382.211 188.148C381.013 188.148 380.065 187.76 379.367 186.984C378.674 186.203 378.328 185.138 378.328 183.789C378.328 182.435 378.674 181.37 379.367 180.594C380.06 179.818 381.008 179.43 382.211 179.43C383.414 179.43 384.362 179.818 385.055 180.594C385.747 181.37 386.094 182.435 386.094 183.789C386.094 185.138 385.745 186.203 385.047 186.984ZM380.367 186.117C380.799 186.664 381.414 186.938 382.211 186.938C383.008 186.938 383.622 186.664 384.055 186.117C384.487 185.565 384.703 184.789 384.703 183.789C384.703 182.789 384.487 182.016 384.055 181.469C383.622 180.917 383.008 180.641 382.211 180.641C381.414 180.641 380.799 180.917 380.367 181.469C379.935 182.016 379.719 182.789 379.719 183.789C379.719 184.789 379.935 185.565 380.367 186.117ZM388.766 188V180.703H387.367V179.578H388.766V178.641C388.766 176.984 389.581 176.156 391.211 176.156C391.549 176.156 391.852 176.182 392.117 176.234V177.328C391.982 177.302 391.771 177.289 391.484 177.289C391.005 177.289 390.656 177.404 390.438 177.633C390.219 177.862 390.109 178.211 390.109 178.68V179.578H392.039V180.703H390.109V188H388.766ZM398.32 181.883C398.32 181.185 398.62 180.602 399.219 180.133C399.818 179.664 400.565 179.43 401.461 179.43C402.341 179.43 403.068 179.633 403.641 180.039C404.214 180.445 404.544 180.995 404.633 181.688H403.305C403.211 181.344 403.003 181.073 402.68 180.875C402.362 180.672 401.953 180.57 401.453 180.57C400.948 180.57 400.523 180.688 400.18 180.922C399.841 181.156 399.672 181.458 399.672 181.828C399.672 182.115 399.789 182.354 400.023 182.547C400.263 182.734 400.633 182.888 401.133 183.008L402.43 183.32C403.232 183.513 403.823 183.792 404.203 184.156C404.589 184.521 404.781 185.003 404.781 185.602C404.781 186.346 404.461 186.958 403.82 187.438C403.18 187.911 402.375 188.148 401.406 188.148C400.469 188.148 399.701 187.94 399.102 187.523C398.503 187.107 398.167 186.549 398.094 185.852H399.477C399.591 186.216 399.818 186.503 400.156 186.711C400.495 186.914 400.927 187.016 401.453 187.016C402.021 187.016 402.487 186.893 402.852 186.648C403.216 186.404 403.398 186.089 403.398 185.703C403.398 185.13 402.953 184.734 402.062 184.516L400.617 184.164C399.82 183.971 399.237 183.695 398.867 183.336C398.503 182.971 398.32 182.487 398.32 181.883ZM407.375 177.398H408.719V179.578H410.594V180.703H408.719V185.469C408.719 185.964 408.818 186.323 409.016 186.547C409.214 186.771 409.531 186.883 409.969 186.883C410.161 186.883 410.37 186.872 410.594 186.852V187.984C410.297 188.036 410.034 188.062 409.805 188.062C408.935 188.062 408.312 187.888 407.938 187.539C407.562 187.19 407.375 186.615 407.375 185.812V180.703H406.016V179.578H407.375V177.398ZM419.438 179.578V188H418.156V186.68H418.031C417.818 187.154 417.49 187.518 417.047 187.773C416.604 188.023 416.062 188.148 415.422 188.148C414.484 188.148 413.771 187.88 413.281 187.344C412.792 186.807 412.547 186.036 412.547 185.031V179.578H413.891V184.703C413.891 185.469 414.042 186.031 414.344 186.391C414.646 186.745 415.13 186.922 415.797 186.922C416.531 186.922 417.096 186.716 417.492 186.305C417.893 185.888 418.094 185.307 418.094 184.562V179.578H419.438ZM425.086 188.148C424.008 188.148 423.148 187.753 422.508 186.961C421.867 186.169 421.547 185.112 421.547 183.789C421.547 182.471 421.867 181.417 422.508 180.625C423.154 179.828 424.013 179.43 425.086 179.43C425.674 179.43 426.201 179.562 426.664 179.828C427.133 180.089 427.487 180.448 427.727 180.906H427.844V176.234H429.188V188H427.906V186.656H427.781C427.516 187.125 427.146 187.492 426.672 187.758C426.198 188.018 425.669 188.148 425.086 188.148ZM425.398 180.641C424.633 180.641 424.031 180.922 423.594 181.484C423.156 182.042 422.938 182.81 422.938 183.789C422.938 184.773 423.154 185.544 423.586 186.102C424.023 186.659 424.628 186.938 425.398 186.938C426.164 186.938 426.768 186.656 427.211 186.094C427.654 185.531 427.875 184.763 427.875 183.789C427.875 182.826 427.651 182.06 427.203 181.492C426.76 180.924 426.159 180.641 425.398 180.641ZM435.156 180.617C434.484 180.617 433.932 180.844 433.5 181.297C433.068 181.75 432.826 182.349 432.773 183.094H437.414C437.398 182.349 437.185 181.75 436.773 181.297C436.362 180.844 435.823 180.617 435.156 180.617ZM437.375 185.82H438.719C438.516 186.549 438.102 187.12 437.477 187.531C436.857 187.943 436.089 188.148 435.172 188.148C434.005 188.148 433.081 187.758 432.398 186.977C431.716 186.19 431.375 185.13 431.375 183.797C431.375 182.469 431.719 181.409 432.406 180.617C433.094 179.826 434.016 179.43 435.172 179.43C436.307 179.43 437.201 179.807 437.852 180.562C438.503 181.318 438.828 182.352 438.828 183.664V184.18H432.773V184.242C432.81 185.076 433.044 185.737 433.477 186.227C433.914 186.716 434.49 186.961 435.203 186.961C436.292 186.961 437.016 186.581 437.375 185.82ZM440.938 188V179.578H442.219V180.906H442.344C442.792 179.922 443.635 179.43 444.875 179.43C445.818 179.43 446.544 179.701 447.055 180.242C447.565 180.779 447.82 181.547 447.82 182.547V188H446.477V182.875C446.477 182.12 446.312 181.56 445.984 181.195C445.661 180.826 445.164 180.641 444.492 180.641C443.815 180.641 443.276 180.854 442.875 181.281C442.479 181.703 442.281 182.281 442.281 183.016V188H440.938ZM450.844 177.398H452.188V179.578H454.062V180.703H452.188V185.469C452.188 185.964 452.286 186.323 452.484 186.547C452.682 186.771 453 186.883 453.438 186.883C453.63 186.883 453.839 186.872 454.062 186.852V187.984C453.766 188.036 453.503 188.062 453.273 188.062C452.404 188.062 451.781 187.888 451.406 187.539C451.031 187.19 450.844 186.615 450.844 185.812V180.703H449.484V179.578H450.844V177.398ZM455.742 181.883C455.742 181.185 456.042 180.602 456.641 180.133C457.24 179.664 457.987 179.43 458.883 179.43C459.763 179.43 460.49 179.633 461.062 180.039C461.635 180.445 461.966 180.995 462.055 181.688H460.727C460.633 181.344 460.424 181.073 460.102 180.875C459.784 180.672 459.375 180.57 458.875 180.57C458.37 180.57 457.945 180.688 457.602 180.922C457.263 181.156 457.094 181.458 457.094 181.828C457.094 182.115 457.211 182.354 457.445 182.547C457.685 182.734 458.055 182.888 458.555 183.008L459.852 183.32C460.654 183.513 461.245 183.792 461.625 184.156C462.01 184.521 462.203 185.003 462.203 185.602C462.203 186.346 461.883 186.958 461.242 187.438C460.602 187.911 459.797 188.148 458.828 188.148C457.891 188.148 457.122 187.94 456.523 187.523C455.924 187.107 455.589 186.549 455.516 185.852H456.898C457.013 186.216 457.24 186.503 457.578 186.711C457.917 186.914 458.349 187.016 458.875 187.016C459.443 187.016 459.909 186.893 460.273 186.648C460.638 186.404 460.82 186.089 460.82 185.703C460.82 185.13 460.375 184.734 459.484 184.516L458.039 184.164C457.242 183.971 456.659 183.695 456.289 183.336C455.924 182.971 455.742 182.487 455.742 181.883ZM471.422 186.969C472.115 186.969 472.688 186.768 473.141 186.367C473.599 185.966 473.828 185.464 473.828 184.859V184.086L471.562 184.234C470.927 184.276 470.461 184.409 470.164 184.633C469.867 184.857 469.719 185.182 469.719 185.609C469.719 186.031 469.878 186.365 470.195 186.609C470.513 186.849 470.922 186.969 471.422 186.969ZM471.172 188.148C470.344 188.148 469.661 187.922 469.125 187.469C468.594 187.01 468.328 186.401 468.328 185.641C468.328 184.891 468.594 184.302 469.125 183.875C469.656 183.448 470.414 183.206 471.398 183.148L473.828 183V182.234C473.828 181.714 473.667 181.315 473.344 181.039C473.021 180.763 472.547 180.625 471.922 180.625C471.417 180.625 470.997 180.716 470.664 180.898C470.331 181.081 470.117 181.339 470.023 181.672H468.664C468.753 181 469.099 180.458 469.703 180.047C470.312 179.635 471.068 179.43 471.969 179.43C472.99 179.43 473.779 179.677 474.336 180.172C474.893 180.667 475.172 181.354 475.172 182.234V188H473.891V186.758H473.766C473.495 187.206 473.135 187.549 472.688 187.789C472.24 188.029 471.734 188.148 471.172 188.148ZM484.625 182.156H483.266C483.151 181.714 482.904 181.352 482.523 181.07C482.148 180.784 481.672 180.641 481.094 180.641C480.339 180.641 479.737 180.922 479.289 181.484C478.846 182.047 478.625 182.805 478.625 183.758C478.625 184.727 478.849 185.5 479.297 186.078C479.745 186.651 480.344 186.938 481.094 186.938C481.661 186.938 482.133 186.81 482.508 186.555C482.888 186.299 483.141 185.935 483.266 185.461H484.625C484.5 186.258 484.128 186.906 483.508 187.406C482.888 187.901 482.086 188.148 481.102 188.148C479.919 188.148 478.979 187.753 478.281 186.961C477.583 186.164 477.234 185.096 477.234 183.758C477.234 182.445 477.583 181.396 478.281 180.609C478.979 179.823 479.917 179.43 481.094 179.43C482.078 179.43 482.88 179.688 483.5 180.203C484.125 180.719 484.5 181.37 484.625 182.156ZM486.609 188V179.578H487.891V180.828H488.016C488.141 180.417 488.422 180.081 488.859 179.82C489.297 179.56 489.794 179.43 490.352 179.43C490.607 179.43 490.831 179.443 491.023 179.469V180.812C490.841 180.76 490.555 180.734 490.164 180.734C489.523 180.734 488.995 180.927 488.578 181.312C488.161 181.698 487.953 182.188 487.953 182.781V188H486.609ZM498.766 186.984C498.073 187.76 497.128 188.148 495.93 188.148C494.732 188.148 493.784 187.76 493.086 186.984C492.393 186.203 492.047 185.138 492.047 183.789C492.047 182.435 492.393 181.37 493.086 180.594C493.779 179.818 494.727 179.43 495.93 179.43C497.133 179.43 498.081 179.818 498.773 180.594C499.466 181.37 499.812 182.435 499.812 183.789C499.812 185.138 499.464 186.203 498.766 186.984ZM494.086 186.117C494.518 186.664 495.133 186.938 495.93 186.938C496.727 186.938 497.341 186.664 497.773 186.117C498.206 185.565 498.422 184.789 498.422 183.789C498.422 182.789 498.206 182.016 497.773 181.469C497.341 180.917 496.727 180.641 495.93 180.641C495.133 180.641 494.518 180.917 494.086 181.469C493.654 182.016 493.438 182.789 493.438 183.789C493.438 184.789 493.654 185.565 494.086 186.117ZM501.727 181.883C501.727 181.185 502.026 180.602 502.625 180.133C503.224 179.664 503.971 179.43 504.867 179.43C505.747 179.43 506.474 179.633 507.047 180.039C507.62 180.445 507.951 180.995 508.039 181.688H506.711C506.617 181.344 506.409 181.073 506.086 180.875C505.768 180.672 505.359 180.57 504.859 180.57C504.354 180.57 503.93 180.688 503.586 180.922C503.247 181.156 503.078 181.458 503.078 181.828C503.078 182.115 503.195 182.354 503.43 182.547C503.669 182.734 504.039 182.888 504.539 183.008L505.836 183.32C506.638 183.513 507.229 183.792 507.609 184.156C507.995 184.521 508.188 185.003 508.188 185.602C508.188 186.346 507.867 186.958 507.227 187.438C506.586 187.911 505.781 188.148 504.812 188.148C503.875 188.148 503.107 187.94 502.508 187.523C501.909 187.107 501.573 186.549 501.5 185.852H502.883C502.997 186.216 503.224 186.503 503.562 186.711C503.901 186.914 504.333 187.016 504.859 187.016C505.427 187.016 505.893 186.893 506.258 186.648C506.622 186.404 506.805 186.089 506.805 185.703C506.805 185.13 506.359 184.734 505.469 184.516L504.023 184.164C503.227 183.971 502.643 183.695 502.273 183.336C501.909 182.971 501.727 182.487 501.727 181.883ZM509.945 181.883C509.945 181.185 510.245 180.602 510.844 180.133C511.443 179.664 512.19 179.43 513.086 179.43C513.966 179.43 514.693 179.633 515.266 180.039C515.839 180.445 516.169 180.995 516.258 181.688H514.93C514.836 181.344 514.628 181.073 514.305 180.875C513.987 180.672 513.578 180.57 513.078 180.57C512.573 180.57 512.148 180.688 511.805 180.922C511.466 181.156 511.297 181.458 511.297 181.828C511.297 182.115 511.414 182.354 511.648 182.547C511.888 182.734 512.258 182.888 512.758 183.008L514.055 183.32C514.857 183.513 515.448 183.792 515.828 184.156C516.214 184.521 516.406 185.003 516.406 185.602C516.406 186.346 516.086 186.958 515.445 187.438C514.805 187.911 514 188.148 513.031 188.148C512.094 188.148 511.326 187.94 510.727 187.523C510.128 187.107 509.792 186.549 509.719 185.852H511.102C511.216 186.216 511.443 186.503 511.781 186.711C512.12 186.914 512.552 187.016 513.078 187.016C513.646 187.016 514.112 186.893 514.477 186.648C514.841 186.404 515.023 186.089 515.023 185.703C515.023 185.13 514.578 184.734 513.688 184.516L512.242 184.164C511.445 183.971 510.862 183.695 510.492 183.336C510.128 182.971 509.945 182.487 509.945 181.883ZM524.609 188H523.203V176.727H524.609V188ZM527.312 188V179.578H528.594V180.906H528.719C529.167 179.922 530.01 179.43 531.25 179.43C532.193 179.43 532.919 179.701 533.43 180.242C533.94 180.779 534.195 181.547 534.195 182.547V188H532.852V182.875C532.852 182.12 532.688 181.56 532.359 181.195C532.036 180.826 531.539 180.641 530.867 180.641C530.19 180.641 529.651 180.854 529.25 181.281C528.854 181.703 528.656 182.281 528.656 183.016V188H527.312ZM539.773 188.148C538.695 188.148 537.836 187.753 537.195 186.961C536.555 186.169 536.234 185.112 536.234 183.789C536.234 182.471 536.555 181.417 537.195 180.625C537.841 179.828 538.701 179.43 539.773 179.43C540.362 179.43 540.888 179.562 541.352 179.828C541.82 180.089 542.174 180.448 542.414 180.906H542.531V176.234H543.875V188H542.594V186.656H542.469C542.203 187.125 541.833 187.492 541.359 187.758C540.885 188.018 540.357 188.148 539.773 188.148ZM540.086 180.641C539.32 180.641 538.719 180.922 538.281 181.484C537.844 182.042 537.625 182.81 537.625 183.789C537.625 184.773 537.841 185.544 538.273 186.102C538.711 186.659 539.315 186.938 540.086 186.938C540.852 186.938 541.456 186.656 541.898 186.094C542.341 185.531 542.562 184.763 542.562 183.789C542.562 182.826 542.339 182.06 541.891 181.492C541.448 180.924 540.846 180.641 540.086 180.641ZM546.516 188V179.578H547.859V188H546.516ZM547.852 177.594C547.669 177.776 547.448 177.867 547.188 177.867C546.927 177.867 546.706 177.776 546.523 177.594C546.341 177.406 546.25 177.185 546.25 176.93C546.25 176.674 546.341 176.456 546.523 176.273C546.706 176.086 546.927 175.992 547.188 175.992C547.448 175.992 547.669 176.086 547.852 176.273C548.034 176.456 548.125 176.674 548.125 176.93C548.125 177.185 548.034 177.406 547.852 177.594ZM553.016 186.969C553.708 186.969 554.281 186.768 554.734 186.367C555.193 185.966 555.422 185.464 555.422 184.859V184.086L553.156 184.234C552.521 184.276 552.055 184.409 551.758 184.633C551.461 184.857 551.312 185.182 551.312 185.609C551.312 186.031 551.471 186.365 551.789 186.609C552.107 186.849 552.516 186.969 553.016 186.969ZM552.766 188.148C551.938 188.148 551.255 187.922 550.719 187.469C550.188 187.01 549.922 186.401 549.922 185.641C549.922 184.891 550.188 184.302 550.719 183.875C551.25 183.448 552.008 183.206 552.992 183.148L555.422 183V182.234C555.422 181.714 555.26 181.315 554.938 181.039C554.615 180.763 554.141 180.625 553.516 180.625C553.01 180.625 552.591 180.716 552.258 180.898C551.924 181.081 551.711 181.339 551.617 181.672H550.258C550.346 181 550.693 180.458 551.297 180.047C551.906 179.635 552.661 179.43 553.562 179.43C554.583 179.43 555.372 179.677 555.93 180.172C556.487 180.667 556.766 181.354 556.766 182.234V188H555.484V186.758H555.359C555.089 187.206 554.729 187.549 554.281 187.789C553.833 188.029 553.328 188.148 552.766 188.148ZM567.953 188.148C567.37 188.148 566.839 188.018 566.359 187.758C565.885 187.492 565.516 187.125 565.25 186.656H565.125V188H563.844V176.234H565.188V180.906H565.312C565.542 180.453 565.893 180.094 566.367 179.828C566.846 179.562 567.375 179.43 567.953 179.43C569.026 179.43 569.883 179.826 570.523 180.617C571.164 181.409 571.484 182.466 571.484 183.789C571.484 185.107 571.161 186.164 570.516 186.961C569.875 187.753 569.021 188.148 567.953 188.148ZM567.641 180.641C566.875 180.641 566.268 180.922 565.82 181.484C565.378 182.047 565.156 182.815 565.156 183.789C565.156 184.763 565.378 185.531 565.82 186.094C566.268 186.656 566.875 186.938 567.641 186.938C568.411 186.938 569.013 186.659 569.445 186.102C569.878 185.544 570.094 184.773 570.094 183.789C570.094 182.805 569.878 182.034 569.445 181.477C569.013 180.919 568.411 180.641 567.641 180.641ZM574 191.047C573.786 191.047 573.586 191.031 573.398 191V189.852C573.534 189.878 573.721 189.891 573.961 189.891C574.352 189.891 574.661 189.786 574.891 189.578C575.125 189.37 575.331 189.013 575.508 188.508L575.664 188.008L572.547 179.578H574L576.312 186.508H576.438L578.742 179.578H580.172L576.883 188.516C576.523 189.49 576.141 190.154 575.734 190.508C575.328 190.867 574.75 191.047 574 191.047ZM586.289 181.883C586.289 181.185 586.589 180.602 587.188 180.133C587.786 179.664 588.534 179.43 589.43 179.43C590.31 179.43 591.036 179.633 591.609 180.039C592.182 180.445 592.513 180.995 592.602 181.688H591.273C591.18 181.344 590.971 181.073 590.648 180.875C590.331 180.672 589.922 180.57 589.422 180.57C588.917 180.57 588.492 180.688 588.148 180.922C587.81 181.156 587.641 181.458 587.641 181.828C587.641 182.115 587.758 182.354 587.992 182.547C588.232 182.734 588.602 182.888 589.102 183.008L590.398 183.32C591.201 183.513 591.792 183.792 592.172 184.156C592.557 184.521 592.75 185.003 592.75 185.602C592.75 186.346 592.43 186.958 591.789 187.438C591.148 187.911 590.344 188.148 589.375 188.148C588.438 188.148 587.669 187.94 587.07 187.523C586.471 187.107 586.135 186.549 586.062 185.852H587.445C587.56 186.216 587.786 186.503 588.125 186.711C588.464 186.914 588.896 187.016 589.422 187.016C589.99 187.016 590.456 186.893 590.82 186.648C591.185 186.404 591.367 186.089 591.367 185.703C591.367 185.13 590.922 184.734 590.031 184.516L588.586 184.164C587.789 183.971 587.206 183.695 586.836 183.336C586.471 182.971 586.289 182.487 586.289 181.883ZM598.219 180.617C597.547 180.617 596.995 180.844 596.562 181.297C596.13 181.75 595.888 182.349 595.836 183.094H600.477C600.461 182.349 600.247 181.75 599.836 181.297C599.424 180.844 598.885 180.617 598.219 180.617ZM600.438 185.82H601.781C601.578 186.549 601.164 187.12 600.539 187.531C599.919 187.943 599.151 188.148 598.234 188.148C597.068 188.148 596.143 187.758 595.461 186.977C594.779 186.19 594.438 185.13 594.438 183.797C594.438 182.469 594.781 181.409 595.469 180.617C596.156 179.826 597.078 179.43 598.234 179.43C599.37 179.43 600.263 179.807 600.914 180.562C601.565 181.318 601.891 182.352 601.891 183.664V184.18H595.836V184.242C595.872 185.076 596.107 185.737 596.539 186.227C596.977 186.716 597.552 186.961 598.266 186.961C599.354 186.961 600.078 186.581 600.438 185.82ZM604.078 188V176.234H605.422V188H604.078ZM608.109 188V176.234H609.453V188H608.109ZM612.094 188V179.578H613.438V188H612.094ZM613.43 177.594C613.247 177.776 613.026 177.867 612.766 177.867C612.505 177.867 612.284 177.776 612.102 177.594C611.919 177.406 611.828 177.185 611.828 176.93C611.828 176.674 611.919 176.456 612.102 176.273C612.284 176.086 612.505 175.992 612.766 175.992C613.026 175.992 613.247 176.086 613.43 176.273C613.612 176.456 613.703 176.674 613.703 176.93C613.703 177.185 613.612 177.406 613.43 177.594ZM616 188V179.578H617.281V180.906H617.406C617.854 179.922 618.698 179.43 619.938 179.43C620.88 179.43 621.607 179.701 622.117 180.242C622.628 180.779 622.883 181.547 622.883 182.547V188H621.539V182.875C621.539 182.12 621.375 181.56 621.047 181.195C620.724 180.826 620.227 180.641 619.555 180.641C618.878 180.641 618.339 180.854 617.938 181.281C617.542 181.703 617.344 182.281 617.344 183.016V188H616ZM628.75 186.688C629.526 186.688 630.135 186.414 630.578 185.867C631.026 185.32 631.25 184.586 631.25 183.664C631.25 182.742 631.026 182.008 630.578 181.461C630.13 180.914 629.521 180.641 628.75 180.641C627.979 180.641 627.38 180.911 626.953 181.453C626.526 181.995 626.312 182.732 626.312 183.664C626.312 184.596 626.526 185.333 626.953 185.875C627.38 186.417 627.979 186.688 628.75 186.688ZM628.812 191.234C627.807 191.234 626.992 191.026 626.367 190.609C625.747 190.193 625.385 189.633 625.281 188.93H626.703C626.776 189.279 626.997 189.555 627.367 189.758C627.737 189.961 628.219 190.062 628.812 190.062C629.568 190.062 630.156 189.885 630.578 189.531C631.005 189.182 631.219 188.698 631.219 188.078V186.422H631.094C630.828 186.885 630.466 187.245 630.008 187.5C629.549 187.75 629.031 187.875 628.453 187.875C627.37 187.875 626.51 187.492 625.875 186.727C625.24 185.956 624.922 184.935 624.922 183.664C624.922 182.393 625.242 181.37 625.883 180.594C626.523 179.818 627.38 179.43 628.453 179.43C629.042 179.43 629.578 179.565 630.062 179.836C630.547 180.102 630.911 180.461 631.156 180.914H631.281V179.578H632.562V188.148C632.562 189.091 632.224 189.841 631.547 190.398C630.87 190.956 629.958 191.234 628.812 191.234ZM640.328 191.047C640.115 191.047 639.914 191.031 639.727 191V189.852C639.862 189.878 640.049 189.891 640.289 189.891C640.68 189.891 640.99 189.786 641.219 189.578C641.453 189.37 641.659 189.013 641.836 188.508L641.992 188.008L638.875 179.578H640.328L642.641 186.508H642.766L645.07 179.578H646.5L643.211 188.516C642.852 189.49 642.469 190.154 642.062 190.508C641.656 190.867 641.078 191.047 640.328 191.047ZM654.281 186.984C653.589 187.76 652.643 188.148 651.445 188.148C650.247 188.148 649.299 187.76 648.602 186.984C647.909 186.203 647.562 185.138 647.562 183.789C647.562 182.435 647.909 181.37 648.602 180.594C649.294 179.818 650.242 179.43 651.445 179.43C652.648 179.43 653.596 179.818 654.289 180.594C654.982 181.37 655.328 182.435 655.328 183.789C655.328 185.138 654.979 186.203 654.281 186.984ZM649.602 186.117C650.034 186.664 650.648 186.938 651.445 186.938C652.242 186.938 652.857 186.664 653.289 186.117C653.721 185.565 653.938 184.789 653.938 183.789C653.938 182.789 653.721 182.016 653.289 181.469C652.857 180.917 652.242 180.641 651.445 180.641C650.648 180.641 650.034 180.917 649.602 181.469C649.169 182.016 648.953 182.789 648.953 183.789C648.953 184.789 649.169 185.565 649.602 186.117ZM664.25 179.578V188H662.969V186.68H662.844C662.63 187.154 662.302 187.518 661.859 187.773C661.417 188.023 660.875 188.148 660.234 188.148C659.297 188.148 658.583 187.88 658.094 187.344C657.604 186.807 657.359 186.036 657.359 185.031V179.578H658.703V184.703C658.703 185.469 658.854 186.031 659.156 186.391C659.458 186.745 659.943 186.922 660.609 186.922C661.344 186.922 661.909 186.716 662.305 186.305C662.706 185.888 662.906 185.307 662.906 184.562V179.578H664.25ZM666.781 188V179.578H668.062V180.828H668.188C668.312 180.417 668.594 180.081 669.031 179.82C669.469 179.56 669.966 179.43 670.523 179.43C670.779 179.43 671.003 179.443 671.195 179.469V180.812C671.013 180.76 670.727 180.734 670.336 180.734C669.695 180.734 669.167 180.927 668.75 181.312C668.333 181.698 668.125 182.188 668.125 182.781V188H666.781ZM224.234 201.156H222.875C222.76 200.714 222.513 200.352 222.133 200.07C221.758 199.784 221.281 199.641 220.703 199.641C219.948 199.641 219.346 199.922 218.898 200.484C218.456 201.047 218.234 201.805 218.234 202.758C218.234 203.727 218.458 204.5 218.906 205.078C219.354 205.651 219.953 205.938 220.703 205.938C221.271 205.938 221.742 205.81 222.117 205.555C222.497 205.299 222.75 204.935 222.875 204.461H224.234C224.109 205.258 223.737 205.906 223.117 206.406C222.497 206.901 221.695 207.148 220.711 207.148C219.529 207.148 218.589 206.753 217.891 205.961C217.193 205.164 216.844 204.096 216.844 202.758C216.844 201.445 217.193 200.396 217.891 199.609C218.589 198.823 219.526 198.43 220.703 198.43C221.688 198.43 222.49 198.688 223.109 199.203C223.734 199.719 224.109 200.37 224.234 201.156ZM232.516 205.984C231.823 206.76 230.878 207.148 229.68 207.148C228.482 207.148 227.534 206.76 226.836 205.984C226.143 205.203 225.797 204.138 225.797 202.789C225.797 201.435 226.143 200.37 226.836 199.594C227.529 198.818 228.477 198.43 229.68 198.43C230.883 198.43 231.831 198.818 232.523 199.594C233.216 200.37 233.562 201.435 233.562 202.789C233.562 204.138 233.214 205.203 232.516 205.984ZM227.836 205.117C228.268 205.664 228.883 205.938 229.68 205.938C230.477 205.938 231.091 205.664 231.523 205.117C231.956 204.565 232.172 203.789 232.172 202.789C232.172 201.789 231.956 201.016 231.523 200.469C231.091 199.917 230.477 199.641 229.68 199.641C228.883 199.641 228.268 199.917 227.836 200.469C227.404 201.016 227.188 201.789 227.188 202.789C227.188 203.789 227.404 204.565 227.836 205.117ZM242.484 198.578V207H241.203V205.68H241.078C240.865 206.154 240.536 206.518 240.094 206.773C239.651 207.023 239.109 207.148 238.469 207.148C237.531 207.148 236.818 206.88 236.328 206.344C235.839 205.807 235.594 205.036 235.594 204.031V198.578H236.938V203.703C236.938 204.469 237.089 205.031 237.391 205.391C237.693 205.745 238.177 205.922 238.844 205.922C239.578 205.922 240.143 205.716 240.539 205.305C240.94 204.888 241.141 204.307 241.141 203.562V198.578H242.484ZM245.016 207V198.578H246.297V199.828H246.422C246.547 199.417 246.828 199.081 247.266 198.82C247.703 198.56 248.201 198.43 248.758 198.43C249.013 198.43 249.237 198.443 249.43 198.469V199.812C249.247 199.76 248.961 199.734 248.57 199.734C247.93 199.734 247.401 199.927 246.984 200.312C246.568 200.698 246.359 201.188 246.359 201.781V207H245.016ZM250.758 200.883C250.758 200.185 251.057 199.602 251.656 199.133C252.255 198.664 253.003 198.43 253.898 198.43C254.779 198.43 255.505 198.633 256.078 199.039C256.651 199.445 256.982 199.995 257.07 200.688H255.742C255.648 200.344 255.44 200.073 255.117 199.875C254.799 199.672 254.391 199.57 253.891 199.57C253.385 199.57 252.961 199.688 252.617 199.922C252.279 200.156 252.109 200.458 252.109 200.828C252.109 201.115 252.227 201.354 252.461 201.547C252.701 201.734 253.07 201.888 253.57 202.008L254.867 202.32C255.669 202.513 256.26 202.792 256.641 203.156C257.026 203.521 257.219 204.003 257.219 204.602C257.219 205.346 256.898 205.958 256.258 206.438C255.617 206.911 254.812 207.148 253.844 207.148C252.906 207.148 252.138 206.94 251.539 206.523C250.94 206.107 250.604 205.549 250.531 204.852H251.914C252.029 205.216 252.255 205.503 252.594 205.711C252.932 205.914 253.365 206.016 253.891 206.016C254.458 206.016 254.924 205.893 255.289 205.648C255.654 205.404 255.836 205.089 255.836 204.703C255.836 204.13 255.391 203.734 254.5 203.516L253.055 203.164C252.258 202.971 251.674 202.695 251.305 202.336C250.94 201.971 250.758 201.487 250.758 200.883ZM262.688 199.617C262.016 199.617 261.464 199.844 261.031 200.297C260.599 200.75 260.357 201.349 260.305 202.094H264.945C264.93 201.349 264.716 200.75 264.305 200.297C263.893 199.844 263.354 199.617 262.688 199.617ZM264.906 204.82H266.25C266.047 205.549 265.633 206.12 265.008 206.531C264.388 206.943 263.62 207.148 262.703 207.148C261.536 207.148 260.612 206.758 259.93 205.977C259.247 205.19 258.906 204.13 258.906 202.797C258.906 201.469 259.25 200.409 259.938 199.617C260.625 198.826 261.547 198.43 262.703 198.43C263.839 198.43 264.732 198.807 265.383 199.562C266.034 200.318 266.359 201.352 266.359 202.664V203.18H260.305V203.242C260.341 204.076 260.576 204.737 261.008 205.227C261.445 205.716 262.021 205.961 262.734 205.961C263.823 205.961 264.547 205.581 264.906 204.82ZM268.273 200.883C268.273 200.185 268.573 199.602 269.172 199.133C269.771 198.664 270.518 198.43 271.414 198.43C272.294 198.43 273.021 198.633 273.594 199.039C274.167 199.445 274.497 199.995 274.586 200.688H273.258C273.164 200.344 272.956 200.073 272.633 199.875C272.315 199.672 271.906 199.57 271.406 199.57C270.901 199.57 270.477 199.688 270.133 199.922C269.794 200.156 269.625 200.458 269.625 200.828C269.625 201.115 269.742 201.354 269.977 201.547C270.216 201.734 270.586 201.888 271.086 202.008L272.383 202.32C273.185 202.513 273.776 202.792 274.156 203.156C274.542 203.521 274.734 204.003 274.734 204.602C274.734 205.346 274.414 205.958 273.773 206.438C273.133 206.911 272.328 207.148 271.359 207.148C270.422 207.148 269.654 206.94 269.055 206.523C268.456 206.107 268.12 205.549 268.047 204.852H269.43C269.544 205.216 269.771 205.503 270.109 205.711C270.448 205.914 270.88 206.016 271.406 206.016C271.974 206.016 272.44 205.893 272.805 205.648C273.169 205.404 273.352 205.089 273.352 204.703C273.352 204.13 272.906 203.734 272.016 203.516L270.57 203.164C269.773 202.971 269.19 202.695 268.82 202.336C268.456 201.971 268.273 201.487 268.273 200.883ZM281.391 207V198.578H282.734V207H281.391ZM282.727 196.594C282.544 196.776 282.323 196.867 282.062 196.867C281.802 196.867 281.581 196.776 281.398 196.594C281.216 196.406 281.125 196.185 281.125 195.93C281.125 195.674 281.216 195.456 281.398 195.273C281.581 195.086 281.802 194.992 282.062 194.992C282.323 194.992 282.544 195.086 282.727 195.273C282.909 195.456 283 195.674 283 195.93C283 196.185 282.909 196.406 282.727 196.594ZM285.297 207V198.578H286.578V199.906H286.703C287.151 198.922 287.995 198.43 289.234 198.43C290.177 198.43 290.904 198.701 291.414 199.242C291.924 199.779 292.18 200.547 292.18 201.547V207H290.836V201.875C290.836 201.12 290.672 200.56 290.344 200.195C290.021 199.826 289.523 199.641 288.852 199.641C288.174 199.641 287.635 199.854 287.234 200.281C286.839 200.703 286.641 201.281 286.641 202.016V207H285.297ZM299.875 210.047C299.661 210.047 299.461 210.031 299.273 210V208.852C299.409 208.878 299.596 208.891 299.836 208.891C300.227 208.891 300.536 208.786 300.766 208.578C301 208.37 301.206 208.013 301.383 207.508L301.539 207.008L298.422 198.578H299.875L302.188 205.508H302.312L304.617 198.578H306.047L302.758 207.516C302.398 208.49 302.016 209.154 301.609 209.508C301.203 209.867 300.625 210.047 299.875 210.047ZM313.828 205.984C313.135 206.76 312.19 207.148 310.992 207.148C309.794 207.148 308.846 206.76 308.148 205.984C307.456 205.203 307.109 204.138 307.109 202.789C307.109 201.435 307.456 200.37 308.148 199.594C308.841 198.818 309.789 198.43 310.992 198.43C312.195 198.43 313.143 198.818 313.836 199.594C314.529 200.37 314.875 201.435 314.875 202.789C314.875 204.138 314.526 205.203 313.828 205.984ZM309.148 205.117C309.581 205.664 310.195 205.938 310.992 205.938C311.789 205.938 312.404 205.664 312.836 205.117C313.268 204.565 313.484 203.789 313.484 202.789C313.484 201.789 313.268 201.016 312.836 200.469C312.404 199.917 311.789 199.641 310.992 199.641C310.195 199.641 309.581 199.917 309.148 200.469C308.716 201.016 308.5 201.789 308.5 202.789C308.5 203.789 308.716 204.565 309.148 205.117ZM323.797 198.578V207H322.516V205.68H322.391C322.177 206.154 321.849 206.518 321.406 206.773C320.964 207.023 320.422 207.148 319.781 207.148C318.844 207.148 318.13 206.88 317.641 206.344C317.151 205.807 316.906 205.036 316.906 204.031V198.578H318.25V203.703C318.25 204.469 318.401 205.031 318.703 205.391C319.005 205.745 319.49 205.922 320.156 205.922C320.891 205.922 321.456 205.716 321.852 205.305C322.253 204.888 322.453 204.307 322.453 203.562V198.578H323.797ZM326.328 207V198.578H327.609V199.828H327.734C327.859 199.417 328.141 199.081 328.578 198.82C329.016 198.56 329.513 198.43 330.07 198.43C330.326 198.43 330.549 198.443 330.742 198.469V199.812C330.56 199.76 330.273 199.734 329.883 199.734C329.242 199.734 328.714 199.927 328.297 200.312C327.88 200.698 327.672 201.188 327.672 201.781V207H326.328ZM343.234 205.984C342.542 206.76 341.596 207.148 340.398 207.148C339.201 207.148 338.253 206.76 337.555 205.984C336.862 205.203 336.516 204.138 336.516 202.789C336.516 201.435 336.862 200.37 337.555 199.594C338.247 198.818 339.195 198.43 340.398 198.43C341.602 198.43 342.549 198.818 343.242 199.594C343.935 200.37 344.281 201.435 344.281 202.789C344.281 204.138 343.932 205.203 343.234 205.984ZM338.555 205.117C338.987 205.664 339.602 205.938 340.398 205.938C341.195 205.938 341.81 205.664 342.242 205.117C342.674 204.565 342.891 203.789 342.891 202.789C342.891 201.789 342.674 201.016 342.242 200.469C341.81 199.917 341.195 199.641 340.398 199.641C339.602 199.641 338.987 199.917 338.555 200.469C338.122 201.016 337.906 201.789 337.906 202.789C337.906 203.789 338.122 204.565 338.555 205.117ZM356.672 198.578L354.312 207H352.945L351.062 200.484H350.938L349.062 207H347.703L345.344 198.578H346.703L348.359 205.312H348.484L350.367 198.578H351.656L353.539 205.312H353.664L355.32 198.578H356.672ZM358.469 207V198.578H359.75V199.906H359.875C360.323 198.922 361.167 198.43 362.406 198.43C363.349 198.43 364.076 198.701 364.586 199.242C365.096 199.779 365.352 200.547 365.352 201.547V207H364.008V201.875C364.008 201.12 363.844 200.56 363.516 200.195C363.193 199.826 362.695 199.641 362.023 199.641C361.346 199.641 360.807 199.854 360.406 200.281C360.01 200.703 359.812 201.281 359.812 202.016V207H358.469ZM374.922 205.969C375.615 205.969 376.188 205.768 376.641 205.367C377.099 204.966 377.328 204.464 377.328 203.859V203.086L375.062 203.234C374.427 203.276 373.961 203.409 373.664 203.633C373.367 203.857 373.219 204.182 373.219 204.609C373.219 205.031 373.378 205.365 373.695 205.609C374.013 205.849 374.422 205.969 374.922 205.969ZM374.672 207.148C373.844 207.148 373.161 206.922 372.625 206.469C372.094 206.01 371.828 205.401 371.828 204.641C371.828 203.891 372.094 203.302 372.625 202.875C373.156 202.448 373.914 202.206 374.898 202.148L377.328 202V201.234C377.328 200.714 377.167 200.315 376.844 200.039C376.521 199.763 376.047 199.625 375.422 199.625C374.917 199.625 374.497 199.716 374.164 199.898C373.831 200.081 373.617 200.339 373.523 200.672H372.164C372.253 200 372.599 199.458 373.203 199.047C373.812 198.635 374.568 198.43 375.469 198.43C376.49 198.43 377.279 198.677 377.836 199.172C378.393 199.667 378.672 200.354 378.672 201.234V207H377.391V205.758H377.266C376.995 206.206 376.635 206.549 376.188 206.789C375.74 207.029 375.234 207.148 374.672 207.148ZM385.258 198.43C386.331 198.43 387.188 198.826 387.828 199.617C388.474 200.409 388.797 201.466 388.797 202.789C388.797 204.107 388.474 205.164 387.828 205.961C387.182 206.753 386.326 207.148 385.258 207.148C384.659 207.148 384.128 207.026 383.664 206.781C383.201 206.531 382.854 206.182 382.625 205.734H382.5V209.812H381.156V198.578H382.438V199.984H382.562C382.833 199.5 383.206 199.12 383.68 198.844C384.159 198.568 384.685 198.43 385.258 198.43ZM384.938 205.938C385.708 205.938 386.312 205.659 386.75 205.102C387.188 204.544 387.406 203.773 387.406 202.789C387.406 201.805 387.188 201.034 386.75 200.477C386.318 199.919 385.716 199.641 384.945 199.641C384.185 199.641 383.581 199.924 383.133 200.492C382.685 201.055 382.461 201.82 382.461 202.789C382.461 203.753 382.682 204.518 383.125 205.086C383.573 205.654 384.177 205.938 384.938 205.938ZM395.008 198.43C396.081 198.43 396.938 198.826 397.578 199.617C398.224 200.409 398.547 201.466 398.547 202.789C398.547 204.107 398.224 205.164 397.578 205.961C396.932 206.753 396.076 207.148 395.008 207.148C394.409 207.148 393.878 207.026 393.414 206.781C392.951 206.531 392.604 206.182 392.375 205.734H392.25V209.812H390.906V198.578H392.188V199.984H392.312C392.583 199.5 392.956 199.12 393.43 198.844C393.909 198.568 394.435 198.43 395.008 198.43ZM394.688 205.938C395.458 205.938 396.062 205.659 396.5 205.102C396.938 204.544 397.156 203.773 397.156 202.789C397.156 201.805 396.938 201.034 396.5 200.477C396.068 199.919 395.466 199.641 394.695 199.641C393.935 199.641 393.331 199.924 392.883 200.492C392.435 201.055 392.211 201.82 392.211 202.789C392.211 203.753 392.432 204.518 392.875 205.086C393.323 205.654 393.927 205.938 394.688 205.938Z" fill="white"/>
<g opacity="0.6">
<rect x="232" y="36" width="80" height="80" fill="white" fill-opacity="0.06"/>
<rect x="187" y="90" width="65" height="66" fill="white" fill-opacity="0.06"/>
<rect x="499" y="258" width="42" height="42" fill="white" fill-opacity="0.08"/>
<circle cx="598.5" cy="85.5" r="49.5" fill="white" fill-opacity="0.06"/>
<ellipse cx="561.5" cy="123" rx="32.5" ry="33" fill="white" fill-opacity="0.06"/>
<ellipse cx="418" cy="251.5" rx="16" ry="15.5" fill="white" fill-opacity="0.08"/>
<circle cx="440.5" cy="96.5" r="4" stroke="white" stroke-opacity="0.1" stroke-width="5"/>
<circle cx="186.5" cy="251.5" r="4" stroke="white" stroke-opacity="0.4" stroke-width="5"/>
<circle cx="482.5" cy="64.5" r="4" stroke="white" stroke-opacity="0.2" stroke-width="5"/>
<g opacity="0.15">
<path fill-rule="evenodd" clip-rule="evenodd" d="M661.809 214.487L693.77 182.526C694.4 181.896 695.426 181.899 696.061 182.534L709.849 196.322C711.753 198.226 711.763 201.302 709.872 203.194L677.911 235.155C677.28 235.785 676.255 235.782 675.62 235.147L661.832 221.358C659.928 219.455 659.918 216.378 661.809 214.487Z" fill="#EEEEEE" fill-opacity="0.6"/>
<path fill-rule="evenodd" clip-rule="evenodd" d="M690.436 213.437L661.71 184.71C659.807 182.807 659.796 179.73 661.688 177.839L675.385 164.141C676.016 163.511 677.041 163.514 677.676 164.149L709.849 196.322C711.753 198.226 711.763 201.302 709.872 203.194L696.174 216.891L691.608 221.457C693.499 219.566 693.489 216.489 691.585 214.586L690.436 213.437Z" fill="white"/>
</g>
</g>
<path d="M60.8877 136.759V158.673V175.281V234H71.2325H172.612V158.673V136.759H60.8877Z" fill="#FFCBDE"/>
<path d="M87.9569 136.759H59.7735C59.3825 136.759 59.099 136.384 59.2066 136.008L67.6107 117.751C68.6618 115.465 70.948 114 73.4659 114H92.0949L87.9569 136.759Z" fill="#D81B60"/>
<path d="M145.887 136.759H116.922V114H141.749L145.887 136.759Z" fill="#D81B60"/>
<path d="M116.922 136.759H87.9561L92.094 114H116.922V136.759Z" fill="#F3D55B"/>
<path d="M174.118 136.759H145.887L141.749 114H160.378C162.896 114 165.182 115.465 166.235 117.753L174.652 136.053C174.751 136.407 174.486 136.759 174.118 136.759Z" fill="#F3D55B"/>
<path d="M102.551 165.724C94.5525 165.724 88.0684 159.24 88.0684 151.241V136.759H117.034V151.241C117.034 159.24 110.55 165.724 102.551 165.724Z" fill="#F0C419"/>
<path d="M160.485 165.724C152.486 165.724 146.002 159.24 146.002 151.241V136.759H174.746C174.868 136.759 174.967 136.858 174.967 136.98V151.241C174.967 159.24 168.483 165.724 160.485 165.724Z" fill="#F0C419"/>
<path d="M73.4847 165.724C65.4861 165.724 59.002 159.24 59.002 151.241V137.342C59.002 137.019 59.2626 136.759 59.5854 136.759H87.9675V151.241C87.9675 159.24 81.4833 165.724 73.4847 165.724Z" fill="#C2185B"/>
<path d="M131.516 165.724C123.517 165.724 117.033 159.24 117.033 151.241V136.759H145.999V151.241C145.999 159.24 139.515 165.724 131.516 165.724Z" fill="#C2185B"/>
<g clip-path="url(#clip1)">
<path d="M117.614 224.84C131.885 224.84 143.454 213.271 143.454 199C143.454 184.729 131.885 173.16 117.614 173.16C103.343 173.16 91.7744 184.729 91.7744 199C91.7744 213.271 103.343 224.84 117.614 224.84Z" fill="#EDBBCD"/>
<path d="M143.288 185.97H118.057V195.732C118.057 196.022 117.82 196.26 117.53 196.26H114.1V205.761C114.1 206.152 114.42 206.473 114.812 206.473H143.288C143.679 206.473 144 206.152 144 205.761V186.682C144 186.291 143.679 185.97 143.288 185.97Z" fill="#91E0E8"/>
<path d="M116.194 205.761V196.26H114.102V205.761C114.102 206.152 114.422 206.473 114.813 206.473H116.906C116.515 206.473 116.194 206.152 116.194 205.761Z" fill="#5DC1D8"/>
<path d="M137.172 197.117C136.92 196.818 136.507 196.818 136.255 197.117L132.554 201.508C132.301 201.808 131.888 201.808 131.636 201.508L124.65 193.221C124.398 192.921 123.985 192.921 123.733 193.221L114.102 204.646V205.761C114.102 206.152 114.422 206.473 114.813 206.473H143.289C143.681 206.473 144.001 206.152 144.001 205.761V205.219L137.172 197.117Z" fill="#0F9390"/>
<path d="M139.015 193.938C140.49 193.938 141.685 192.742 141.685 191.268C141.685 189.794 140.49 188.598 139.015 188.598C137.541 188.598 136.346 189.794 136.346 191.268C136.346 192.742 137.541 193.938 139.015 193.938Z" fill="white"/>
<path d="M137.816 191.268C137.816 190.049 138.633 189.022 139.749 188.702C139.514 188.635 139.267 188.598 139.011 188.598C137.537 188.598 136.342 189.793 136.342 191.268C136.342 192.742 137.537 193.938 139.011 193.938C139.267 193.938 139.514 193.901 139.749 193.834C138.633 193.514 137.816 192.487 137.816 191.268Z" fill="#D9EAFC"/>
<path d="M118.163 195.838C118.163 196.128 117.925 196.365 117.635 196.365H90.5273C90.2373 196.365 90 196.128 90 195.838V175.164C90 174.874 90.2373 174.636 90.5273 174.636H117.635C117.925 174.636 118.163 174.874 118.163 175.164V195.838Z" fill="#FE3745"/>
<path d="M98.7012 180.343C98.7012 179.762 99.1122 179.525 99.6145 179.815L108.549 184.973C109.051 185.263 109.051 185.738 108.549 186.028L99.6145 191.186C99.1122 191.477 98.7012 191.239 98.7012 190.659V180.343Z" fill="white"/>
<path d="M100.794 180.496L99.6145 179.815C99.1122 179.525 98.7012 179.762 98.7012 180.343V190.659C98.7012 191.239 99.1122 191.477 99.6145 191.186L100.794 190.506V180.496Z" fill="#D9EAFC"/>
<path d="M116.526 178.699C116.526 178.873 116.384 179.015 116.21 179.015H113.995C113.821 179.015 113.679 178.873 113.679 178.699V176.484C113.679 176.31 113.821 176.167 113.995 176.167H116.21C116.384 176.167 116.526 176.31 116.526 176.484V178.699Z" fill="#B7092B"/>
<path d="M116.526 182.653C116.526 182.827 116.384 182.97 116.21 182.97H113.995C113.821 182.97 113.679 182.827 113.679 182.653V180.439C113.679 180.265 113.821 180.122 113.995 180.122H116.21C116.384 180.122 116.526 180.265 116.526 180.439V182.653Z" fill="#B7092B"/>
<path d="M116.526 186.608C116.526 186.782 116.384 186.925 116.21 186.925H113.995C113.821 186.925 113.679 186.782 113.679 186.608V184.394C113.679 184.22 113.821 184.077 113.995 184.077H116.21C116.384 184.077 116.526 184.22 116.526 184.394V186.608Z" fill="#B7092B"/>
<path d="M116.526 190.563C116.526 190.737 116.384 190.879 116.21 190.879H113.995C113.821 190.879 113.679 190.737 113.679 190.563V188.348C113.679 188.174 113.821 188.032 113.995 188.032H116.21C116.384 188.032 116.526 188.174 116.526 188.348V190.563Z" fill="#B7092B"/>
<path d="M116.526 194.518C116.526 194.692 116.384 194.835 116.21 194.835H113.995C113.821 194.835 113.679 194.692 113.679 194.518V192.303C113.679 192.129 113.821 191.987 113.995 191.987H116.21C116.384 191.987 116.526 192.129 116.526 192.303V194.518Z" fill="#B7092B"/>
<path d="M94.4832 178.699C94.4832 178.873 94.3408 179.015 94.1668 179.015H91.9521C91.7781 179.015 91.6357 178.873 91.6357 178.699V176.484C91.6357 176.31 91.7781 176.167 91.9521 176.167H94.1668C94.3408 176.167 94.4832 176.31 94.4832 176.484V178.699Z" fill="#B7092B"/>
<path d="M94.4832 182.653C94.4832 182.827 94.3408 182.97 94.1668 182.97H91.9521C91.7781 182.97 91.6357 182.827 91.6357 182.653V180.439C91.6357 180.265 91.7781 180.122 91.9521 180.122H94.1668C94.3408 180.122 94.4832 180.265 94.4832 180.439V182.653Z" fill="#B7092B"/>
<path d="M94.4832 186.608C94.4832 186.782 94.3408 186.925 94.1668 186.925H91.9521C91.7781 186.925 91.6357 186.782 91.6357 186.608V184.394C91.6357 184.22 91.7781 184.077 91.9521 184.077H94.1668C94.3408 184.077 94.4832 184.22 94.4832 184.394V186.608Z" fill="#B7092B"/>
<path d="M94.4832 190.563C94.4832 190.737 94.3408 190.879 94.1668 190.879H91.9521C91.7781 190.879 91.6357 190.737 91.6357 190.563V188.348C91.6357 188.174 91.7781 188.032 91.9521 188.032H94.1668C94.3408 188.032 94.4832 188.174 94.4832 188.348V190.563Z" fill="#B7092B"/>
<path d="M94.4832 194.518C94.4832 194.692 94.3408 194.835 94.1668 194.835H91.9521C91.7781 194.835 91.6357 194.692 91.6357 194.518V192.303C91.6357 192.129 91.7781 191.987 91.9521 191.987H94.1668C94.3408 191.987 94.4832 192.129 94.4832 192.303V194.518Z" fill="#B7092B"/>
<path d="M111.723 198.89H93.3818C93.0918 198.89 92.8545 199.127 92.8545 199.417V206.404C93.5848 208.85 94.6673 211.143 96.0435 213.226H102.696L106.997 217.527C107.202 217.732 107.37 217.663 107.37 217.373V213.226H111.724C112.014 213.226 112.251 212.989 112.251 212.699V199.417C112.251 199.127 112.013 198.89 111.723 198.89Z" fill="#52BBEF"/>
<path d="M94.9472 199.417C94.9472 199.127 95.1845 198.89 95.4745 198.89H93.3818C93.0918 198.89 92.8545 199.127 92.8545 199.417V206.404C93.3779 208.157 94.0833 209.832 94.9472 211.407V199.417Z" fill="#1E99D6"/>
<path d="M107.784 204.133H97.3154C96.8786 204.133 96.5244 203.779 96.5244 203.342C96.5244 202.905 96.8786 202.551 97.3154 202.551H107.784C108.221 202.551 108.575 202.905 108.575 203.342C108.575 203.779 108.221 204.133 107.784 204.133Z" fill="white"/>
<path d="M107.784 206.887H97.3154C96.8786 206.887 96.5244 206.533 96.5244 206.096C96.5244 205.659 96.8786 205.305 97.3154 205.305H107.784C108.221 205.305 108.575 205.659 108.575 206.096C108.575 206.533 108.221 206.887 107.784 206.887Z" fill="white"/>
<path d="M102.571 209.641H97.3154C96.8786 209.641 96.5244 209.286 96.5244 208.85C96.5244 208.413 96.8786 208.059 97.3154 208.059H102.571C103.007 208.059 103.362 208.413 103.362 208.85C103.362 209.286 103.007 209.641 102.571 209.641Z" fill="white"/>
<path d="M131.303 209.184H114.681C114.391 209.184 114.153 209.421 114.153 209.711V222.295C114.153 222.585 114.391 222.822 114.681 222.822H127.64C129.112 222.202 130.513 221.449 131.83 220.579V209.711C131.83 209.421 131.593 209.184 131.303 209.184Z" fill="#EF8318"/>
<path d="M116.246 222.295V209.711C116.246 209.421 116.483 209.184 116.773 209.184H114.681C114.391 209.184 114.153 209.421 114.153 209.711V222.295C114.153 222.585 114.391 222.822 114.681 222.822H116.773C116.483 222.822 116.246 222.585 116.246 222.295Z" fill="#DB722C"/>
<path d="M120.065 213.158C120.065 212.578 120.476 212.34 120.979 212.63L125.907 215.476C126.409 215.766 126.409 216.24 125.907 216.53L120.979 219.375C120.476 219.665 120.065 219.428 120.065 218.848V213.158Z" fill="white"/>
</g>
</g>
<defs>
<filter id="filter0_ddd" x="-5" y="-4" width="734" height="325" filterUnits="userSpaceOnUse" color-interpolation-filters="sRGB">
<feFlood flood-opacity="0" result="BackgroundImageFix"/>
<feColorMatrix in="SourceAlpha" type="matrix" values="0 0 0 0 0 0 0 0 0 0 0 0 0 0 0 0 0 0 127 0"/>
<feOffset dy="1"/>
<feGaussianBlur stdDeviation="2.5"/>
<feColorMatrix type="matrix" values="0 0 0 0 0.67451 0 0 0 0 0.678431 0 0 0 0 0.686275 0 0 0 0.2 0"/>
<feBlend mode="normal" in2="BackgroundImageFix" result="effect1_dropShadow"/>
<feColorMatrix in="SourceAlpha" type="matrix" values="0 0 0 0 0 0 0 0 0 0 0 0 0 0 0 0 0 0 127 0"/>
<feOffset dy="3"/>
<feGaussianBlur stdDeviation="2"/>
<feColorMatrix type="matrix" values="0 0 0 0 0.67451 0 0 0 0 0.678431 0 0 0 0 0.686275 0 0 0 0.12 0"/>
<feBlend mode="normal" in2="effect1_dropShadow" result="effect2_dropShadow"/>
<feColorMatrix in="SourceAlpha" type="matrix" values="0 0 0 0 0 0 0 0 0 0 0 0 0 0 0 0 0 0 127 0"/>
<feOffset dy="2"/>
<feGaussianBlur stdDeviation="2"/>
<feColorMatrix type="matrix" values="0 0 0 0 0.67451 0 0 0 0 0.678431 0 0 0 0 0.686275 0 0 0 0.14 0"/>
<feBlend mode="normal" in2="effect2_dropShadow" result="effect3_dropShadow"/>
<feBlend mode="normal" in="SourceGraphic" in2="effect3_dropShadow" result="shape"/>
</filter>
<clipPath id="clip0">
<rect width="724" height="314" fill="white"/>
</clipPath>
<clipPath id="clip1">
<rect width="54" height="54" fill="white" transform="translate(90 172)"/>
</clipPath>
</defs>
</svg>
