<svg width="724" height="314" viewBox="0 0 724 314" fill="none" xmlns="http://www.w3.org/2000/svg">
<g clip-path="url(#clip0)">
<rect width="724" height="314" fill="white"/>
<g filter="url(#filter0_ddd)">
<path d="M0 2C0 0.895426 0.895431 0 2 0H722C723.105 0 724 0.895431 724 2V314H0V2Z" fill="#F44336"/>
</g>
<g opacity="0.6">
<rect x="232" y="36" width="80" height="80" fill="white" fill-opacity="0.06"/>
<rect x="187" y="90" width="65" height="66" fill="white" fill-opacity="0.06"/>
<rect x="499" y="258" width="42" height="42" fill="white" fill-opacity="0.08"/>
<circle cx="598.5" cy="85.5" r="49.5" fill="white" fill-opacity="0.06"/>
<ellipse cx="561.5" cy="123" rx="32.5" ry="33" fill="white" fill-opacity="0.06"/>
<ellipse cx="418" cy="251.5" rx="16" ry="15.5" fill="white" fill-opacity="0.08"/>
<circle cx="440.5" cy="96.5" r="4" stroke="white" stroke-opacity="0.1" stroke-width="5"/>
<circle cx="186.5" cy="251.5" r="4" stroke="white" stroke-opacity="0.4" stroke-width="5"/>
<circle cx="482.5" cy="64.5" r="4" stroke="white" stroke-opacity="0.2" stroke-width="5"/>
<g opacity="0.15">
<path fill-rule="evenodd" clip-rule="evenodd" d="M661.809 214.487L693.77 182.526C694.4 181.896 695.426 181.899 696.061 182.534L709.849 196.322C711.753 198.226 711.763 201.302 709.872 203.194L677.911 235.155C677.28 235.785 676.255 235.782 675.62 235.147L661.832 221.358C659.928 219.455 659.918 216.378 661.809 214.487Z" fill="#EEEEEE" fill-opacity="0.6"/>
<path fill-rule="evenodd" clip-rule="evenodd" d="M690.436 213.437L661.71 184.71C659.807 182.807 659.796 179.73 661.688 177.839L675.385 164.141C676.016 163.511 677.041 163.514 677.676 164.149L709.849 196.322C711.753 198.226 711.763 201.302 709.872 203.194L696.174 216.891L691.608 221.457C693.499 219.566 693.489 216.489 691.585 214.586L690.436 213.437Z" fill="white"/>
</g>
</g>
<path d="M218.607 128.862V150H222.387V143.071H226.972C231.249 143.071 234.237 140.2 234.237 136.011C234.237 131.748 231.352 128.862 227.133 128.862H218.607ZM222.387 132.026H226.137C228.861 132.026 230.399 133.418 230.399 136.011C230.399 138.53 228.817 139.937 226.122 139.937H222.387V132.026ZM242.924 147.407C241.312 147.407 240.155 146.602 240.155 145.254C240.155 143.95 241.107 143.218 243.144 143.086L246.762 142.852V144.126C246.762 145.986 245.121 147.407 242.924 147.407ZM241.854 150.264C243.949 150.264 245.707 149.355 246.601 147.803H246.85V150H250.351V139.058C250.351 135.659 248.036 133.652 243.92 133.652C240.111 133.652 237.46 135.454 237.167 138.281H240.595C240.932 137.197 242.074 136.611 243.744 136.611C245.707 136.611 246.762 137.49 246.762 139.058V140.405L242.631 140.654C238.734 140.889 236.552 142.559 236.552 145.459C236.552 148.389 238.764 150.264 241.854 150.264ZM254.73 150H258.363V140.742C258.363 138.501 260.004 137.036 262.362 137.036C262.978 137.036 263.944 137.139 264.223 137.241V133.872C263.886 133.77 263.241 133.711 262.714 133.711C260.648 133.711 258.92 134.883 258.48 136.465H258.231V133.975H254.73V150ZM273.524 136.538C275.707 136.538 277.143 138.062 277.216 140.435H269.672C269.833 138.091 271.356 136.538 273.524 136.538ZM277.245 145.591C276.718 146.777 275.473 147.437 273.671 147.437C271.283 147.437 269.745 145.767 269.657 143.101V142.91H280.849V141.738C280.849 136.685 278.109 133.652 273.539 133.652C268.896 133.652 266.01 136.89 266.01 142.046C266.01 147.202 268.852 150.322 273.568 150.322C277.348 150.322 279.999 148.506 280.688 145.591H277.245ZM284.496 150H288.129V140.669C288.129 138.311 289.491 136.816 291.659 136.816C293.871 136.816 294.896 138.047 294.896 140.493V150H298.529V139.629C298.529 135.806 296.581 133.652 293.007 133.652C290.619 133.652 289.008 134.751 288.246 136.538H287.997V133.975H284.496V150ZM303.993 130.049V134.077H301.459V136.978H303.993V145.723C303.993 148.828 305.458 150.073 309.135 150.073C309.838 150.073 310.512 150 311.039 149.897V147.056C310.6 147.1 310.321 147.129 309.809 147.129C308.285 147.129 307.611 146.426 307.611 144.844V136.978H311.039V134.077H307.611V130.049H303.993ZM324.047 143.188V139.775H314.423V143.188H324.047ZM328.09 144.258C328.28 148.096 331.488 150.527 336.337 150.527C341.464 150.527 344.643 147.964 344.643 143.848C344.643 140.625 342.841 138.838 338.549 137.871L336.117 137.314C333.495 136.714 332.426 135.879 332.426 134.458C332.426 132.656 334.037 131.484 336.469 131.484C338.783 131.484 340.424 132.656 340.688 134.517H344.306C344.13 130.884 340.922 128.335 336.483 128.335C331.752 128.335 328.617 130.884 328.617 134.722C328.617 137.871 330.419 139.775 334.257 140.64L336.996 141.27C339.706 141.899 340.863 142.793 340.863 144.316C340.863 146.089 339.062 147.363 336.571 147.363C333.891 147.363 332.016 146.147 331.781 144.258H328.09ZM349.667 130.049V134.077H347.133V136.978H349.667V145.723C349.667 148.828 351.132 150.073 354.809 150.073C355.512 150.073 356.186 150 356.713 149.897V147.056C356.273 147.1 355.995 147.129 355.482 147.129C353.959 147.129 353.285 146.426 353.285 144.844V136.978H356.713V134.077H353.285V130.049H349.667ZM374.291 133.975H370.658V143.306C370.658 145.679 369.369 147.129 367.011 147.129C364.843 147.129 363.832 145.928 363.832 143.481V133.975H360.199V144.39C360.199 148.14 362.25 150.322 365.751 150.322C368.197 150.322 369.765 149.282 370.541 147.451H370.79V150H374.291V133.975ZM384.545 150.264C386.771 150.264 388.617 149.224 389.525 147.466H389.774V150H393.29V127.778H389.657V136.523H389.408C388.559 134.766 386.742 133.711 384.545 133.711C380.502 133.711 377.953 136.904 377.953 141.973C377.953 147.07 380.487 150.264 384.545 150.264ZM385.673 136.802C388.163 136.802 389.701 138.794 389.701 141.987C389.701 145.21 388.178 147.173 385.673 147.173C383.183 147.173 381.674 145.225 381.674 141.987C381.674 138.765 383.197 136.802 385.673 136.802ZM404.599 136.538C406.781 136.538 408.217 138.062 408.29 140.435H400.746C400.907 138.091 402.431 136.538 404.599 136.538ZM408.319 145.591C407.792 146.777 406.547 147.437 404.745 147.437C402.357 147.437 400.819 145.767 400.731 143.101V142.91H411.923V141.738C411.923 136.685 409.184 133.652 404.613 133.652C399.97 133.652 397.084 136.89 397.084 142.046C397.084 147.202 399.926 150.322 404.643 150.322C408.422 150.322 411.073 148.506 411.762 145.591H408.319ZM415.57 150H419.203V140.669C419.203 138.311 420.565 136.816 422.733 136.816C424.945 136.816 425.971 138.047 425.971 140.493V150H429.604V139.629C429.604 135.806 427.655 133.652 424.081 133.652C421.693 133.652 420.082 134.751 419.32 136.538H419.071V133.975H415.57V150ZM435.067 130.049V134.077H432.533V136.978H435.067V145.723C435.067 148.828 436.532 150.073 440.209 150.073C440.912 150.073 441.586 150 442.113 149.897V147.056C441.674 147.1 441.396 147.129 440.883 147.129C439.359 147.129 438.686 146.426 438.686 144.844V136.978H442.113V134.077H438.686V130.049H435.067ZM462.943 150.527C467.821 150.527 471.396 147.612 471.894 143.291H468.173C467.66 145.664 465.624 147.158 462.943 147.158C459.34 147.158 457.099 144.199 457.099 139.424C457.099 134.663 459.34 131.704 462.929 131.704C465.595 131.704 467.631 133.345 468.158 135.879H471.879C471.439 131.47 467.733 128.335 462.929 128.335C456.938 128.335 453.231 132.568 453.231 139.438C453.231 146.279 456.952 150.527 462.943 150.527ZM482.631 150.322C487.421 150.322 490.336 147.188 490.336 141.987C490.336 136.802 487.406 133.652 482.631 133.652C477.87 133.652 474.926 136.816 474.926 141.987C474.926 147.188 477.826 150.322 482.631 150.322ZM482.631 147.275C480.097 147.275 478.646 145.342 478.646 141.987C478.646 138.647 480.097 136.699 482.631 136.699C485.15 136.699 486.601 138.647 486.601 141.987C486.601 145.342 485.165 147.275 482.631 147.275ZM493.998 150H497.631V140.259C497.631 138.296 498.964 136.816 500.766 136.816C502.553 136.816 503.666 137.886 503.666 139.644V150H507.196V140.024C507.196 138.193 508.441 136.816 510.331 136.816C512.279 136.816 513.261 137.842 513.261 139.907V150H516.879V138.984C516.879 135.659 514.945 133.652 511.737 133.652C509.511 133.652 507.665 134.81 506.874 136.567H506.625C505.951 134.766 504.413 133.652 502.201 133.652C500.077 133.652 498.437 134.736 497.748 136.567H497.499V133.975H493.998V150ZM521.186 150H524.818V140.259C524.818 138.296 526.151 136.816 527.953 136.816C529.74 136.816 530.854 137.886 530.854 139.644V150H534.384V140.024C534.384 138.193 535.629 136.816 537.519 136.816C539.467 136.816 540.448 137.842 540.448 139.907V150H544.066V138.984C544.066 135.659 542.133 133.652 538.925 133.652C536.698 133.652 534.853 134.81 534.062 136.567H533.812C533.139 134.766 531.601 133.652 529.389 133.652C527.265 133.652 525.624 134.736 524.936 136.567H524.687V133.975H521.186V150ZM562.318 133.975H558.686V143.306C558.686 145.679 557.396 147.129 555.038 147.129C552.87 147.129 551.859 145.928 551.859 143.481V133.975H548.227V144.39C548.227 148.14 550.277 150.322 553.778 150.322C556.225 150.322 557.792 149.282 558.568 147.451H558.817V150H562.318V133.975ZM566.771 150H570.404V140.669C570.404 138.311 571.767 136.816 573.935 136.816C576.146 136.816 577.172 138.047 577.172 140.493V150H580.805V139.629C580.805 135.806 578.856 133.652 575.282 133.652C572.895 133.652 571.283 134.751 570.521 136.538H570.272V133.975H566.771V150ZM585.155 150H588.773V133.975H585.155V150ZM586.957 131.367C588.29 131.367 589.198 130.518 589.198 129.36C589.198 128.203 588.29 127.354 586.957 127.354C585.639 127.354 584.716 128.203 584.716 129.36C584.716 130.518 585.639 131.367 586.957 131.367ZM607.128 139.365C606.747 135.996 604.257 133.652 600.141 133.652C595.321 133.652 592.494 136.743 592.494 141.943C592.494 147.217 595.336 150.322 600.155 150.322C604.213 150.322 606.732 148.066 607.128 144.712H603.671C603.29 146.382 602.03 147.275 600.141 147.275C597.665 147.275 596.171 145.312 596.171 141.943C596.171 138.618 597.65 136.699 600.141 136.699C602.133 136.699 603.334 137.812 603.671 139.365H607.128ZM616.078 147.407C614.467 147.407 613.31 146.602 613.31 145.254C613.31 143.95 614.262 143.218 616.298 143.086L619.916 142.852V144.126C619.916 145.986 618.275 147.407 616.078 147.407ZM615.009 150.264C617.104 150.264 618.861 149.355 619.755 147.803H620.004V150H623.505V139.058C623.505 135.659 621.19 133.652 617.074 133.652C613.266 133.652 610.614 135.454 610.321 138.281H613.749C614.086 137.197 615.229 136.611 616.898 136.611C618.861 136.611 619.916 137.49 619.916 139.058V140.405L615.785 140.654C611.889 140.889 609.706 142.559 609.706 145.459C609.706 148.389 611.918 150.264 615.009 150.264ZM629.042 130.049V134.077H626.508V136.978H629.042V145.723C629.042 148.828 630.507 150.073 634.184 150.073C634.887 150.073 635.561 150 636.088 149.897V147.056C635.648 147.1 635.37 147.129 634.857 147.129C633.334 147.129 632.66 146.426 632.66 144.844V136.978H636.088V134.077H632.66V130.049H629.042ZM639.765 150H643.383V133.975H639.765V150ZM641.566 131.367C642.899 131.367 643.808 130.518 643.808 129.36C643.808 128.203 642.899 127.354 641.566 127.354C640.248 127.354 639.325 128.203 639.325 129.36C639.325 130.518 640.248 131.367 641.566 131.367ZM654.809 150.322C659.599 150.322 662.514 147.188 662.514 141.987C662.514 136.802 659.584 133.652 654.809 133.652C650.048 133.652 647.104 136.816 647.104 141.987C647.104 147.188 650.004 150.322 654.809 150.322ZM654.809 147.275C652.274 147.275 650.824 145.342 650.824 141.987C650.824 138.647 652.274 136.699 654.809 136.699C657.328 136.699 658.778 138.647 658.778 141.987C658.778 145.342 657.343 147.275 654.809 147.275ZM666.176 150H669.809V140.669C669.809 138.311 671.171 136.816 673.339 136.816C675.551 136.816 676.576 138.047 676.576 140.493V150H680.209V139.629C680.209 135.806 678.261 133.652 674.687 133.652C672.299 133.652 670.688 134.751 669.926 136.538H669.677V133.975H666.176V150Z" fill="white"/>
<path d="M217.438 176.727H221.695C222.763 176.727 223.63 177.068 224.297 177.75C224.969 178.427 225.305 179.302 225.305 180.375C225.305 181.427 224.964 182.292 224.281 182.969C223.604 183.641 222.737 183.977 221.68 183.977H218.844V188H217.438V176.727ZM218.844 177.977V182.727H221.328C222.13 182.727 222.753 182.521 223.195 182.109C223.638 181.698 223.859 181.12 223.859 180.375C223.859 179.599 223.641 179.005 223.203 178.594C222.771 178.182 222.146 177.977 221.328 177.977H218.844ZM229.719 186.969C230.411 186.969 230.984 186.768 231.438 186.367C231.896 185.966 232.125 185.464 232.125 184.859V184.086L229.859 184.234C229.224 184.276 228.758 184.409 228.461 184.633C228.164 184.857 228.016 185.182 228.016 185.609C228.016 186.031 228.174 186.365 228.492 186.609C228.81 186.849 229.219 186.969 229.719 186.969ZM229.469 188.148C228.641 188.148 227.958 187.922 227.422 187.469C226.891 187.01 226.625 186.401 226.625 185.641C226.625 184.891 226.891 184.302 227.422 183.875C227.953 183.448 228.711 183.206 229.695 183.148L232.125 183V182.234C232.125 181.714 231.964 181.315 231.641 181.039C231.318 180.763 230.844 180.625 230.219 180.625C229.714 180.625 229.294 180.716 228.961 180.898C228.628 181.081 228.414 181.339 228.32 181.672H226.961C227.049 181 227.396 180.458 228 180.047C228.609 179.635 229.365 179.43 230.266 179.43C231.286 179.43 232.076 179.677 232.633 180.172C233.19 180.667 233.469 181.354 233.469 182.234V188H232.188V186.758H232.062C231.792 187.206 231.432 187.549 230.984 187.789C230.536 188.029 230.031 188.148 229.469 188.148ZM235.953 188V179.578H237.234V180.828H237.359C237.484 180.417 237.766 180.081 238.203 179.82C238.641 179.56 239.138 179.43 239.695 179.43C239.951 179.43 240.174 179.443 240.367 179.469V180.812C240.185 180.76 239.898 180.734 239.508 180.734C238.867 180.734 238.339 180.927 237.922 181.312C237.505 181.698 237.297 182.188 237.297 182.781V188H235.953ZM245.172 180.617C244.5 180.617 243.948 180.844 243.516 181.297C243.083 181.75 242.841 182.349 242.789 183.094H247.43C247.414 182.349 247.201 181.75 246.789 181.297C246.378 180.844 245.839 180.617 245.172 180.617ZM247.391 185.82H248.734C248.531 186.549 248.117 187.12 247.492 187.531C246.872 187.943 246.104 188.148 245.188 188.148C244.021 188.148 243.096 187.758 242.414 186.977C241.732 186.19 241.391 185.13 241.391 183.797C241.391 182.469 241.734 181.409 242.422 180.617C243.109 179.826 244.031 179.43 245.188 179.43C246.323 179.43 247.216 179.807 247.867 180.562C248.518 181.318 248.844 182.352 248.844 183.664V184.18H242.789V184.242C242.826 185.076 243.06 185.737 243.492 186.227C243.93 186.716 244.505 186.961 245.219 186.961C246.307 186.961 247.031 186.581 247.391 185.82ZM250.953 188V179.578H252.234V180.906H252.359C252.807 179.922 253.651 179.43 254.891 179.43C255.833 179.43 256.56 179.701 257.07 180.242C257.581 180.779 257.836 181.547 257.836 182.547V188H256.492V182.875C256.492 182.12 256.328 181.56 256 181.195C255.677 180.826 255.18 180.641 254.508 180.641C253.831 180.641 253.292 180.854 252.891 181.281C252.495 181.703 252.297 182.281 252.297 183.016V188H250.953ZM260.859 177.398H262.203V179.578H264.078V180.703H262.203V185.469C262.203 185.964 262.302 186.323 262.5 186.547C262.698 186.771 263.016 186.883 263.453 186.883C263.646 186.883 263.854 186.872 264.078 186.852V187.984C263.781 188.036 263.518 188.062 263.289 188.062C262.419 188.062 261.797 187.888 261.422 187.539C261.047 187.19 260.859 186.615 260.859 185.812V180.703H259.5V179.578H260.859V177.398ZM265.758 181.883C265.758 181.185 266.057 180.602 266.656 180.133C267.255 179.664 268.003 179.43 268.898 179.43C269.779 179.43 270.505 179.633 271.078 180.039C271.651 180.445 271.982 180.995 272.07 181.688H270.742C270.648 181.344 270.44 181.073 270.117 180.875C269.799 180.672 269.391 180.57 268.891 180.57C268.385 180.57 267.961 180.688 267.617 180.922C267.279 181.156 267.109 181.458 267.109 181.828C267.109 182.115 267.227 182.354 267.461 182.547C267.701 182.734 268.07 182.888 268.57 183.008L269.867 183.32C270.669 183.513 271.26 183.792 271.641 184.156C272.026 184.521 272.219 185.003 272.219 185.602C272.219 186.346 271.898 186.958 271.258 187.438C270.617 187.911 269.812 188.148 268.844 188.148C267.906 188.148 267.138 187.94 266.539 187.523C265.94 187.107 265.604 186.549 265.531 185.852H266.914C267.029 186.216 267.255 186.503 267.594 186.711C267.932 186.914 268.365 187.016 268.891 187.016C269.458 187.016 269.924 186.893 270.289 186.648C270.654 186.404 270.836 186.089 270.836 185.703C270.836 185.13 270.391 184.734 269.5 184.516L268.055 184.164C267.258 183.971 266.674 183.695 266.305 183.336C265.94 182.971 265.758 182.487 265.758 181.883ZM281.438 186.969C282.13 186.969 282.703 186.768 283.156 186.367C283.615 185.966 283.844 185.464 283.844 184.859V184.086L281.578 184.234C280.943 184.276 280.477 184.409 280.18 184.633C279.883 184.857 279.734 185.182 279.734 185.609C279.734 186.031 279.893 186.365 280.211 186.609C280.529 186.849 280.938 186.969 281.438 186.969ZM281.188 188.148C280.359 188.148 279.677 187.922 279.141 187.469C278.609 187.01 278.344 186.401 278.344 185.641C278.344 184.891 278.609 184.302 279.141 183.875C279.672 183.448 280.43 183.206 281.414 183.148L283.844 183V182.234C283.844 181.714 283.682 181.315 283.359 181.039C283.036 180.763 282.562 180.625 281.938 180.625C281.432 180.625 281.013 180.716 280.68 180.898C280.346 181.081 280.133 181.339 280.039 181.672H278.68C278.768 181 279.115 180.458 279.719 180.047C280.328 179.635 281.083 179.43 281.984 179.43C283.005 179.43 283.794 179.677 284.352 180.172C284.909 180.667 285.188 181.354 285.188 182.234V188H283.906V186.758H283.781C283.51 187.206 283.151 187.549 282.703 187.789C282.255 188.029 281.75 188.148 281.188 188.148ZM287.672 188V179.578H288.953V180.828H289.078C289.203 180.417 289.484 180.081 289.922 179.82C290.359 179.56 290.857 179.43 291.414 179.43C291.669 179.43 291.893 179.443 292.086 179.469V180.812C291.904 180.76 291.617 180.734 291.227 180.734C290.586 180.734 290.057 180.927 289.641 181.312C289.224 181.698 289.016 182.188 289.016 182.781V188H287.672ZM296.891 180.617C296.219 180.617 295.667 180.844 295.234 181.297C294.802 181.75 294.56 182.349 294.508 183.094H299.148C299.133 182.349 298.919 181.75 298.508 181.297C298.096 180.844 297.557 180.617 296.891 180.617ZM299.109 185.82H300.453C300.25 186.549 299.836 187.12 299.211 187.531C298.591 187.943 297.823 188.148 296.906 188.148C295.74 188.148 294.815 187.758 294.133 186.977C293.451 186.19 293.109 185.13 293.109 183.797C293.109 182.469 293.453 181.409 294.141 180.617C294.828 179.826 295.75 179.43 296.906 179.43C298.042 179.43 298.935 179.807 299.586 180.562C300.237 181.318 300.562 182.352 300.562 183.664V184.18H294.508V184.242C294.544 185.076 294.779 185.737 295.211 186.227C295.648 186.716 296.224 186.961 296.938 186.961C298.026 186.961 298.75 186.581 299.109 185.82ZM314.156 182.156H312.797C312.682 181.714 312.435 181.352 312.055 181.07C311.68 180.784 311.203 180.641 310.625 180.641C309.87 180.641 309.268 180.922 308.82 181.484C308.378 182.047 308.156 182.805 308.156 183.758C308.156 184.727 308.38 185.5 308.828 186.078C309.276 186.651 309.875 186.938 310.625 186.938C311.193 186.938 311.664 186.81 312.039 186.555C312.419 186.299 312.672 185.935 312.797 185.461H314.156C314.031 186.258 313.659 186.906 313.039 187.406C312.419 187.901 311.617 188.148 310.633 188.148C309.451 188.148 308.51 187.753 307.812 186.961C307.115 186.164 306.766 185.096 306.766 183.758C306.766 182.445 307.115 181.396 307.812 180.609C308.51 179.823 309.448 179.43 310.625 179.43C311.609 179.43 312.411 179.688 313.031 180.203C313.656 180.719 314.031 181.37 314.156 182.156ZM322.438 186.984C321.745 187.76 320.799 188.148 319.602 188.148C318.404 188.148 317.456 187.76 316.758 186.984C316.065 186.203 315.719 185.138 315.719 183.789C315.719 182.435 316.065 181.37 316.758 180.594C317.451 179.818 318.398 179.43 319.602 179.43C320.805 179.43 321.753 179.818 322.445 180.594C323.138 181.37 323.484 182.435 323.484 183.789C323.484 185.138 323.135 186.203 322.438 186.984ZM317.758 186.117C318.19 186.664 318.805 186.938 319.602 186.938C320.398 186.938 321.013 186.664 321.445 186.117C321.878 185.565 322.094 184.789 322.094 183.789C322.094 182.789 321.878 182.016 321.445 181.469C321.013 180.917 320.398 180.641 319.602 180.641C318.805 180.641 318.19 180.917 317.758 181.469C317.326 182.016 317.109 182.789 317.109 183.789C317.109 184.789 317.326 185.565 317.758 186.117ZM325.594 188V179.578H326.875V180.906H327C327.448 179.922 328.292 179.43 329.531 179.43C330.474 179.43 331.201 179.701 331.711 180.242C332.221 180.779 332.477 181.547 332.477 182.547V188H331.133V182.875C331.133 182.12 330.969 181.56 330.641 181.195C330.318 180.826 329.82 180.641 329.148 180.641C328.471 180.641 327.932 180.854 327.531 181.281C327.135 181.703 326.938 182.281 326.938 183.016V188H325.594ZM341.906 182.156H340.547C340.432 181.714 340.185 181.352 339.805 181.07C339.43 180.784 338.953 180.641 338.375 180.641C337.62 180.641 337.018 180.922 336.57 181.484C336.128 182.047 335.906 182.805 335.906 183.758C335.906 184.727 336.13 185.5 336.578 186.078C337.026 186.651 337.625 186.938 338.375 186.938C338.943 186.938 339.414 186.81 339.789 186.555C340.169 186.299 340.422 185.935 340.547 185.461H341.906C341.781 186.258 341.409 186.906 340.789 187.406C340.169 187.901 339.367 188.148 338.383 188.148C337.201 188.148 336.26 187.753 335.562 186.961C334.865 186.164 334.516 185.096 334.516 183.758C334.516 182.445 334.865 181.396 335.562 180.609C336.26 179.823 337.198 179.43 338.375 179.43C339.359 179.43 340.161 179.688 340.781 180.203C341.406 180.719 341.781 181.37 341.906 182.156ZM347.25 180.617C346.578 180.617 346.026 180.844 345.594 181.297C345.161 181.75 344.919 182.349 344.867 183.094H349.508C349.492 182.349 349.279 181.75 348.867 181.297C348.456 180.844 347.917 180.617 347.25 180.617ZM349.469 185.82H350.812C350.609 186.549 350.195 187.12 349.57 187.531C348.951 187.943 348.182 188.148 347.266 188.148C346.099 188.148 345.174 187.758 344.492 186.977C343.81 186.19 343.469 185.13 343.469 183.797C343.469 182.469 343.812 181.409 344.5 180.617C345.188 179.826 346.109 179.43 347.266 179.43C348.401 179.43 349.294 179.807 349.945 180.562C350.596 181.318 350.922 182.352 350.922 183.664V184.18H344.867V184.242C344.904 185.076 345.138 185.737 345.57 186.227C346.008 186.716 346.583 186.961 347.297 186.961C348.385 186.961 349.109 186.581 349.469 185.82ZM353.031 188V179.578H354.312V180.828H354.438C354.562 180.417 354.844 180.081 355.281 179.82C355.719 179.56 356.216 179.43 356.773 179.43C357.029 179.43 357.253 179.443 357.445 179.469V180.812C357.263 180.76 356.977 180.734 356.586 180.734C355.945 180.734 355.417 180.927 355 181.312C354.583 181.698 354.375 182.188 354.375 182.781V188H353.031ZM359.281 188V179.578H360.562V180.906H360.688C361.135 179.922 361.979 179.43 363.219 179.43C364.161 179.43 364.888 179.701 365.398 180.242C365.909 180.779 366.164 181.547 366.164 182.547V188H364.82V182.875C364.82 182.12 364.656 181.56 364.328 181.195C364.005 180.826 363.508 180.641 362.836 180.641C362.159 180.641 361.62 180.854 361.219 181.281C360.823 181.703 360.625 182.281 360.625 183.016V188H359.281ZM371.984 180.617C371.312 180.617 370.76 180.844 370.328 181.297C369.896 181.75 369.654 182.349 369.602 183.094H374.242C374.227 182.349 374.013 181.75 373.602 181.297C373.19 180.844 372.651 180.617 371.984 180.617ZM374.203 185.82H375.547C375.344 186.549 374.93 187.12 374.305 187.531C373.685 187.943 372.917 188.148 372 188.148C370.833 188.148 369.909 187.758 369.227 186.977C368.544 186.19 368.203 185.13 368.203 183.797C368.203 182.469 368.547 181.409 369.234 180.617C369.922 179.826 370.844 179.43 372 179.43C373.135 179.43 374.029 179.807 374.68 180.562C375.331 181.318 375.656 182.352 375.656 183.664V184.18H369.602V184.242C369.638 185.076 369.872 185.737 370.305 186.227C370.742 186.716 371.318 186.961 372.031 186.961C373.12 186.961 373.844 186.581 374.203 185.82ZM380.883 188.148C379.805 188.148 378.945 187.753 378.305 186.961C377.664 186.169 377.344 185.112 377.344 183.789C377.344 182.471 377.664 181.417 378.305 180.625C378.951 179.828 379.81 179.43 380.883 179.43C381.471 179.43 381.997 179.562 382.461 179.828C382.93 180.089 383.284 180.448 383.523 180.906H383.641V176.234H384.984V188H383.703V186.656H383.578C383.312 187.125 382.943 187.492 382.469 187.758C381.995 188.018 381.466 188.148 380.883 188.148ZM381.195 180.641C380.43 180.641 379.828 180.922 379.391 181.484C378.953 182.042 378.734 182.81 378.734 183.789C378.734 184.773 378.951 185.544 379.383 186.102C379.82 186.659 380.424 186.938 381.195 186.938C381.961 186.938 382.565 186.656 383.008 186.094C383.451 185.531 383.672 184.763 383.672 183.789C383.672 182.826 383.448 182.06 383 181.492C382.557 180.924 381.956 180.641 381.195 180.641ZM394.703 186.969C395.396 186.969 395.969 186.768 396.422 186.367C396.88 185.966 397.109 185.464 397.109 184.859V184.086L394.844 184.234C394.208 184.276 393.742 184.409 393.445 184.633C393.148 184.857 393 185.182 393 185.609C393 186.031 393.159 186.365 393.477 186.609C393.794 186.849 394.203 186.969 394.703 186.969ZM394.453 188.148C393.625 188.148 392.943 187.922 392.406 187.469C391.875 187.01 391.609 186.401 391.609 185.641C391.609 184.891 391.875 184.302 392.406 183.875C392.938 183.448 393.695 183.206 394.68 183.148L397.109 183V182.234C397.109 181.714 396.948 181.315 396.625 181.039C396.302 180.763 395.828 180.625 395.203 180.625C394.698 180.625 394.279 180.716 393.945 180.898C393.612 181.081 393.398 181.339 393.305 181.672H391.945C392.034 181 392.38 180.458 392.984 180.047C393.594 179.635 394.349 179.43 395.25 179.43C396.271 179.43 397.06 179.677 397.617 180.172C398.174 180.667 398.453 181.354 398.453 182.234V188H397.172V186.758H397.047C396.776 187.206 396.417 187.549 395.969 187.789C395.521 188.029 395.016 188.148 394.453 188.148ZM400.938 188V179.578H402.219V180.906H402.344C402.792 179.922 403.635 179.43 404.875 179.43C405.818 179.43 406.544 179.701 407.055 180.242C407.565 180.779 407.82 181.547 407.82 182.547V188H406.477V182.875C406.477 182.12 406.312 181.56 405.984 181.195C405.661 180.826 405.164 180.641 404.492 180.641C403.815 180.641 403.276 180.854 402.875 181.281C402.479 181.703 402.281 182.281 402.281 183.016V188H400.938ZM413.398 188.148C412.32 188.148 411.461 187.753 410.82 186.961C410.18 186.169 409.859 185.112 409.859 183.789C409.859 182.471 410.18 181.417 410.82 180.625C411.466 179.828 412.326 179.43 413.398 179.43C413.987 179.43 414.513 179.562 414.977 179.828C415.445 180.089 415.799 180.448 416.039 180.906H416.156V176.234H417.5V188H416.219V186.656H416.094C415.828 187.125 415.458 187.492 414.984 187.758C414.51 188.018 413.982 188.148 413.398 188.148ZM413.711 180.641C412.945 180.641 412.344 180.922 411.906 181.484C411.469 182.042 411.25 182.81 411.25 183.789C411.25 184.773 411.466 185.544 411.898 186.102C412.336 186.659 412.94 186.938 413.711 186.938C414.477 186.938 415.081 186.656 415.523 186.094C415.966 185.531 416.188 184.763 416.188 183.789C416.188 182.826 415.964 182.06 415.516 181.492C415.073 180.924 414.471 180.641 413.711 180.641ZM425.188 177.398H426.531V179.578H428.406V180.703H426.531V185.469C426.531 185.964 426.63 186.323 426.828 186.547C427.026 186.771 427.344 186.883 427.781 186.883C427.974 186.883 428.182 186.872 428.406 186.852V187.984C428.109 188.036 427.846 188.062 427.617 188.062C426.747 188.062 426.125 187.888 425.75 187.539C425.375 187.19 425.188 186.615 425.188 185.812V180.703H423.828V179.578H425.188V177.398ZM430.516 188V176.234H431.859V180.906H431.984C432.198 180.432 432.523 180.068 432.961 179.812C433.404 179.557 433.943 179.43 434.578 179.43C435.474 179.43 436.182 179.706 436.703 180.258C437.224 180.805 437.484 181.568 437.484 182.547V188H436.141V182.875C436.141 181.385 435.492 180.641 434.195 180.641C433.456 180.641 432.88 180.857 432.469 181.289C432.062 181.716 431.859 182.292 431.859 183.016V188H430.516ZM443.297 180.617C442.625 180.617 442.073 180.844 441.641 181.297C441.208 181.75 440.966 182.349 440.914 183.094H445.555C445.539 182.349 445.326 181.75 444.914 181.297C444.503 180.844 443.964 180.617 443.297 180.617ZM445.516 185.82H446.859C446.656 186.549 446.242 187.12 445.617 187.531C444.997 187.943 444.229 188.148 443.312 188.148C442.146 188.148 441.221 187.758 440.539 186.977C439.857 186.19 439.516 185.13 439.516 183.797C439.516 182.469 439.859 181.409 440.547 180.617C441.234 179.826 442.156 179.43 443.312 179.43C444.448 179.43 445.341 179.807 445.992 180.562C446.643 181.318 446.969 182.352 446.969 183.664V184.18H440.914V184.242C440.951 185.076 441.185 185.737 441.617 186.227C442.055 186.716 442.63 186.961 443.344 186.961C444.432 186.961 445.156 186.581 445.516 185.82ZM449.641 191.047C449.427 191.047 449.227 191.031 449.039 191V189.852C449.174 189.878 449.362 189.891 449.602 189.891C449.992 189.891 450.302 189.786 450.531 189.578C450.766 189.37 450.971 189.013 451.148 188.508L451.305 188.008L448.188 179.578H449.641L451.953 186.508H452.078L454.383 179.578H455.812L452.523 188.516C452.164 189.49 451.781 190.154 451.375 190.508C450.969 190.867 450.391 191.047 449.641 191.047ZM472.719 179.578L470.359 188H468.992L467.109 181.484H466.984L465.109 188H463.75L461.391 179.578H462.75L464.406 186.312H464.531L466.414 179.578H467.703L469.586 186.312H469.711L471.367 179.578H472.719ZM476.875 186.969C477.568 186.969 478.141 186.768 478.594 186.367C479.052 185.966 479.281 185.464 479.281 184.859V184.086L477.016 184.234C476.38 184.276 475.914 184.409 475.617 184.633C475.32 184.857 475.172 185.182 475.172 185.609C475.172 186.031 475.331 186.365 475.648 186.609C475.966 186.849 476.375 186.969 476.875 186.969ZM476.625 188.148C475.797 188.148 475.115 187.922 474.578 187.469C474.047 187.01 473.781 186.401 473.781 185.641C473.781 184.891 474.047 184.302 474.578 183.875C475.109 183.448 475.867 183.206 476.852 183.148L479.281 183V182.234C479.281 181.714 479.12 181.315 478.797 181.039C478.474 180.763 478 180.625 477.375 180.625C476.87 180.625 476.451 180.716 476.117 180.898C475.784 181.081 475.57 181.339 475.477 181.672H474.117C474.206 181 474.552 180.458 475.156 180.047C475.766 179.635 476.521 179.43 477.422 179.43C478.443 179.43 479.232 179.677 479.789 180.172C480.346 180.667 480.625 181.354 480.625 182.234V188H479.344V186.758H479.219C478.948 187.206 478.589 187.549 478.141 187.789C477.693 188.029 477.188 188.148 476.625 188.148ZM483.109 188V179.578H484.391V180.906H484.516C484.964 179.922 485.807 179.43 487.047 179.43C487.99 179.43 488.716 179.701 489.227 180.242C489.737 180.779 489.992 181.547 489.992 182.547V188H488.648V182.875C488.648 182.12 488.484 181.56 488.156 181.195C487.833 180.826 487.336 180.641 486.664 180.641C485.987 180.641 485.448 180.854 485.047 181.281C484.651 181.703 484.453 182.281 484.453 183.016V188H483.109ZM493.016 177.398H494.359V179.578H496.234V180.703H494.359V185.469C494.359 185.964 494.458 186.323 494.656 186.547C494.854 186.771 495.172 186.883 495.609 186.883C495.802 186.883 496.01 186.872 496.234 186.852V187.984C495.938 188.036 495.674 188.062 495.445 188.062C494.576 188.062 493.953 187.888 493.578 187.539C493.203 187.19 493.016 186.615 493.016 185.812V180.703H491.656V179.578H493.016V177.398ZM503.344 177.398H504.688V179.578H506.562V180.703H504.688V185.469C504.688 185.964 504.786 186.323 504.984 186.547C505.182 186.771 505.5 186.883 505.938 186.883C506.13 186.883 506.339 186.872 506.562 186.852V187.984C506.266 188.036 506.003 188.062 505.773 188.062C504.904 188.062 504.281 187.888 503.906 187.539C503.531 187.19 503.344 186.615 503.344 185.812V180.703H501.984V179.578H503.344V177.398ZM514.766 186.984C514.073 187.76 513.128 188.148 511.93 188.148C510.732 188.148 509.784 187.76 509.086 186.984C508.393 186.203 508.047 185.138 508.047 183.789C508.047 182.435 508.393 181.37 509.086 180.594C509.779 179.818 510.727 179.43 511.93 179.43C513.133 179.43 514.081 179.818 514.773 180.594C515.466 181.37 515.812 182.435 515.812 183.789C515.812 185.138 515.464 186.203 514.766 186.984ZM510.086 186.117C510.518 186.664 511.133 186.938 511.93 186.938C512.727 186.938 513.341 186.664 513.773 186.117C514.206 185.565 514.422 184.789 514.422 183.789C514.422 182.789 514.206 182.016 513.773 181.469C513.341 180.917 512.727 180.641 511.93 180.641C511.133 180.641 510.518 180.917 510.086 181.469C509.654 182.016 509.438 182.789 509.438 183.789C509.438 184.789 509.654 185.565 510.086 186.117ZM523 177.398H524.344V179.578H526.219V180.703H524.344V185.469C524.344 185.964 524.443 186.323 524.641 186.547C524.839 186.771 525.156 186.883 525.594 186.883C525.786 186.883 525.995 186.872 526.219 186.852V187.984C525.922 188.036 525.659 188.062 525.43 188.062C524.56 188.062 523.938 187.888 523.562 187.539C523.188 187.19 523 186.615 523 185.812V180.703H521.641V179.578H523V177.398ZM530.844 186.969C531.536 186.969 532.109 186.768 532.562 186.367C533.021 185.966 533.25 185.464 533.25 184.859V184.086L530.984 184.234C530.349 184.276 529.883 184.409 529.586 184.633C529.289 184.857 529.141 185.182 529.141 185.609C529.141 186.031 529.299 186.365 529.617 186.609C529.935 186.849 530.344 186.969 530.844 186.969ZM530.594 188.148C529.766 188.148 529.083 187.922 528.547 187.469C528.016 187.01 527.75 186.401 527.75 185.641C527.75 184.891 528.016 184.302 528.547 183.875C529.078 183.448 529.836 183.206 530.82 183.148L533.25 183V182.234C533.25 181.714 533.089 181.315 532.766 181.039C532.443 180.763 531.969 180.625 531.344 180.625C530.839 180.625 530.419 180.716 530.086 180.898C529.753 181.081 529.539 181.339 529.445 181.672H528.086C528.174 181 528.521 180.458 529.125 180.047C529.734 179.635 530.49 179.43 531.391 179.43C532.411 179.43 533.201 179.677 533.758 180.172C534.315 180.667 534.594 181.354 534.594 182.234V188H533.312V186.758H533.188C532.917 187.206 532.557 187.549 532.109 187.789C531.661 188.029 531.156 188.148 530.594 188.148ZM537.156 188V176.234H538.5V188H537.156ZM542.656 183.258L546.312 179.578H547.961L544.336 183.188L548.203 188H546.492L543.336 184.055L542.531 184.805V188H541.188V176.234H542.531V183.258H542.656ZM550.234 176.719H551.797L551.664 184.25H550.367L550.234 176.719ZM551.797 187.836C551.599 188.039 551.341 188.141 551.023 188.141C550.706 188.141 550.445 188.039 550.242 187.836C550.039 187.633 549.938 187.372 549.938 187.055C549.938 186.737 550.039 186.477 550.242 186.273C550.445 186.065 550.706 185.961 551.023 185.961C551.341 185.961 551.599 186.062 551.797 186.266C552 186.469 552.102 186.732 552.102 187.055C552.102 187.372 552 187.633 551.797 187.836ZM560.859 188H559.469V176.727H560.836L566.953 185.5H567.078V176.727H568.469V188H567.102L560.984 179.258H560.859V188ZM577.469 186.984C576.776 187.76 575.831 188.148 574.633 188.148C573.435 188.148 572.487 187.76 571.789 186.984C571.096 186.203 570.75 185.138 570.75 183.789C570.75 182.435 571.096 181.37 571.789 180.594C572.482 179.818 573.43 179.43 574.633 179.43C575.836 179.43 576.784 179.818 577.477 180.594C578.169 181.37 578.516 182.435 578.516 183.789C578.516 185.138 578.167 186.203 577.469 186.984ZM572.789 186.117C573.221 186.664 573.836 186.938 574.633 186.938C575.43 186.938 576.044 186.664 576.477 186.117C576.909 185.565 577.125 184.789 577.125 183.789C577.125 182.789 576.909 182.016 576.477 181.469C576.044 180.917 575.43 180.641 574.633 180.641C573.836 180.641 573.221 180.917 572.789 181.469C572.357 182.016 572.141 182.789 572.141 183.789C572.141 184.789 572.357 185.565 572.789 186.117ZM590.906 179.578L588.547 188H587.18L585.297 181.484H585.172L583.297 188H581.938L579.578 179.578H580.938L582.594 186.312H582.719L584.602 179.578H585.891L587.773 186.312H587.898L589.555 179.578H590.906ZM597.219 188V179.578H598.5V180.906H598.625C598.818 180.438 599.117 180.076 599.523 179.82C599.93 179.56 600.414 179.43 600.977 179.43C601.529 179.43 602.003 179.562 602.398 179.828C602.799 180.094 603.102 180.453 603.305 180.906H603.43C603.659 180.453 604.003 180.094 604.461 179.828C604.919 179.562 605.435 179.43 606.008 179.43C606.867 179.43 607.529 179.669 607.992 180.148C608.456 180.622 608.688 181.299 608.688 182.18V188H607.344V182.492C607.344 181.258 606.753 180.641 605.57 180.641C604.997 180.641 604.529 180.828 604.164 181.203C603.799 181.578 603.617 182.039 603.617 182.586V188H602.273V182.281C602.273 181.781 602.112 181.383 601.789 181.086C601.471 180.789 601.047 180.641 600.516 180.641C599.969 180.641 599.505 180.849 599.125 181.266C598.75 181.682 598.562 182.188 598.562 182.781V188H597.219ZM613.734 186.969C614.427 186.969 615 186.768 615.453 186.367C615.911 185.966 616.141 185.464 616.141 184.859V184.086L613.875 184.234C613.24 184.276 612.773 184.409 612.477 184.633C612.18 184.857 612.031 185.182 612.031 185.609C612.031 186.031 612.19 186.365 612.508 186.609C612.826 186.849 613.234 186.969 613.734 186.969ZM613.484 188.148C612.656 188.148 611.974 187.922 611.438 187.469C610.906 187.01 610.641 186.401 610.641 185.641C610.641 184.891 610.906 184.302 611.438 183.875C611.969 183.448 612.727 183.206 613.711 183.148L616.141 183V182.234C616.141 181.714 615.979 181.315 615.656 181.039C615.333 180.763 614.859 180.625 614.234 180.625C613.729 180.625 613.31 180.716 612.977 180.898C612.643 181.081 612.43 181.339 612.336 181.672H610.977C611.065 181 611.411 180.458 612.016 180.047C612.625 179.635 613.38 179.43 614.281 179.43C615.302 179.43 616.091 179.677 616.648 180.172C617.206 180.667 617.484 181.354 617.484 182.234V188H616.203V186.758H616.078C615.807 187.206 615.448 187.549 615 187.789C614.552 188.029 614.047 188.148 613.484 188.148ZM621.516 183.258L625.172 179.578H626.82L623.195 183.188L627.062 188H625.352L622.195 184.055L621.391 184.805V188H620.047V176.234H621.391V183.258H621.516ZM631.625 180.617C630.953 180.617 630.401 180.844 629.969 181.297C629.536 181.75 629.294 182.349 629.242 183.094H633.883C633.867 182.349 633.654 181.75 633.242 181.297C632.831 180.844 632.292 180.617 631.625 180.617ZM633.844 185.82H635.188C634.984 186.549 634.57 187.12 633.945 187.531C633.326 187.943 632.557 188.148 631.641 188.148C630.474 188.148 629.549 187.758 628.867 186.977C628.185 186.19 627.844 185.13 627.844 183.797C627.844 182.469 628.188 181.409 628.875 180.617C629.562 179.826 630.484 179.43 631.641 179.43C632.776 179.43 633.669 179.807 634.32 180.562C634.971 181.318 635.297 182.352 635.297 183.664V184.18H629.242V184.242C629.279 185.076 629.513 185.737 629.945 186.227C630.383 186.716 630.958 186.961 631.672 186.961C632.76 186.961 633.484 186.581 633.844 185.82ZM642.484 177.398H643.828V179.578H645.703V180.703H643.828V185.469C643.828 185.964 643.927 186.323 644.125 186.547C644.323 186.771 644.641 186.883 645.078 186.883C645.271 186.883 645.479 186.872 645.703 186.852V187.984C645.406 188.036 645.143 188.062 644.914 188.062C644.044 188.062 643.422 187.888 643.047 187.539C642.672 187.19 642.484 186.615 642.484 185.812V180.703H641.125V179.578H642.484V177.398ZM647.812 188V176.234H649.156V180.906H649.281C649.495 180.432 649.82 180.068 650.258 179.812C650.701 179.557 651.24 179.43 651.875 179.43C652.771 179.43 653.479 179.706 654 180.258C654.521 180.805 654.781 181.568 654.781 182.547V188H653.438V182.875C653.438 181.385 652.789 180.641 651.492 180.641C650.753 180.641 650.177 180.857 649.766 181.289C649.359 181.716 649.156 182.292 649.156 183.016V188H647.812ZM657.266 188V179.578H658.609V188H657.266ZM658.602 177.594C658.419 177.776 658.198 177.867 657.938 177.867C657.677 177.867 657.456 177.776 657.273 177.594C657.091 177.406 657 177.185 657 176.93C657 176.674 657.091 176.456 657.273 176.273C657.456 176.086 657.677 175.992 657.938 175.992C658.198 175.992 658.419 176.086 658.602 176.273C658.784 176.456 658.875 176.674 658.875 176.93C658.875 177.185 658.784 177.406 658.602 177.594ZM660.977 181.883C660.977 181.185 661.276 180.602 661.875 180.133C662.474 179.664 663.221 179.43 664.117 179.43C664.997 179.43 665.724 179.633 666.297 180.039C666.87 180.445 667.201 180.995 667.289 181.688H665.961C665.867 181.344 665.659 181.073 665.336 180.875C665.018 180.672 664.609 180.57 664.109 180.57C663.604 180.57 663.18 180.688 662.836 180.922C662.497 181.156 662.328 181.458 662.328 181.828C662.328 182.115 662.445 182.354 662.68 182.547C662.919 182.734 663.289 182.888 663.789 183.008L665.086 183.32C665.888 183.513 666.479 183.792 666.859 184.156C667.245 184.521 667.438 185.003 667.438 185.602C667.438 186.346 667.117 186.958 666.477 187.438C665.836 187.911 665.031 188.148 664.062 188.148C663.125 188.148 662.357 187.94 661.758 187.523C661.159 187.107 660.823 186.549 660.75 185.852H662.133C662.247 186.216 662.474 186.503 662.812 186.711C663.151 186.914 663.583 187.016 664.109 187.016C664.677 187.016 665.143 186.893 665.508 186.648C665.872 186.404 666.055 186.089 666.055 185.703C666.055 185.13 665.609 184.734 664.719 184.516L663.273 184.164C662.477 183.971 661.893 183.695 661.523 183.336C661.159 182.971 660.977 182.487 660.977 181.883ZM217.344 207V195.234H218.688V199.906H218.812C219.026 199.432 219.352 199.068 219.789 198.812C220.232 198.557 220.771 198.43 221.406 198.43C222.302 198.43 223.01 198.706 223.531 199.258C224.052 199.805 224.312 200.568 224.312 201.547V207H222.969V201.875C222.969 200.385 222.32 199.641 221.023 199.641C220.284 199.641 219.708 199.857 219.297 200.289C218.891 200.716 218.688 201.292 218.688 202.016V207H217.344ZM229.359 205.969C230.052 205.969 230.625 205.768 231.078 205.367C231.536 204.966 231.766 204.464 231.766 203.859V203.086L229.5 203.234C228.865 203.276 228.398 203.409 228.102 203.633C227.805 203.857 227.656 204.182 227.656 204.609C227.656 205.031 227.815 205.365 228.133 205.609C228.451 205.849 228.859 205.969 229.359 205.969ZM229.109 207.148C228.281 207.148 227.599 206.922 227.062 206.469C226.531 206.01 226.266 205.401 226.266 204.641C226.266 203.891 226.531 203.302 227.062 202.875C227.594 202.448 228.352 202.206 229.336 202.148L231.766 202V201.234C231.766 200.714 231.604 200.315 231.281 200.039C230.958 199.763 230.484 199.625 229.859 199.625C229.354 199.625 228.935 199.716 228.602 199.898C228.268 200.081 228.055 200.339 227.961 200.672H226.602C226.69 200 227.036 199.458 227.641 199.047C228.25 198.635 229.005 198.43 229.906 198.43C230.927 198.43 231.716 198.677 232.273 199.172C232.831 199.667 233.109 200.354 233.109 201.234V207H231.828V205.758H231.703C231.432 206.206 231.073 206.549 230.625 206.789C230.177 207.029 229.672 207.148 229.109 207.148ZM239.695 198.43C240.768 198.43 241.625 198.826 242.266 199.617C242.911 200.409 243.234 201.466 243.234 202.789C243.234 204.107 242.911 205.164 242.266 205.961C241.62 206.753 240.763 207.148 239.695 207.148C239.096 207.148 238.565 207.026 238.102 206.781C237.638 206.531 237.292 206.182 237.062 205.734H236.938V209.812H235.594V198.578H236.875V199.984H237C237.271 199.5 237.643 199.12 238.117 198.844C238.596 198.568 239.122 198.43 239.695 198.43ZM239.375 205.938C240.146 205.938 240.75 205.659 241.188 205.102C241.625 204.544 241.844 203.773 241.844 202.789C241.844 201.805 241.625 201.034 241.188 200.477C240.755 199.919 240.154 199.641 239.383 199.641C238.622 199.641 238.018 199.924 237.57 200.492C237.122 201.055 236.898 201.82 236.898 202.789C236.898 203.753 237.12 204.518 237.562 205.086C238.01 205.654 238.615 205.938 239.375 205.938ZM249.445 198.43C250.518 198.43 251.375 198.826 252.016 199.617C252.661 200.409 252.984 201.466 252.984 202.789C252.984 204.107 252.661 205.164 252.016 205.961C251.37 206.753 250.513 207.148 249.445 207.148C248.846 207.148 248.315 207.026 247.852 206.781C247.388 206.531 247.042 206.182 246.812 205.734H246.688V209.812H245.344V198.578H246.625V199.984H246.75C247.021 199.5 247.393 199.12 247.867 198.844C248.346 198.568 248.872 198.43 249.445 198.43ZM249.125 205.938C249.896 205.938 250.5 205.659 250.938 205.102C251.375 204.544 251.594 203.773 251.594 202.789C251.594 201.805 251.375 201.034 250.938 200.477C250.505 199.919 249.904 199.641 249.133 199.641C248.372 199.641 247.768 199.924 247.32 200.492C246.872 201.055 246.648 201.82 246.648 202.789C246.648 203.753 246.87 204.518 247.312 205.086C247.76 205.654 248.365 205.938 249.125 205.938ZM258.453 199.617C257.781 199.617 257.229 199.844 256.797 200.297C256.365 200.75 256.122 201.349 256.07 202.094H260.711C260.695 201.349 260.482 200.75 260.07 200.297C259.659 199.844 259.12 199.617 258.453 199.617ZM260.672 204.82H262.016C261.812 205.549 261.398 206.12 260.773 206.531C260.154 206.943 259.385 207.148 258.469 207.148C257.302 207.148 256.378 206.758 255.695 205.977C255.013 205.19 254.672 204.13 254.672 202.797C254.672 201.469 255.016 200.409 255.703 199.617C256.391 198.826 257.312 198.43 258.469 198.43C259.604 198.43 260.497 198.807 261.148 199.562C261.799 200.318 262.125 201.352 262.125 202.664V203.18H256.07V203.242C256.107 204.076 256.341 204.737 256.773 205.227C257.211 205.716 257.786 205.961 258.5 205.961C259.589 205.961 260.312 205.581 260.672 204.82ZM264.234 207V198.578H265.516V199.906H265.641C266.089 198.922 266.932 198.43 268.172 198.43C269.115 198.43 269.841 198.701 270.352 199.242C270.862 199.779 271.117 200.547 271.117 201.547V207H269.773V201.875C269.773 201.12 269.609 200.56 269.281 200.195C268.958 199.826 268.461 199.641 267.789 199.641C267.112 199.641 266.573 199.854 266.172 200.281C265.776 200.703 265.578 201.281 265.578 202.016V207H264.234ZM278.125 207V198.578H279.469V207H278.125ZM279.461 196.594C279.279 196.776 279.057 196.867 278.797 196.867C278.536 196.867 278.315 196.776 278.133 196.594C277.951 196.406 277.859 196.185 277.859 195.93C277.859 195.674 277.951 195.456 278.133 195.273C278.315 195.086 278.536 194.992 278.797 194.992C279.057 194.992 279.279 195.086 279.461 195.273C279.643 195.456 279.734 195.674 279.734 195.93C279.734 196.185 279.643 196.406 279.461 196.594ZM282.031 207V198.578H283.312V199.906H283.438C283.885 198.922 284.729 198.43 285.969 198.43C286.911 198.43 287.638 198.701 288.148 199.242C288.659 199.779 288.914 200.547 288.914 201.547V207H287.57V201.875C287.57 201.12 287.406 200.56 287.078 200.195C286.755 199.826 286.258 199.641 285.586 199.641C284.909 199.641 284.37 199.854 283.969 200.281C283.573 200.703 283.375 201.281 283.375 202.016V207H282.031ZM298.484 205.969C299.177 205.969 299.75 205.768 300.203 205.367C300.661 204.966 300.891 204.464 300.891 203.859V203.086L298.625 203.234C297.99 203.276 297.523 203.409 297.227 203.633C296.93 203.857 296.781 204.182 296.781 204.609C296.781 205.031 296.94 205.365 297.258 205.609C297.576 205.849 297.984 205.969 298.484 205.969ZM298.234 207.148C297.406 207.148 296.724 206.922 296.188 206.469C295.656 206.01 295.391 205.401 295.391 204.641C295.391 203.891 295.656 203.302 296.188 202.875C296.719 202.448 297.477 202.206 298.461 202.148L300.891 202V201.234C300.891 200.714 300.729 200.315 300.406 200.039C300.083 199.763 299.609 199.625 298.984 199.625C298.479 199.625 298.06 199.716 297.727 199.898C297.393 200.081 297.18 200.339 297.086 200.672H295.727C295.815 200 296.161 199.458 296.766 199.047C297.375 198.635 298.13 198.43 299.031 198.43C300.052 198.43 300.841 198.677 301.398 199.172C301.956 199.667 302.234 200.354 302.234 201.234V207H300.953V205.758H300.828C300.557 206.206 300.198 206.549 299.75 206.789C299.302 207.029 298.797 207.148 298.234 207.148ZM304.719 207V198.578H306V199.906H306.125C306.573 198.922 307.417 198.43 308.656 198.43C309.599 198.43 310.326 198.701 310.836 199.242C311.346 199.779 311.602 200.547 311.602 201.547V207H310.258V201.875C310.258 201.12 310.094 200.56 309.766 200.195C309.443 199.826 308.945 199.641 308.273 199.641C307.596 199.641 307.057 199.854 306.656 200.281C306.26 200.703 306.062 201.281 306.062 202.016V207H304.719ZM318.609 207V198.578H319.953V207H318.609ZM319.945 196.594C319.763 196.776 319.542 196.867 319.281 196.867C319.021 196.867 318.799 196.776 318.617 196.594C318.435 196.406 318.344 196.185 318.344 195.93C318.344 195.674 318.435 195.456 318.617 195.273C318.799 195.086 319.021 194.992 319.281 194.992C319.542 194.992 319.763 195.086 319.945 195.273C320.128 195.456 320.219 195.674 320.219 195.93C320.219 196.185 320.128 196.406 319.945 196.594ZM322.516 207V198.578H323.797V199.906H323.922C324.37 198.922 325.214 198.43 326.453 198.43C327.396 198.43 328.122 198.701 328.633 199.242C329.143 199.779 329.398 200.547 329.398 201.547V207H328.055V201.875C328.055 201.12 327.891 200.56 327.562 200.195C327.24 199.826 326.742 199.641 326.07 199.641C325.393 199.641 324.854 199.854 324.453 200.281C324.057 200.703 323.859 201.281 323.859 202.016V207H322.516ZM331.664 200.883C331.664 200.185 331.964 199.602 332.562 199.133C333.161 198.664 333.909 198.43 334.805 198.43C335.685 198.43 336.411 198.633 336.984 199.039C337.557 199.445 337.888 199.995 337.977 200.688H336.648C336.555 200.344 336.346 200.073 336.023 199.875C335.706 199.672 335.297 199.57 334.797 199.57C334.292 199.57 333.867 199.688 333.523 199.922C333.185 200.156 333.016 200.458 333.016 200.828C333.016 201.115 333.133 201.354 333.367 201.547C333.607 201.734 333.977 201.888 334.477 202.008L335.773 202.32C336.576 202.513 337.167 202.792 337.547 203.156C337.932 203.521 338.125 204.003 338.125 204.602C338.125 205.346 337.805 205.958 337.164 206.438C336.523 206.911 335.719 207.148 334.75 207.148C333.812 207.148 333.044 206.94 332.445 206.523C331.846 206.107 331.51 205.549 331.438 204.852H332.82C332.935 205.216 333.161 205.503 333.5 205.711C333.839 205.914 334.271 206.016 334.797 206.016C335.365 206.016 335.831 205.893 336.195 205.648C336.56 205.404 336.742 205.089 336.742 204.703C336.742 204.13 336.297 203.734 335.406 203.516L333.961 203.164C333.164 202.971 332.581 202.695 332.211 202.336C331.846 201.971 331.664 201.487 331.664 200.883ZM340.719 196.398H342.062V198.578H343.938V199.703H342.062V204.469C342.062 204.964 342.161 205.323 342.359 205.547C342.557 205.771 342.875 205.883 343.312 205.883C343.505 205.883 343.714 205.872 343.938 205.852V206.984C343.641 207.036 343.378 207.062 343.148 207.062C342.279 207.062 341.656 206.888 341.281 206.539C340.906 206.19 340.719 205.615 340.719 204.812V199.703H339.359V198.578H340.719V196.398ZM348.562 205.969C349.255 205.969 349.828 205.768 350.281 205.367C350.74 204.966 350.969 204.464 350.969 203.859V203.086L348.703 203.234C348.068 203.276 347.602 203.409 347.305 203.633C347.008 203.857 346.859 204.182 346.859 204.609C346.859 205.031 347.018 205.365 347.336 205.609C347.654 205.849 348.062 205.969 348.562 205.969ZM348.312 207.148C347.484 207.148 346.802 206.922 346.266 206.469C345.734 206.01 345.469 205.401 345.469 204.641C345.469 203.891 345.734 203.302 346.266 202.875C346.797 202.448 347.555 202.206 348.539 202.148L350.969 202V201.234C350.969 200.714 350.807 200.315 350.484 200.039C350.161 199.763 349.688 199.625 349.062 199.625C348.557 199.625 348.138 199.716 347.805 199.898C347.471 200.081 347.258 200.339 347.164 200.672H345.805C345.893 200 346.24 199.458 346.844 199.047C347.453 198.635 348.208 198.43 349.109 198.43C350.13 198.43 350.919 198.677 351.477 199.172C352.034 199.667 352.312 200.354 352.312 201.234V207H351.031V205.758H350.906C350.635 206.206 350.276 206.549 349.828 206.789C349.38 207.029 348.875 207.148 348.312 207.148ZM354.797 207V198.578H356.078V199.906H356.203C356.651 198.922 357.495 198.43 358.734 198.43C359.677 198.43 360.404 198.701 360.914 199.242C361.424 199.779 361.68 200.547 361.68 201.547V207H360.336V201.875C360.336 201.12 360.172 200.56 359.844 200.195C359.521 199.826 359.023 199.641 358.352 199.641C357.674 199.641 357.135 199.854 356.734 200.281C356.339 200.703 356.141 201.281 356.141 202.016V207H354.797ZM364.703 196.398H366.047V198.578H367.922V199.703H366.047V204.469C366.047 204.964 366.146 205.323 366.344 205.547C366.542 205.771 366.859 205.883 367.297 205.883C367.49 205.883 367.698 205.872 367.922 205.852V206.984C367.625 207.036 367.362 207.062 367.133 207.062C366.263 207.062 365.641 206.888 365.266 206.539C364.891 206.19 364.703 205.615 364.703 204.812V199.703H363.344V198.578H364.703V196.398ZM385.062 198.578L382.703 207H381.336L379.453 200.484H379.328L377.453 207H376.094L373.734 198.578H375.094L376.75 205.312H376.875L378.758 198.578H380.047L381.93 205.312H382.055L383.711 198.578H385.062ZM386.891 207V198.578H388.234V207H386.891ZM388.227 196.594C388.044 196.776 387.823 196.867 387.562 196.867C387.302 196.867 387.081 196.776 386.898 196.594C386.716 196.406 386.625 196.185 386.625 195.93C386.625 195.674 386.716 195.456 386.898 195.273C387.081 195.086 387.302 194.992 387.562 194.992C387.823 194.992 388.044 195.086 388.227 195.273C388.409 195.456 388.5 195.674 388.5 195.93C388.5 196.185 388.409 196.406 388.227 196.594ZM391.359 196.398H392.703V198.578H394.578V199.703H392.703V204.469C392.703 204.964 392.802 205.323 393 205.547C393.198 205.771 393.516 205.883 393.953 205.883C394.146 205.883 394.354 205.872 394.578 205.852V206.984C394.281 207.036 394.018 207.062 393.789 207.062C392.919 207.062 392.297 206.888 391.922 206.539C391.547 206.19 391.359 205.615 391.359 204.812V199.703H390V198.578H391.359V196.398ZM396.688 207V195.234H398.031V199.906H398.156C398.37 199.432 398.695 199.068 399.133 198.812C399.576 198.557 400.115 198.43 400.75 198.43C401.646 198.43 402.354 198.706 402.875 199.258C403.396 199.805 403.656 200.568 403.656 201.547V207H402.312V201.875C402.312 200.385 401.664 199.641 400.367 199.641C399.628 199.641 399.052 199.857 398.641 200.289C398.234 200.716 398.031 201.292 398.031 202.016V207H396.688ZM411.188 196.398H412.531V198.578H414.406V199.703H412.531V204.469C412.531 204.964 412.63 205.323 412.828 205.547C413.026 205.771 413.344 205.883 413.781 205.883C413.974 205.883 414.182 205.872 414.406 205.852V206.984C414.109 207.036 413.846 207.062 413.617 207.062C412.747 207.062 412.125 206.888 411.75 206.539C411.375 206.19 411.188 205.615 411.188 204.812V199.703H409.828V198.578H411.188V196.398ZM416.516 207V195.234H417.859V199.906H417.984C418.198 199.432 418.523 199.068 418.961 198.812C419.404 198.557 419.943 198.43 420.578 198.43C421.474 198.43 422.182 198.706 422.703 199.258C423.224 199.805 423.484 200.568 423.484 201.547V207H422.141V201.875C422.141 200.385 421.492 199.641 420.195 199.641C419.456 199.641 418.88 199.857 418.469 200.289C418.062 200.716 417.859 201.292 417.859 202.016V207H416.516ZM429.297 199.617C428.625 199.617 428.073 199.844 427.641 200.297C427.208 200.75 426.966 201.349 426.914 202.094H431.555C431.539 201.349 431.326 200.75 430.914 200.297C430.503 199.844 429.964 199.617 429.297 199.617ZM431.516 204.82H432.859C432.656 205.549 432.242 206.12 431.617 206.531C430.997 206.943 430.229 207.148 429.312 207.148C428.146 207.148 427.221 206.758 426.539 205.977C425.857 205.19 425.516 204.13 425.516 202.797C425.516 201.469 425.859 200.409 426.547 199.617C427.234 198.826 428.156 198.43 429.312 198.43C430.448 198.43 431.341 198.807 431.992 199.562C432.643 200.318 432.969 201.352 432.969 202.664V203.18H426.914V203.242C426.951 204.076 427.185 204.737 427.617 205.227C428.055 205.716 428.63 205.961 429.344 205.961C430.432 205.961 431.156 205.581 431.516 204.82ZM446.562 201.156H445.203C445.089 200.714 444.841 200.352 444.461 200.07C444.086 199.784 443.609 199.641 443.031 199.641C442.276 199.641 441.674 199.922 441.227 200.484C440.784 201.047 440.562 201.805 440.562 202.758C440.562 203.727 440.786 204.5 441.234 205.078C441.682 205.651 442.281 205.938 443.031 205.938C443.599 205.938 444.07 205.81 444.445 205.555C444.826 205.299 445.078 204.935 445.203 204.461H446.562C446.438 205.258 446.065 205.906 445.445 206.406C444.826 206.901 444.023 207.148 443.039 207.148C441.857 207.148 440.917 206.753 440.219 205.961C439.521 205.164 439.172 204.096 439.172 202.758C439.172 201.445 439.521 200.396 440.219 199.609C440.917 198.823 441.854 198.43 443.031 198.43C444.016 198.43 444.818 198.688 445.438 199.203C446.062 199.719 446.438 200.37 446.562 201.156ZM448.625 207V195.234H449.969V199.906H450.094C450.307 199.432 450.633 199.068 451.07 198.812C451.513 198.557 452.052 198.43 452.688 198.43C453.583 198.43 454.292 198.706 454.812 199.258C455.333 199.805 455.594 200.568 455.594 201.547V207H454.25V201.875C454.25 200.385 453.602 199.641 452.305 199.641C451.565 199.641 450.99 199.857 450.578 200.289C450.172 200.716 449.969 201.292 449.969 202.016V207H448.625ZM460.641 205.969C461.333 205.969 461.906 205.768 462.359 205.367C462.818 204.966 463.047 204.464 463.047 203.859V203.086L460.781 203.234C460.146 203.276 459.68 203.409 459.383 203.633C459.086 203.857 458.938 204.182 458.938 204.609C458.938 205.031 459.096 205.365 459.414 205.609C459.732 205.849 460.141 205.969 460.641 205.969ZM460.391 207.148C459.562 207.148 458.88 206.922 458.344 206.469C457.812 206.01 457.547 205.401 457.547 204.641C457.547 203.891 457.812 203.302 458.344 202.875C458.875 202.448 459.633 202.206 460.617 202.148L463.047 202V201.234C463.047 200.714 462.885 200.315 462.562 200.039C462.24 199.763 461.766 199.625 461.141 199.625C460.635 199.625 460.216 199.716 459.883 199.898C459.549 200.081 459.336 200.339 459.242 200.672H457.883C457.971 200 458.318 199.458 458.922 199.047C459.531 198.635 460.286 198.43 461.188 198.43C462.208 198.43 462.997 198.677 463.555 199.172C464.112 199.667 464.391 200.354 464.391 201.234V207H463.109V205.758H462.984C462.714 206.206 462.354 206.549 461.906 206.789C461.458 207.029 460.953 207.148 460.391 207.148ZM467.438 196.398H468.781V198.578H470.656V199.703H468.781V204.469C468.781 204.964 468.88 205.323 469.078 205.547C469.276 205.771 469.594 205.883 470.031 205.883C470.224 205.883 470.432 205.872 470.656 205.852V206.984C470.359 207.036 470.096 207.062 469.867 207.062C468.997 207.062 468.375 206.888 468 206.539C467.625 206.19 467.438 205.615 467.438 204.812V199.703H466.078V198.578H467.438V196.398ZM477.766 207V199.703H476.367V198.578H477.766V197.641C477.766 195.984 478.581 195.156 480.211 195.156C480.549 195.156 480.852 195.182 481.117 195.234V196.328C480.982 196.302 480.771 196.289 480.484 196.289C480.005 196.289 479.656 196.404 479.438 196.633C479.219 196.862 479.109 197.211 479.109 197.68V198.578H481.039V199.703H479.109V207H477.766ZM486 199.617C485.328 199.617 484.776 199.844 484.344 200.297C483.911 200.75 483.669 201.349 483.617 202.094H488.258C488.242 201.349 488.029 200.75 487.617 200.297C487.206 199.844 486.667 199.617 486 199.617ZM488.219 204.82H489.562C489.359 205.549 488.945 206.12 488.32 206.531C487.701 206.943 486.932 207.148 486.016 207.148C484.849 207.148 483.924 206.758 483.242 205.977C482.56 205.19 482.219 204.13 482.219 202.797C482.219 201.469 482.562 200.409 483.25 199.617C483.938 198.826 484.859 198.43 486.016 198.43C487.151 198.43 488.044 198.807 488.695 199.562C489.346 200.318 489.672 201.352 489.672 202.664V203.18H483.617V203.242C483.654 204.076 483.888 204.737 484.32 205.227C484.758 205.716 485.333 205.961 486.047 205.961C487.135 205.961 487.859 205.581 488.219 204.82ZM494.375 205.969C495.068 205.969 495.641 205.768 496.094 205.367C496.552 204.966 496.781 204.464 496.781 203.859V203.086L494.516 203.234C493.88 203.276 493.414 203.409 493.117 203.633C492.82 203.857 492.672 204.182 492.672 204.609C492.672 205.031 492.831 205.365 493.148 205.609C493.466 205.849 493.875 205.969 494.375 205.969ZM494.125 207.148C493.297 207.148 492.615 206.922 492.078 206.469C491.547 206.01 491.281 205.401 491.281 204.641C491.281 203.891 491.547 203.302 492.078 202.875C492.609 202.448 493.367 202.206 494.352 202.148L496.781 202V201.234C496.781 200.714 496.62 200.315 496.297 200.039C495.974 199.763 495.5 199.625 494.875 199.625C494.37 199.625 493.951 199.716 493.617 199.898C493.284 200.081 493.07 200.339 492.977 200.672H491.617C491.706 200 492.052 199.458 492.656 199.047C493.266 198.635 494.021 198.43 494.922 198.43C495.943 198.43 496.732 198.677 497.289 199.172C497.846 199.667 498.125 200.354 498.125 201.234V207H496.844V205.758H496.719C496.448 206.206 496.089 206.549 495.641 206.789C495.193 207.029 494.688 207.148 494.125 207.148ZM501.172 196.398H502.516V198.578H504.391V199.703H502.516V204.469C502.516 204.964 502.615 205.323 502.812 205.547C503.01 205.771 503.328 205.883 503.766 205.883C503.958 205.883 504.167 205.872 504.391 205.852V206.984C504.094 207.036 503.831 207.062 503.602 207.062C502.732 207.062 502.109 206.888 501.734 206.539C501.359 206.19 501.172 205.615 501.172 204.812V199.703H499.812V198.578H501.172V196.398ZM513.234 198.578V207H511.953V205.68H511.828C511.615 206.154 511.286 206.518 510.844 206.773C510.401 207.023 509.859 207.148 509.219 207.148C508.281 207.148 507.568 206.88 507.078 206.344C506.589 205.807 506.344 205.036 506.344 204.031V198.578H507.688V203.703C507.688 204.469 507.839 205.031 508.141 205.391C508.443 205.745 508.927 205.922 509.594 205.922C510.328 205.922 510.893 205.716 511.289 205.305C511.69 204.888 511.891 204.307 511.891 203.562V198.578H513.234ZM515.766 207V198.578H517.047V199.828H517.172C517.297 199.417 517.578 199.081 518.016 198.82C518.453 198.56 518.951 198.43 519.508 198.43C519.763 198.43 519.987 198.443 520.18 198.469V199.812C519.997 199.76 519.711 199.734 519.32 199.734C518.68 199.734 518.151 199.927 517.734 200.312C517.318 200.698 517.109 201.188 517.109 201.781V207H515.766ZM524.984 199.617C524.312 199.617 523.76 199.844 523.328 200.297C522.896 200.75 522.654 201.349 522.602 202.094H527.242C527.227 201.349 527.013 200.75 526.602 200.297C526.19 199.844 525.651 199.617 524.984 199.617ZM527.203 204.82H528.547C528.344 205.549 527.93 206.12 527.305 206.531C526.685 206.943 525.917 207.148 525 207.148C523.833 207.148 522.909 206.758 522.227 205.977C521.544 205.19 521.203 204.13 521.203 202.797C521.203 201.469 521.547 200.409 522.234 199.617C522.922 198.826 523.844 198.43 525 198.43C526.135 198.43 527.029 198.807 527.68 199.562C528.331 200.318 528.656 201.352 528.656 202.664V203.18H522.602V203.242C522.638 204.076 522.872 204.737 523.305 205.227C523.742 205.716 524.318 205.961 525.031 205.961C526.12 205.961 526.844 205.581 527.203 204.82Z" fill="white"/>
<g clip-path="url(#clip1)">
<path d="M113.932 122.276H163.587C168.139 122.276 171.863 126 171.863 130.551V159.517C171.863 164.069 168.138 167.793 163.587 167.793H136.69V175.64C136.69 176.562 135.576 177.023 134.924 176.371L126.345 167.793H113.932C109.38 167.793 105.656 164.069 105.656 159.517V130.552C105.656 126 109.38 122.276 113.932 122.276Z" fill="#C7CFE2"/>
<path d="M161.446 138.827H130.483V134.69H146.964C148.066 134.69 149.028 133.858 149.099 132.759C149.177 131.554 148.224 130.552 147.035 130.552H130.483V122.276H126.345C126.345 122.276 126.345 149.508 126.345 151.241C126.345 155.793 122.621 159.517 118.069 159.517H105.655C105.655 161.029 106.096 162.431 106.812 163.655H118.069C124.914 163.655 130.483 158.086 130.483 151.241H138.695C139.732 151.241 140.658 150.505 140.806 149.479C140.989 148.2 140.004 147.103 138.759 147.103H130.483V142.965H161.517C162.707 142.965 163.66 141.963 163.582 140.758C163.51 139.659 162.549 138.827 161.446 138.827Z" fill="#AFB9D2"/>
<path d="M161.517 134.69H155.31C154.166 134.69 153.241 133.763 153.241 132.621C153.241 131.478 154.166 130.552 155.31 130.552H161.517C162.66 130.552 163.586 131.478 163.586 132.621C163.586 133.763 162.66 134.69 161.517 134.69Z" fill="#959CB3"/>
<path d="M161.517 151.241H147.034C145.891 151.241 144.965 150.315 144.965 149.172C144.965 148.03 145.891 147.103 147.034 147.103H161.517C162.661 147.103 163.586 148.03 163.586 149.172C163.586 150.315 162.661 151.241 161.517 151.241Z" fill="#959CB3"/>
<path d="M161.517 159.517H132.551C131.408 159.517 130.482 158.591 130.482 157.448C130.482 156.306 131.408 155.379 132.551 155.379H161.517C162.66 155.379 163.586 156.306 163.586 157.448C163.586 158.591 162.661 159.517 161.517 159.517Z" fill="#AFB9D2"/>
<path d="M118.069 114H68.4135C63.8617 114 60.1377 117.724 60.1377 122.276V151.241C60.1377 155.793 63.8619 159.517 68.4135 159.517H95.3101V167.364C95.3101 168.286 96.4245 168.747 97.0758 168.096L105.655 159.517H118.069C122.621 159.517 126.345 155.793 126.345 151.241V122.276C126.344 117.724 122.62 114 118.069 114Z" fill="#E4EAF6"/>
<path d="M76.6889 126.414H70.4821C69.3386 126.414 68.4131 125.487 68.4131 124.345C68.4131 123.202 69.3384 122.276 70.4821 122.276H76.6891C77.8326 122.276 78.7581 123.202 78.7581 124.345C78.7581 125.487 77.8326 126.414 76.6889 126.414Z" fill="#AFB9D2"/>
<path d="M116 126.414H84.9651C83.8215 126.414 82.896 125.487 82.896 124.345C82.896 123.202 83.8213 122.276 84.9651 122.276H116C117.143 122.276 118.069 123.202 118.069 124.345C118.069 125.487 117.143 126.414 116 126.414Z" fill="#C7CFE2"/>
<path d="M115.999 134.689H70.4821C69.3386 134.689 68.4131 133.763 68.4131 132.62C68.4131 131.478 69.3384 130.551 70.4821 130.551H115.999C117.143 130.551 118.068 131.478 118.068 132.62C118.068 133.763 117.143 134.689 115.999 134.689Z" fill="#C7CFE2"/>
<path d="M116.001 142.966H109.794C108.65 142.966 107.725 142.039 107.725 140.896C107.725 139.754 108.65 138.827 109.794 138.827H116.001C117.144 138.827 118.07 139.754 118.07 140.896C118.069 142.039 117.144 142.966 116.001 142.966Z" fill="#AFB9D2"/>
<path d="M101.516 142.966H70.4821C69.3386 142.966 68.4131 142.039 68.4131 140.896C68.4131 139.754 69.3384 138.827 70.4821 138.827H101.517C102.66 138.827 103.586 139.754 103.586 140.896C103.585 142.039 102.66 142.966 101.516 142.966Z" fill="#C7CFE2"/>
<path d="M115.999 151.241H70.4821C69.3386 151.241 68.4131 150.315 68.4131 149.172C68.4131 148.03 69.3384 147.103 70.4821 147.103H115.999C117.143 147.103 118.068 148.03 118.068 149.172C118.068 150.315 117.143 151.241 115.999 151.241Z" fill="#C7CFE2"/>
<path d="M95.6288 217.766V211.082H78.4404V217.766L87.0345 225.405L95.6288 217.766Z" fill="#E6AF78"/>
<path d="M108.918 220.893L97.1017 218.113C96.9233 218.071 96.759 218 96.6057 217.913L87.0353 223.496L77.8377 217.643C77.5996 217.867 77.3043 218.034 76.9684 218.113L65.1524 220.893C63.427 221.299 62.2075 222.839 62.2075 224.611V232.09C62.2075 233.145 63.0625 234 64.1174 234H109.953C111.008 234 111.863 233.145 111.863 232.09V224.611C111.863 222.839 110.643 221.299 108.918 220.893Z" fill="#EFF2FA"/>
<path d="M78.4404 211.082V218.135C89.2669 222.035 95.6288 212.273 95.6288 212.273V211.082H78.4404Z" fill="#D29B6E"/>
<path d="M74.6206 189.119L75.4529 207.426C75.5307 209.136 76.3693 210.722 77.7387 211.749L81.687 214.71C82.6789 215.454 83.885 215.856 85.1246 215.856H88.9442C90.1838 215.856 91.3901 215.454 92.3817 214.71L96.33 211.749C97.6997 210.722 98.5381 209.136 98.6159 207.426L99.4479 189.119H74.6206V189.119Z" fill="#F0C087"/>
<path d="M84.1695 192.939C87.9891 192.939 93.7186 191.984 95.0775 189.119H74.6206L75.4526 207.426C75.5304 209.137 76.369 210.722 77.7385 211.75L81.6868 214.711C82.6786 215.455 83.8847 215.857 85.1243 215.857H87.0343C85.1243 215.857 81.3047 212.037 81.3047 207.263C81.3047 204.927 81.3047 198.668 81.3047 195.804C81.305 194.848 82.2596 192.939 84.1695 192.939Z" fill="#E6AF78"/>
<path d="M104.851 227.802L111.039 222.244C111.558 222.901 111.862 223.727 111.862 224.611V232.09C111.862 233.145 111.007 234 109.952 234H103.268V231.355C103.268 229.999 103.843 228.708 104.851 227.802Z" fill="#E4EAF6"/>
<path d="M69.2169 227.802L63.0292 222.244C62.5108 222.901 62.2065 223.727 62.2065 224.611V232.09C62.2065 233.145 63.0615 234 64.1165 234H70.8008V231.355C70.8011 229.999 70.2252 228.708 69.2169 227.802Z" fill="#E4EAF6"/>
<path d="M89.4217 234H84.647L85.2439 225.406H88.8249L89.4217 234Z" fill="#5B5D6E"/>
<path d="M89.4217 223.496H84.647V224.047C84.647 225.325 85.6824 226.36 86.96 226.36H87.1081C88.3857 226.36 89.4212 225.325 89.4212 224.047V223.496H89.4217Z" fill="#515262"/>
<path d="M78.3059 215.64L87.034 223.496C87.034 223.496 84.5895 224.73 81.5731 227.217C80.9508 227.73 80.0096 227.522 79.6758 226.787L75.5752 217.766L76.8725 215.82C77.1954 215.336 77.873 215.251 78.3059 215.64Z" fill="#E4EAF6"/>
<path d="M95.7618 215.64L87.0337 223.496C87.0337 223.496 89.4782 224.73 92.4946 227.217C93.1169 227.73 94.0581 227.522 94.3919 226.787L98.4925 217.766L97.1952 215.82C96.8723 215.336 96.1947 215.251 95.7618 215.64Z" fill="#E4EAF6"/>
<path d="M92.8237 182.793L93.719 189.119C97.8056 189.937 98.3943 196.35 98.4792 198.181C98.4947 198.514 98.6008 198.835 98.7811 199.115L100.34 201.533C100.34 201.533 99.8064 197.534 102.25 194.849C102.25 194.848 103.089 178.973 92.8237 182.793Z" fill="#785550"/>
<path d="M101.298 201.124L100.22 205.438C100.092 205.949 99.6326 206.307 99.1057 206.307C98.5266 206.307 98.0384 205.876 97.9664 205.302L97.415 200.89C97.2675 199.71 98.1875 198.668 99.3764 198.668H99.3804C100.666 198.668 101.61 199.877 101.298 201.124Z" fill="#F0C087"/>
<path d="M75.5356 181.082L76.9482 182.047C70.5624 186.762 71.7558 194.849 71.7558 194.849C73.6657 196.759 73.6657 201.533 73.6657 201.533L75.5757 199.623C75.5757 199.623 74.8386 194.106 78.4404 191.984C81.7826 190.015 84.7071 191.029 87.691 191.029C95.6883 191.029 97.9263 188.015 97.5384 184.345C97.3378 182.445 94.4339 178.49 87.0345 178.615C84.0481 178.666 78.4402 179.57 75.5356 181.082Z" fill="#694B4B"/>
<path d="M74.9787 190.193C74.9787 190.193 73.9641 186.194 76.9482 182.047C70.5624 186.762 71.7558 194.848 71.7558 194.848C73.6657 196.758 73.6657 201.533 73.6657 201.533L75.5757 199.623C75.5757 199.623 74.8386 194.106 78.4404 191.984C81.7826 190.014 84.7071 191.029 87.691 191.029C88.9915 191.029 90.1252 190.942 91.1344 190.792C84.9753 190.999 81.3446 186.334 74.9787 190.193Z" fill="#5A4146"/>
<path d="M72.7705 201.124L73.8488 205.438C73.9765 205.949 74.4359 206.307 74.9628 206.307C75.5419 206.307 76.0301 205.876 76.1021 205.302L76.6536 200.89C76.801 199.71 75.8811 198.668 74.6921 198.668H74.6881C73.4023 198.668 72.4585 199.877 72.7705 201.124Z" fill="#E6AF78"/>
<path d="M98.4932 232.09H93.7185C92.6638 232.09 91.8086 232.945 91.8086 234H100.403C100.403 232.945 99.5479 232.09 98.4932 232.09Z" fill="#E4EAF6"/>
<path d="M140.828 179.233C121.565 179.233 123.701 202.659 123.788 219.635C123.792 220.276 124.128 220.854 124.677 221.185C126.811 222.472 132.674 225.48 140.828 225.48C148.983 225.48 154.845 222.472 156.98 221.185C157.529 220.854 157.865 220.276 157.868 219.635C157.956 202.659 160.092 179.233 140.828 179.233Z" fill="#694B4B"/>
<path d="M139.587 179.281C121.671 180.286 123.702 203.037 123.788 219.635C123.791 220.276 124.127 220.854 124.676 221.185C126.811 222.472 132.674 225.48 140.828 225.48L145.696 191.403" fill="#5A4146"/>
<path d="M140.828 179.233C129.875 179.233 129.114 192.468 129.114 192.468C135.428 191.403 139.307 194.065 145.696 191.403L140.828 225.48C148.983 225.48 154.845 222.472 156.98 221.185C157.529 220.854 157.865 220.276 157.868 219.635C157.956 202.659 160.092 179.233 140.828 179.233Z" fill="#694B4B"/>
<path d="M157.867 219.635C157.942 205.048 159.517 185.712 147.74 180.555C147.534 181.623 147.162 184.601 148.129 186.535C150.563 191.403 152.997 191.403 155.431 195.055C157.865 208.442 150.781 222.651 148.427 224.585C152.596 223.594 155.585 222.025 156.978 221.185C157.527 220.854 157.863 220.276 157.867 219.635Z" fill="#785550"/>
<path d="M159.271 223.327L148.411 218.803C147.504 218.425 146.913 217.538 146.913 216.556V213.615H134.743V216.556C134.743 217.538 134.152 218.425 133.245 218.803L122.385 223.327C121.025 223.894 120.138 225.224 120.138 226.698V231.566C120.138 232.91 121.228 234 122.572 234H159.083C160.428 234 161.517 232.91 161.517 231.566V226.698C161.517 225.224 160.631 223.894 159.271 223.327Z" fill="#E6AF78"/>
<path d="M159.27 223.327L148.77 218.952L140.827 222.38L132.885 218.952L122.385 223.327C121.024 223.894 120.138 225.224 120.138 226.698V231.566C120.138 232.91 121.228 234 122.572 234H159.083C160.427 234 161.517 232.91 161.517 231.566V226.698C161.517 225.224 160.631 223.894 159.27 223.327Z" fill="#B4E1FA"/>
<path d="M146.912 213.614H134.742V216.555C134.742 217.538 134.151 218.424 133.244 218.802L131.548 219.509C144.527 222.819 146.912 213.614 146.912 213.614Z" fill="#D29B6E"/>
<path d="M126.07 228.035L121.185 224.15C120.53 224.819 120.138 225.724 120.138 226.698V231.566C120.138 232.91 121.228 234 122.572 234H127.44V230.887C127.44 229.777 126.936 228.728 126.07 228.035Z" fill="#A0D2F0"/>
<path d="M161.516 231.566V226.697C161.516 225.732 161.131 224.833 160.485 224.165L155.585 228.035C154.718 228.728 154.214 229.777 154.214 230.886V234H159.083C160.427 234 161.516 232.91 161.516 231.566Z" fill="#A0D2F0"/>
<path d="M141.011 231.566H140.645C140.074 231.566 139.611 231.102 139.611 230.531V222.383H142.045V230.531C142.045 231.102 141.582 231.566 141.011 231.566Z" fill="#A0D2F0"/>
<path d="M140.827 222.38L133.862 217.156C133.414 216.821 132.777 216.93 132.467 217.395L131.091 219.459L135.361 225.438C135.686 225.893 136.326 225.981 136.762 225.633L140.827 222.38Z" fill="#A0D2F0"/>
<path d="M140.828 222.38L147.793 217.156C148.24 216.821 148.877 216.93 149.188 217.395L150.564 219.459L146.293 225.438C145.969 225.893 145.329 225.981 144.893 225.633L140.828 222.38Z" fill="#A0D2F0"/>
<path d="M146.912 190.187C140.827 196.272 128.885 191.404 128.885 201.14L129.64 208.312C129.786 209.916 130.716 211.344 132.124 212.127L139.054 215.976C140.157 216.589 141.497 216.589 142.6 215.976L149.529 212.127C150.938 211.344 151.868 209.916 152.013 208.312L152.886 199.794C152.948 199.189 152.961 198.579 152.94 197.972C152.485 194.874 148.129 192.621 146.912 190.187Z" fill="#F0C087"/>
<path d="M128.885 201.14L129.64 208.312C129.786 209.916 130.716 211.344 132.124 212.127L139.054 215.976C139.819 216.401 140.697 216.511 141.532 216.346C141.532 216.346 138.038 215.288 135.959 209.659C135.322 207.935 134.438 198.807 135.198 197.691C136.702 195.486 145.087 195.257 147.564 191.167C147.442 191.015 147.329 190.863 147.226 190.71C147.218 190.698 147.207 190.686 147.199 190.673C147.091 190.511 146.994 190.349 146.912 190.186C140.827 196.272 128.885 191.403 128.885 201.14Z" fill="#E6AF78"/>
<path d="M149.711 231.566H146.547C145.405 231.566 144.478 232.492 144.478 233.635V234H151.78V233.635C151.78 232.492 150.854 231.566 149.711 231.566Z" fill="#A0D2F0"/>
</g>
</g>
<defs>
<filter id="filter0_ddd" x="-5" y="-4" width="734" height="325" filterUnits="userSpaceOnUse" color-interpolation-filters="sRGB">
<feFlood flood-opacity="0" result="BackgroundImageFix"/>
<feColorMatrix in="SourceAlpha" type="matrix" values="0 0 0 0 0 0 0 0 0 0 0 0 0 0 0 0 0 0 127 0"/>
<feOffset dy="1"/>
<feGaussianBlur stdDeviation="2.5"/>
<feColorMatrix type="matrix" values="0 0 0 0 0.67451 0 0 0 0 0.678431 0 0 0 0 0.686275 0 0 0 0.2 0"/>
<feBlend mode="normal" in2="BackgroundImageFix" result="effect1_dropShadow"/>
<feColorMatrix in="SourceAlpha" type="matrix" values="0 0 0 0 0 0 0 0 0 0 0 0 0 0 0 0 0 0 127 0"/>
<feOffset dy="3"/>
<feGaussianBlur stdDeviation="2"/>
<feColorMatrix type="matrix" values="0 0 0 0 0.67451 0 0 0 0 0.678431 0 0 0 0 0.686275 0 0 0 0.12 0"/>
<feBlend mode="normal" in2="effect1_dropShadow" result="effect2_dropShadow"/>
<feColorMatrix in="SourceAlpha" type="matrix" values="0 0 0 0 0 0 0 0 0 0 0 0 0 0 0 0 0 0 127 0"/>
<feOffset dy="2"/>
<feGaussianBlur stdDeviation="2"/>
<feColorMatrix type="matrix" values="0 0 0 0 0.67451 0 0 0 0 0.678431 0 0 0 0 0.686275 0 0 0 0.14 0"/>
<feBlend mode="normal" in2="effect2_dropShadow" result="effect3_dropShadow"/>
<feBlend mode="normal" in="SourceGraphic" in2="effect3_dropShadow" result="shape"/>
</filter>
<clipPath id="clip0">
<rect width="724" height="314" fill="white"/>
</clipPath>
<clipPath id="clip1">
<rect width="120" height="120" fill="white" transform="translate(56 114)"/>
</clipPath>
</defs>
</svg>
