<svg width="724" height="314" viewBox="0 0 724 314" fill="none" xmlns="http://www.w3.org/2000/svg">
<rect width="724" height="314" fill="white"/>
<path d="M0 2C0 0.895426 0.895431 0 2 0H722C723.105 0 724 0.895431 724 2V314H0V2Z" fill="#9C27B0"/>
<g opacity="0.6">
<rect x="232" y="36" width="80" height="80" fill="white" fill-opacity="0.06"/>
<rect x="187" y="90" width="65" height="66" fill="white" fill-opacity="0.06"/>
<rect x="499" y="258" width="42" height="42" fill="white" fill-opacity="0.08"/>
<circle cx="598.5" cy="85.5" r="49.5" fill="white" fill-opacity="0.06"/>
<ellipse cx="561.5" cy="123" rx="32.5" ry="33" fill="white" fill-opacity="0.06"/>
<ellipse cx="418" cy="251.5" rx="16" ry="15.5" fill="white" fill-opacity="0.08"/>
<circle cx="440.5" cy="96.5" r="4" stroke="white" stroke-opacity="0.1" stroke-width="5"/>
<circle cx="186.5" cy="251.5" r="4" stroke="white" stroke-opacity="0.4" stroke-width="5"/>
<circle cx="482.5" cy="64.5" r="4" stroke="white" stroke-opacity="0.2" stroke-width="5"/>
<g opacity="0.15">
<path fill-rule="evenodd" clip-rule="evenodd" d="M661.809 214.487L693.77 182.526C694.4 181.896 695.426 181.899 696.061 182.534L709.849 196.322C711.753 198.226 711.763 201.302 709.872 203.194L677.911 235.155C677.28 235.785 676.255 235.782 675.62 235.147L661.832 221.358C659.928 219.455 659.918 216.378 661.809 214.487Z" fill="#EEEEEE" fill-opacity="0.6"/>
<path fill-rule="evenodd" clip-rule="evenodd" d="M690.436 213.437L661.71 184.71C659.807 182.807 659.796 179.73 661.688 177.839L675.385 164.141C676.016 163.511 677.041 163.514 677.676 164.149L709.849 196.322C711.753 198.226 711.763 201.302 709.872 203.194L696.174 216.891L691.608 221.457C693.499 219.566 693.489 216.489 691.585 214.586L690.436 213.437Z" fill="white"/>
</g>
</g>
<path d="M228.516 125.891C221.969 125.891 217.828 130.438 217.828 137.719C217.828 145 221.891 149.562 228.516 149.562C235.094 149.562 239.156 144.984 239.156 137.719C239.156 130.438 235.062 125.891 228.516 125.891ZM228.516 129.469C232.516 129.469 235.031 132.672 235.031 137.719C235.031 142.75 232.531 145.984 228.516 145.984C224.438 145.984 221.953 142.75 221.953 137.719C221.953 132.672 224.5 129.469 228.516 129.469ZM243.375 149H247.25V139.047C247.25 136.531 248.703 134.938 251.016 134.938C253.375 134.938 254.469 136.25 254.469 138.859V149H258.344V137.938C258.344 133.859 256.266 131.562 252.453 131.562C249.906 131.562 248.188 132.734 247.375 134.641H247.109V131.906H243.375V149ZM263.094 149H266.969V125.297H263.094V149ZM271.922 149H275.781V131.906H271.922V149ZM273.844 129.125C275.266 129.125 276.234 128.219 276.234 126.984C276.234 125.75 275.266 124.844 273.844 124.844C272.438 124.844 271.453 125.75 271.453 126.984C271.453 128.219 272.438 129.125 273.844 129.125ZM280.594 149H284.469V139.047C284.469 136.531 285.922 134.938 288.234 134.938C290.594 134.938 291.688 136.25 291.688 138.859V149H295.562V137.938C295.562 133.859 293.484 131.562 289.672 131.562C287.125 131.562 285.406 132.734 284.594 134.641H284.328V131.906H280.594V149ZM307.328 134.641C309.656 134.641 311.188 136.266 311.266 138.797H303.219C303.391 136.297 305.016 134.641 307.328 134.641ZM311.297 144.297C310.734 145.562 309.406 146.266 307.484 146.266C304.938 146.266 303.297 144.484 303.203 141.641V141.438H315.141V140.188C315.141 134.797 312.219 131.562 307.344 131.562C302.391 131.562 299.312 135.016 299.312 140.516C299.312 146.016 302.344 149.344 307.375 149.344C311.406 149.344 314.234 147.406 314.969 144.297H311.297ZM337.609 149V129.938H344.562V126.453H326.641V129.938H333.578V149H337.609ZM352.516 134.641C354.844 134.641 356.375 136.266 356.453 138.797H348.406C348.578 136.297 350.203 134.641 352.516 134.641ZM356.484 144.297C355.922 145.562 354.594 146.266 352.672 146.266C350.125 146.266 348.484 144.484 348.391 141.641V141.438H360.328V140.188C360.328 134.797 357.406 131.562 352.531 131.562C347.578 131.562 344.5 135.016 344.5 140.516C344.5 146.016 347.531 149.344 352.562 149.344C356.594 149.344 359.422 147.406 360.156 144.297H356.484ZM363.828 136.797C363.828 139.375 365.375 140.891 368.656 141.641L371.688 142.344C373.312 142.703 374.047 143.312 374.047 144.281C374.047 145.547 372.688 146.406 370.734 146.406C368.797 146.406 367.594 145.656 367.219 144.391H363.391C363.688 147.5 366.375 149.344 370.641 149.344C374.906 149.344 377.922 147.156 377.922 143.875C377.922 141.359 376.406 139.953 373.141 139.219L370.125 138.531C368.406 138.141 367.594 137.547 367.594 136.578C367.594 135.344 368.922 134.5 370.688 134.5C372.5 134.5 373.641 135.266 373.922 136.469H377.562C377.281 133.359 374.734 131.562 370.672 131.562C366.641 131.562 363.828 133.703 363.828 136.797ZM382.953 127.719V132.016H380.25V135.109H382.953V144.438C382.953 147.75 384.516 149.078 388.438 149.078C389.188 149.078 389.906 149 390.469 148.891V145.859C390 145.906 389.703 145.938 389.156 145.938C387.531 145.938 386.812 145.188 386.812 143.5V135.109H390.469V132.016H386.812V127.719H382.953ZM393.734 136.797C393.734 139.375 395.281 140.891 398.562 141.641L401.594 142.344C403.219 142.703 403.953 143.312 403.953 144.281C403.953 145.547 402.594 146.406 400.641 146.406C398.703 146.406 397.5 145.656 397.125 144.391H393.297C393.594 147.5 396.281 149.344 400.547 149.344C404.812 149.344 407.828 147.156 407.828 143.875C407.828 141.359 406.312 139.953 403.047 139.219L400.031 138.531C398.312 138.141 397.5 137.547 397.5 136.578C397.5 135.344 398.828 134.5 400.594 134.5C402.406 134.5 403.547 135.266 403.828 136.469H407.469C407.188 133.359 404.641 131.562 400.578 131.562C396.547 131.562 393.734 133.703 393.734 136.797Z" fill="white"/>
<path d="M221.977 188.266C220.445 188.266 219.232 187.737 218.336 186.68C217.445 185.622 217 184.185 217 182.367C217 180.549 217.445 179.112 218.336 178.055C219.227 176.992 220.438 176.461 221.969 176.461C223.156 176.461 224.172 176.799 225.016 177.477C225.859 178.154 226.365 179.036 226.531 180.125H225.102C224.914 179.396 224.539 178.82 223.977 178.398C223.414 177.971 222.745 177.758 221.969 177.758C220.885 177.758 220.026 178.172 219.391 179C218.76 179.828 218.445 180.951 218.445 182.367C218.445 183.784 218.763 184.906 219.398 185.734C220.034 186.557 220.893 186.969 221.977 186.969C222.763 186.969 223.435 186.781 223.992 186.406C224.555 186.026 224.924 185.51 225.102 184.859H226.531C226.344 185.896 225.836 186.724 225.008 187.344C224.185 187.958 223.174 188.266 221.977 188.266ZM235.016 186.984C234.323 187.76 233.378 188.148 232.18 188.148C230.982 188.148 230.034 187.76 229.336 186.984C228.643 186.203 228.297 185.138 228.297 183.789C228.297 182.435 228.643 181.37 229.336 180.594C230.029 179.818 230.977 179.43 232.18 179.43C233.383 179.43 234.331 179.818 235.023 180.594C235.716 181.37 236.062 182.435 236.062 183.789C236.062 185.138 235.714 186.203 235.016 186.984ZM230.336 186.117C230.768 186.664 231.383 186.938 232.18 186.938C232.977 186.938 233.591 186.664 234.023 186.117C234.456 185.565 234.672 184.789 234.672 183.789C234.672 182.789 234.456 182.016 234.023 181.469C233.591 180.917 232.977 180.641 232.18 180.641C231.383 180.641 230.768 180.917 230.336 181.469C229.904 182.016 229.688 182.789 229.688 183.789C229.688 184.789 229.904 185.565 230.336 186.117ZM238.172 188V179.578H239.453V180.906H239.578C240.026 179.922 240.87 179.43 242.109 179.43C243.052 179.43 243.779 179.701 244.289 180.242C244.799 180.779 245.055 181.547 245.055 182.547V188H243.711V182.875C243.711 182.12 243.547 181.56 243.219 181.195C242.896 180.826 242.398 180.641 241.727 180.641C241.049 180.641 240.51 180.854 240.109 181.281C239.714 181.703 239.516 182.281 239.516 183.016V188H238.172ZM250.633 188.148C249.555 188.148 248.695 187.753 248.055 186.961C247.414 186.169 247.094 185.112 247.094 183.789C247.094 182.471 247.414 181.417 248.055 180.625C248.701 179.828 249.56 179.43 250.633 179.43C251.221 179.43 251.747 179.562 252.211 179.828C252.68 180.089 253.034 180.448 253.273 180.906H253.391V176.234H254.734V188H253.453V186.656H253.328C253.062 187.125 252.693 187.492 252.219 187.758C251.745 188.018 251.216 188.148 250.633 188.148ZM250.945 180.641C250.18 180.641 249.578 180.922 249.141 181.484C248.703 182.042 248.484 182.81 248.484 183.789C248.484 184.773 248.701 185.544 249.133 186.102C249.57 186.659 250.174 186.938 250.945 186.938C251.711 186.938 252.315 186.656 252.758 186.094C253.201 185.531 253.422 184.763 253.422 183.789C253.422 182.826 253.198 182.06 252.75 181.492C252.307 180.924 251.706 180.641 250.945 180.641ZM264.156 179.578V188H262.875V186.68H262.75C262.536 187.154 262.208 187.518 261.766 187.773C261.323 188.023 260.781 188.148 260.141 188.148C259.203 188.148 258.49 187.88 258 187.344C257.51 186.807 257.266 186.036 257.266 185.031V179.578H258.609V184.703C258.609 185.469 258.76 186.031 259.062 186.391C259.365 186.745 259.849 186.922 260.516 186.922C261.25 186.922 261.815 186.716 262.211 186.305C262.612 185.888 262.812 185.307 262.812 184.562V179.578H264.156ZM273.656 182.156H272.297C272.182 181.714 271.935 181.352 271.555 181.07C271.18 180.784 270.703 180.641 270.125 180.641C269.37 180.641 268.768 180.922 268.32 181.484C267.878 182.047 267.656 182.805 267.656 183.758C267.656 184.727 267.88 185.5 268.328 186.078C268.776 186.651 269.375 186.938 270.125 186.938C270.693 186.938 271.164 186.81 271.539 186.555C271.919 186.299 272.172 185.935 272.297 185.461H273.656C273.531 186.258 273.159 186.906 272.539 187.406C271.919 187.901 271.117 188.148 270.133 188.148C268.951 188.148 268.01 187.753 267.312 186.961C266.615 186.164 266.266 185.096 266.266 183.758C266.266 182.445 266.615 181.396 267.312 180.609C268.01 179.823 268.948 179.43 270.125 179.43C271.109 179.43 271.911 179.688 272.531 180.203C273.156 180.719 273.531 181.37 273.656 182.156ZM276.359 177.398H277.703V179.578H279.578V180.703H277.703V185.469C277.703 185.964 277.802 186.323 278 186.547C278.198 186.771 278.516 186.883 278.953 186.883C279.146 186.883 279.354 186.872 279.578 186.852V187.984C279.281 188.036 279.018 188.062 278.789 188.062C277.919 188.062 277.297 187.888 276.922 187.539C276.547 187.19 276.359 186.615 276.359 185.812V180.703H275V179.578H276.359V177.398ZM292.422 186.984C291.729 187.76 290.784 188.148 289.586 188.148C288.388 188.148 287.44 187.76 286.742 186.984C286.049 186.203 285.703 185.138 285.703 183.789C285.703 182.435 286.049 181.37 286.742 180.594C287.435 179.818 288.383 179.43 289.586 179.43C290.789 179.43 291.737 179.818 292.43 180.594C293.122 181.37 293.469 182.435 293.469 183.789C293.469 185.138 293.12 186.203 292.422 186.984ZM287.742 186.117C288.174 186.664 288.789 186.938 289.586 186.938C290.383 186.938 290.997 186.664 291.43 186.117C291.862 185.565 292.078 184.789 292.078 183.789C292.078 182.789 291.862 182.016 291.43 181.469C290.997 180.917 290.383 180.641 289.586 180.641C288.789 180.641 288.174 180.917 287.742 181.469C287.31 182.016 287.094 182.789 287.094 183.789C287.094 184.789 287.31 185.565 287.742 186.117ZM295.578 188V179.578H296.859V180.906H296.984C297.432 179.922 298.276 179.43 299.516 179.43C300.458 179.43 301.185 179.701 301.695 180.242C302.206 180.779 302.461 181.547 302.461 182.547V188H301.117V182.875C301.117 182.12 300.953 181.56 300.625 181.195C300.302 180.826 299.805 180.641 299.133 180.641C298.456 180.641 297.917 180.854 297.516 181.281C297.12 181.703 296.922 182.281 296.922 183.016V188H295.578ZM305 188V176.234H306.344V188H305ZM308.984 188V179.578H310.328V188H308.984ZM310.32 177.594C310.138 177.776 309.917 177.867 309.656 177.867C309.396 177.867 309.174 177.776 308.992 177.594C308.81 177.406 308.719 177.185 308.719 176.93C308.719 176.674 308.81 176.456 308.992 176.273C309.174 176.086 309.396 175.992 309.656 175.992C309.917 175.992 310.138 176.086 310.32 176.273C310.503 176.456 310.594 176.674 310.594 176.93C310.594 177.185 310.503 177.406 310.32 177.594ZM312.891 188V179.578H314.172V180.906H314.297C314.745 179.922 315.589 179.43 316.828 179.43C317.771 179.43 318.497 179.701 319.008 180.242C319.518 180.779 319.773 181.547 319.773 182.547V188H318.43V182.875C318.43 182.12 318.266 181.56 317.938 181.195C317.615 180.826 317.117 180.641 316.445 180.641C315.768 180.641 315.229 180.854 314.828 181.281C314.432 181.703 314.234 182.281 314.234 183.016V188H312.891ZM325.594 180.617C324.922 180.617 324.37 180.844 323.938 181.297C323.505 181.75 323.263 182.349 323.211 183.094H327.852C327.836 182.349 327.622 181.75 327.211 181.297C326.799 180.844 326.26 180.617 325.594 180.617ZM327.812 185.82H329.156C328.953 186.549 328.539 187.12 327.914 187.531C327.294 187.943 326.526 188.148 325.609 188.148C324.443 188.148 323.518 187.758 322.836 186.977C322.154 186.19 321.812 185.13 321.812 183.797C321.812 182.469 322.156 181.409 322.844 180.617C323.531 179.826 324.453 179.43 325.609 179.43C326.745 179.43 327.638 179.807 328.289 180.562C328.94 181.318 329.266 182.352 329.266 183.664V184.18H323.211V184.242C323.247 185.076 323.482 185.737 323.914 186.227C324.352 186.716 324.927 186.961 325.641 186.961C326.729 186.961 327.453 186.581 327.812 185.82ZM336.453 177.398H337.797V179.578H339.672V180.703H337.797V185.469C337.797 185.964 337.896 186.323 338.094 186.547C338.292 186.771 338.609 186.883 339.047 186.883C339.24 186.883 339.448 186.872 339.672 186.852V187.984C339.375 188.036 339.112 188.062 338.883 188.062C338.013 188.062 337.391 187.888 337.016 187.539C336.641 187.19 336.453 186.615 336.453 185.812V180.703H335.094V179.578H336.453V177.398ZM344.938 180.617C344.266 180.617 343.714 180.844 343.281 181.297C342.849 181.75 342.607 182.349 342.555 183.094H347.195C347.18 182.349 346.966 181.75 346.555 181.297C346.143 180.844 345.604 180.617 344.938 180.617ZM347.156 185.82H348.5C348.297 186.549 347.883 187.12 347.258 187.531C346.638 187.943 345.87 188.148 344.953 188.148C343.786 188.148 342.862 187.758 342.18 186.977C341.497 186.19 341.156 185.13 341.156 183.797C341.156 182.469 341.5 181.409 342.188 180.617C342.875 179.826 343.797 179.43 344.953 179.43C346.089 179.43 346.982 179.807 347.633 180.562C348.284 181.318 348.609 182.352 348.609 183.664V184.18H342.555V184.242C342.591 185.076 342.826 185.737 343.258 186.227C343.695 186.716 344.271 186.961 344.984 186.961C346.073 186.961 346.797 186.581 347.156 185.82ZM350.523 181.883C350.523 181.185 350.823 180.602 351.422 180.133C352.021 179.664 352.768 179.43 353.664 179.43C354.544 179.43 355.271 179.633 355.844 180.039C356.417 180.445 356.747 180.995 356.836 181.688H355.508C355.414 181.344 355.206 181.073 354.883 180.875C354.565 180.672 354.156 180.57 353.656 180.57C353.151 180.57 352.727 180.688 352.383 180.922C352.044 181.156 351.875 181.458 351.875 181.828C351.875 182.115 351.992 182.354 352.227 182.547C352.466 182.734 352.836 182.888 353.336 183.008L354.633 183.32C355.435 183.513 356.026 183.792 356.406 184.156C356.792 184.521 356.984 185.003 356.984 185.602C356.984 186.346 356.664 186.958 356.023 187.438C355.383 187.911 354.578 188.148 353.609 188.148C352.672 188.148 351.904 187.94 351.305 187.523C350.706 187.107 350.37 186.549 350.297 185.852H351.68C351.794 186.216 352.021 186.503 352.359 186.711C352.698 186.914 353.13 187.016 353.656 187.016C354.224 187.016 354.69 186.893 355.055 186.648C355.419 186.404 355.602 186.089 355.602 185.703C355.602 185.13 355.156 184.734 354.266 184.516L352.82 184.164C352.023 183.971 351.44 183.695 351.07 183.336C350.706 182.971 350.523 182.487 350.523 181.883ZM359.578 177.398H360.922V179.578H362.797V180.703H360.922V185.469C360.922 185.964 361.021 186.323 361.219 186.547C361.417 186.771 361.734 186.883 362.172 186.883C362.365 186.883 362.573 186.872 362.797 186.852V187.984C362.5 188.036 362.237 188.062 362.008 188.062C361.138 188.062 360.516 187.888 360.141 187.539C359.766 187.19 359.578 186.615 359.578 185.812V180.703H358.219V179.578H359.578V177.398ZM364.477 181.883C364.477 181.185 364.776 180.602 365.375 180.133C365.974 179.664 366.721 179.43 367.617 179.43C368.497 179.43 369.224 179.633 369.797 180.039C370.37 180.445 370.701 180.995 370.789 181.688H369.461C369.367 181.344 369.159 181.073 368.836 180.875C368.518 180.672 368.109 180.57 367.609 180.57C367.104 180.57 366.68 180.688 366.336 180.922C365.997 181.156 365.828 181.458 365.828 181.828C365.828 182.115 365.945 182.354 366.18 182.547C366.419 182.734 366.789 182.888 367.289 183.008L368.586 183.32C369.388 183.513 369.979 183.792 370.359 184.156C370.745 184.521 370.938 185.003 370.938 185.602C370.938 186.346 370.617 186.958 369.977 187.438C369.336 187.911 368.531 188.148 367.562 188.148C366.625 188.148 365.857 187.94 365.258 187.523C364.659 187.107 364.323 186.549 364.25 185.852H365.633C365.747 186.216 365.974 186.503 366.312 186.711C366.651 186.914 367.083 187.016 367.609 187.016C368.177 187.016 368.643 186.893 369.008 186.648C369.372 186.404 369.555 186.089 369.555 185.703C369.555 185.13 369.109 184.734 368.219 184.516L366.773 184.164C365.977 183.971 365.393 183.695 365.023 183.336C364.659 182.971 364.477 182.487 364.477 181.883ZM377.594 188V179.578H378.938V188H377.594ZM378.93 177.594C378.747 177.776 378.526 177.867 378.266 177.867C378.005 177.867 377.784 177.776 377.602 177.594C377.419 177.406 377.328 177.185 377.328 176.93C377.328 176.674 377.419 176.456 377.602 176.273C377.784 176.086 378.005 175.992 378.266 175.992C378.526 175.992 378.747 176.086 378.93 176.273C379.112 176.456 379.203 176.674 379.203 176.93C379.203 177.185 379.112 177.406 378.93 177.594ZM381.5 188V179.578H382.781V180.906H382.906C383.354 179.922 384.198 179.43 385.438 179.43C386.38 179.43 387.107 179.701 387.617 180.242C388.128 180.779 388.383 181.547 388.383 182.547V188H387.039V182.875C387.039 182.12 386.875 181.56 386.547 181.195C386.224 180.826 385.727 180.641 385.055 180.641C384.378 180.641 383.839 180.854 383.438 181.281C383.042 181.703 382.844 182.281 382.844 183.016V188H381.5ZM396.078 191.047C395.865 191.047 395.664 191.031 395.477 191V189.852C395.612 189.878 395.799 189.891 396.039 189.891C396.43 189.891 396.74 189.786 396.969 189.578C397.203 189.37 397.409 189.013 397.586 188.508L397.742 188.008L394.625 179.578H396.078L398.391 186.508H398.516L400.82 179.578H402.25L398.961 188.516C398.602 189.49 398.219 190.154 397.812 190.508C397.406 190.867 396.828 191.047 396.078 191.047ZM410.031 186.984C409.339 187.76 408.393 188.148 407.195 188.148C405.997 188.148 405.049 187.76 404.352 186.984C403.659 186.203 403.312 185.138 403.312 183.789C403.312 182.435 403.659 181.37 404.352 180.594C405.044 179.818 405.992 179.43 407.195 179.43C408.398 179.43 409.346 179.818 410.039 180.594C410.732 181.37 411.078 182.435 411.078 183.789C411.078 185.138 410.729 186.203 410.031 186.984ZM405.352 186.117C405.784 186.664 406.398 186.938 407.195 186.938C407.992 186.938 408.607 186.664 409.039 186.117C409.471 185.565 409.688 184.789 409.688 183.789C409.688 182.789 409.471 182.016 409.039 181.469C408.607 180.917 407.992 180.641 407.195 180.641C406.398 180.641 405.784 180.917 405.352 181.469C404.919 182.016 404.703 182.789 404.703 183.789C404.703 184.789 404.919 185.565 405.352 186.117ZM420 179.578V188H418.719V186.68H418.594C418.38 187.154 418.052 187.518 417.609 187.773C417.167 188.023 416.625 188.148 415.984 188.148C415.047 188.148 414.333 187.88 413.844 187.344C413.354 186.807 413.109 186.036 413.109 185.031V179.578H414.453V184.703C414.453 185.469 414.604 186.031 414.906 186.391C415.208 186.745 415.693 186.922 416.359 186.922C417.094 186.922 417.659 186.716 418.055 186.305C418.456 185.888 418.656 185.307 418.656 184.562V179.578H420ZM422.531 188V179.578H423.812V180.828H423.938C424.062 180.417 424.344 180.081 424.781 179.82C425.219 179.56 425.716 179.43 426.273 179.43C426.529 179.43 426.753 179.443 426.945 179.469V180.812C426.763 180.76 426.477 180.734 426.086 180.734C425.445 180.734 424.917 180.927 424.5 181.312C424.083 181.698 423.875 182.188 423.875 182.781V188H422.531ZM439.438 186.984C438.745 187.76 437.799 188.148 436.602 188.148C435.404 188.148 434.456 187.76 433.758 186.984C433.065 186.203 432.719 185.138 432.719 183.789C432.719 182.435 433.065 181.37 433.758 180.594C434.451 179.818 435.398 179.43 436.602 179.43C437.805 179.43 438.753 179.818 439.445 180.594C440.138 181.37 440.484 182.435 440.484 183.789C440.484 185.138 440.135 186.203 439.438 186.984ZM434.758 186.117C435.19 186.664 435.805 186.938 436.602 186.938C437.398 186.938 438.013 186.664 438.445 186.117C438.878 185.565 439.094 184.789 439.094 183.789C439.094 182.789 438.878 182.016 438.445 181.469C438.013 180.917 437.398 180.641 436.602 180.641C435.805 180.641 435.19 180.917 434.758 181.469C434.326 182.016 434.109 182.789 434.109 183.789C434.109 184.789 434.326 185.565 434.758 186.117ZM452.875 179.578L450.516 188H449.148L447.266 181.484H447.141L445.266 188H443.906L441.547 179.578H442.906L444.562 186.312H444.688L446.57 179.578H447.859L449.742 186.312H449.867L451.523 179.578H452.875ZM454.672 188V179.578H455.953V180.906H456.078C456.526 179.922 457.37 179.43 458.609 179.43C459.552 179.43 460.279 179.701 460.789 180.242C461.299 180.779 461.555 181.547 461.555 182.547V188H460.211V182.875C460.211 182.12 460.047 181.56 459.719 181.195C459.396 180.826 458.898 180.641 458.227 180.641C457.549 180.641 457.01 180.854 456.609 181.281C456.214 181.703 456.016 182.281 456.016 183.016V188H454.672ZM471.125 186.969C471.818 186.969 472.391 186.768 472.844 186.367C473.302 185.966 473.531 185.464 473.531 184.859V184.086L471.266 184.234C470.63 184.276 470.164 184.409 469.867 184.633C469.57 184.857 469.422 185.182 469.422 185.609C469.422 186.031 469.581 186.365 469.898 186.609C470.216 186.849 470.625 186.969 471.125 186.969ZM470.875 188.148C470.047 188.148 469.365 187.922 468.828 187.469C468.297 187.01 468.031 186.401 468.031 185.641C468.031 184.891 468.297 184.302 468.828 183.875C469.359 183.448 470.117 183.206 471.102 183.148L473.531 183V182.234C473.531 181.714 473.37 181.315 473.047 181.039C472.724 180.763 472.25 180.625 471.625 180.625C471.12 180.625 470.701 180.716 470.367 180.898C470.034 181.081 469.82 181.339 469.727 181.672H468.367C468.456 181 468.802 180.458 469.406 180.047C470.016 179.635 470.771 179.43 471.672 179.43C472.693 179.43 473.482 179.677 474.039 180.172C474.596 180.667 474.875 181.354 474.875 182.234V188H473.594V186.758H473.469C473.198 187.206 472.839 187.549 472.391 187.789C471.943 188.029 471.438 188.148 470.875 188.148ZM481.461 179.43C482.534 179.43 483.391 179.826 484.031 180.617C484.677 181.409 485 182.466 485 183.789C485 185.107 484.677 186.164 484.031 186.961C483.385 187.753 482.529 188.148 481.461 188.148C480.862 188.148 480.331 188.026 479.867 187.781C479.404 187.531 479.057 187.182 478.828 186.734H478.703V190.812H477.359V179.578H478.641V180.984H478.766C479.036 180.5 479.409 180.12 479.883 179.844C480.362 179.568 480.888 179.43 481.461 179.43ZM481.141 186.938C481.911 186.938 482.516 186.659 482.953 186.102C483.391 185.544 483.609 184.773 483.609 183.789C483.609 182.805 483.391 182.034 482.953 181.477C482.521 180.919 481.919 180.641 481.148 180.641C480.388 180.641 479.784 180.924 479.336 181.492C478.888 182.055 478.664 182.82 478.664 183.789C478.664 184.753 478.885 185.518 479.328 186.086C479.776 186.654 480.38 186.938 481.141 186.938ZM491.211 179.43C492.284 179.43 493.141 179.826 493.781 180.617C494.427 181.409 494.75 182.466 494.75 183.789C494.75 185.107 494.427 186.164 493.781 186.961C493.135 187.753 492.279 188.148 491.211 188.148C490.612 188.148 490.081 188.026 489.617 187.781C489.154 187.531 488.807 187.182 488.578 186.734H488.453V190.812H487.109V179.578H488.391V180.984H488.516C488.786 180.5 489.159 180.12 489.633 179.844C490.112 179.568 490.638 179.43 491.211 179.43ZM490.891 186.938C491.661 186.938 492.266 186.659 492.703 186.102C493.141 185.544 493.359 184.773 493.359 183.789C493.359 182.805 493.141 182.034 492.703 181.477C492.271 180.919 491.669 180.641 490.898 180.641C490.138 180.641 489.534 180.924 489.086 181.492C488.638 182.055 488.414 182.82 488.414 183.789C488.414 184.753 488.635 185.518 489.078 186.086C489.526 186.654 490.13 186.938 490.891 186.938ZM503.969 186.969C504.661 186.969 505.234 186.768 505.688 186.367C506.146 185.966 506.375 185.464 506.375 184.859V184.086L504.109 184.234C503.474 184.276 503.008 184.409 502.711 184.633C502.414 184.857 502.266 185.182 502.266 185.609C502.266 186.031 502.424 186.365 502.742 186.609C503.06 186.849 503.469 186.969 503.969 186.969ZM503.719 188.148C502.891 188.148 502.208 187.922 501.672 187.469C501.141 187.01 500.875 186.401 500.875 185.641C500.875 184.891 501.141 184.302 501.672 183.875C502.203 183.448 502.961 183.206 503.945 183.148L506.375 183V182.234C506.375 181.714 506.214 181.315 505.891 181.039C505.568 180.763 505.094 180.625 504.469 180.625C503.964 180.625 503.544 180.716 503.211 180.898C502.878 181.081 502.664 181.339 502.57 181.672H501.211C501.299 181 501.646 180.458 502.25 180.047C502.859 179.635 503.615 179.43 504.516 179.43C505.536 179.43 506.326 179.677 506.883 180.172C507.44 180.667 507.719 181.354 507.719 182.234V188H506.438V186.758H506.312C506.042 187.206 505.682 187.549 505.234 187.789C504.786 188.029 504.281 188.148 503.719 188.148ZM510.203 188V179.578H511.484V180.906H511.609C512.057 179.922 512.901 179.43 514.141 179.43C515.083 179.43 515.81 179.701 516.32 180.242C516.831 180.779 517.086 181.547 517.086 182.547V188H515.742V182.875C515.742 182.12 515.578 181.56 515.25 181.195C514.927 180.826 514.43 180.641 513.758 180.641C513.081 180.641 512.542 180.854 512.141 181.281C511.745 181.703 511.547 182.281 511.547 183.016V188H510.203ZM522.664 188.148C521.586 188.148 520.727 187.753 520.086 186.961C519.445 186.169 519.125 185.112 519.125 183.789C519.125 182.471 519.445 181.417 520.086 180.625C520.732 179.828 521.591 179.43 522.664 179.43C523.253 179.43 523.779 179.562 524.242 179.828C524.711 180.089 525.065 180.448 525.305 180.906H525.422V176.234H526.766V188H525.484V186.656H525.359C525.094 187.125 524.724 187.492 524.25 187.758C523.776 188.018 523.247 188.148 522.664 188.148ZM522.977 180.641C522.211 180.641 521.609 180.922 521.172 181.484C520.734 182.042 520.516 182.81 520.516 183.789C520.516 184.773 520.732 185.544 521.164 186.102C521.602 186.659 522.206 186.938 522.977 186.938C523.742 186.938 524.346 186.656 524.789 186.094C525.232 185.531 525.453 184.763 525.453 183.789C525.453 182.826 525.229 182.06 524.781 181.492C524.339 180.924 523.737 180.641 522.977 180.641ZM533.969 188V176.234H535.312V188H533.969ZM541.281 180.617C540.609 180.617 540.057 180.844 539.625 181.297C539.193 181.75 538.951 182.349 538.898 183.094H543.539C543.523 182.349 543.31 181.75 542.898 181.297C542.487 180.844 541.948 180.617 541.281 180.617ZM543.5 185.82H544.844C544.641 186.549 544.227 187.12 543.602 187.531C542.982 187.943 542.214 188.148 541.297 188.148C540.13 188.148 539.206 187.758 538.523 186.977C537.841 186.19 537.5 185.13 537.5 183.797C537.5 182.469 537.844 181.409 538.531 180.617C539.219 179.826 540.141 179.43 541.297 179.43C542.432 179.43 543.326 179.807 543.977 180.562C544.628 181.318 544.953 182.352 544.953 183.664V184.18H538.898V184.242C538.935 185.076 539.169 185.737 539.602 186.227C540.039 186.716 540.615 186.961 541.328 186.961C542.417 186.961 543.141 186.581 543.5 185.82ZM549.656 186.969C550.349 186.969 550.922 186.768 551.375 186.367C551.833 185.966 552.062 185.464 552.062 184.859V184.086L549.797 184.234C549.161 184.276 548.695 184.409 548.398 184.633C548.102 184.857 547.953 185.182 547.953 185.609C547.953 186.031 548.112 186.365 548.43 186.609C548.747 186.849 549.156 186.969 549.656 186.969ZM549.406 188.148C548.578 188.148 547.896 187.922 547.359 187.469C546.828 187.01 546.562 186.401 546.562 185.641C546.562 184.891 546.828 184.302 547.359 183.875C547.891 183.448 548.648 183.206 549.633 183.148L552.062 183V182.234C552.062 181.714 551.901 181.315 551.578 181.039C551.255 180.763 550.781 180.625 550.156 180.625C549.651 180.625 549.232 180.716 548.898 180.898C548.565 181.081 548.352 181.339 548.258 181.672H546.898C546.987 181 547.333 180.458 547.938 180.047C548.547 179.635 549.302 179.43 550.203 179.43C551.224 179.43 552.013 179.677 552.57 180.172C553.128 180.667 553.406 181.354 553.406 182.234V188H552.125V186.758H552C551.729 187.206 551.37 187.549 550.922 187.789C550.474 188.029 549.969 188.148 549.406 188.148ZM562.453 179.578L559.336 188H557.961L554.844 179.578H556.281L558.586 186.516H558.711L561.016 179.578H562.453ZM567.297 180.617C566.625 180.617 566.073 180.844 565.641 181.297C565.208 181.75 564.966 182.349 564.914 183.094H569.555C569.539 182.349 569.326 181.75 568.914 181.297C568.503 180.844 567.964 180.617 567.297 180.617ZM569.516 185.82H570.859C570.656 186.549 570.242 187.12 569.617 187.531C568.997 187.943 568.229 188.148 567.312 188.148C566.146 188.148 565.221 187.758 564.539 186.977C563.857 186.19 563.516 185.13 563.516 183.797C563.516 182.469 563.859 181.409 564.547 180.617C565.234 179.826 566.156 179.43 567.312 179.43C568.448 179.43 569.341 179.807 569.992 180.562C570.643 181.318 570.969 182.352 570.969 183.664V184.18H564.914V184.242C564.951 185.076 565.185 185.737 565.617 186.227C566.055 186.716 566.63 186.961 567.344 186.961C568.432 186.961 569.156 186.581 569.516 185.82ZM578.156 177.398H579.5V179.578H581.375V180.703H579.5V185.469C579.5 185.964 579.599 186.323 579.797 186.547C579.995 186.771 580.312 186.883 580.75 186.883C580.943 186.883 581.151 186.872 581.375 186.852V187.984C581.078 188.036 580.815 188.062 580.586 188.062C579.716 188.062 579.094 187.888 578.719 187.539C578.344 187.19 578.156 186.615 578.156 185.812V180.703H576.797V179.578H578.156V177.398ZM583.484 188V176.234H584.828V180.906H584.953C585.167 180.432 585.492 180.068 585.93 179.812C586.372 179.557 586.911 179.43 587.547 179.43C588.443 179.43 589.151 179.706 589.672 180.258C590.193 180.805 590.453 181.568 590.453 182.547V188H589.109V182.875C589.109 181.385 588.461 180.641 587.164 180.641C586.424 180.641 585.849 180.857 585.438 181.289C585.031 181.716 584.828 182.292 584.828 183.016V188H583.484ZM596.266 180.617C595.594 180.617 595.042 180.844 594.609 181.297C594.177 181.75 593.935 182.349 593.883 183.094H598.523C598.508 182.349 598.294 181.75 597.883 181.297C597.471 180.844 596.932 180.617 596.266 180.617ZM598.484 185.82H599.828C599.625 186.549 599.211 187.12 598.586 187.531C597.966 187.943 597.198 188.148 596.281 188.148C595.115 188.148 594.19 187.758 593.508 186.977C592.826 186.19 592.484 185.13 592.484 183.797C592.484 182.469 592.828 181.409 593.516 180.617C594.203 179.826 595.125 179.43 596.281 179.43C597.417 179.43 598.31 179.807 598.961 180.562C599.612 181.318 599.938 182.352 599.938 183.664V184.18H593.883V184.242C593.919 185.076 594.154 185.737 594.586 186.227C595.023 186.716 595.599 186.961 596.312 186.961C597.401 186.961 598.125 186.581 598.484 185.82ZM606.641 188V176.234H607.984V180.906H608.109C608.323 180.432 608.648 180.068 609.086 179.812C609.529 179.557 610.068 179.43 610.703 179.43C611.599 179.43 612.307 179.706 612.828 180.258C613.349 180.805 613.609 181.568 613.609 182.547V188H612.266V182.875C612.266 181.385 611.617 180.641 610.32 180.641C609.581 180.641 609.005 180.857 608.594 181.289C608.188 181.716 607.984 182.292 607.984 183.016V188H606.641ZM618.656 186.969C619.349 186.969 619.922 186.768 620.375 186.367C620.833 185.966 621.062 185.464 621.062 184.859V184.086L618.797 184.234C618.161 184.276 617.695 184.409 617.398 184.633C617.102 184.857 616.953 185.182 616.953 185.609C616.953 186.031 617.112 186.365 617.43 186.609C617.747 186.849 618.156 186.969 618.656 186.969ZM618.406 188.148C617.578 188.148 616.896 187.922 616.359 187.469C615.828 187.01 615.562 186.401 615.562 185.641C615.562 184.891 615.828 184.302 616.359 183.875C616.891 183.448 617.648 183.206 618.633 183.148L621.062 183V182.234C621.062 181.714 620.901 181.315 620.578 181.039C620.255 180.763 619.781 180.625 619.156 180.625C618.651 180.625 618.232 180.716 617.898 180.898C617.565 181.081 617.352 181.339 617.258 181.672H615.898C615.987 181 616.333 180.458 616.938 180.047C617.547 179.635 618.302 179.43 619.203 179.43C620.224 179.43 621.013 179.677 621.57 180.172C622.128 180.667 622.406 181.354 622.406 182.234V188H621.125V186.758H621C620.729 187.206 620.37 187.549 619.922 187.789C619.474 188.029 618.969 188.148 618.406 188.148ZM624.695 181.883C624.695 181.185 624.995 180.602 625.594 180.133C626.193 179.664 626.94 179.43 627.836 179.43C628.716 179.43 629.443 179.633 630.016 180.039C630.589 180.445 630.919 180.995 631.008 181.688H629.68C629.586 181.344 629.378 181.073 629.055 180.875C628.737 180.672 628.328 180.57 627.828 180.57C627.323 180.57 626.898 180.688 626.555 180.922C626.216 181.156 626.047 181.458 626.047 181.828C626.047 182.115 626.164 182.354 626.398 182.547C626.638 182.734 627.008 182.888 627.508 183.008L628.805 183.32C629.607 183.513 630.198 183.792 630.578 184.156C630.964 184.521 631.156 185.003 631.156 185.602C631.156 186.346 630.836 186.958 630.195 187.438C629.555 187.911 628.75 188.148 627.781 188.148C626.844 188.148 626.076 187.94 625.477 187.523C624.878 187.107 624.542 186.549 624.469 185.852H625.852C625.966 186.216 626.193 186.503 626.531 186.711C626.87 186.914 627.302 187.016 627.828 187.016C628.396 187.016 628.862 186.893 629.227 186.648C629.591 186.404 629.773 186.089 629.773 185.703C629.773 185.13 629.328 184.734 628.438 184.516L626.992 184.164C626.195 183.971 625.612 183.695 625.242 183.336C624.878 182.971 624.695 182.487 624.695 181.883ZM632.914 181.883C632.914 181.185 633.214 180.602 633.812 180.133C634.411 179.664 635.159 179.43 636.055 179.43C636.935 179.43 637.661 179.633 638.234 180.039C638.807 180.445 639.138 180.995 639.227 181.688H637.898C637.805 181.344 637.596 181.073 637.273 180.875C636.956 180.672 636.547 180.57 636.047 180.57C635.542 180.57 635.117 180.688 634.773 180.922C634.435 181.156 634.266 181.458 634.266 181.828C634.266 182.115 634.383 182.354 634.617 182.547C634.857 182.734 635.227 182.888 635.727 183.008L637.023 183.32C637.826 183.513 638.417 183.792 638.797 184.156C639.182 184.521 639.375 185.003 639.375 185.602C639.375 186.346 639.055 186.958 638.414 187.438C637.773 187.911 636.969 188.148 636 188.148C635.062 188.148 634.294 187.94 633.695 187.523C633.096 187.107 632.76 186.549 632.688 185.852H634.07C634.185 186.216 634.411 186.503 634.75 186.711C635.089 186.914 635.521 187.016 636.047 187.016C636.615 187.016 637.081 186.893 637.445 186.648C637.81 186.404 637.992 186.089 637.992 185.703C637.992 185.13 637.547 184.734 636.656 184.516L635.211 184.164C634.414 183.971 633.831 183.695 633.461 183.336C633.096 182.971 632.914 182.487 632.914 181.883ZM641.562 188V176.234H642.906V188H641.562ZM648.875 180.617C648.203 180.617 647.651 180.844 647.219 181.297C646.786 181.75 646.544 182.349 646.492 183.094H651.133C651.117 182.349 650.904 181.75 650.492 181.297C650.081 180.844 649.542 180.617 648.875 180.617ZM651.094 185.82H652.438C652.234 186.549 651.82 187.12 651.195 187.531C650.576 187.943 649.807 188.148 648.891 188.148C647.724 188.148 646.799 187.758 646.117 186.977C645.435 186.19 645.094 185.13 645.094 183.797C645.094 182.469 645.438 181.409 646.125 180.617C646.812 179.826 647.734 179.43 648.891 179.43C650.026 179.43 650.919 179.807 651.57 180.562C652.221 181.318 652.547 182.352 652.547 183.664V184.18H646.492V184.242C646.529 185.076 646.763 185.737 647.195 186.227C647.633 186.716 648.208 186.961 648.922 186.961C650.01 186.961 650.734 186.581 651.094 185.82ZM665.469 186.984C664.776 187.76 663.831 188.148 662.633 188.148C661.435 188.148 660.487 187.76 659.789 186.984C659.096 186.203 658.75 185.138 658.75 183.789C658.75 182.435 659.096 181.37 659.789 180.594C660.482 179.818 661.43 179.43 662.633 179.43C663.836 179.43 664.784 179.818 665.477 180.594C666.169 181.37 666.516 182.435 666.516 183.789C666.516 185.138 666.167 186.203 665.469 186.984ZM660.789 186.117C661.221 186.664 661.836 186.938 662.633 186.938C663.43 186.938 664.044 186.664 664.477 186.117C664.909 185.565 665.125 184.789 665.125 183.789C665.125 182.789 664.909 182.016 664.477 181.469C664.044 180.917 663.43 180.641 662.633 180.641C661.836 180.641 661.221 180.917 660.789 181.469C660.357 182.016 660.141 182.789 660.141 183.789C660.141 184.789 660.357 185.565 660.789 186.117ZM669.188 188V180.703H667.789V179.578H669.188V178.641C669.188 176.984 670.003 176.156 671.633 176.156C671.971 176.156 672.273 176.182 672.539 176.234V177.328C672.404 177.302 672.193 177.289 671.906 177.289C671.427 177.289 671.078 177.404 670.859 177.633C670.641 177.862 670.531 178.211 670.531 178.68V179.578H672.461V180.703H670.531V188H669.188ZM224.234 201.156H222.875C222.76 200.714 222.513 200.352 222.133 200.07C221.758 199.784 221.281 199.641 220.703 199.641C219.948 199.641 219.346 199.922 218.898 200.484C218.456 201.047 218.234 201.805 218.234 202.758C218.234 203.727 218.458 204.5 218.906 205.078C219.354 205.651 219.953 205.938 220.703 205.938C221.271 205.938 221.742 205.81 222.117 205.555C222.497 205.299 222.75 204.935 222.875 204.461H224.234C224.109 205.258 223.737 205.906 223.117 206.406C222.497 206.901 221.695 207.148 220.711 207.148C219.529 207.148 218.589 206.753 217.891 205.961C217.193 205.164 216.844 204.096 216.844 202.758C216.844 201.445 217.193 200.396 217.891 199.609C218.589 198.823 219.526 198.43 220.703 198.43C221.688 198.43 222.49 198.688 223.109 199.203C223.734 199.719 224.109 200.37 224.234 201.156ZM226.297 207V195.234H227.641V199.906H227.766C227.979 199.432 228.305 199.068 228.742 198.812C229.185 198.557 229.724 198.43 230.359 198.43C231.255 198.43 231.964 198.706 232.484 199.258C233.005 199.805 233.266 200.568 233.266 201.547V207H231.922V201.875C231.922 200.385 231.273 199.641 229.977 199.641C229.237 199.641 228.661 199.857 228.25 200.289C227.844 200.716 227.641 201.292 227.641 202.016V207H226.297ZM239.078 199.617C238.406 199.617 237.854 199.844 237.422 200.297C236.99 200.75 236.747 201.349 236.695 202.094H241.336C241.32 201.349 241.107 200.75 240.695 200.297C240.284 199.844 239.745 199.617 239.078 199.617ZM241.297 204.82H242.641C242.438 205.549 242.023 206.12 241.398 206.531C240.779 206.943 240.01 207.148 239.094 207.148C237.927 207.148 237.003 206.758 236.32 205.977C235.638 205.19 235.297 204.13 235.297 202.797C235.297 201.469 235.641 200.409 236.328 199.617C237.016 198.826 237.938 198.43 239.094 198.43C240.229 198.43 241.122 198.807 241.773 199.562C242.424 200.318 242.75 201.352 242.75 202.664V203.18H236.695V203.242C236.732 204.076 236.966 204.737 237.398 205.227C237.836 205.716 238.411 205.961 239.125 205.961C240.214 205.961 240.938 205.581 241.297 204.82ZM251.828 201.156H250.469C250.354 200.714 250.107 200.352 249.727 200.07C249.352 199.784 248.875 199.641 248.297 199.641C247.542 199.641 246.94 199.922 246.492 200.484C246.049 201.047 245.828 201.805 245.828 202.758C245.828 203.727 246.052 204.5 246.5 205.078C246.948 205.651 247.547 205.938 248.297 205.938C248.865 205.938 249.336 205.81 249.711 205.555C250.091 205.299 250.344 204.935 250.469 204.461H251.828C251.703 205.258 251.331 205.906 250.711 206.406C250.091 206.901 249.289 207.148 248.305 207.148C247.122 207.148 246.182 206.753 245.484 205.961C244.786 205.164 244.438 204.096 244.438 202.758C244.438 201.445 244.786 200.396 245.484 199.609C246.182 198.823 247.12 198.43 248.297 198.43C249.281 198.43 250.083 198.688 250.703 199.203C251.328 199.719 251.703 200.37 251.828 201.156ZM255.359 202.258L259.016 198.578H260.664L257.039 202.188L260.906 207H259.195L256.039 203.055L255.234 203.805V207H253.891V195.234H255.234V202.258H255.359ZM262.531 207V198.578H263.875V207H262.531ZM263.867 196.594C263.685 196.776 263.464 196.867 263.203 196.867C262.943 196.867 262.721 196.776 262.539 196.594C262.357 196.406 262.266 196.185 262.266 195.93C262.266 195.674 262.357 195.456 262.539 195.273C262.721 195.086 262.943 194.992 263.203 194.992C263.464 194.992 263.685 195.086 263.867 195.273C264.049 195.456 264.141 195.674 264.141 195.93C264.141 196.185 264.049 196.406 263.867 196.594ZM266.438 207V198.578H267.719V199.906H267.844C268.292 198.922 269.135 198.43 270.375 198.43C271.318 198.43 272.044 198.701 272.555 199.242C273.065 199.779 273.32 200.547 273.32 201.547V207H271.977V201.875C271.977 201.12 271.812 200.56 271.484 200.195C271.161 199.826 270.664 199.641 269.992 199.641C269.315 199.641 268.776 199.854 268.375 200.281C267.979 200.703 267.781 201.281 267.781 202.016V207H266.438ZM279.188 205.688C279.964 205.688 280.573 205.414 281.016 204.867C281.464 204.32 281.688 203.586 281.688 202.664C281.688 201.742 281.464 201.008 281.016 200.461C280.568 199.914 279.958 199.641 279.188 199.641C278.417 199.641 277.818 199.911 277.391 200.453C276.964 200.995 276.75 201.732 276.75 202.664C276.75 203.596 276.964 204.333 277.391 204.875C277.818 205.417 278.417 205.688 279.188 205.688ZM279.25 210.234C278.245 210.234 277.43 210.026 276.805 209.609C276.185 209.193 275.823 208.633 275.719 207.93H277.141C277.214 208.279 277.435 208.555 277.805 208.758C278.174 208.961 278.656 209.062 279.25 209.062C280.005 209.062 280.594 208.885 281.016 208.531C281.443 208.182 281.656 207.698 281.656 207.078V205.422H281.531C281.266 205.885 280.904 206.245 280.445 206.5C279.987 206.75 279.469 206.875 278.891 206.875C277.807 206.875 276.948 206.492 276.312 205.727C275.677 204.956 275.359 203.935 275.359 202.664C275.359 201.393 275.68 200.37 276.32 199.594C276.961 198.818 277.818 198.43 278.891 198.43C279.479 198.43 280.016 198.565 280.5 198.836C280.984 199.102 281.349 199.461 281.594 199.914H281.719V198.578H283V207.148C283 208.091 282.661 208.841 281.984 209.398C281.307 209.956 280.396 210.234 279.25 210.234ZM300.641 198.578L298.281 207H296.914L295.031 200.484H294.906L293.031 207H291.672L289.312 198.578H290.672L292.328 205.312H292.453L294.336 198.578H295.625L297.508 205.312H297.633L299.289 198.578H300.641ZM302.469 207V198.578H303.812V207H302.469ZM303.805 196.594C303.622 196.776 303.401 196.867 303.141 196.867C302.88 196.867 302.659 196.776 302.477 196.594C302.294 196.406 302.203 196.185 302.203 195.93C302.203 195.674 302.294 195.456 302.477 195.273C302.659 195.086 302.88 194.992 303.141 194.992C303.401 194.992 303.622 195.086 303.805 195.273C303.987 195.456 304.078 195.674 304.078 195.93C304.078 196.185 303.987 196.406 303.805 196.594ZM306.938 196.398H308.281V198.578H310.156V199.703H308.281V204.469C308.281 204.964 308.38 205.323 308.578 205.547C308.776 205.771 309.094 205.883 309.531 205.883C309.724 205.883 309.932 205.872 310.156 205.852V206.984C309.859 207.036 309.596 207.062 309.367 207.062C308.497 207.062 307.875 206.888 307.5 206.539C307.125 206.19 306.938 205.615 306.938 204.812V199.703H305.578V198.578H306.938V196.398ZM312.266 207V195.234H313.609V199.906H313.734C313.948 199.432 314.273 199.068 314.711 198.812C315.154 198.557 315.693 198.43 316.328 198.43C317.224 198.43 317.932 198.706 318.453 199.258C318.974 199.805 319.234 200.568 319.234 201.547V207H317.891V201.875C317.891 200.385 317.242 199.641 315.945 199.641C315.206 199.641 314.63 199.857 314.219 200.289C313.812 200.716 313.609 201.292 313.609 202.016V207H312.266ZM328.797 205.969C329.49 205.969 330.062 205.768 330.516 205.367C330.974 204.966 331.203 204.464 331.203 203.859V203.086L328.938 203.234C328.302 203.276 327.836 203.409 327.539 203.633C327.242 203.857 327.094 204.182 327.094 204.609C327.094 205.031 327.253 205.365 327.57 205.609C327.888 205.849 328.297 205.969 328.797 205.969ZM328.547 207.148C327.719 207.148 327.036 206.922 326.5 206.469C325.969 206.01 325.703 205.401 325.703 204.641C325.703 203.891 325.969 203.302 326.5 202.875C327.031 202.448 327.789 202.206 328.773 202.148L331.203 202V201.234C331.203 200.714 331.042 200.315 330.719 200.039C330.396 199.763 329.922 199.625 329.297 199.625C328.792 199.625 328.372 199.716 328.039 199.898C327.706 200.081 327.492 200.339 327.398 200.672H326.039C326.128 200 326.474 199.458 327.078 199.047C327.688 198.635 328.443 198.43 329.344 198.43C330.365 198.43 331.154 198.677 331.711 199.172C332.268 199.667 332.547 200.354 332.547 201.234V207H331.266V205.758H331.141C330.87 206.206 330.51 206.549 330.062 206.789C329.615 207.029 329.109 207.148 328.547 207.148ZM341.844 198.578V207H340.562V205.68H340.438C340.224 206.154 339.896 206.518 339.453 206.773C339.01 207.023 338.469 207.148 337.828 207.148C336.891 207.148 336.177 206.88 335.688 206.344C335.198 205.807 334.953 205.036 334.953 204.031V198.578H336.297V203.703C336.297 204.469 336.448 205.031 336.75 205.391C337.052 205.745 337.536 205.922 338.203 205.922C338.938 205.922 339.503 205.716 339.898 205.305C340.299 204.888 340.5 204.307 340.5 203.562V198.578H341.844ZM344.938 196.398H346.281V198.578H348.156V199.703H346.281V204.469C346.281 204.964 346.38 205.323 346.578 205.547C346.776 205.771 347.094 205.883 347.531 205.883C347.724 205.883 347.932 205.872 348.156 205.852V206.984C347.859 207.036 347.596 207.062 347.367 207.062C346.497 207.062 345.875 206.888 345.5 206.539C345.125 206.19 344.938 205.615 344.938 204.812V199.703H343.578V198.578H344.938V196.398ZM356.359 205.984C355.667 206.76 354.721 207.148 353.523 207.148C352.326 207.148 351.378 206.76 350.68 205.984C349.987 205.203 349.641 204.138 349.641 202.789C349.641 201.435 349.987 200.37 350.68 199.594C351.372 198.818 352.32 198.43 353.523 198.43C354.727 198.43 355.674 198.818 356.367 199.594C357.06 200.37 357.406 201.435 357.406 202.789C357.406 204.138 357.057 205.203 356.359 205.984ZM351.68 205.117C352.112 205.664 352.727 205.938 353.523 205.938C354.32 205.938 354.935 205.664 355.367 205.117C355.799 204.565 356.016 203.789 356.016 202.789C356.016 201.789 355.799 201.016 355.367 200.469C354.935 199.917 354.32 199.641 353.523 199.641C352.727 199.641 352.112 199.917 351.68 200.469C351.247 201.016 351.031 201.789 351.031 202.789C351.031 203.789 351.247 204.565 351.68 205.117ZM359.516 207V198.578H360.797V199.906H360.922C361.115 199.438 361.414 199.076 361.82 198.82C362.227 198.56 362.711 198.43 363.273 198.43C363.826 198.43 364.299 198.562 364.695 198.828C365.096 199.094 365.398 199.453 365.602 199.906H365.727C365.956 199.453 366.299 199.094 366.758 198.828C367.216 198.562 367.732 198.43 368.305 198.43C369.164 198.43 369.826 198.669 370.289 199.148C370.753 199.622 370.984 200.299 370.984 201.18V207H369.641V201.492C369.641 200.258 369.049 199.641 367.867 199.641C367.294 199.641 366.826 199.828 366.461 200.203C366.096 200.578 365.914 201.039 365.914 201.586V207H364.57V201.281C364.57 200.781 364.409 200.383 364.086 200.086C363.768 199.789 363.344 199.641 362.812 199.641C362.266 199.641 361.802 199.849 361.422 200.266C361.047 200.682 360.859 201.188 360.859 201.781V207H359.516ZM376.031 205.969C376.724 205.969 377.297 205.768 377.75 205.367C378.208 204.966 378.438 204.464 378.438 203.859V203.086L376.172 203.234C375.536 203.276 375.07 203.409 374.773 203.633C374.477 203.857 374.328 204.182 374.328 204.609C374.328 205.031 374.487 205.365 374.805 205.609C375.122 205.849 375.531 205.969 376.031 205.969ZM375.781 207.148C374.953 207.148 374.271 206.922 373.734 206.469C373.203 206.01 372.938 205.401 372.938 204.641C372.938 203.891 373.203 203.302 373.734 202.875C374.266 202.448 375.023 202.206 376.008 202.148L378.438 202V201.234C378.438 200.714 378.276 200.315 377.953 200.039C377.63 199.763 377.156 199.625 376.531 199.625C376.026 199.625 375.607 199.716 375.273 199.898C374.94 200.081 374.727 200.339 374.633 200.672H373.273C373.362 200 373.708 199.458 374.312 199.047C374.922 198.635 375.677 198.43 376.578 198.43C377.599 198.43 378.388 198.677 378.945 199.172C379.503 199.667 379.781 200.354 379.781 201.234V207H378.5V205.758H378.375C378.104 206.206 377.745 206.549 377.297 206.789C376.849 207.029 376.344 207.148 375.781 207.148ZM382.828 196.398H384.172V198.578H386.047V199.703H384.172V204.469C384.172 204.964 384.271 205.323 384.469 205.547C384.667 205.771 384.984 205.883 385.422 205.883C385.615 205.883 385.823 205.872 386.047 205.852V206.984C385.75 207.036 385.487 207.062 385.258 207.062C384.388 207.062 383.766 206.888 383.391 206.539C383.016 206.19 382.828 205.615 382.828 204.812V199.703H381.469V198.578H382.828V196.398ZM388.109 207V198.578H389.453V207H388.109ZM389.445 196.594C389.263 196.776 389.042 196.867 388.781 196.867C388.521 196.867 388.299 196.776 388.117 196.594C387.935 196.406 387.844 196.185 387.844 195.93C387.844 195.674 387.935 195.456 388.117 195.273C388.299 195.086 388.521 194.992 388.781 194.992C389.042 194.992 389.263 195.086 389.445 195.273C389.628 195.456 389.719 195.674 389.719 195.93C389.719 196.185 389.628 196.406 389.445 196.594ZM398.984 201.156H397.625C397.51 200.714 397.263 200.352 396.883 200.07C396.508 199.784 396.031 199.641 395.453 199.641C394.698 199.641 394.096 199.922 393.648 200.484C393.206 201.047 392.984 201.805 392.984 202.758C392.984 203.727 393.208 204.5 393.656 205.078C394.104 205.651 394.703 205.938 395.453 205.938C396.021 205.938 396.492 205.81 396.867 205.555C397.247 205.299 397.5 204.935 397.625 204.461H398.984C398.859 205.258 398.487 205.906 397.867 206.406C397.247 206.901 396.445 207.148 395.461 207.148C394.279 207.148 393.339 206.753 392.641 205.961C391.943 205.164 391.594 204.096 391.594 202.758C391.594 201.445 391.943 200.396 392.641 199.609C393.339 198.823 394.276 198.43 395.453 198.43C396.438 198.43 397.24 198.688 397.859 199.203C398.484 199.719 398.859 200.37 398.984 201.156ZM412.453 201.156H411.094C410.979 200.714 410.732 200.352 410.352 200.07C409.977 199.784 409.5 199.641 408.922 199.641C408.167 199.641 407.565 199.922 407.117 200.484C406.674 201.047 406.453 201.805 406.453 202.758C406.453 203.727 406.677 204.5 407.125 205.078C407.573 205.651 408.172 205.938 408.922 205.938C409.49 205.938 409.961 205.81 410.336 205.555C410.716 205.299 410.969 204.935 411.094 204.461H412.453C412.328 205.258 411.956 205.906 411.336 206.406C410.716 206.901 409.914 207.148 408.93 207.148C407.747 207.148 406.807 206.753 406.109 205.961C405.411 205.164 405.062 204.096 405.062 202.758C405.062 201.445 405.411 200.396 406.109 199.609C406.807 198.823 407.745 198.43 408.922 198.43C409.906 198.43 410.708 198.688 411.328 199.203C411.953 199.719 412.328 200.37 412.453 201.156ZM414.516 207V195.234H415.859V199.906H415.984C416.198 199.432 416.523 199.068 416.961 198.812C417.404 198.557 417.943 198.43 418.578 198.43C419.474 198.43 420.182 198.706 420.703 199.258C421.224 199.805 421.484 200.568 421.484 201.547V207H420.141V201.875C420.141 200.385 419.492 199.641 418.195 199.641C417.456 199.641 416.88 199.857 416.469 200.289C416.062 200.716 415.859 201.292 415.859 202.016V207H414.516ZM427.297 199.617C426.625 199.617 426.073 199.844 425.641 200.297C425.208 200.75 424.966 201.349 424.914 202.094H429.555C429.539 201.349 429.326 200.75 428.914 200.297C428.503 199.844 427.964 199.617 427.297 199.617ZM429.516 204.82H430.859C430.656 205.549 430.242 206.12 429.617 206.531C428.997 206.943 428.229 207.148 427.312 207.148C426.146 207.148 425.221 206.758 424.539 205.977C423.857 205.19 423.516 204.13 423.516 202.797C423.516 201.469 423.859 200.409 424.547 199.617C425.234 198.826 426.156 198.43 427.312 198.43C428.448 198.43 429.341 198.807 429.992 199.562C430.643 200.318 430.969 201.352 430.969 202.664V203.18H424.914V203.242C424.951 204.076 425.185 204.737 425.617 205.227C426.055 205.716 426.63 205.961 427.344 205.961C428.432 205.961 429.156 205.581 429.516 204.82ZM440.047 201.156H438.688C438.573 200.714 438.326 200.352 437.945 200.07C437.57 199.784 437.094 199.641 436.516 199.641C435.76 199.641 435.159 199.922 434.711 200.484C434.268 201.047 434.047 201.805 434.047 202.758C434.047 203.727 434.271 204.5 434.719 205.078C435.167 205.651 435.766 205.938 436.516 205.938C437.083 205.938 437.555 205.81 437.93 205.555C438.31 205.299 438.562 204.935 438.688 204.461H440.047C439.922 205.258 439.549 205.906 438.93 206.406C438.31 206.901 437.508 207.148 436.523 207.148C435.341 207.148 434.401 206.753 433.703 205.961C433.005 205.164 432.656 204.096 432.656 202.758C432.656 201.445 433.005 200.396 433.703 199.609C434.401 198.823 435.339 198.43 436.516 198.43C437.5 198.43 438.302 198.688 438.922 199.203C439.547 199.719 439.922 200.37 440.047 201.156ZM443.578 202.258L447.234 198.578H448.883L445.258 202.188L449.125 207H447.414L444.258 203.055L443.453 203.805V207H442.109V195.234H443.453V202.258H443.578ZM450.75 207V198.578H452.094V207H450.75ZM452.086 196.594C451.904 196.776 451.682 196.867 451.422 196.867C451.161 196.867 450.94 196.776 450.758 196.594C450.576 196.406 450.484 196.185 450.484 195.93C450.484 195.674 450.576 195.456 450.758 195.273C450.94 195.086 451.161 194.992 451.422 194.992C451.682 194.992 451.904 195.086 452.086 195.273C452.268 195.456 452.359 195.674 452.359 195.93C452.359 196.185 452.268 196.406 452.086 196.594ZM454.656 207V198.578H455.938V199.906H456.062C456.51 198.922 457.354 198.43 458.594 198.43C459.536 198.43 460.263 198.701 460.773 199.242C461.284 199.779 461.539 200.547 461.539 201.547V207H460.195V201.875C460.195 201.12 460.031 200.56 459.703 200.195C459.38 199.826 458.883 199.641 458.211 199.641C457.534 199.641 456.995 199.854 456.594 200.281C456.198 200.703 456 201.281 456 202.016V207H454.656ZM467.406 205.688C468.182 205.688 468.792 205.414 469.234 204.867C469.682 204.32 469.906 203.586 469.906 202.664C469.906 201.742 469.682 201.008 469.234 200.461C468.786 199.914 468.177 199.641 467.406 199.641C466.635 199.641 466.036 199.911 465.609 200.453C465.182 200.995 464.969 201.732 464.969 202.664C464.969 203.596 465.182 204.333 465.609 204.875C466.036 205.417 466.635 205.688 467.406 205.688ZM467.469 210.234C466.464 210.234 465.648 210.026 465.023 209.609C464.404 209.193 464.042 208.633 463.938 207.93H465.359C465.432 208.279 465.654 208.555 466.023 208.758C466.393 208.961 466.875 209.062 467.469 209.062C468.224 209.062 468.812 208.885 469.234 208.531C469.661 208.182 469.875 207.698 469.875 207.078V205.422H469.75C469.484 205.885 469.122 206.245 468.664 206.5C468.206 206.75 467.688 206.875 467.109 206.875C466.026 206.875 465.167 206.492 464.531 205.727C463.896 204.956 463.578 203.935 463.578 202.664C463.578 201.393 463.898 200.37 464.539 199.594C465.18 198.818 466.036 198.43 467.109 198.43C467.698 198.43 468.234 198.565 468.719 198.836C469.203 199.102 469.568 199.461 469.812 199.914H469.938V198.578H471.219V207.148C471.219 208.091 470.88 208.841 470.203 209.398C469.526 209.956 468.615 210.234 467.469 210.234ZM478.828 207V199.703H477.43V198.578H478.828V197.641C478.828 195.984 479.643 195.156 481.273 195.156C481.612 195.156 481.914 195.182 482.18 195.234V196.328C482.044 196.302 481.833 196.289 481.547 196.289C481.068 196.289 480.719 196.404 480.5 196.633C480.281 196.862 480.172 197.211 480.172 197.68V198.578H482.102V199.703H480.172V207H478.828ZM487.062 199.617C486.391 199.617 485.839 199.844 485.406 200.297C484.974 200.75 484.732 201.349 484.68 202.094H489.32C489.305 201.349 489.091 200.75 488.68 200.297C488.268 199.844 487.729 199.617 487.062 199.617ZM489.281 204.82H490.625C490.422 205.549 490.008 206.12 489.383 206.531C488.763 206.943 487.995 207.148 487.078 207.148C485.911 207.148 484.987 206.758 484.305 205.977C483.622 205.19 483.281 204.13 483.281 202.797C483.281 201.469 483.625 200.409 484.312 199.617C485 198.826 485.922 198.43 487.078 198.43C488.214 198.43 489.107 198.807 489.758 199.562C490.409 200.318 490.734 201.352 490.734 202.664V203.18H484.68V203.242C484.716 204.076 484.951 204.737 485.383 205.227C485.82 205.716 486.396 205.961 487.109 205.961C488.198 205.961 488.922 205.581 489.281 204.82ZM495.438 205.969C496.13 205.969 496.703 205.768 497.156 205.367C497.615 204.966 497.844 204.464 497.844 203.859V203.086L495.578 203.234C494.943 203.276 494.477 203.409 494.18 203.633C493.883 203.857 493.734 204.182 493.734 204.609C493.734 205.031 493.893 205.365 494.211 205.609C494.529 205.849 494.938 205.969 495.438 205.969ZM495.188 207.148C494.359 207.148 493.677 206.922 493.141 206.469C492.609 206.01 492.344 205.401 492.344 204.641C492.344 203.891 492.609 203.302 493.141 202.875C493.672 202.448 494.43 202.206 495.414 202.148L497.844 202V201.234C497.844 200.714 497.682 200.315 497.359 200.039C497.036 199.763 496.562 199.625 495.938 199.625C495.432 199.625 495.013 199.716 494.68 199.898C494.346 200.081 494.133 200.339 494.039 200.672H492.68C492.768 200 493.115 199.458 493.719 199.047C494.328 198.635 495.083 198.43 495.984 198.43C497.005 198.43 497.794 198.677 498.352 199.172C498.909 199.667 499.188 200.354 499.188 201.234V207H497.906V205.758H497.781C497.51 206.206 497.151 206.549 496.703 206.789C496.255 207.029 495.75 207.148 495.188 207.148ZM502.234 196.398H503.578V198.578H505.453V199.703H503.578V204.469C503.578 204.964 503.677 205.323 503.875 205.547C504.073 205.771 504.391 205.883 504.828 205.883C505.021 205.883 505.229 205.872 505.453 205.852V206.984C505.156 207.036 504.893 207.062 504.664 207.062C503.794 207.062 503.172 206.888 502.797 206.539C502.422 206.19 502.234 205.615 502.234 204.812V199.703H500.875V198.578H502.234V196.398ZM514.297 198.578V207H513.016V205.68H512.891C512.677 206.154 512.349 206.518 511.906 206.773C511.464 207.023 510.922 207.148 510.281 207.148C509.344 207.148 508.63 206.88 508.141 206.344C507.651 205.807 507.406 205.036 507.406 204.031V198.578H508.75V203.703C508.75 204.469 508.901 205.031 509.203 205.391C509.505 205.745 509.99 205.922 510.656 205.922C511.391 205.922 511.956 205.716 512.352 205.305C512.753 204.888 512.953 204.307 512.953 203.562V198.578H514.297ZM516.828 207V198.578H518.109V199.828H518.234C518.359 199.417 518.641 199.081 519.078 198.82C519.516 198.56 520.013 198.43 520.57 198.43C520.826 198.43 521.049 198.443 521.242 198.469V199.812C521.06 199.76 520.773 199.734 520.383 199.734C519.742 199.734 519.214 199.927 518.797 200.312C518.38 200.698 518.172 201.188 518.172 201.781V207H516.828ZM526.047 199.617C525.375 199.617 524.823 199.844 524.391 200.297C523.958 200.75 523.716 201.349 523.664 202.094H528.305C528.289 201.349 528.076 200.75 527.664 200.297C527.253 199.844 526.714 199.617 526.047 199.617ZM528.266 204.82H529.609C529.406 205.549 528.992 206.12 528.367 206.531C527.747 206.943 526.979 207.148 526.062 207.148C524.896 207.148 523.971 206.758 523.289 205.977C522.607 205.19 522.266 204.13 522.266 202.797C522.266 201.469 522.609 200.409 523.297 199.617C523.984 198.826 524.906 198.43 526.062 198.43C527.198 198.43 528.091 198.807 528.742 199.562C529.393 200.318 529.719 201.352 529.719 202.664V203.18H523.664V203.242C523.701 204.076 523.935 204.737 524.367 205.227C524.805 205.716 525.38 205.961 526.094 205.961C527.182 205.961 527.906 205.581 528.266 204.82Z" fill="white"/>
<path d="M153.5 123.375H78.5C73.3309 123.375 69.125 127.581 69.125 132.75V224.625C69.125 229.794 73.3309 234 78.5 234H153.5C158.669 234 162.875 229.794 162.875 224.625V132.75C162.875 127.581 158.669 123.375 153.5 123.375Z" fill="#D663E9"/>
<path d="M153.406 130.875C154.494 130.875 155.375 131.749 155.375 132.827V224.549C155.375 225.626 154.494 226.5 153.406 226.5H78.5938C77.5065 226.5 76.625 225.626 76.625 224.549V132.826C76.625 131.749 77.5065 130.875 78.5938 130.875H153.406Z" fill="white"/>
<path d="M102.875 164.625H91.625C89.5578 164.625 87.875 162.942 87.875 160.875V149.625C87.875 147.558 89.5578 145.875 91.625 145.875H102.875C104.942 145.875 106.625 147.558 106.625 149.625V160.875C106.625 162.942 104.942 164.625 102.875 164.625ZM91.625 149.625V160.875H102.879L102.875 149.625H91.625Z" fill="#B4B6BC"/>
<path d="M117.875 151.5H112.25C111.214 151.5 110.375 150.661 110.375 149.625C110.375 148.589 111.214 147.75 112.25 147.75H117.875C118.911 147.75 119.75 148.589 119.75 149.625C119.75 150.661 118.911 151.5 117.875 151.5Z" fill="#5C546A"/>
<path d="M140.375 159H112.25C111.214 159 110.375 158.161 110.375 157.125C110.375 156.089 111.214 155.25 112.25 155.25H140.375C141.411 155.25 142.25 156.089 142.25 157.125C142.25 158.161 141.411 159 140.375 159Z" fill="#868491"/>
<path d="M131 177.75H112.25C111.214 177.75 110.375 176.911 110.375 175.875C110.375 174.839 111.214 174 112.25 174H131C132.036 174 132.875 174.839 132.875 175.875C132.875 176.911 132.036 177.75 131 177.75Z" fill="#5C546A"/>
<path d="M140.375 185.25H112.25C111.214 185.25 110.375 184.411 110.375 183.375C110.375 182.339 111.214 181.5 112.25 181.5H140.375C141.411 181.5 142.25 182.339 142.25 183.375C142.25 184.411 141.411 185.25 140.375 185.25Z" fill="#868491"/>
<path d="M119.75 202.125H112.25C111.214 202.125 110.375 201.286 110.375 200.25C110.375 199.214 111.214 198.375 112.25 198.375H119.75C120.786 198.375 121.625 199.214 121.625 200.25C121.625 201.286 120.786 202.125 119.75 202.125Z" fill="#5C546A"/>
<path d="M140.375 209.625H112.25C111.214 209.625 110.375 208.786 110.375 207.75C110.375 206.714 111.214 205.875 112.25 205.875H140.375C141.411 205.875 142.25 206.714 142.25 207.75C142.25 208.786 141.411 209.625 140.375 209.625Z" fill="#868491"/>
<path d="M123.5 123.375C122.464 123.375 121.625 122.536 121.625 121.5V119.625C121.625 118.59 120.785 117.75 119.75 117.75H112.25C111.215 117.75 110.375 118.59 110.375 119.625V121.5C110.375 122.536 109.536 123.375 108.5 123.375C107.464 123.375 106.625 122.536 106.625 121.5V119.625C106.625 116.523 109.148 114 112.25 114H119.75C122.852 114 125.375 116.523 125.375 119.625V121.5C125.375 122.536 124.536 123.375 123.5 123.375Z" fill="#A0A0A3"/>
<path d="M136.625 119.625H95.375C94.3395 119.625 93.5 120.465 93.5 121.5V127.125C93.5 132.303 97.6974 136.5 102.875 136.5H129.125C134.303 136.5 138.5 132.303 138.5 127.125V121.5C138.5 120.465 137.66 119.625 136.625 119.625Z" fill="#BDBEC3"/>
<path d="M102.875 189H91.625C89.5578 189 87.875 187.317 87.875 185.25V174C87.875 171.933 89.5578 170.25 91.625 170.25H102.875C104.942 170.25 106.625 171.933 106.625 174V185.25C106.625 187.317 104.942 189 102.875 189ZM91.625 174V185.25H102.879L102.875 174H91.625Z" fill="#B4B6BC"/>
<path d="M102.875 213.375H91.625C89.5578 213.375 87.875 211.692 87.875 209.625V198.375C87.875 196.308 89.5578 194.625 91.625 194.625H102.875C104.942 194.625 106.625 196.308 106.625 198.375V209.625C106.625 211.692 104.942 213.375 102.875 213.375ZM91.625 198.375V209.625H102.879L102.875 198.375H91.625Z" fill="#B4B6BC"/>
<path d="M99.1249 183.375C98.6452 183.375 98.1654 183.192 97.7993 182.826L94.0493 179.076C93.3169 178.343 93.3169 177.156 94.0493 176.424C94.7817 175.692 95.9684 175.692 96.7008 176.424L99.1249 178.848L107.174 170.799C107.907 170.067 109.093 170.067 109.826 170.799C110.558 171.531 110.558 172.718 109.826 173.45L100.451 182.825C100.084 183.192 99.6047 183.375 99.1249 183.375Z" fill="#FF4F19"/>
</svg>
