<svg width="414" height="180" viewBox="0 0 414 180" fill="none" xmlns="http://www.w3.org/2000/svg">
<rect width="414" height="180" fill="#E91E63"/>
<g opacity="0.6">
<rect x="132.363" y="18" width="43.6364" height="43.6364" fill="white" fill-opacity="0.06"/>
<rect x="107.818" y="47.4546" width="35.4545" height="36" fill="white" fill-opacity="0.06"/>
<rect x="278" y="139.091" width="22.9091" height="22.9091" fill="white" fill-opacity="0.08"/>
<circle cx="332.272" cy="45" r="27" fill="white" fill-opacity="0.06"/>
<ellipse cx="312.091" cy="65.4546" rx="17.7273" ry="18" fill="white" fill-opacity="0.06"/>
<ellipse cx="233.818" cy="135.545" rx="8.72727" ry="8.45455" fill="white" fill-opacity="0.08"/>
<g opacity="0.15">
<path fill-rule="evenodd" clip-rule="evenodd" d="M366.799 115.357L384.233 97.9233C384.577 97.5794 385.136 97.5813 385.482 97.9274L393.003 105.448C394.042 106.487 394.047 108.165 393.015 109.197L375.582 126.63C375.238 126.974 374.679 126.972 374.333 126.626L366.812 119.105C365.773 118.066 365.768 116.388 366.799 115.357Z" fill="#EEEEEE" fill-opacity="0.6"/>
<path fill-rule="evenodd" clip-rule="evenodd" d="M382.419 114.783L366.75 99.1147C365.712 98.0763 365.706 96.3982 366.738 95.3666L374.209 87.8952C374.553 87.5514 375.112 87.5532 375.458 87.8994L393.007 105.448C394.046 106.487 394.051 108.165 393.02 109.196L385.548 116.668L383.058 119.158C384.09 118.127 384.084 116.449 383.046 115.41L382.419 114.783Z" fill="white"/>
</g>
</g>
<path d="M143.822 64.5566C139.73 64.5566 137.143 67.3984 137.143 71.9492C137.143 76.5 139.682 79.3516 143.822 79.3516C147.934 79.3516 150.473 76.4902 150.473 71.9492C150.473 67.3984 147.914 64.5566 143.822 64.5566ZM143.822 66.793C146.322 66.793 147.895 68.7949 147.895 71.9492C147.895 75.0938 146.332 77.1152 143.822 77.1152C141.273 77.1152 139.721 75.0938 139.721 71.9492C139.721 68.7949 141.312 66.793 143.822 66.793ZM153.109 79H155.531V72.7793C155.531 71.207 156.439 70.2109 157.885 70.2109C159.359 70.2109 160.043 71.0312 160.043 72.6621V79H162.465V72.0859C162.465 69.5371 161.166 68.1016 158.783 68.1016C157.191 68.1016 156.117 68.834 155.609 70.0254H155.443V68.3164H153.109V79ZM165.434 79H167.855V64.1855H165.434V79ZM170.951 79H173.363V68.3164H170.951V79ZM172.152 66.5781C173.041 66.5781 173.646 66.0117 173.646 65.2402C173.646 64.4688 173.041 63.9023 172.152 63.9023C171.273 63.9023 170.658 64.4688 170.658 65.2402C170.658 66.0117 171.273 66.5781 172.152 66.5781ZM176.371 79H178.793V72.7793C178.793 71.207 179.701 70.2109 181.146 70.2109C182.621 70.2109 183.305 71.0312 183.305 72.6621V79H185.727V72.0859C185.727 69.5371 184.428 68.1016 182.045 68.1016C180.453 68.1016 179.379 68.834 178.871 70.0254H178.705V68.3164H176.371V79ZM193.08 70.0254C194.535 70.0254 195.492 71.041 195.541 72.623H190.512C190.619 71.0605 191.635 70.0254 193.08 70.0254ZM195.561 76.0605C195.209 76.8516 194.379 77.291 193.178 77.291C191.586 77.291 190.561 76.1777 190.502 74.4004V74.2734H197.963V73.4922C197.963 70.123 196.137 68.1016 193.09 68.1016C189.994 68.1016 188.07 70.2598 188.07 73.6973C188.07 77.1348 189.965 79.2148 193.109 79.2148C195.629 79.2148 197.396 78.0039 197.855 76.0605H195.561ZM211.859 79.3516C215.111 79.3516 217.494 77.4082 217.826 74.5273H215.346C215.004 76.1094 213.646 77.1055 211.859 77.1055C209.457 77.1055 207.963 75.1328 207.963 71.9492C207.963 68.7754 209.457 66.8027 211.85 66.8027C213.627 66.8027 214.984 67.8965 215.336 69.5859H217.816C217.523 66.6465 215.053 64.5566 211.85 64.5566C207.855 64.5566 205.385 67.3789 205.385 71.959C205.385 76.5195 207.865 79.3516 211.859 79.3516ZM224.984 79.2148C228.178 79.2148 230.121 77.125 230.121 73.6582C230.121 70.2012 228.168 68.1016 224.984 68.1016C221.811 68.1016 219.848 70.2109 219.848 73.6582C219.848 77.125 221.781 79.2148 224.984 79.2148ZM224.984 77.1836C223.295 77.1836 222.328 75.8945 222.328 73.6582C222.328 71.4316 223.295 70.1328 224.984 70.1328C226.664 70.1328 227.631 71.4316 227.631 73.6582C227.631 75.8945 226.674 77.1836 224.984 77.1836ZM232.562 79H234.984V72.7793C234.984 71.207 235.893 70.2109 237.338 70.2109C238.812 70.2109 239.496 71.0312 239.496 72.6621V79H241.918V72.0859C241.918 69.5371 240.619 68.1016 238.236 68.1016C236.645 68.1016 235.57 68.834 235.062 70.0254H234.896V68.3164H232.562V79ZM245.561 65.6992V68.3848H243.871V70.3184H245.561V76.1484C245.561 78.2188 246.537 79.0488 248.988 79.0488C249.457 79.0488 249.906 79 250.258 78.9316V77.0371C249.965 77.0664 249.779 77.0859 249.438 77.0859C248.422 77.0859 247.973 76.6172 247.973 75.5625V70.3184H250.258V68.3848H247.973V65.6992H245.561ZM257.064 70.0254C258.52 70.0254 259.477 71.041 259.525 72.623H254.496C254.604 71.0605 255.619 70.0254 257.064 70.0254ZM259.545 76.0605C259.193 76.8516 258.363 77.291 257.162 77.291C255.57 77.291 254.545 76.1777 254.486 74.4004V74.2734H261.947V73.4922C261.947 70.123 260.121 68.1016 257.074 68.1016C253.979 68.1016 252.055 70.2598 252.055 73.6973C252.055 77.1348 253.949 79.2148 257.094 79.2148C259.613 79.2148 261.381 78.0039 261.84 76.0605H259.545ZM264.379 79H266.801V72.7793C266.801 71.207 267.709 70.2109 269.154 70.2109C270.629 70.2109 271.312 71.0312 271.312 72.6621V79H273.734V72.0859C273.734 69.5371 272.436 68.1016 270.053 68.1016C268.461 68.1016 267.387 68.834 266.879 70.0254H266.713V68.3164H264.379V79ZM277.377 65.6992V68.3848H275.688V70.3184H277.377V76.1484C277.377 78.2188 278.354 79.0488 280.805 79.0488C281.273 79.0488 281.723 79 282.074 78.9316V77.0371C281.781 77.0664 281.596 77.0859 281.254 77.0859C280.238 77.0859 279.789 76.6172 279.789 75.5625V70.3184H282.074V68.3848H279.789V65.6992H277.377ZM289.438 75.1719C289.564 77.7305 291.703 79.3516 294.936 79.3516C298.354 79.3516 300.473 77.6426 300.473 74.8984C300.473 72.75 299.271 71.5586 296.41 70.9141L294.789 70.543C293.041 70.1426 292.328 69.5859 292.328 68.6387C292.328 67.4375 293.402 66.6562 295.023 66.6562C296.566 66.6562 297.66 67.4375 297.836 68.6777H300.248C300.131 66.2559 297.992 64.5566 295.033 64.5566C291.879 64.5566 289.789 66.2559 289.789 68.8145C289.789 70.9141 290.99 72.1836 293.549 72.7598L295.375 73.1797C297.182 73.5996 297.953 74.1953 297.953 75.2109C297.953 76.3926 296.752 77.2422 295.092 77.2422C293.305 77.2422 292.055 76.4316 291.898 75.1719H289.438ZM303.822 65.6992V68.3848H302.133V70.3184H303.822V76.1484C303.822 78.2188 304.799 79.0488 307.25 79.0488C307.719 79.0488 308.168 79 308.52 78.9316V77.0371C308.227 77.0664 308.041 77.0859 307.699 77.0859C306.684 77.0859 306.234 76.6172 306.234 75.5625V70.3184H308.52V68.3848H306.234V65.6992H303.822ZM315.453 79.2148C318.646 79.2148 320.59 77.125 320.59 73.6582C320.59 70.2012 318.637 68.1016 315.453 68.1016C312.279 68.1016 310.316 70.2109 310.316 73.6582C310.316 77.125 312.25 79.2148 315.453 79.2148ZM315.453 77.1836C313.764 77.1836 312.797 75.8945 312.797 73.6582C312.797 71.4316 313.764 70.1328 315.453 70.1328C317.133 70.1328 318.1 71.4316 318.1 73.6582C318.1 75.8945 317.143 77.1836 315.453 77.1836ZM323.031 79H325.453V72.8281C325.453 71.334 326.547 70.3574 328.119 70.3574C328.529 70.3574 329.174 70.4258 329.359 70.4941V68.248C329.135 68.1797 328.705 68.1406 328.354 68.1406C326.977 68.1406 325.824 68.9219 325.531 69.9766H325.365V68.3164H323.031V79ZM335.561 70.0254C337.016 70.0254 337.973 71.041 338.021 72.623H332.992C333.1 71.0605 334.115 70.0254 335.561 70.0254ZM338.041 76.0605C337.689 76.8516 336.859 77.291 335.658 77.291C334.066 77.291 333.041 76.1777 332.982 74.4004V74.2734H340.443V73.4922C340.443 70.123 338.617 68.1016 335.57 68.1016C332.475 68.1016 330.551 70.2598 330.551 73.6973C330.551 77.1348 332.445 79.2148 335.59 79.2148C338.109 79.2148 339.877 78.0039 340.336 76.0605H338.041Z" fill="white"/>
<path d="M138.133 95.4824V98.7168H140.213C140.756 98.7168 141.174 98.5781 141.467 98.3008C141.764 98.0195 141.912 97.6191 141.912 97.0996C141.912 96.5918 141.758 96.1953 141.449 95.9102C141.141 95.625 140.713 95.4824 140.166 95.4824H138.133ZM138.133 99.6543V103H137.078V94.5449H140.307C141.123 94.5449 141.775 94.7754 142.264 95.2363C142.756 95.6934 143.002 96.3027 143.002 97.0645C143.002 97.6543 142.852 98.1641 142.551 98.5938C142.25 99.0234 141.834 99.3223 141.303 99.4902L143.26 103H142.023L140.213 99.6543H138.133ZM147.133 97.4629C146.629 97.4629 146.215 97.6328 145.891 97.9727C145.566 98.3125 145.385 98.7617 145.346 99.3203H148.826C148.814 98.7617 148.654 98.3125 148.346 97.9727C148.037 97.6328 147.633 97.4629 147.133 97.4629ZM148.797 101.365H149.805C149.652 101.912 149.342 102.34 148.873 102.648C148.408 102.957 147.832 103.111 147.145 103.111C146.27 103.111 145.576 102.818 145.064 102.232C144.553 101.643 144.297 100.848 144.297 99.8477C144.297 98.8516 144.555 98.0566 145.07 97.4629C145.586 96.8691 146.277 96.5723 147.145 96.5723C147.996 96.5723 148.666 96.8555 149.154 97.4219C149.643 97.9883 149.887 98.7637 149.887 99.748V100.135H145.346V100.182C145.373 100.807 145.549 101.303 145.873 101.67C146.201 102.037 146.633 102.221 147.168 102.221C147.984 102.221 148.527 101.936 148.797 101.365ZM153.414 102.227C153.934 102.227 154.363 102.076 154.703 101.775C155.047 101.475 155.219 101.098 155.219 100.645V100.064L153.52 100.176C153.043 100.207 152.693 100.307 152.471 100.475C152.248 100.643 152.137 100.887 152.137 101.207C152.137 101.523 152.256 101.773 152.494 101.957C152.732 102.137 153.039 102.227 153.414 102.227ZM153.227 103.111C152.605 103.111 152.094 102.941 151.691 102.602C151.293 102.258 151.094 101.801 151.094 101.23C151.094 100.668 151.293 100.227 151.691 99.9062C152.09 99.5859 152.658 99.4043 153.396 99.3613L155.219 99.25V98.6758C155.219 98.2852 155.098 97.9863 154.855 97.7793C154.613 97.5723 154.258 97.4688 153.789 97.4688C153.41 97.4688 153.096 97.5371 152.846 97.6738C152.596 97.8105 152.436 98.0039 152.365 98.2539H151.346C151.412 97.75 151.672 97.3438 152.125 97.0352C152.582 96.7266 153.148 96.5723 153.824 96.5723C154.59 96.5723 155.182 96.7578 155.6 97.1289C156.018 97.5 156.227 98.0156 156.227 98.6758V103H155.266V102.068H155.172C154.969 102.404 154.699 102.662 154.363 102.842C154.027 103.021 153.648 103.111 153.227 103.111ZM163.316 98.6172H162.297C162.211 98.2852 162.025 98.0137 161.74 97.8027C161.459 97.5879 161.102 97.4805 160.668 97.4805C160.102 97.4805 159.65 97.6914 159.314 98.1133C158.982 98.5352 158.816 99.1035 158.816 99.8184C158.816 100.545 158.984 101.125 159.32 101.559C159.656 101.988 160.105 102.203 160.668 102.203C161.094 102.203 161.447 102.107 161.729 101.916C162.014 101.725 162.203 101.451 162.297 101.096H163.316C163.223 101.693 162.943 102.18 162.479 102.555C162.014 102.926 161.412 103.111 160.674 103.111C159.787 103.111 159.082 102.814 158.559 102.221C158.035 101.623 157.773 100.822 157.773 99.8184C157.773 98.834 158.035 98.0469 158.559 97.457C159.082 96.8672 159.785 96.5723 160.668 96.5723C161.406 96.5723 162.008 96.7656 162.473 97.1523C162.941 97.5391 163.223 98.0273 163.316 98.6172ZM164.863 103V94.1758H165.871V97.6797H165.965C166.125 97.3242 166.369 97.0508 166.697 96.8594C167.029 96.668 167.434 96.5723 167.91 96.5723C168.582 96.5723 169.113 96.7793 169.504 97.1934C169.895 97.6035 170.09 98.1758 170.09 98.9102V103H169.082V99.1562C169.082 98.0391 168.596 97.4805 167.623 97.4805C167.068 97.4805 166.637 97.6426 166.328 97.9668C166.023 98.2871 165.871 98.7188 165.871 99.2617V103H164.863ZM180.039 102.238C179.52 102.82 178.811 103.111 177.912 103.111C177.014 103.111 176.303 102.82 175.779 102.238C175.26 101.652 175 100.854 175 99.8418C175 98.8262 175.26 98.0273 175.779 97.4453C176.299 96.8633 177.01 96.5723 177.912 96.5723C178.814 96.5723 179.525 96.8633 180.045 97.4453C180.564 98.0273 180.824 98.8262 180.824 99.8418C180.824 100.854 180.562 101.652 180.039 102.238ZM176.529 101.588C176.854 101.998 177.314 102.203 177.912 102.203C178.51 102.203 178.971 101.998 179.295 101.588C179.619 101.174 179.781 100.592 179.781 99.8418C179.781 99.0918 179.619 98.5117 179.295 98.1016C178.971 97.6875 178.51 97.4805 177.912 97.4805C177.314 97.4805 176.854 97.6875 176.529 98.1016C176.205 98.5117 176.043 99.0918 176.043 99.8418C176.043 100.592 176.205 101.174 176.529 101.588ZM187.516 96.6836V103H186.555V102.01H186.461C186.301 102.365 186.055 102.639 185.723 102.83C185.391 103.018 184.984 103.111 184.504 103.111C183.801 103.111 183.266 102.91 182.898 102.508C182.531 102.105 182.348 101.527 182.348 100.773V96.6836H183.355V100.527C183.355 101.102 183.469 101.523 183.695 101.793C183.922 102.059 184.285 102.191 184.785 102.191C185.336 102.191 185.76 102.037 186.057 101.729C186.357 101.416 186.508 100.98 186.508 100.422V96.6836H187.516ZM189.836 95.0488H190.844V96.6836H192.25V97.5273H190.844V101.102C190.844 101.473 190.918 101.742 191.066 101.91C191.215 102.078 191.453 102.162 191.781 102.162C191.926 102.162 192.082 102.154 192.25 102.139V102.988C192.027 103.027 191.83 103.047 191.658 103.047C191.006 103.047 190.539 102.916 190.258 102.654C189.977 102.393 189.836 101.961 189.836 101.359V97.5273H188.816V96.6836H189.836V95.0488ZM197.582 95.0488H198.59V96.6836H199.996V97.5273H198.59V101.102C198.59 101.473 198.664 101.742 198.812 101.91C198.961 102.078 199.199 102.162 199.527 102.162C199.672 102.162 199.828 102.154 199.996 102.139V102.988C199.773 103.027 199.576 103.047 199.404 103.047C198.752 103.047 198.285 102.916 198.004 102.654C197.723 102.393 197.582 101.961 197.582 101.359V97.5273H196.562V96.6836H197.582V95.0488ZM206.148 102.238C205.629 102.82 204.92 103.111 204.021 103.111C203.123 103.111 202.412 102.82 201.889 102.238C201.369 101.652 201.109 100.854 201.109 99.8418C201.109 98.8262 201.369 98.0273 201.889 97.4453C202.408 96.8633 203.119 96.5723 204.021 96.5723C204.924 96.5723 205.635 96.8633 206.154 97.4453C206.674 98.0273 206.934 98.8262 206.934 99.8418C206.934 100.854 206.672 101.652 206.148 102.238ZM202.639 101.588C202.963 101.998 203.424 102.203 204.021 102.203C204.619 102.203 205.08 101.998 205.404 101.588C205.729 101.174 205.891 100.592 205.891 99.8418C205.891 99.0918 205.729 98.5117 205.404 98.1016C205.08 97.6875 204.619 97.4805 204.021 97.4805C203.424 97.4805 202.963 97.6875 202.639 98.1016C202.314 98.5117 202.152 99.0918 202.152 99.8418C202.152 100.592 202.314 101.174 202.639 101.588ZM211.902 103V96.6836H212.863V97.6797H212.957C213.102 97.3281 213.326 97.0566 213.631 96.8652C213.936 96.6699 214.299 96.5723 214.721 96.5723C215.135 96.5723 215.49 96.6719 215.787 96.8711C216.088 97.0703 216.314 97.3398 216.467 97.6797H216.561C216.732 97.3398 216.99 97.0703 217.334 96.8711C217.678 96.6719 218.064 96.5723 218.494 96.5723C219.139 96.5723 219.635 96.752 219.982 97.1113C220.33 97.4668 220.504 97.9746 220.504 98.6348V103H219.496V98.8691C219.496 97.9434 219.053 97.4805 218.166 97.4805C217.736 97.4805 217.385 97.6211 217.111 97.9023C216.838 98.1836 216.701 98.5293 216.701 98.9395V103H215.693V98.7109C215.693 98.3359 215.572 98.0371 215.33 97.8145C215.092 97.5918 214.773 97.4805 214.375 97.4805C213.965 97.4805 213.617 97.6367 213.332 97.9492C213.051 98.2617 212.91 98.6406 212.91 99.0859V103H211.902ZM222.367 103V96.6836H223.375V103H222.367ZM223.369 95.1953C223.232 95.332 223.066 95.4004 222.871 95.4004C222.676 95.4004 222.51 95.332 222.373 95.1953C222.236 95.0547 222.168 94.8887 222.168 94.6973C222.168 94.5059 222.236 94.3418 222.373 94.2051C222.51 94.0645 222.676 93.9941 222.871 93.9941C223.066 93.9941 223.232 94.0645 223.369 94.2051C223.506 94.3418 223.574 94.5059 223.574 94.6973C223.574 94.8887 223.506 95.0547 223.369 95.1953ZM225.355 103V94.1758H226.363V103H225.355ZM228.379 103V94.1758H229.387V103H228.379ZM231.367 103V96.6836H232.375V103H231.367ZM232.369 95.1953C232.232 95.332 232.066 95.4004 231.871 95.4004C231.676 95.4004 231.51 95.332 231.373 95.1953C231.236 95.0547 231.168 94.8887 231.168 94.6973C231.168 94.5059 231.236 94.3418 231.373 94.2051C231.51 94.0645 231.676 93.9941 231.871 93.9941C232.066 93.9941 232.232 94.0645 232.369 94.2051C232.506 94.3418 232.574 94.5059 232.574 94.6973C232.574 94.8887 232.506 95.0547 232.369 95.1953ZM239.02 102.238C238.5 102.82 237.791 103.111 236.893 103.111C235.994 103.111 235.283 102.82 234.76 102.238C234.24 101.652 233.98 100.854 233.98 99.8418C233.98 98.8262 234.24 98.0273 234.76 97.4453C235.279 96.8633 235.99 96.5723 236.893 96.5723C237.795 96.5723 238.506 96.8633 239.025 97.4453C239.545 98.0273 239.805 98.8262 239.805 99.8418C239.805 100.854 239.543 101.652 239.02 102.238ZM235.51 101.588C235.834 101.998 236.295 102.203 236.893 102.203C237.49 102.203 237.951 101.998 238.275 101.588C238.6 101.174 238.762 100.592 238.762 99.8418C238.762 99.0918 238.6 98.5117 238.275 98.1016C237.951 97.6875 237.49 97.4805 236.893 97.4805C236.295 97.4805 235.834 97.6875 235.51 98.1016C235.186 98.5117 235.023 99.0918 235.023 99.8418C235.023 100.592 235.186 101.174 235.51 101.588ZM241.387 103V96.6836H242.348V97.6797H242.441C242.777 96.9414 243.41 96.5723 244.34 96.5723C245.047 96.5723 245.592 96.7754 245.975 97.1816C246.357 97.584 246.549 98.1602 246.549 98.9102V103H245.541V99.1562C245.541 98.5898 245.418 98.1699 245.172 97.8965C244.93 97.6191 244.557 97.4805 244.053 97.4805C243.545 97.4805 243.141 97.6406 242.84 97.9609C242.543 98.2773 242.395 98.7109 242.395 99.2617V103H241.387ZM248.248 98.4121C248.248 97.8887 248.473 97.4512 248.922 97.0996C249.371 96.748 249.932 96.5723 250.604 96.5723C251.264 96.5723 251.809 96.7246 252.238 97.0293C252.668 97.334 252.916 97.7461 252.982 98.2656H251.986C251.916 98.0078 251.76 97.8047 251.518 97.6562C251.279 97.5039 250.973 97.4277 250.598 97.4277C250.219 97.4277 249.9 97.5156 249.643 97.6914C249.389 97.8672 249.262 98.0938 249.262 98.3711C249.262 98.5859 249.35 98.7656 249.525 98.9102C249.705 99.0508 249.982 99.166 250.357 99.2559L251.33 99.4902C251.932 99.6348 252.375 99.8438 252.66 100.117C252.949 100.391 253.094 100.752 253.094 101.201C253.094 101.76 252.854 102.219 252.373 102.578C251.893 102.934 251.289 103.111 250.562 103.111C249.859 103.111 249.283 102.955 248.834 102.643C248.385 102.33 248.133 101.912 248.078 101.389H249.115C249.201 101.662 249.371 101.877 249.625 102.033C249.879 102.186 250.203 102.262 250.598 102.262C251.023 102.262 251.373 102.17 251.646 101.986C251.92 101.803 252.057 101.566 252.057 101.277C252.057 100.848 251.723 100.551 251.055 100.387L249.971 100.123C249.373 99.9785 248.936 99.7715 248.658 99.502C248.385 99.2285 248.248 98.8652 248.248 98.4121ZM262.785 102.238C262.266 102.82 261.557 103.111 260.658 103.111C259.76 103.111 259.049 102.82 258.525 102.238C258.006 101.652 257.746 100.854 257.746 99.8418C257.746 98.8262 258.006 98.0273 258.525 97.4453C259.045 96.8633 259.756 96.5723 260.658 96.5723C261.561 96.5723 262.271 96.8633 262.791 97.4453C263.311 98.0273 263.57 98.8262 263.57 99.8418C263.57 100.854 263.309 101.652 262.785 102.238ZM259.275 101.588C259.6 101.998 260.061 102.203 260.658 102.203C261.256 102.203 261.717 101.998 262.041 101.588C262.365 101.174 262.527 100.592 262.527 99.8418C262.527 99.0918 262.365 98.5117 262.041 98.1016C261.717 97.6875 261.256 97.4805 260.658 97.4805C260.061 97.4805 259.6 97.6875 259.275 98.1016C258.951 98.5117 258.789 99.0918 258.789 99.8418C258.789 100.592 258.951 101.174 259.275 101.588ZM265.574 103V97.5273H264.525V96.6836H265.574V95.9805C265.574 94.7383 266.186 94.1172 267.408 94.1172C267.662 94.1172 267.889 94.1367 268.088 94.1758V94.9961C267.986 94.9766 267.828 94.9668 267.613 94.9668C267.254 94.9668 266.992 95.0527 266.828 95.2246C266.664 95.3965 266.582 95.6582 266.582 96.0098V96.6836H268.029V97.5273H266.582V103H265.574ZM272.74 98.4121C272.74 97.8887 272.965 97.4512 273.414 97.0996C273.863 96.748 274.424 96.5723 275.096 96.5723C275.756 96.5723 276.301 96.7246 276.73 97.0293C277.16 97.334 277.408 97.7461 277.475 98.2656H276.479C276.408 98.0078 276.252 97.8047 276.01 97.6562C275.771 97.5039 275.465 97.4277 275.09 97.4277C274.711 97.4277 274.393 97.5156 274.135 97.6914C273.881 97.8672 273.754 98.0938 273.754 98.3711C273.754 98.5859 273.842 98.7656 274.018 98.9102C274.197 99.0508 274.475 99.166 274.85 99.2559L275.822 99.4902C276.424 99.6348 276.867 99.8438 277.152 100.117C277.441 100.391 277.586 100.752 277.586 101.201C277.586 101.76 277.346 102.219 276.865 102.578C276.385 102.934 275.781 103.111 275.055 103.111C274.352 103.111 273.775 102.955 273.326 102.643C272.877 102.33 272.625 101.912 272.57 101.389H273.607C273.693 101.662 273.863 101.877 274.117 102.033C274.371 102.186 274.695 102.262 275.09 102.262C275.516 102.262 275.865 102.17 276.139 101.986C276.412 101.803 276.549 101.566 276.549 101.277C276.549 100.848 276.215 100.551 275.547 100.387L274.463 100.123C273.865 99.9785 273.428 99.7715 273.15 99.502C272.877 99.2285 272.74 98.8652 272.74 98.4121ZM279.531 95.0488H280.539V96.6836H281.945V97.5273H280.539V101.102C280.539 101.473 280.613 101.742 280.762 101.91C280.91 102.078 281.148 102.162 281.477 102.162C281.621 102.162 281.777 102.154 281.945 102.139V102.988C281.723 103.027 281.525 103.047 281.354 103.047C280.701 103.047 280.234 102.916 279.953 102.654C279.672 102.393 279.531 101.961 279.531 101.359V97.5273H278.512V96.6836H279.531V95.0488ZM288.578 96.6836V103H287.617V102.01H287.523C287.363 102.365 287.117 102.639 286.785 102.83C286.453 103.018 286.047 103.111 285.566 103.111C284.863 103.111 284.328 102.91 283.961 102.508C283.594 102.105 283.41 101.527 283.41 100.773V96.6836H284.418V100.527C284.418 101.102 284.531 101.523 284.758 101.793C284.984 102.059 285.348 102.191 285.848 102.191C286.398 102.191 286.822 102.037 287.119 101.729C287.42 101.416 287.57 100.98 287.57 100.422V96.6836H288.578ZM292.814 103.111C292.006 103.111 291.361 102.814 290.881 102.221C290.4 101.627 290.16 100.834 290.16 99.8418C290.16 98.8535 290.4 98.0625 290.881 97.4688C291.365 96.8711 292.01 96.5723 292.814 96.5723C293.256 96.5723 293.65 96.6719 293.998 96.8711C294.35 97.0664 294.615 97.3359 294.795 97.6797H294.883V94.1758H295.891V103H294.93V101.992H294.836C294.637 102.344 294.359 102.619 294.004 102.818C293.648 103.014 293.252 103.111 292.814 103.111ZM293.049 97.4805C292.475 97.4805 292.023 97.6914 291.695 98.1133C291.367 98.5312 291.203 99.1074 291.203 99.8418C291.203 100.58 291.365 101.158 291.689 101.576C292.018 101.994 292.471 102.203 293.049 102.203C293.623 102.203 294.076 101.992 294.408 101.57C294.74 101.148 294.906 100.572 294.906 99.8418C294.906 99.1191 294.738 98.5449 294.402 98.1191C294.07 97.6934 293.619 97.4805 293.049 97.4805ZM300.367 97.4629C299.863 97.4629 299.449 97.6328 299.125 97.9727C298.801 98.3125 298.619 98.7617 298.58 99.3203H302.061C302.049 98.7617 301.889 98.3125 301.58 97.9727C301.271 97.6328 300.867 97.4629 300.367 97.4629ZM302.031 101.365H303.039C302.887 101.912 302.576 102.34 302.107 102.648C301.643 102.957 301.066 103.111 300.379 103.111C299.504 103.111 298.811 102.818 298.299 102.232C297.787 101.643 297.531 100.848 297.531 99.8477C297.531 98.8516 297.789 98.0566 298.305 97.4629C298.82 96.8691 299.512 96.5723 300.379 96.5723C301.23 96.5723 301.9 96.8555 302.389 97.4219C302.877 97.9883 303.121 98.7637 303.121 99.748V100.135H298.58V100.182C298.607 100.807 298.783 101.303 299.107 101.67C299.436 102.037 299.867 102.221 300.402 102.221C301.219 102.221 301.762 101.936 302.031 101.365ZM304.703 103V96.6836H305.664V97.6797H305.758C306.094 96.9414 306.727 96.5723 307.656 96.5723C308.363 96.5723 308.908 96.7754 309.291 97.1816C309.674 97.584 309.865 98.1602 309.865 98.9102V103H308.857V99.1562C308.857 98.5898 308.734 98.1699 308.488 97.8965C308.246 97.6191 307.873 97.4805 307.369 97.4805C306.861 97.4805 306.457 97.6406 306.156 97.9609C305.859 98.2773 305.711 98.7109 305.711 99.2617V103H304.703ZM312.133 95.0488H313.141V96.6836H314.547V97.5273H313.141V101.102C313.141 101.473 313.215 101.742 313.363 101.91C313.512 102.078 313.75 102.162 314.078 102.162C314.223 102.162 314.379 102.154 314.547 102.139V102.988C314.324 103.027 314.127 103.047 313.955 103.047C313.303 103.047 312.836 102.916 312.555 102.654C312.273 102.393 312.133 101.961 312.133 101.359V97.5273H311.113V96.6836H312.133V95.0488ZM315.807 98.4121C315.807 97.8887 316.031 97.4512 316.48 97.0996C316.93 96.748 317.49 96.5723 318.162 96.5723C318.822 96.5723 319.367 96.7246 319.797 97.0293C320.227 97.334 320.475 97.7461 320.541 98.2656H319.545C319.475 98.0078 319.318 97.8047 319.076 97.6562C318.838 97.5039 318.531 97.4277 318.156 97.4277C317.777 97.4277 317.459 97.5156 317.201 97.6914C316.947 97.8672 316.82 98.0938 316.82 98.3711C316.82 98.5859 316.908 98.7656 317.084 98.9102C317.264 99.0508 317.541 99.166 317.916 99.2559L318.889 99.4902C319.49 99.6348 319.934 99.8438 320.219 100.117C320.508 100.391 320.652 100.752 320.652 101.201C320.652 101.76 320.412 102.219 319.932 102.578C319.451 102.934 318.848 103.111 318.121 103.111C317.418 103.111 316.842 102.955 316.393 102.643C315.943 102.33 315.691 101.912 315.637 101.389H316.674C316.76 101.662 316.93 101.877 317.184 102.033C317.438 102.186 317.762 102.262 318.156 102.262C318.582 102.262 318.932 102.17 319.205 101.986C319.479 101.803 319.615 101.566 319.615 101.277C319.615 100.848 319.281 100.551 318.613 100.387L317.529 100.123C316.932 99.9785 316.494 99.7715 316.217 99.502C315.943 99.2285 315.807 98.8652 315.807 98.4121ZM327.566 102.227C328.086 102.227 328.516 102.076 328.855 101.775C329.199 101.475 329.371 101.098 329.371 100.645V100.064L327.672 100.176C327.195 100.207 326.846 100.307 326.623 100.475C326.4 100.643 326.289 100.887 326.289 101.207C326.289 101.523 326.408 101.773 326.646 101.957C326.885 102.137 327.191 102.227 327.566 102.227ZM327.379 103.111C326.758 103.111 326.246 102.941 325.844 102.602C325.445 102.258 325.246 101.801 325.246 101.23C325.246 100.668 325.445 100.227 325.844 99.9062C326.242 99.5859 326.811 99.4043 327.549 99.3613L329.371 99.25V98.6758C329.371 98.2852 329.25 97.9863 329.008 97.7793C328.766 97.5723 328.41 97.4688 327.941 97.4688C327.562 97.4688 327.248 97.5371 326.998 97.6738C326.748 97.8105 326.588 98.0039 326.518 98.2539H325.498C325.564 97.75 325.824 97.3438 326.277 97.0352C326.734 96.7266 327.301 96.5723 327.977 96.5723C328.742 96.5723 329.334 96.7578 329.752 97.1289C330.17 97.5 330.379 98.0156 330.379 98.6758V103H329.418V102.068H329.324C329.121 102.404 328.852 102.662 328.516 102.842C328.18 103.021 327.801 103.111 327.379 103.111ZM337.469 98.6172H336.449C336.363 98.2852 336.178 98.0137 335.893 97.8027C335.611 97.5879 335.254 97.4805 334.82 97.4805C334.254 97.4805 333.803 97.6914 333.467 98.1133C333.135 98.5352 332.969 99.1035 332.969 99.8184C332.969 100.545 333.137 101.125 333.473 101.559C333.809 101.988 334.258 102.203 334.82 102.203C335.246 102.203 335.6 102.107 335.881 101.916C336.166 101.725 336.355 101.451 336.449 101.096H337.469C337.375 101.693 337.096 102.18 336.631 102.555C336.166 102.926 335.564 103.111 334.826 103.111C333.939 103.111 333.234 102.814 332.711 102.221C332.188 101.623 331.926 100.822 331.926 99.8184C331.926 98.834 332.188 98.0469 332.711 97.457C333.234 96.8672 333.938 96.5723 334.82 96.5723C335.559 96.5723 336.16 96.7656 336.625 97.1523C337.094 97.5391 337.375 98.0273 337.469 98.6172ZM338.957 103V96.6836H339.918V97.6211H340.012C340.105 97.3125 340.316 97.0605 340.645 96.8652C340.973 96.6699 341.346 96.5723 341.764 96.5723C341.955 96.5723 342.123 96.582 342.268 96.6016V97.6094C342.131 97.5703 341.916 97.5508 341.623 97.5508C341.143 97.5508 340.746 97.6953 340.434 97.9844C340.121 98.2734 339.965 98.6406 339.965 99.0859V103H338.957ZM348.074 102.238C347.555 102.82 346.846 103.111 345.947 103.111C345.049 103.111 344.338 102.82 343.814 102.238C343.295 101.652 343.035 100.854 343.035 99.8418C343.035 98.8262 343.295 98.0273 343.814 97.4453C344.334 96.8633 345.045 96.5723 345.947 96.5723C346.85 96.5723 347.561 96.8633 348.08 97.4453C348.6 98.0273 348.859 98.8262 348.859 99.8418C348.859 100.854 348.598 101.652 348.074 102.238ZM344.564 101.588C344.889 101.998 345.35 102.203 345.947 102.203C346.545 102.203 347.006 101.998 347.33 101.588C347.654 101.174 347.816 100.592 347.816 99.8418C347.816 99.0918 347.654 98.5117 347.33 98.1016C347.006 97.6875 346.545 97.4805 345.947 97.4805C345.35 97.4805 344.889 97.6875 344.564 98.1016C344.24 98.5117 344.078 99.0918 344.078 99.8418C344.078 100.592 344.24 101.174 344.564 101.588ZM350.295 98.4121C350.295 97.8887 350.52 97.4512 350.969 97.0996C351.418 96.748 351.979 96.5723 352.65 96.5723C353.311 96.5723 353.855 96.7246 354.285 97.0293C354.715 97.334 354.963 97.7461 355.029 98.2656H354.033C353.963 98.0078 353.807 97.8047 353.564 97.6562C353.326 97.5039 353.02 97.4277 352.645 97.4277C352.266 97.4277 351.947 97.5156 351.689 97.6914C351.436 97.8672 351.309 98.0938 351.309 98.3711C351.309 98.5859 351.396 98.7656 351.572 98.9102C351.752 99.0508 352.029 99.166 352.404 99.2559L353.377 99.4902C353.979 99.6348 354.422 99.8438 354.707 100.117C354.996 100.391 355.141 100.752 355.141 101.201C355.141 101.76 354.9 102.219 354.42 102.578C353.939 102.934 353.336 103.111 352.609 103.111C351.906 103.111 351.33 102.955 350.881 102.643C350.432 102.33 350.18 101.912 350.125 101.389H351.162C351.248 101.662 351.418 101.877 351.672 102.033C351.926 102.186 352.25 102.262 352.645 102.262C353.07 102.262 353.42 102.17 353.693 101.986C353.967 101.803 354.104 101.566 354.104 101.277C354.104 100.848 353.77 100.551 353.102 100.387L352.018 100.123C351.42 99.9785 350.982 99.7715 350.705 99.502C350.432 99.2285 350.295 98.8652 350.295 98.4121ZM356.459 98.4121C356.459 97.8887 356.684 97.4512 357.133 97.0996C357.582 96.748 358.143 96.5723 358.814 96.5723C359.475 96.5723 360.02 96.7246 360.449 97.0293C360.879 97.334 361.127 97.7461 361.193 98.2656H360.197C360.127 98.0078 359.971 97.8047 359.729 97.6562C359.49 97.5039 359.184 97.4277 358.809 97.4277C358.43 97.4277 358.111 97.5156 357.854 97.6914C357.6 97.8672 357.473 98.0938 357.473 98.3711C357.473 98.5859 357.561 98.7656 357.736 98.9102C357.916 99.0508 358.193 99.166 358.568 99.2559L359.541 99.4902C360.143 99.6348 360.586 99.8438 360.871 100.117C361.16 100.391 361.305 100.752 361.305 101.201C361.305 101.76 361.064 102.219 360.584 102.578C360.104 102.934 359.5 103.111 358.773 103.111C358.07 103.111 357.494 102.955 357.045 102.643C356.596 102.33 356.344 101.912 356.289 101.389H357.326C357.412 101.662 357.582 101.877 357.836 102.033C358.09 102.186 358.414 102.262 358.809 102.262C359.234 102.262 359.584 102.17 359.857 101.986C360.131 101.803 360.268 101.566 360.268 101.277C360.268 100.848 359.934 100.551 359.266 100.387L358.182 100.123C357.584 99.9785 357.146 99.7715 356.869 99.502C356.596 99.2285 356.459 98.8652 356.459 98.4121ZM138.133 117H137.078V108.545H138.133V117ZM140.16 117V110.684H141.121V111.68H141.215C141.551 110.941 142.184 110.572 143.113 110.572C143.82 110.572 144.365 110.775 144.748 111.182C145.131 111.584 145.322 112.16 145.322 112.91V117H144.314V113.156C144.314 112.59 144.191 112.17 143.945 111.896C143.703 111.619 143.33 111.48 142.826 111.48C142.318 111.48 141.914 111.641 141.613 111.961C141.316 112.277 141.168 112.711 141.168 113.262V117H140.16ZM149.506 117.111C148.697 117.111 148.053 116.814 147.572 116.221C147.092 115.627 146.852 114.834 146.852 113.842C146.852 112.854 147.092 112.062 147.572 111.469C148.057 110.871 148.701 110.572 149.506 110.572C149.947 110.572 150.342 110.672 150.689 110.871C151.041 111.066 151.307 111.336 151.486 111.68H151.574V108.176H152.582V117H151.621V115.992H151.527C151.328 116.344 151.051 116.619 150.695 116.818C150.34 117.014 149.943 117.111 149.506 117.111ZM149.74 111.48C149.166 111.48 148.715 111.691 148.387 112.113C148.059 112.531 147.895 113.107 147.895 113.842C147.895 114.58 148.057 115.158 148.381 115.576C148.709 115.994 149.162 116.203 149.74 116.203C150.314 116.203 150.768 115.992 151.1 115.57C151.432 115.148 151.598 114.572 151.598 113.842C151.598 113.119 151.43 112.545 151.094 112.119C150.762 111.693 150.311 111.48 149.74 111.48ZM154.562 117V110.684H155.57V117H154.562ZM155.564 109.195C155.428 109.332 155.262 109.4 155.066 109.4C154.871 109.4 154.705 109.332 154.568 109.195C154.432 109.055 154.363 108.889 154.363 108.697C154.363 108.506 154.432 108.342 154.568 108.205C154.705 108.064 154.871 107.994 155.066 107.994C155.262 107.994 155.428 108.064 155.564 108.205C155.701 108.342 155.77 108.506 155.77 108.697C155.77 108.889 155.701 109.055 155.564 109.195ZM159.438 116.227C159.957 116.227 160.387 116.076 160.727 115.775C161.07 115.475 161.242 115.098 161.242 114.645V114.064L159.543 114.176C159.066 114.207 158.717 114.307 158.494 114.475C158.271 114.643 158.16 114.887 158.16 115.207C158.16 115.523 158.279 115.773 158.518 115.957C158.756 116.137 159.062 116.227 159.438 116.227ZM159.25 117.111C158.629 117.111 158.117 116.941 157.715 116.602C157.316 116.258 157.117 115.801 157.117 115.23C157.117 114.668 157.316 114.227 157.715 113.906C158.113 113.586 158.682 113.404 159.42 113.361L161.242 113.25V112.676C161.242 112.285 161.121 111.986 160.879 111.779C160.637 111.572 160.281 111.469 159.812 111.469C159.434 111.469 159.119 111.537 158.869 111.674C158.619 111.811 158.459 112.004 158.389 112.254H157.369C157.436 111.75 157.695 111.344 158.148 111.035C158.605 110.727 159.172 110.572 159.848 110.572C160.613 110.572 161.205 110.758 161.623 111.129C162.041 111.5 162.25 112.016 162.25 112.676V117H161.289V116.068H161.195C160.992 116.404 160.723 116.662 160.387 116.842C160.051 117.021 159.672 117.111 159.25 117.111ZM170.641 117.111C170.203 117.111 169.805 117.014 169.445 116.818C169.09 116.619 168.812 116.344 168.613 115.992H168.52V117H167.559V108.176H168.566V111.68H168.66C168.832 111.34 169.096 111.07 169.451 110.871C169.811 110.672 170.207 110.572 170.641 110.572C171.445 110.572 172.088 110.869 172.568 111.463C173.049 112.057 173.289 112.85 173.289 113.842C173.289 114.83 173.047 115.623 172.562 116.221C172.082 116.814 171.441 117.111 170.641 117.111ZM170.406 111.48C169.832 111.48 169.377 111.691 169.041 112.113C168.709 112.535 168.543 113.111 168.543 113.842C168.543 114.572 168.709 115.148 169.041 115.57C169.377 115.992 169.832 116.203 170.406 116.203C170.984 116.203 171.436 115.994 171.76 115.576C172.084 115.158 172.246 114.58 172.246 113.842C172.246 113.104 172.084 112.525 171.76 112.107C171.436 111.689 170.984 111.48 170.406 111.48ZM175.176 119.285C175.016 119.285 174.865 119.273 174.725 119.25V118.389C174.826 118.408 174.967 118.418 175.146 118.418C175.439 118.418 175.672 118.34 175.844 118.184C176.02 118.027 176.174 117.76 176.307 117.381L176.424 117.006L174.086 110.684H175.176L176.91 115.881H177.004L178.732 110.684H179.805L177.338 117.387C177.068 118.117 176.781 118.615 176.477 118.881C176.172 119.15 175.738 119.285 175.176 119.285ZM184.393 112.412C184.393 111.889 184.617 111.451 185.066 111.1C185.516 110.748 186.076 110.572 186.748 110.572C187.408 110.572 187.953 110.725 188.383 111.029C188.812 111.334 189.061 111.746 189.127 112.266H188.131C188.061 112.008 187.904 111.805 187.662 111.656C187.424 111.504 187.117 111.428 186.742 111.428C186.363 111.428 186.045 111.516 185.787 111.691C185.533 111.867 185.406 112.094 185.406 112.371C185.406 112.586 185.494 112.766 185.67 112.91C185.85 113.051 186.127 113.166 186.502 113.256L187.475 113.49C188.076 113.635 188.52 113.844 188.805 114.117C189.094 114.391 189.238 114.752 189.238 115.201C189.238 115.76 188.998 116.219 188.518 116.578C188.037 116.934 187.434 117.111 186.707 117.111C186.004 117.111 185.428 116.955 184.979 116.643C184.529 116.33 184.277 115.912 184.223 115.389H185.26C185.346 115.662 185.516 115.877 185.77 116.033C186.023 116.186 186.348 116.262 186.742 116.262C187.168 116.262 187.518 116.17 187.791 115.986C188.064 115.803 188.201 115.566 188.201 115.277C188.201 114.848 187.867 114.551 187.199 114.387L186.115 114.123C185.518 113.979 185.08 113.771 184.803 113.502C184.529 113.229 184.393 112.865 184.393 112.412ZM193.34 111.463C192.836 111.463 192.422 111.633 192.098 111.973C191.773 112.312 191.592 112.762 191.553 113.32H195.033C195.021 112.762 194.861 112.312 194.553 111.973C194.244 111.633 193.84 111.463 193.34 111.463ZM195.004 115.365H196.012C195.859 115.912 195.549 116.34 195.08 116.648C194.615 116.957 194.039 117.111 193.352 117.111C192.477 117.111 191.783 116.818 191.271 116.232C190.76 115.643 190.504 114.848 190.504 113.848C190.504 112.852 190.762 112.057 191.277 111.463C191.793 110.869 192.484 110.572 193.352 110.572C194.203 110.572 194.873 110.855 195.361 111.422C195.85 111.988 196.094 112.764 196.094 113.748V114.135H191.553V114.182C191.58 114.807 191.756 115.303 192.08 115.67C192.408 116.037 192.84 116.221 193.375 116.221C194.191 116.221 194.734 115.936 195.004 115.365ZM197.734 117V108.176H198.742V117H197.734ZM200.758 117V108.176H201.766V117H200.758ZM203.746 117V110.684H204.754V117H203.746ZM204.748 109.195C204.611 109.332 204.445 109.4 204.25 109.4C204.055 109.4 203.889 109.332 203.752 109.195C203.615 109.055 203.547 108.889 203.547 108.697C203.547 108.506 203.615 108.342 203.752 108.205C203.889 108.064 204.055 107.994 204.25 107.994C204.445 107.994 204.611 108.064 204.748 108.205C204.885 108.342 204.953 108.506 204.953 108.697C204.953 108.889 204.885 109.055 204.748 109.195ZM206.676 117V110.684H207.637V111.68H207.73C208.066 110.941 208.699 110.572 209.629 110.572C210.336 110.572 210.881 110.775 211.264 111.182C211.646 111.584 211.838 112.16 211.838 112.91V117H210.83V113.156C210.83 112.59 210.707 112.17 210.461 111.896C210.219 111.619 209.846 111.48 209.342 111.48C208.834 111.48 208.43 111.641 208.129 111.961C207.832 112.277 207.684 112.711 207.684 113.262V117H206.676ZM216.238 116.016C216.82 116.016 217.277 115.811 217.609 115.4C217.945 114.99 218.113 114.439 218.113 113.748C218.113 113.057 217.945 112.506 217.609 112.096C217.273 111.686 216.816 111.48 216.238 111.48C215.66 111.48 215.211 111.684 214.891 112.09C214.57 112.496 214.41 113.049 214.41 113.748C214.41 114.447 214.57 115 214.891 115.406C215.211 115.812 215.66 116.016 216.238 116.016ZM216.285 119.426C215.531 119.426 214.92 119.27 214.451 118.957C213.986 118.645 213.715 118.225 213.637 117.697H214.703C214.758 117.959 214.924 118.166 215.201 118.318C215.479 118.471 215.84 118.547 216.285 118.547C216.852 118.547 217.293 118.414 217.609 118.148C217.93 117.887 218.09 117.523 218.09 117.059V115.816H217.996C217.797 116.164 217.525 116.434 217.182 116.625C216.838 116.812 216.449 116.906 216.016 116.906C215.203 116.906 214.559 116.619 214.082 116.045C213.605 115.467 213.367 114.701 213.367 113.748C213.367 112.795 213.607 112.027 214.088 111.445C214.568 110.863 215.211 110.572 216.016 110.572C216.457 110.572 216.859 110.674 217.223 110.877C217.586 111.076 217.859 111.346 218.043 111.686H218.137V110.684H219.098V117.111C219.098 117.818 218.844 118.381 218.336 118.799C217.828 119.217 217.145 119.426 216.285 119.426ZM224.922 119.285C224.762 119.285 224.611 119.273 224.471 119.25V118.389C224.572 118.408 224.713 118.418 224.893 118.418C225.186 118.418 225.418 118.34 225.59 118.184C225.766 118.027 225.92 117.76 226.053 117.381L226.17 117.006L223.832 110.684H224.922L226.656 115.881H226.75L228.479 110.684H229.551L227.084 117.387C226.814 118.117 226.527 118.615 226.223 118.881C225.918 119.15 225.484 119.285 224.922 119.285ZM235.387 116.238C234.867 116.82 234.158 117.111 233.26 117.111C232.361 117.111 231.65 116.82 231.127 116.238C230.607 115.652 230.348 114.854 230.348 113.842C230.348 112.826 230.607 112.027 231.127 111.445C231.646 110.863 232.357 110.572 233.26 110.572C234.162 110.572 234.873 110.863 235.393 111.445C235.912 112.027 236.172 112.826 236.172 113.842C236.172 114.854 235.91 115.652 235.387 116.238ZM231.877 115.588C232.201 115.998 232.662 116.203 233.26 116.203C233.857 116.203 234.318 115.998 234.643 115.588C234.967 115.174 235.129 114.592 235.129 113.842C235.129 113.092 234.967 112.512 234.643 112.102C234.318 111.688 233.857 111.48 233.26 111.48C232.662 111.48 232.201 111.688 231.877 112.102C231.553 112.512 231.391 113.092 231.391 113.842C231.391 114.592 231.553 115.174 231.877 115.588ZM242.863 110.684V117H241.902V116.01H241.809C241.648 116.365 241.402 116.639 241.07 116.83C240.738 117.018 240.332 117.111 239.852 117.111C239.148 117.111 238.613 116.91 238.246 116.508C237.879 116.105 237.695 115.527 237.695 114.773V110.684H238.703V114.527C238.703 115.102 238.816 115.523 239.043 115.793C239.27 116.059 239.633 116.191 240.133 116.191C240.684 116.191 241.107 116.037 241.404 115.729C241.705 115.416 241.855 114.98 241.855 114.422V110.684H242.863ZM244.762 117V110.684H245.723V111.621H245.816C245.91 111.312 246.121 111.061 246.449 110.865C246.777 110.67 247.15 110.572 247.568 110.572C247.76 110.572 247.928 110.582 248.072 110.602V111.609C247.936 111.57 247.721 111.551 247.428 111.551C246.947 111.551 246.551 111.695 246.238 111.984C245.926 112.273 245.77 112.641 245.77 113.086V117H244.762ZM257.945 112.617H256.926C256.84 112.285 256.654 112.014 256.369 111.803C256.088 111.588 255.73 111.48 255.297 111.48C254.73 111.48 254.279 111.691 253.943 112.113C253.611 112.535 253.445 113.104 253.445 113.818C253.445 114.545 253.613 115.125 253.949 115.559C254.285 115.988 254.734 116.203 255.297 116.203C255.723 116.203 256.076 116.107 256.357 115.916C256.643 115.725 256.832 115.451 256.926 115.096H257.945C257.852 115.693 257.572 116.18 257.107 116.555C256.643 116.926 256.041 117.111 255.303 117.111C254.416 117.111 253.711 116.814 253.188 116.221C252.664 115.623 252.402 114.822 252.402 113.818C252.402 112.834 252.664 112.047 253.188 111.457C253.711 110.867 254.414 110.572 255.297 110.572C256.035 110.572 256.637 110.766 257.102 111.152C257.57 111.539 257.852 112.027 257.945 112.617ZM264.156 116.238C263.637 116.82 262.928 117.111 262.029 117.111C261.131 117.111 260.42 116.82 259.896 116.238C259.377 115.652 259.117 114.854 259.117 113.842C259.117 112.826 259.377 112.027 259.896 111.445C260.416 110.863 261.127 110.572 262.029 110.572C262.932 110.572 263.643 110.863 264.162 111.445C264.682 112.027 264.941 112.826 264.941 113.842C264.941 114.854 264.68 115.652 264.156 116.238ZM260.646 115.588C260.971 115.998 261.432 116.203 262.029 116.203C262.627 116.203 263.088 115.998 263.412 115.588C263.736 115.174 263.898 114.592 263.898 113.842C263.898 113.092 263.736 112.512 263.412 112.102C263.088 111.688 262.627 111.48 262.029 111.48C261.432 111.48 260.971 111.688 260.646 112.102C260.322 112.512 260.16 113.092 260.16 113.842C260.16 114.592 260.322 115.174 260.646 115.588ZM271.633 110.684V117H270.672V116.01H270.578C270.418 116.365 270.172 116.639 269.84 116.83C269.508 117.018 269.102 117.111 268.621 117.111C267.918 117.111 267.383 116.91 267.016 116.508C266.648 116.105 266.465 115.527 266.465 114.773V110.684H267.473V114.527C267.473 115.102 267.586 115.523 267.812 115.793C268.039 116.059 268.402 116.191 268.902 116.191C269.453 116.191 269.877 116.037 270.174 115.729C270.475 115.416 270.625 114.98 270.625 114.422V110.684H271.633ZM273.531 117V110.684H274.492V111.621H274.586C274.68 111.312 274.891 111.061 275.219 110.865C275.547 110.67 275.92 110.572 276.338 110.572C276.529 110.572 276.697 110.582 276.842 110.602V111.609C276.705 111.57 276.49 111.551 276.197 111.551C275.717 111.551 275.32 111.695 275.008 111.984C274.695 112.273 274.539 112.641 274.539 113.086V117H273.531ZM277.838 112.412C277.838 111.889 278.062 111.451 278.512 111.1C278.961 110.748 279.521 110.572 280.193 110.572C280.854 110.572 281.398 110.725 281.828 111.029C282.258 111.334 282.506 111.746 282.572 112.266H281.576C281.506 112.008 281.35 111.805 281.107 111.656C280.869 111.504 280.562 111.428 280.188 111.428C279.809 111.428 279.49 111.516 279.232 111.691C278.979 111.867 278.852 112.094 278.852 112.371C278.852 112.586 278.939 112.766 279.115 112.91C279.295 113.051 279.572 113.166 279.947 113.256L280.92 113.49C281.521 113.635 281.965 113.844 282.25 114.117C282.539 114.391 282.684 114.752 282.684 115.201C282.684 115.76 282.443 116.219 281.963 116.578C281.482 116.934 280.879 117.111 280.152 117.111C279.449 117.111 278.873 116.955 278.424 116.643C277.975 116.33 277.723 115.912 277.668 115.389H278.705C278.791 115.662 278.961 115.877 279.215 116.033C279.469 116.186 279.793 116.262 280.188 116.262C280.613 116.262 280.963 116.17 281.236 115.986C281.51 115.803 281.646 115.566 281.646 115.277C281.646 114.848 281.312 114.551 280.645 114.387L279.561 114.123C278.963 113.979 278.525 113.771 278.248 113.502C277.975 113.229 277.838 112.865 277.838 112.412ZM286.785 111.463C286.281 111.463 285.867 111.633 285.543 111.973C285.219 112.312 285.037 112.762 284.998 113.32H288.479C288.467 112.762 288.307 112.312 287.998 111.973C287.689 111.633 287.285 111.463 286.785 111.463ZM288.449 115.365H289.457C289.305 115.912 288.994 116.34 288.525 116.648C288.061 116.957 287.484 117.111 286.797 117.111C285.922 117.111 285.229 116.818 284.717 116.232C284.205 115.643 283.949 114.848 283.949 113.848C283.949 112.852 284.207 112.057 284.723 111.463C285.238 110.869 285.93 110.572 286.797 110.572C287.648 110.572 288.318 110.855 288.807 111.422C289.295 111.988 289.539 112.764 289.539 113.748V114.135H284.998V114.182C285.025 114.807 285.201 115.303 285.525 115.67C285.854 116.037 286.285 116.221 286.82 116.221C287.637 116.221 288.18 115.936 288.449 115.365ZM290.975 112.412C290.975 111.889 291.199 111.451 291.648 111.1C292.098 110.748 292.658 110.572 293.33 110.572C293.99 110.572 294.535 110.725 294.965 111.029C295.395 111.334 295.643 111.746 295.709 112.266H294.713C294.643 112.008 294.486 111.805 294.244 111.656C294.006 111.504 293.699 111.428 293.324 111.428C292.945 111.428 292.627 111.516 292.369 111.691C292.115 111.867 291.988 112.094 291.988 112.371C291.988 112.586 292.076 112.766 292.252 112.91C292.432 113.051 292.709 113.166 293.084 113.256L294.057 113.49C294.658 113.635 295.102 113.844 295.387 114.117C295.676 114.391 295.82 114.752 295.82 115.201C295.82 115.76 295.58 116.219 295.1 116.578C294.619 116.934 294.016 117.111 293.289 117.111C292.586 117.111 292.01 116.955 291.561 116.643C291.111 116.33 290.859 115.912 290.805 115.389H291.842C291.928 115.662 292.098 115.877 292.352 116.033C292.605 116.186 292.93 116.262 293.324 116.262C293.75 116.262 294.1 116.17 294.373 115.986C294.646 115.803 294.783 115.566 294.783 115.277C294.783 114.848 294.449 114.551 293.781 114.387L292.697 114.123C292.1 113.979 291.662 113.771 291.385 113.502C291.111 113.229 290.975 112.865 290.975 112.412ZM300.812 117V110.684H301.82V117H300.812ZM301.814 109.195C301.678 109.332 301.512 109.4 301.316 109.4C301.121 109.4 300.955 109.332 300.818 109.195C300.682 109.055 300.613 108.889 300.613 108.697C300.613 108.506 300.682 108.342 300.818 108.205C300.955 108.064 301.121 107.994 301.316 107.994C301.512 107.994 301.678 108.064 301.814 108.205C301.951 108.342 302.02 108.506 302.02 108.697C302.02 108.889 301.951 109.055 301.814 109.195ZM303.742 117V110.684H304.703V111.68H304.797C305.133 110.941 305.766 110.572 306.695 110.572C307.402 110.572 307.947 110.775 308.33 111.182C308.713 111.584 308.904 112.16 308.904 112.91V117H307.896V113.156C307.896 112.59 307.773 112.17 307.527 111.896C307.285 111.619 306.912 111.48 306.408 111.48C305.9 111.48 305.496 111.641 305.195 111.961C304.898 112.277 304.75 112.711 304.75 113.262V117H303.742ZM314.676 119.285C314.516 119.285 314.365 119.273 314.225 119.25V118.389C314.326 118.408 314.467 118.418 314.646 118.418C314.939 118.418 315.172 118.34 315.344 118.184C315.52 118.027 315.674 117.76 315.807 117.381L315.924 117.006L313.586 110.684H314.676L316.41 115.881H316.504L318.232 110.684H319.305L316.838 117.387C316.568 118.117 316.281 118.615 315.977 118.881C315.672 119.15 315.238 119.285 314.676 119.285ZM325.141 116.238C324.621 116.82 323.912 117.111 323.014 117.111C322.115 117.111 321.404 116.82 320.881 116.238C320.361 115.652 320.102 114.854 320.102 113.842C320.102 112.826 320.361 112.027 320.881 111.445C321.4 110.863 322.111 110.572 323.014 110.572C323.916 110.572 324.627 110.863 325.146 111.445C325.666 112.027 325.926 112.826 325.926 113.842C325.926 114.854 325.664 115.652 325.141 116.238ZM321.631 115.588C321.955 115.998 322.416 116.203 323.014 116.203C323.611 116.203 324.072 115.998 324.396 115.588C324.721 115.174 324.883 114.592 324.883 113.842C324.883 113.092 324.721 112.512 324.396 112.102C324.072 111.688 323.611 111.48 323.014 111.48C322.416 111.48 321.955 111.688 321.631 112.102C321.307 112.512 321.145 113.092 321.145 113.842C321.145 114.592 321.307 115.174 321.631 115.588ZM332.617 110.684V117H331.656V116.01H331.562C331.402 116.365 331.156 116.639 330.824 116.83C330.492 117.018 330.086 117.111 329.605 117.111C328.902 117.111 328.367 116.91 328 116.508C327.633 116.105 327.449 115.527 327.449 114.773V110.684H328.457V114.527C328.457 115.102 328.57 115.523 328.797 115.793C329.023 116.059 329.387 116.191 329.887 116.191C330.438 116.191 330.861 116.037 331.158 115.729C331.459 115.416 331.609 114.98 331.609 114.422V110.684H332.617ZM334.516 117V110.684H335.477V111.621H335.57C335.664 111.312 335.875 111.061 336.203 110.865C336.531 110.67 336.904 110.572 337.322 110.572C337.514 110.572 337.682 110.582 337.826 110.602V111.609C337.689 111.57 337.475 111.551 337.182 111.551C336.701 111.551 336.305 111.695 335.992 111.984C335.68 112.273 335.523 112.641 335.523 113.086V117H334.516ZM347.195 116.238C346.676 116.82 345.967 117.111 345.068 117.111C344.17 117.111 343.459 116.82 342.936 116.238C342.416 115.652 342.156 114.854 342.156 113.842C342.156 112.826 342.416 112.027 342.936 111.445C343.455 110.863 344.166 110.572 345.068 110.572C345.971 110.572 346.682 110.863 347.201 111.445C347.721 112.027 347.98 112.826 347.98 113.842C347.98 114.854 347.719 115.652 347.195 116.238ZM343.686 115.588C344.01 115.998 344.471 116.203 345.068 116.203C345.666 116.203 346.127 115.998 346.451 115.588C346.775 115.174 346.938 114.592 346.938 113.842C346.938 113.092 346.775 112.512 346.451 112.102C346.127 111.688 345.666 111.48 345.068 111.48C344.471 111.48 344.01 111.688 343.686 112.102C343.361 112.512 343.199 113.092 343.199 113.842C343.199 114.592 343.361 115.174 343.686 115.588ZM357.273 110.684L355.504 117H354.479L353.066 112.113H352.973L351.566 117H350.547L348.777 110.684H349.797L351.039 115.734H351.133L352.545 110.684H353.512L354.924 115.734H355.018L356.26 110.684H357.273ZM358.621 117V110.684H359.582V111.68H359.676C360.012 110.941 360.645 110.572 361.574 110.572C362.281 110.572 362.826 110.775 363.209 111.182C363.592 111.584 363.783 112.16 363.783 112.91V117H362.775V113.156C362.775 112.59 362.652 112.17 362.406 111.896C362.164 111.619 361.791 111.48 361.287 111.48C360.779 111.48 360.375 111.641 360.074 111.961C359.777 112.277 359.629 112.711 359.629 113.262V117H358.621ZM370.961 116.227C371.48 116.227 371.91 116.076 372.25 115.775C372.594 115.475 372.766 115.098 372.766 114.645V114.064L371.066 114.176C370.59 114.207 370.24 114.307 370.018 114.475C369.795 114.643 369.684 114.887 369.684 115.207C369.684 115.523 369.803 115.773 370.041 115.957C370.279 116.137 370.586 116.227 370.961 116.227ZM370.773 117.111C370.152 117.111 369.641 116.941 369.238 116.602C368.84 116.258 368.641 115.801 368.641 115.23C368.641 114.668 368.84 114.227 369.238 113.906C369.637 113.586 370.205 113.404 370.943 113.361L372.766 113.25V112.676C372.766 112.285 372.645 111.986 372.402 111.779C372.16 111.572 371.805 111.469 371.336 111.469C370.957 111.469 370.643 111.537 370.393 111.674C370.143 111.811 369.982 112.004 369.912 112.254H368.893C368.959 111.75 369.219 111.344 369.672 111.035C370.129 110.727 370.695 110.572 371.371 110.572C372.137 110.572 372.729 110.758 373.146 111.129C373.564 111.5 373.773 112.016 373.773 112.676V117H372.812V116.068H372.719C372.516 116.404 372.246 116.662 371.91 116.842C371.574 117.021 371.195 117.111 370.773 117.111ZM378.713 110.572C379.518 110.572 380.16 110.869 380.641 111.463C381.125 112.057 381.367 112.85 381.367 113.842C381.367 114.83 381.125 115.623 380.641 116.221C380.156 116.814 379.514 117.111 378.713 117.111C378.264 117.111 377.865 117.02 377.518 116.836C377.17 116.648 376.91 116.387 376.738 116.051H376.645V119.109H375.637V110.684H376.598V111.738H376.691C376.895 111.375 377.174 111.09 377.529 110.883C377.889 110.676 378.283 110.572 378.713 110.572ZM378.473 116.203C379.051 116.203 379.504 115.994 379.832 115.576C380.16 115.158 380.324 114.58 380.324 113.842C380.324 113.104 380.16 112.525 379.832 112.107C379.508 111.689 379.057 111.48 378.479 111.48C377.908 111.48 377.455 111.693 377.119 112.119C376.783 112.541 376.615 113.115 376.615 113.842C376.615 114.564 376.781 115.139 377.113 115.564C377.449 115.99 377.902 116.203 378.473 116.203ZM386.025 110.572C386.83 110.572 387.473 110.869 387.953 111.463C388.438 112.057 388.68 112.85 388.68 113.842C388.68 114.83 388.438 115.623 387.953 116.221C387.469 116.814 386.826 117.111 386.025 117.111C385.576 117.111 385.178 117.02 384.83 116.836C384.482 116.648 384.223 116.387 384.051 116.051H383.957V119.109H382.949V110.684H383.91V111.738H384.004C384.207 111.375 384.486 111.09 384.842 110.883C385.201 110.676 385.596 110.572 386.025 110.572ZM385.785 116.203C386.363 116.203 386.816 115.994 387.145 115.576C387.473 115.158 387.637 114.58 387.637 113.842C387.637 113.104 387.473 112.525 387.145 112.107C386.82 111.689 386.369 111.48 385.791 111.48C385.221 111.48 384.768 111.693 384.432 112.119C384.096 112.541 383.928 113.115 383.928 113.842C383.928 114.564 384.094 115.139 384.426 115.564C384.762 115.99 385.215 116.203 385.785 116.203Z" fill="white"/>
<path d="M42.9326 73.6553V86.804V96.7685V132H49.1395H109.967V86.804V73.6553H42.9326Z" fill="#FFCBDE"/>
<path d="M59.1751 73.6552H42.2651C42.0304 73.6552 41.8604 73.4305 41.9249 73.2046L46.9674 62.2506C47.598 60.8789 48.9698 60 50.4805 60H61.6579L59.1751 73.6552Z" fill="#D81B60"/>
<path d="M93.933 73.6552H76.5537V60H91.4503L93.933 73.6552Z" fill="#D81B60"/>
<path d="M76.5541 73.6552H59.1748L61.6576 60H76.5541V73.6552Z" fill="#F3D55B"/>
<path d="M110.872 73.6552H93.933L91.4502 60H102.628C104.138 60 105.51 60.8789 106.142 62.2519L111.192 73.2319C111.251 73.4441 111.093 73.6552 110.872 73.6552Z" fill="#F3D55B"/>
<path d="M67.9309 91.0346C63.1317 91.0346 59.2412 87.1441 59.2412 82.3449V73.6553H76.6205V82.3449C76.6205 87.1441 72.73 91.0346 67.9309 91.0346Z" fill="#F0C419"/>
<path d="M102.692 91.0346C97.8924 91.0346 94.002 87.1441 94.002 82.3449V73.6553H111.248C111.322 73.6553 111.381 73.7149 111.381 73.7881V82.3449C111.381 87.1441 107.491 91.0346 102.692 91.0346Z" fill="#F0C419"/>
<path d="M50.4914 91.0346C45.6922 91.0346 41.8018 87.1441 41.8018 82.3449V74.0053C41.8018 73.8117 41.9582 73.6553 42.1518 73.6553H59.1811V82.3449C59.1811 87.1441 55.2906 91.0346 50.4914 91.0346Z" fill="#C2185B"/>
<path d="M85.3098 91.0346C80.5106 91.0346 76.6201 87.1441 76.6201 82.3449V73.6553H93.9994V82.3449C93.9994 87.1441 90.109 91.0346 85.3098 91.0346Z" fill="#C2185B"/>
<path d="M76.9687 126.504C85.5313 126.504 92.4726 119.563 92.4726 111C92.4726 102.437 85.5313 95.4961 76.9687 95.4961C68.4062 95.4961 61.4648 102.437 61.4648 111C61.4648 119.563 68.4062 126.504 76.9687 126.504Z" fill="#EDBBCD"/>
<path d="M92.3721 103.182H77.2337V109.039C77.2337 109.213 77.0914 109.356 76.9173 109.356H74.8594V115.056C74.8594 115.291 75.0517 115.484 75.2865 115.484H92.3721C92.6071 115.484 92.7993 115.291 92.7993 115.056V103.609C92.7993 103.374 92.6071 103.182 92.3721 103.182Z" fill="#91E0E8"/>
<path d="M76.116 115.056V109.356H74.8604V115.056C74.8604 115.291 75.0527 115.484 75.2875 115.484H76.5431C76.3083 115.484 76.116 115.291 76.116 115.056Z" fill="#5DC1D8"/>
<path d="M88.7029 109.87C88.5514 109.691 88.3037 109.691 88.1522 109.87L85.9317 112.505C85.7802 112.685 85.5325 112.685 85.3811 112.505L81.1895 107.533C81.0381 107.353 80.7904 107.353 80.6389 107.533L74.8604 114.388V115.056C74.8604 115.291 75.0527 115.484 75.2875 115.484H92.3731C92.6081 115.484 92.8003 115.291 92.8003 115.056V114.731L88.7029 109.87Z" fill="#0F9390"/>
<path d="M89.8088 107.963C90.6934 107.963 91.4106 107.245 91.4106 106.361C91.4106 105.476 90.6934 104.759 89.8088 104.759C88.9242 104.759 88.207 105.476 88.207 106.361C88.207 107.245 88.9242 107.963 89.8088 107.963Z" fill="white"/>
<path d="M89.0909 106.361C89.0909 105.63 89.5808 105.013 90.2502 104.821C90.1096 104.781 89.9613 104.759 89.8077 104.759C88.9232 104.759 88.2061 105.476 88.2061 106.361C88.2061 107.246 88.9232 107.963 89.8077 107.963C89.9613 107.963 90.1096 107.941 90.2502 107.9C89.5808 107.708 89.0909 107.092 89.0909 106.361Z" fill="#D9EAFC"/>
<path d="M77.298 109.103C77.298 109.277 77.1557 109.419 76.9816 109.419H60.7168C60.5428 109.419 60.4004 109.277 60.4004 109.103V96.6985C60.4004 96.5245 60.5428 96.3821 60.7168 96.3821H76.9816C77.1557 96.3821 77.298 96.5245 77.298 96.6985V109.103Z" fill="#FE3745"/>
<path d="M65.6211 99.8055C65.6211 99.4574 65.8677 99.315 66.1691 99.4891L71.5298 102.584C71.8312 102.758 71.8312 103.043 71.5298 103.217L66.1691 106.312C65.8677 106.486 65.6211 106.343 65.6211 105.995V99.8055Z" fill="white"/>
<path d="M66.8767 99.8976L66.1691 99.4891C65.8677 99.315 65.6211 99.4574 65.6211 99.8055V105.995C65.6211 106.343 65.8677 106.486 66.1691 106.312L66.8767 105.903V99.8976Z" fill="#D9EAFC"/>
<path d="M76.315 98.8189C76.315 98.9233 76.2295 99.0088 76.1251 99.0088H74.7963C74.6919 99.0088 74.6064 98.9233 74.6064 98.8189V97.4901C74.6064 97.3857 74.6919 97.3003 74.7963 97.3003H76.1251C76.2295 97.3003 76.315 97.3857 76.315 97.4901V98.8189Z" fill="#B7092B"/>
<path d="M76.315 101.192C76.315 101.296 76.2295 101.382 76.1251 101.382H74.7963C74.6919 101.382 74.6064 101.296 74.6064 101.192V99.8632C74.6064 99.7588 74.6919 99.6733 74.7963 99.6733H76.1251C76.2295 99.6733 76.315 99.7588 76.315 99.8632V101.192Z" fill="#B7092B"/>
<path d="M76.315 103.565C76.315 103.669 76.2295 103.755 76.1251 103.755H74.7963C74.6919 103.755 74.6064 103.669 74.6064 103.565V102.236C74.6064 102.132 74.6919 102.046 74.7963 102.046H76.1251C76.2295 102.046 76.315 102.132 76.315 102.236V103.565Z" fill="#B7092B"/>
<path d="M76.315 105.938C76.315 106.042 76.2295 106.127 76.1251 106.127H74.7963C74.6919 106.127 74.6064 106.042 74.6064 105.938V104.609C74.6064 104.504 74.6919 104.419 74.7963 104.419H76.1251C76.2295 104.419 76.315 104.504 76.315 104.609V105.938Z" fill="#B7092B"/>
<path d="M76.315 108.311C76.315 108.415 76.2295 108.5 76.1251 108.5H74.7963C74.6919 108.5 74.6064 108.415 74.6064 108.311V106.982C74.6064 106.877 74.6919 106.792 74.7963 106.792H76.1251C76.2295 106.792 76.315 106.877 76.315 106.982V108.311Z" fill="#B7092B"/>
<path d="M63.0893 98.8189C63.0893 98.9233 63.0039 99.0088 62.8995 99.0088H61.5707C61.4663 99.0088 61.3809 98.9233 61.3809 98.8189V97.4901C61.3809 97.3857 61.4663 97.3003 61.5707 97.3003H62.8995C63.0039 97.3003 63.0893 97.3857 63.0893 97.4901V98.8189Z" fill="#B7092B"/>
<path d="M63.0893 101.192C63.0893 101.296 63.0039 101.382 62.8995 101.382H61.5707C61.4663 101.382 61.3809 101.296 61.3809 101.192V99.8632C61.3809 99.7588 61.4663 99.6733 61.5707 99.6733H62.8995C63.0039 99.6733 63.0893 99.7588 63.0893 99.8632V101.192Z" fill="#B7092B"/>
<path d="M63.0893 103.565C63.0893 103.669 63.0039 103.755 62.8995 103.755H61.5707C61.4663 103.755 61.3809 103.669 61.3809 103.565V102.236C61.3809 102.132 61.4663 102.046 61.5707 102.046H62.8995C63.0039 102.046 63.0893 102.132 63.0893 102.236V103.565Z" fill="#B7092B"/>
<path d="M63.0893 105.938C63.0893 106.042 63.0039 106.127 62.8995 106.127H61.5707C61.4663 106.127 61.3809 106.042 61.3809 105.938V104.609C61.3809 104.504 61.4663 104.419 61.5707 104.419H62.8995C63.0039 104.419 63.0893 104.504 63.0893 104.609V105.938Z" fill="#B7092B"/>
<path d="M63.0893 108.311C63.0893 108.415 63.0039 108.5 62.8995 108.5H61.5707C61.4663 108.5 61.3809 108.415 61.3809 108.311V106.982C61.3809 106.877 61.4663 106.792 61.5707 106.792H62.8995C63.0039 106.792 63.0893 106.877 63.0893 106.982V108.311Z" fill="#B7092B"/>
<path d="M73.4337 110.934H62.4287C62.2547 110.934 62.1123 111.076 62.1123 111.25V115.442C62.5505 116.91 63.2 118.286 64.0257 119.536H68.0174L70.5979 122.116C70.7209 122.239 70.8216 122.198 70.8216 122.024V119.536H73.4337C73.6078 119.536 73.7501 119.393 73.7501 119.219V111.25C73.7501 111.076 73.6077 110.934 73.4337 110.934Z" fill="#52BBEF"/>
<path d="M63.3679 111.25C63.3679 111.076 63.5103 110.934 63.6843 110.934H62.4287C62.2547 110.934 62.1123 111.076 62.1123 111.25V115.442C62.4264 116.494 62.8496 117.499 63.3679 118.444V111.25Z" fill="#1E99D6"/>
<path d="M71.0702 114.08H64.7891C64.527 114.08 64.3145 113.867 64.3145 113.605C64.3145 113.343 64.527 113.13 64.7891 113.13H71.0702C71.3323 113.13 71.5448 113.343 71.5448 113.605C71.5448 113.867 71.3323 114.08 71.0702 114.08Z" fill="white"/>
<path d="M71.0702 115.732H64.7891C64.527 115.732 64.3145 115.519 64.3145 115.257C64.3145 114.995 64.527 114.783 64.7891 114.783H71.0702C71.3323 114.783 71.5448 114.995 71.5448 115.257C71.5448 115.519 71.3323 115.732 71.0702 115.732Z" fill="white"/>
<path d="M67.9422 117.384H64.7891C64.527 117.384 64.3145 117.172 64.3145 116.91C64.3145 116.648 64.527 116.435 64.7891 116.435H67.9422C68.2043 116.435 68.4168 116.648 68.4168 116.91C68.4168 117.172 68.2043 117.384 67.9422 117.384Z" fill="white"/>
<path d="M85.1824 117.11H75.209C75.035 117.11 74.8926 117.253 74.8926 117.427V124.977C74.8926 125.151 75.035 125.293 75.209 125.293H82.9847C83.8676 124.921 84.7082 124.469 85.4988 123.947V117.427C85.4988 117.253 85.3564 117.11 85.1824 117.11Z" fill="#EF8318"/>
<path d="M76.1482 124.977V117.427C76.1482 117.253 76.2906 117.11 76.4646 117.11H75.209C75.035 117.11 74.8926 117.253 74.8926 117.427V124.977C74.8926 125.151 75.035 125.293 75.209 125.293H76.4646C76.2906 125.293 76.1482 125.151 76.1482 124.977Z" fill="#DB722C"/>
<path d="M78.4395 119.495C78.4395 119.147 78.6861 119.004 78.9875 119.178L81.9442 120.885C82.2456 121.059 82.2456 121.344 81.9442 121.518L78.9875 123.225C78.6861 123.399 78.4395 123.257 78.4395 122.909V119.495Z" fill="white"/>
</svg>
