<svg width="414" height="180" viewBox="0 0 414 180" fill="none" xmlns="http://www.w3.org/2000/svg">
<rect width="414" height="180" fill="#673AB7"/>
<g opacity="0.6">
<rect x="132.364" y="18" width="43.6364" height="43.6364" fill="white" fill-opacity="0.06"/>
<rect x="107.818" y="47.4546" width="35.4545" height="36" fill="white" fill-opacity="0.06"/>
<rect x="278" y="139.091" width="22.9091" height="22.9091" fill="white" fill-opacity="0.08"/>
<circle cx="332.273" cy="45" r="27" fill="white" fill-opacity="0.06"/>
<ellipse cx="312.091" cy="65.4546" rx="17.7273" ry="18" fill="white" fill-opacity="0.06"/>
<ellipse cx="233.818" cy="135.545" rx="8.72727" ry="8.45455" fill="white" fill-opacity="0.08"/>
<g opacity="0.15">
<path fill-rule="evenodd" clip-rule="evenodd" d="M366.8 115.357L384.233 97.9233C384.577 97.5794 385.136 97.5813 385.483 97.9274L393.004 105.448C394.042 106.487 394.048 108.165 393.016 109.197L375.583 126.63C375.239 126.974 374.68 126.972 374.333 126.626L366.812 119.105C365.774 118.066 365.768 116.388 366.8 115.357Z" fill="#EEEEEE" fill-opacity="0.6"/>
<path fill-rule="evenodd" clip-rule="evenodd" d="M382.419 114.783L366.751 99.1147C365.712 98.0763 365.707 96.3982 366.738 95.3666L374.21 87.8952C374.553 87.5514 375.113 87.5532 375.459 87.8994L393.008 105.448C394.046 106.487 394.052 108.165 393.02 109.196L385.549 116.668L383.058 119.158C384.09 118.127 384.084 116.449 383.046 115.41L382.419 114.783Z" fill="white"/>
</g>
</g>
<path d="M40 78.7876V124.913C40 128.014 42.5235 130.538 45.625 130.538H106.375C109.476 130.538 112 128.014 112 124.913V78.7876H40Z" fill="#D8DCE1"/>
<path d="M106.375 63.0376H45.625C42.5235 63.0376 40 65.5611 40 68.6626V78.7876H112V68.6626C112 65.5611 109.476 63.0376 106.375 63.0376ZM49 74.2876C47.136 74.2876 45.625 72.7766 45.625 70.9126C45.625 69.0486 47.136 67.5376 49 67.5376C50.864 67.5376 52.375 69.0486 52.375 70.9126C52.375 72.7766 50.864 74.2876 49 74.2876ZM103 74.2876C101.136 74.2876 99.625 72.7766 99.625 70.9126C99.625 69.0486 101.136 67.5376 103 67.5376C104.864 67.5376 106.375 69.0486 106.375 70.9126C106.375 72.7766 104.864 74.2876 103 74.2876Z" fill="#8252D7"/>
<path d="M76 88.9126C73.5182 88.9126 71.5 90.9308 71.5 93.4126C71.5 95.8943 73.5182 97.9126 76 97.9126C78.4818 97.9126 80.5 95.8943 80.5 93.4126C80.5 90.9308 78.4818 88.9126 76 88.9126Z" fill="white"/>
<path d="M64.75 88.9126C62.2682 88.9126 60.25 90.9308 60.25 93.4126C60.25 95.8943 62.2682 97.9126 64.75 97.9126C67.2318 97.9126 69.25 95.8943 69.25 93.4126C69.25 90.9308 67.2318 88.9126 64.75 88.9126Z" fill="#52B062"/>
<path d="M53.5 88.9126C51.0182 88.9126 49 90.9308 49 93.4126C49 95.8943 51.0182 97.9126 53.5 97.9126C55.9818 97.9126 58 95.8943 58 93.4126C58 90.9308 55.9818 88.9126 53.5 88.9126Z" fill="white"/>
<path d="M87.25 88.9126C84.7682 88.9126 82.75 90.9308 82.75 93.4126C82.75 95.8943 84.7682 97.9126 87.25 97.9126C89.7318 97.9126 91.75 95.8943 91.75 93.4126C91.75 90.9308 89.7318 88.9126 87.25 88.9126Z" fill="white"/>
<path d="M98.5 97.9126C100.982 97.9126 103 95.8943 103 93.4126C103 90.9308 100.982 88.9126 98.5 88.9126C96.0182 88.9126 94 90.9308 94 93.4126C94 95.8943 96.0181 97.9126 98.5 97.9126Z" fill="white"/>
<path d="M76 100.163C73.5182 100.163 71.5 102.181 71.5 104.663C71.5 107.144 73.5182 109.163 76 109.163C78.4818 109.163 80.5 107.144 80.5 104.663C80.5 102.181 78.4818 100.163 76 100.163Z" fill="white"/>
<path d="M64.75 100.163C62.2682 100.163 60.25 102.181 60.25 104.663C60.25 107.144 62.2682 109.163 64.75 109.163C67.2318 109.163 69.25 107.144 69.25 104.663C69.25 102.181 67.2318 100.163 64.75 100.163Z" fill="white"/>
<path d="M53.5 100.163C51.0182 100.163 49 102.181 49 104.663C49 107.144 51.0182 109.163 53.5 109.163C55.9818 109.163 58 107.144 58 104.663C58 102.181 55.9818 100.163 53.5 100.163Z" fill="white"/>
<path d="M87.25 100.163C84.7682 100.163 82.75 102.181 82.75 104.663C82.75 107.144 84.7682 109.163 87.25 109.163C89.7318 109.163 91.75 107.144 91.75 104.663C91.75 102.181 89.7318 100.163 87.25 100.163Z" fill="white"/>
<path d="M98.5 100.163C96.0182 100.163 94 102.181 94 104.663C94 107.144 96.0182 109.163 98.5 109.163C100.982 109.163 103 107.144 103 104.663C103 102.181 100.982 100.163 98.5 100.163Z" fill="white"/>
<path d="M76 111.413C73.5182 111.413 71.5 113.431 71.5 115.913C71.5 118.394 73.5182 120.413 76 120.413C78.4818 120.413 80.5 118.394 80.5 115.913C80.5 113.431 78.4818 111.413 76 111.413Z" fill="white"/>
<path d="M64.75 111.413C62.2682 111.413 60.25 113.431 60.25 115.913C60.25 118.394 62.2682 120.413 64.75 120.413C67.2318 120.413 69.25 118.394 69.25 115.913C69.25 113.431 67.2318 111.413 64.75 111.413Z" fill="white"/>
<path d="M53.5 111.413C51.0182 111.413 49 113.431 49 115.913C49 118.394 51.0182 120.413 53.5 120.413C55.9818 120.413 58 118.394 58 115.913C58 113.431 55.9818 111.413 53.5 111.413Z" fill="white"/>
<path d="M87.25 111.413C84.7682 111.413 82.75 113.431 82.75 115.913C82.75 118.394 84.7682 120.413 87.25 120.413C89.7318 120.413 91.75 118.394 91.75 115.913C91.75 113.431 89.7318 111.413 87.25 111.413Z" fill="white"/>
<path d="M98.5 111.413C96.0182 111.413 94 113.431 94 115.913C94 118.394 96.0182 120.413 98.5 120.413C100.982 120.413 103 118.394 103 115.913C103 113.431 100.982 111.413 98.5 111.413Z" fill="white"/>
<path d="M49 72.6001C48.0684 72.6001 47.3125 71.8448 47.3125 70.9126V63.0376C47.3125 62.1054 48.0684 61.3501 49 61.3501C49.9316 61.3501 50.6875 62.1054 50.6875 63.0376V70.9126C50.6875 71.8448 49.9316 72.6001 49 72.6001Z" fill="#E0CFFF"/>
<path d="M103 72.6001C102.068 72.6001 101.312 71.8448 101.312 70.9126V63.0376C101.312 62.1054 102.068 61.3501 103 61.3501C103.932 61.3501 104.688 62.1054 104.688 63.0376V70.9126C104.688 71.8448 103.932 72.6001 103 72.6001Z" fill="#E0CFFF"/>
<path d="M53.5 97.9126C55.9853 97.9126 58 95.8979 58 93.4126C58 90.9273 55.9853 88.9126 53.5 88.9126C51.0147 88.9126 49 90.9273 49 93.4126C49 95.8979 51.0147 97.9126 53.5 97.9126Z" fill="#52B062"/>
<path d="M76 120.413C78.4853 120.413 80.5 118.398 80.5 115.913C80.5 113.427 78.4853 111.413 76 111.413C73.5147 111.413 71.5 113.427 71.5 115.913C71.5 118.398 73.5147 120.413 76 120.413Z" fill="#FF9600"/>
<path d="M87.25 109.163C89.7353 109.163 91.75 107.148 91.75 104.663C91.75 102.177 89.7353 100.163 87.25 100.163C84.7647 100.163 82.75 102.177 82.75 104.663C82.75 107.148 84.7647 109.163 87.25 109.163Z" fill="#FF4F19"/>
<path d="M137.094 75.1719C137.221 77.7305 139.359 79.3516 142.592 79.3516C146.01 79.3516 148.129 77.6426 148.129 74.8984C148.129 72.75 146.928 71.5586 144.066 70.9141L142.445 70.543C140.697 70.1426 139.984 69.5859 139.984 68.6387C139.984 67.4375 141.059 66.6562 142.68 66.6562C144.223 66.6562 145.316 67.4375 145.492 68.6777H147.904C147.787 66.2559 145.648 64.5566 142.689 64.5566C139.535 64.5566 137.445 66.2559 137.445 68.8145C137.445 70.9141 138.646 72.1836 141.205 72.7598L143.031 73.1797C144.838 73.5996 145.609 74.1953 145.609 75.2109C145.609 76.3926 144.408 77.2422 142.748 77.2422C140.961 77.2422 139.711 76.4316 139.555 75.1719H137.094ZM150.707 79H153.129V72.5059C153.129 71.1973 154.018 70.2109 155.219 70.2109C156.41 70.2109 157.152 70.9238 157.152 72.0957V79H159.506V72.3496C159.506 71.1289 160.336 70.2109 161.596 70.2109C162.895 70.2109 163.549 70.8945 163.549 72.2715V79H165.961V71.6562C165.961 69.4395 164.672 68.1016 162.533 68.1016C161.049 68.1016 159.818 68.873 159.291 70.0449H159.125C158.676 68.8438 157.65 68.1016 156.176 68.1016C154.76 68.1016 153.666 68.8242 153.207 70.0449H153.041V68.3164H150.707V79ZM172.484 77.2715C171.41 77.2715 170.639 76.7344 170.639 75.8359C170.639 74.9668 171.273 74.4785 172.631 74.3906L175.043 74.2344V75.084C175.043 76.3242 173.949 77.2715 172.484 77.2715ZM171.771 79.1758C173.168 79.1758 174.34 78.5703 174.936 77.5352H175.102V79H177.436V71.7051C177.436 69.4395 175.893 68.1016 173.148 68.1016C170.609 68.1016 168.842 69.3027 168.646 71.1875H170.932C171.156 70.4648 171.918 70.0742 173.031 70.0742C174.34 70.0742 175.043 70.6602 175.043 71.7051V72.6035L172.289 72.7695C169.691 72.9258 168.236 74.0391 168.236 75.9727C168.236 77.9258 169.711 79.1758 171.771 79.1758ZM180.355 79H182.777V72.8281C182.777 71.334 183.871 70.3574 185.443 70.3574C185.854 70.3574 186.498 70.4258 186.684 70.4941V68.248C186.459 68.1797 186.029 68.1406 185.678 68.1406C184.301 68.1406 183.148 68.9219 182.855 69.9766H182.689V68.3164H180.355V79ZM189.936 65.6992V68.3848H188.246V70.3184H189.936V76.1484C189.936 78.2188 190.912 79.0488 193.363 79.0488C193.832 79.0488 194.281 79 194.633 78.9316V77.0371C194.34 77.0664 194.154 77.0859 193.812 77.0859C192.797 77.0859 192.348 76.6172 192.348 75.5625V70.3184H194.633V68.3848H192.348V65.6992H189.936ZM211.732 79H214.438L209.428 64.9082H206.596L201.596 79H204.145L205.355 75.3965H210.541L211.732 79ZM207.875 67.5938H208.041L209.955 73.4043H205.941L207.875 67.5938ZM216.791 65.6992V68.3848H215.102V70.3184H216.791V76.1484C216.791 78.2188 217.768 79.0488 220.219 79.0488C220.688 79.0488 221.137 79 221.488 78.9316V77.0371C221.195 77.0664 221.01 77.0859 220.668 77.0859C219.652 77.0859 219.203 76.6172 219.203 75.5625V70.3184H221.488V68.3848H219.203V65.6992H216.791ZM224.74 65.6992V68.3848H223.051V70.3184H224.74V76.1484C224.74 78.2188 225.717 79.0488 228.168 79.0488C228.637 79.0488 229.086 79 229.438 78.9316V77.0371C229.145 77.0664 228.959 77.0859 228.617 77.0859C227.602 77.0859 227.152 76.6172 227.152 75.5625V70.3184H229.438V68.3848H227.152V65.6992H224.74ZM236.244 70.0254C237.699 70.0254 238.656 71.041 238.705 72.623H233.676C233.783 71.0605 234.799 70.0254 236.244 70.0254ZM238.725 76.0605C238.373 76.8516 237.543 77.291 236.342 77.291C234.75 77.291 233.725 76.1777 233.666 74.4004V74.2734H241.127V73.4922C241.127 70.123 239.301 68.1016 236.254 68.1016C233.158 68.1016 231.234 70.2598 231.234 73.6973C231.234 77.1348 233.129 79.2148 236.273 79.2148C238.793 79.2148 240.561 78.0039 241.02 76.0605H238.725ZM243.559 79H245.98V72.7793C245.98 71.207 246.889 70.2109 248.334 70.2109C249.809 70.2109 250.492 71.0312 250.492 72.6621V79H252.914V72.0859C252.914 69.5371 251.615 68.1016 249.232 68.1016C247.641 68.1016 246.566 68.834 246.059 70.0254H245.893V68.3164H243.559V79ZM259.652 79.1758C261.137 79.1758 262.367 78.4824 262.973 77.3105H263.139V79H265.482V64.1855H263.061V70.0156H262.895C262.328 68.8438 261.117 68.1406 259.652 68.1406C256.957 68.1406 255.258 70.2695 255.258 73.6484C255.258 77.0469 256.947 79.1758 259.652 79.1758ZM260.404 70.2012C262.064 70.2012 263.09 71.5293 263.09 73.6582C263.09 75.8066 262.074 77.1152 260.404 77.1152C258.744 77.1152 257.738 75.8164 257.738 73.6582C257.738 71.5098 258.754 70.2012 260.404 70.2012ZM272.191 77.2715C271.117 77.2715 270.346 76.7344 270.346 75.8359C270.346 74.9668 270.98 74.4785 272.338 74.3906L274.75 74.2344V75.084C274.75 76.3242 273.656 77.2715 272.191 77.2715ZM271.479 79.1758C272.875 79.1758 274.047 78.5703 274.643 77.5352H274.809V79H277.143V71.7051C277.143 69.4395 275.6 68.1016 272.855 68.1016C270.316 68.1016 268.549 69.3027 268.354 71.1875H270.639C270.863 70.4648 271.625 70.0742 272.738 70.0742C274.047 70.0742 274.75 70.6602 274.75 71.7051V72.6035L271.996 72.7695C269.398 72.9258 267.943 74.0391 267.943 75.9727C267.943 77.9258 269.418 79.1758 271.479 79.1758ZM280.062 79H282.484V72.7793C282.484 71.207 283.393 70.2109 284.838 70.2109C286.312 70.2109 286.996 71.0312 286.996 72.6621V79H289.418V72.0859C289.418 69.5371 288.119 68.1016 285.736 68.1016C284.145 68.1016 283.07 68.834 282.562 70.0254H282.396V68.3164H280.062V79ZM301.518 71.9102C301.264 69.6641 299.604 68.1016 296.859 68.1016C293.646 68.1016 291.762 70.1621 291.762 73.6289C291.762 77.1445 293.656 79.2148 296.869 79.2148C299.574 79.2148 301.254 77.7109 301.518 75.4746H299.213C298.959 76.5879 298.119 77.1836 296.859 77.1836C295.209 77.1836 294.213 75.875 294.213 73.6289C294.213 71.4121 295.199 70.1328 296.859 70.1328C298.188 70.1328 298.988 70.875 299.213 71.9102H301.518ZM308.314 70.0254C309.77 70.0254 310.727 71.041 310.775 72.623H305.746C305.854 71.0605 306.869 70.0254 308.314 70.0254ZM310.795 76.0605C310.443 76.8516 309.613 77.291 308.412 77.291C306.82 77.291 305.795 76.1777 305.736 74.4004V74.2734H313.197V73.4922C313.197 70.123 311.371 68.1016 308.324 68.1016C305.229 68.1016 303.305 70.2598 303.305 73.6973C303.305 77.1348 305.199 79.2148 308.344 79.2148C310.863 79.2148 312.631 78.0039 313.09 76.0605H310.795Z" fill="white"/>
<path d="M137.078 94.5449H139.979C141.232 94.5449 142.211 94.918 142.914 95.6641C143.617 96.4062 143.969 97.4414 143.969 98.7695C143.969 100.102 143.617 101.141 142.914 101.887C142.215 102.629 141.236 103 139.979 103H137.078V94.5449ZM138.133 95.4941V102.051H139.908C140.85 102.051 141.582 101.764 142.105 101.189C142.629 100.615 142.891 99.8125 142.891 98.7812C142.891 97.7461 142.627 96.9395 142.1 96.3613C141.576 95.7832 140.846 95.4941 139.908 95.4941H138.133ZM150.391 102.238C149.871 102.82 149.162 103.111 148.264 103.111C147.365 103.111 146.654 102.82 146.131 102.238C145.611 101.652 145.352 100.854 145.352 99.8418C145.352 98.8262 145.611 98.0273 146.131 97.4453C146.65 96.8633 147.361 96.5723 148.264 96.5723C149.166 96.5723 149.877 96.8633 150.396 97.4453C150.916 98.0273 151.176 98.8262 151.176 99.8418C151.176 100.854 150.914 101.652 150.391 102.238ZM146.881 101.588C147.205 101.998 147.666 102.203 148.264 102.203C148.861 102.203 149.322 101.998 149.646 101.588C149.971 101.174 150.133 100.592 150.133 99.8418C150.133 99.0918 149.971 98.5117 149.646 98.1016C149.322 97.6875 148.861 97.4805 148.264 97.4805C147.666 97.4805 147.205 97.6875 146.881 98.1016C146.557 98.5117 146.395 99.0918 146.395 99.8418C146.395 100.592 146.557 101.174 146.881 101.588ZM152.758 103V96.6836H153.719V97.6797H153.812C154.148 96.9414 154.781 96.5723 155.711 96.5723C156.418 96.5723 156.963 96.7754 157.346 97.1816C157.729 97.584 157.92 98.1602 157.92 98.9102V103H156.912V99.1562C156.912 98.5898 156.789 98.1699 156.543 97.8965C156.301 97.6191 155.928 97.4805 155.424 97.4805C154.916 97.4805 154.512 97.6406 154.211 97.9609C153.914 98.2773 153.766 98.7109 153.766 99.2617V103H152.758ZM160.604 97.7031H159.871L160.404 94.5449H161.547L160.604 97.7031ZM163.738 95.0488H164.746V96.6836H166.152V97.5273H164.746V101.102C164.746 101.473 164.82 101.742 164.969 101.91C165.117 102.078 165.355 102.162 165.684 102.162C165.828 102.162 165.984 102.154 166.152 102.139V102.988C165.93 103.027 165.732 103.047 165.561 103.047C164.908 103.047 164.441 102.916 164.16 102.654C163.879 102.393 163.738 101.961 163.738 101.359V97.5273H162.719V96.6836H163.738V95.0488ZM171.121 103V94.1758H172.129V103H171.121ZM176.605 97.4629C176.102 97.4629 175.688 97.6328 175.363 97.9727C175.039 98.3125 174.857 98.7617 174.818 99.3203H178.299C178.287 98.7617 178.127 98.3125 177.818 97.9727C177.51 97.6328 177.105 97.4629 176.605 97.4629ZM178.27 101.365H179.277C179.125 101.912 178.814 102.34 178.346 102.648C177.881 102.957 177.305 103.111 176.617 103.111C175.742 103.111 175.049 102.818 174.537 102.232C174.025 101.643 173.77 100.848 173.77 99.8477C173.77 98.8516 174.027 98.0566 174.543 97.4629C175.059 96.8691 175.75 96.5723 176.617 96.5723C177.469 96.5723 178.139 96.8555 178.627 97.4219C179.115 97.9883 179.359 98.7637 179.359 99.748V100.135H174.818V100.182C174.846 100.807 175.021 101.303 175.346 101.67C175.674 102.037 176.105 102.221 176.641 102.221C177.457 102.221 178 101.936 178.27 101.365ZM181.363 95.0488H182.371V96.6836H183.777V97.5273H182.371V101.102C182.371 101.473 182.445 101.742 182.594 101.91C182.742 102.078 182.98 102.162 183.309 102.162C183.453 102.162 183.609 102.154 183.777 102.139V102.988C183.555 103.027 183.357 103.047 183.186 103.047C182.533 103.047 182.066 102.916 181.785 102.654C181.504 102.393 181.363 101.961 181.363 101.359V97.5273H180.344V96.6836H181.363V95.0488ZM191.764 96.5723C192.568 96.5723 193.211 96.8691 193.691 97.4629C194.176 98.0566 194.418 98.8496 194.418 99.8418C194.418 100.83 194.176 101.623 193.691 102.221C193.207 102.814 192.564 103.111 191.764 103.111C191.314 103.111 190.916 103.02 190.568 102.836C190.221 102.648 189.961 102.387 189.789 102.051H189.695V105.109H188.688V96.6836H189.648V97.7383H189.742C189.945 97.375 190.225 97.0898 190.58 96.8828C190.939 96.6758 191.334 96.5723 191.764 96.5723ZM191.523 102.203C192.102 102.203 192.555 101.994 192.883 101.576C193.211 101.158 193.375 100.58 193.375 99.8418C193.375 99.1035 193.211 98.5254 192.883 98.1074C192.559 97.6895 192.107 97.4805 191.529 97.4805C190.959 97.4805 190.506 97.6934 190.17 98.1191C189.834 98.541 189.666 99.1152 189.666 99.8418C189.666 100.564 189.832 101.139 190.164 101.564C190.5 101.99 190.953 102.203 191.523 102.203ZM197.945 102.227C198.465 102.227 198.895 102.076 199.234 101.775C199.578 101.475 199.75 101.098 199.75 100.645V100.064L198.051 100.176C197.574 100.207 197.225 100.307 197.002 100.475C196.779 100.643 196.668 100.887 196.668 101.207C196.668 101.523 196.787 101.773 197.025 101.957C197.264 102.137 197.57 102.227 197.945 102.227ZM197.758 103.111C197.137 103.111 196.625 102.941 196.223 102.602C195.824 102.258 195.625 101.801 195.625 101.23C195.625 100.668 195.824 100.227 196.223 99.9062C196.621 99.5859 197.189 99.4043 197.928 99.3613L199.75 99.25V98.6758C199.75 98.2852 199.629 97.9863 199.387 97.7793C199.145 97.5723 198.789 97.4688 198.32 97.4688C197.941 97.4688 197.627 97.5371 197.377 97.6738C197.127 97.8105 196.967 98.0039 196.896 98.2539H195.877C195.943 97.75 196.203 97.3438 196.656 97.0352C197.113 96.7266 197.68 96.5723 198.355 96.5723C199.121 96.5723 199.713 96.7578 200.131 97.1289C200.549 97.5 200.758 98.0156 200.758 98.6758V103H199.797V102.068H199.703C199.5 102.404 199.23 102.662 198.895 102.842C198.559 103.021 198.18 103.111 197.758 103.111ZM202.621 103V96.6836H203.582V97.6211H203.676C203.77 97.3125 203.98 97.0605 204.309 96.8652C204.637 96.6699 205.01 96.5723 205.428 96.5723C205.619 96.5723 205.787 96.582 205.932 96.6016V97.6094C205.795 97.5703 205.58 97.5508 205.287 97.5508C204.807 97.5508 204.41 97.6953 204.098 97.9844C203.785 98.2734 203.629 98.6406 203.629 99.0859V103H202.621ZM209.535 97.4629C209.031 97.4629 208.617 97.6328 208.293 97.9727C207.969 98.3125 207.787 98.7617 207.748 99.3203H211.229C211.217 98.7617 211.057 98.3125 210.748 97.9727C210.439 97.6328 210.035 97.4629 209.535 97.4629ZM211.199 101.365H212.207C212.055 101.912 211.744 102.34 211.275 102.648C210.811 102.957 210.234 103.111 209.547 103.111C208.672 103.111 207.979 102.818 207.467 102.232C206.955 101.643 206.699 100.848 206.699 99.8477C206.699 98.8516 206.957 98.0566 207.473 97.4629C207.988 96.8691 208.68 96.5723 209.547 96.5723C210.398 96.5723 211.068 96.8555 211.557 97.4219C212.045 97.9883 212.289 98.7637 212.289 99.748V100.135H207.748V100.182C207.775 100.807 207.951 101.303 208.275 101.67C208.604 102.037 209.035 102.221 209.57 102.221C210.387 102.221 210.93 101.936 211.199 101.365ZM213.871 103V96.6836H214.832V97.6797H214.926C215.262 96.9414 215.895 96.5723 216.824 96.5723C217.531 96.5723 218.076 96.7754 218.459 97.1816C218.842 97.584 219.033 98.1602 219.033 98.9102V103H218.025V99.1562C218.025 98.5898 217.902 98.1699 217.656 97.8965C217.414 97.6191 217.041 97.4805 216.537 97.4805C216.029 97.4805 215.625 97.6406 215.324 97.9609C215.027 98.2773 214.879 98.7109 214.879 99.2617V103H213.871ZM221.301 95.0488H222.309V96.6836H223.715V97.5273H222.309V101.102C222.309 101.473 222.383 101.742 222.531 101.91C222.68 102.078 222.918 102.162 223.246 102.162C223.391 102.162 223.547 102.154 223.715 102.139V102.988C223.492 103.027 223.295 103.047 223.123 103.047C222.471 103.047 222.004 102.916 221.723 102.654C221.441 102.393 221.301 101.961 221.301 101.359V97.5273H220.281V96.6836H221.301V95.0488ZM224.975 98.4121C224.975 97.8887 225.199 97.4512 225.648 97.0996C226.098 96.748 226.658 96.5723 227.33 96.5723C227.99 96.5723 228.535 96.7246 228.965 97.0293C229.395 97.334 229.643 97.7461 229.709 98.2656H228.713C228.643 98.0078 228.486 97.8047 228.244 97.6562C228.006 97.5039 227.699 97.4277 227.324 97.4277C226.945 97.4277 226.627 97.5156 226.369 97.6914C226.115 97.8672 225.988 98.0938 225.988 98.3711C225.988 98.5859 226.076 98.7656 226.252 98.9102C226.432 99.0508 226.709 99.166 227.084 99.2559L228.057 99.4902C228.658 99.6348 229.102 99.8438 229.387 100.117C229.676 100.391 229.82 100.752 229.82 101.201C229.82 101.76 229.58 102.219 229.1 102.578C228.619 102.934 228.016 103.111 227.289 103.111C226.586 103.111 226.01 102.955 225.561 102.643C225.111 102.33 224.859 101.912 224.805 101.389H225.842C225.928 101.662 226.098 101.877 226.352 102.033C226.605 102.186 226.93 102.262 227.324 102.262C227.75 102.262 228.1 102.17 228.373 101.986C228.646 101.803 228.783 101.566 228.783 101.277C228.783 100.848 228.449 100.551 227.781 100.387L226.697 100.123C226.1 99.9785 225.662 99.7715 225.385 99.502C225.111 99.2285 224.975 98.8652 224.975 98.4121ZM242.734 96.6836L240.965 103H239.939L238.527 98.1133H238.434L237.027 103H236.008L234.238 96.6836H235.258L236.5 101.734H236.594L238.006 96.6836H238.973L240.385 101.734H240.479L241.721 96.6836H242.734ZM248.57 102.238C248.051 102.82 247.342 103.111 246.443 103.111C245.545 103.111 244.834 102.82 244.311 102.238C243.791 101.652 243.531 100.854 243.531 99.8418C243.531 98.8262 243.791 98.0273 244.311 97.4453C244.83 96.8633 245.541 96.5723 246.443 96.5723C247.346 96.5723 248.057 96.8633 248.576 97.4453C249.096 98.0273 249.355 98.8262 249.355 99.8418C249.355 100.854 249.094 101.652 248.57 102.238ZM245.061 101.588C245.385 101.998 245.846 102.203 246.443 102.203C247.041 102.203 247.502 101.998 247.826 101.588C248.15 101.174 248.312 100.592 248.312 99.8418C248.312 99.0918 248.15 98.5117 247.826 98.1016C247.502 97.6875 247.041 97.4805 246.443 97.4805C245.846 97.4805 245.385 97.6875 245.061 98.1016C244.736 98.5117 244.574 99.0918 244.574 99.8418C244.574 100.592 244.736 101.174 245.061 101.588ZM250.938 103V96.6836H251.898V97.6211H251.992C252.086 97.3125 252.297 97.0605 252.625 96.8652C252.953 96.6699 253.326 96.5723 253.744 96.5723C253.936 96.5723 254.104 96.582 254.248 96.6016V97.6094C254.111 97.5703 253.896 97.5508 253.604 97.5508C253.123 97.5508 252.727 97.6953 252.414 97.9844C252.102 98.2734 251.945 98.6406 251.945 99.0859V103H250.938ZM255.625 103V96.6836H256.586V97.6211H256.68C256.773 97.3125 256.984 97.0605 257.312 96.8652C257.641 96.6699 258.014 96.5723 258.432 96.5723C258.623 96.5723 258.791 96.582 258.936 96.6016V97.6094C258.799 97.5703 258.584 97.5508 258.291 97.5508C257.811 97.5508 257.414 97.6953 257.102 97.9844C256.789 98.2734 256.633 98.6406 256.633 99.0859V103H255.625ZM260.734 105.285C260.574 105.285 260.424 105.273 260.283 105.25V104.389C260.385 104.408 260.525 104.418 260.705 104.418C260.998 104.418 261.23 104.34 261.402 104.184C261.578 104.027 261.732 103.76 261.865 103.381L261.982 103.006L259.645 96.6836H260.734L262.469 101.881H262.562L264.291 96.6836H265.363L262.896 103.387C262.627 104.117 262.34 104.615 262.035 104.881C261.73 105.15 261.297 105.285 260.734 105.285ZM272.043 102.227C272.562 102.227 272.992 102.076 273.332 101.775C273.676 101.475 273.848 101.098 273.848 100.645V100.064L272.148 100.176C271.672 100.207 271.322 100.307 271.1 100.475C270.877 100.643 270.766 100.887 270.766 101.207C270.766 101.523 270.885 101.773 271.123 101.957C271.361 102.137 271.668 102.227 272.043 102.227ZM271.855 103.111C271.234 103.111 270.723 102.941 270.32 102.602C269.922 102.258 269.723 101.801 269.723 101.23C269.723 100.668 269.922 100.227 270.32 99.9062C270.719 99.5859 271.287 99.4043 272.025 99.3613L273.848 99.25V98.6758C273.848 98.2852 273.727 97.9863 273.484 97.7793C273.242 97.5723 272.887 97.4688 272.418 97.4688C272.039 97.4688 271.725 97.5371 271.475 97.6738C271.225 97.8105 271.064 98.0039 270.994 98.2539H269.975C270.041 97.75 270.301 97.3438 270.754 97.0352C271.211 96.7266 271.777 96.5723 272.453 96.5723C273.219 96.5723 273.811 96.7578 274.229 97.1289C274.646 97.5 274.855 98.0156 274.855 98.6758V103H273.895V102.068H273.801C273.598 102.404 273.328 102.662 272.992 102.842C272.656 103.021 272.277 103.111 271.855 103.111ZM279.859 103.111C279.422 103.111 279.023 103.014 278.664 102.818C278.309 102.619 278.031 102.344 277.832 101.992H277.738V103H276.777V94.1758H277.785V97.6797H277.879C278.051 97.3398 278.314 97.0703 278.67 96.8711C279.029 96.6719 279.426 96.5723 279.859 96.5723C280.664 96.5723 281.307 96.8691 281.787 97.4629C282.268 98.0566 282.508 98.8496 282.508 99.8418C282.508 100.83 282.266 101.623 281.781 102.221C281.301 102.814 280.66 103.111 279.859 103.111ZM279.625 97.4805C279.051 97.4805 278.596 97.6914 278.26 98.1133C277.928 98.5352 277.762 99.1113 277.762 99.8418C277.762 100.572 277.928 101.148 278.26 101.57C278.596 101.992 279.051 102.203 279.625 102.203C280.203 102.203 280.654 101.994 280.979 101.576C281.303 101.158 281.465 100.58 281.465 99.8418C281.465 99.1035 281.303 98.5254 280.979 98.1074C280.654 97.6895 280.203 97.4805 279.625 97.4805ZM288.812 102.238C288.293 102.82 287.584 103.111 286.686 103.111C285.787 103.111 285.076 102.82 284.553 102.238C284.033 101.652 283.773 100.854 283.773 99.8418C283.773 98.8262 284.033 98.0273 284.553 97.4453C285.072 96.8633 285.783 96.5723 286.686 96.5723C287.588 96.5723 288.299 96.8633 288.818 97.4453C289.338 98.0273 289.598 98.8262 289.598 99.8418C289.598 100.854 289.336 101.652 288.812 102.238ZM285.303 101.588C285.627 101.998 286.088 102.203 286.686 102.203C287.283 102.203 287.744 101.998 288.068 101.588C288.393 101.174 288.555 100.592 288.555 99.8418C288.555 99.0918 288.393 98.5117 288.068 98.1016C287.744 97.6875 287.283 97.4805 286.686 97.4805C286.088 97.4805 285.627 97.6875 285.303 98.1016C284.979 98.5117 284.816 99.0918 284.816 99.8418C284.816 100.592 284.979 101.174 285.303 101.588ZM296.289 96.6836V103H295.328V102.01H295.234C295.074 102.365 294.828 102.639 294.496 102.83C294.164 103.018 293.758 103.111 293.277 103.111C292.574 103.111 292.039 102.91 291.672 102.508C291.305 102.105 291.121 101.527 291.121 100.773V96.6836H292.129V100.527C292.129 101.102 292.242 101.523 292.469 101.793C292.695 102.059 293.059 102.191 293.559 102.191C294.109 102.191 294.533 102.037 294.83 101.729C295.131 101.416 295.281 100.98 295.281 100.422V96.6836H296.289ZM298.609 95.0488H299.617V96.6836H301.023V97.5273H299.617V101.102C299.617 101.473 299.691 101.742 299.84 101.91C299.988 102.078 300.227 102.162 300.555 102.162C300.699 102.162 300.855 102.154 301.023 102.139V102.988C300.801 103.027 300.604 103.047 300.432 103.047C299.779 103.047 299.312 102.916 299.031 102.654C298.75 102.393 298.609 101.961 298.609 101.359V97.5273H297.59V96.6836H298.609V95.0488ZM306.355 95.0488H307.363V96.6836H308.77V97.5273H307.363V101.102C307.363 101.473 307.438 101.742 307.586 101.91C307.734 102.078 307.973 102.162 308.301 102.162C308.445 102.162 308.602 102.154 308.77 102.139V102.988C308.547 103.027 308.35 103.047 308.178 103.047C307.525 103.047 307.059 102.916 306.777 102.654C306.496 102.393 306.355 101.961 306.355 101.359V97.5273H305.336V96.6836H306.355V95.0488ZM310.352 103V94.1758H311.359V97.6797H311.453C311.613 97.3242 311.857 97.0508 312.186 96.8594C312.518 96.668 312.922 96.5723 313.398 96.5723C314.07 96.5723 314.602 96.7793 314.992 97.1934C315.383 97.6035 315.578 98.1758 315.578 98.9102V103H314.57V99.1562C314.57 98.0391 314.084 97.4805 313.111 97.4805C312.557 97.4805 312.125 97.6426 311.816 97.9668C311.512 98.2871 311.359 98.7188 311.359 99.2617V103H310.352ZM319.938 97.4629C319.434 97.4629 319.02 97.6328 318.695 97.9727C318.371 98.3125 318.189 98.7617 318.15 99.3203H321.631C321.619 98.7617 321.459 98.3125 321.15 97.9727C320.842 97.6328 320.438 97.4629 319.938 97.4629ZM321.602 101.365H322.609C322.457 101.912 322.146 102.34 321.678 102.648C321.213 102.957 320.637 103.111 319.949 103.111C319.074 103.111 318.381 102.818 317.869 102.232C317.357 101.643 317.102 100.848 317.102 99.8477C317.102 98.8516 317.359 98.0566 317.875 97.4629C318.391 96.8691 319.082 96.5723 319.949 96.5723C320.801 96.5723 321.471 96.8555 321.959 97.4219C322.447 97.9883 322.691 98.7637 322.691 99.748V100.135H318.15V100.182C318.178 100.807 318.354 101.303 318.678 101.67C319.006 102.037 319.438 102.221 319.973 102.221C320.789 102.221 321.332 101.936 321.602 101.365ZM324.297 103V96.6836H325.305V103H324.297ZM325.299 95.1953C325.162 95.332 324.996 95.4004 324.801 95.4004C324.605 95.4004 324.439 95.332 324.303 95.1953C324.166 95.0547 324.098 94.8887 324.098 94.6973C324.098 94.5059 324.166 94.3418 324.303 94.2051C324.439 94.0645 324.605 93.9941 324.801 93.9941C324.996 93.9941 325.162 94.0645 325.299 94.2051C325.436 94.3418 325.504 94.5059 325.504 94.6973C325.504 94.8887 325.436 95.0547 325.299 95.1953ZM327.227 103V96.6836H328.188V97.6211H328.281C328.375 97.3125 328.586 97.0605 328.914 96.8652C329.242 96.6699 329.615 96.5723 330.033 96.5723C330.225 96.5723 330.393 96.582 330.537 96.6016V97.6094C330.4 97.5703 330.186 97.5508 329.893 97.5508C329.412 97.5508 329.016 97.6953 328.703 97.9844C328.391 98.2734 328.234 98.6406 328.234 99.0859V103H327.227ZM340.41 98.6172H339.391C339.305 98.2852 339.119 98.0137 338.834 97.8027C338.553 97.5879 338.195 97.4805 337.762 97.4805C337.195 97.4805 336.744 97.6914 336.408 98.1133C336.076 98.5352 335.91 99.1035 335.91 99.8184C335.91 100.545 336.078 101.125 336.414 101.559C336.75 101.988 337.199 102.203 337.762 102.203C338.188 102.203 338.541 102.107 338.822 101.916C339.107 101.725 339.297 101.451 339.391 101.096H340.41C340.316 101.693 340.037 102.18 339.572 102.555C339.107 102.926 338.506 103.111 337.768 103.111C336.881 103.111 336.176 102.814 335.652 102.221C335.129 101.623 334.867 100.822 334.867 99.8184C334.867 98.834 335.129 98.0469 335.652 97.457C336.176 96.8672 336.879 96.5723 337.762 96.5723C338.5 96.5723 339.102 96.7656 339.566 97.1523C340.035 97.5391 340.316 98.0273 340.41 98.6172ZM341.957 103V94.1758H342.965V97.6797H343.059C343.219 97.3242 343.463 97.0508 343.791 96.8594C344.123 96.668 344.527 96.5723 345.004 96.5723C345.676 96.5723 346.207 96.7793 346.598 97.1934C346.988 97.6035 347.184 98.1758 347.184 98.9102V103H346.176V99.1562C346.176 98.0391 345.689 97.4805 344.717 97.4805C344.162 97.4805 343.73 97.6426 343.422 97.9668C343.117 98.2871 342.965 98.7188 342.965 99.2617V103H341.957ZM349.047 103V96.6836H350.055V103H349.047ZM350.049 95.1953C349.912 95.332 349.746 95.4004 349.551 95.4004C349.355 95.4004 349.189 95.332 349.053 95.1953C348.916 95.0547 348.848 94.8887 348.848 94.6973C348.848 94.5059 348.916 94.3418 349.053 94.2051C349.189 94.0645 349.355 93.9941 349.551 93.9941C349.746 93.9941 349.912 94.0645 350.049 94.2051C350.186 94.3418 350.254 94.5059 350.254 94.6973C350.254 94.8887 350.186 95.0547 350.049 95.1953ZM352.035 103V94.1758H353.043V103H352.035ZM357.338 103.111C356.529 103.111 355.885 102.814 355.404 102.221C354.924 101.627 354.684 100.834 354.684 99.8418C354.684 98.8535 354.924 98.0625 355.404 97.4688C355.889 96.8711 356.533 96.5723 357.338 96.5723C357.779 96.5723 358.174 96.6719 358.521 96.8711C358.873 97.0664 359.139 97.3359 359.318 97.6797H359.406V94.1758H360.414V103H359.453V101.992H359.359C359.16 102.344 358.883 102.619 358.527 102.818C358.172 103.014 357.775 103.111 357.338 103.111ZM357.572 97.4805C356.998 97.4805 356.547 97.6914 356.219 98.1133C355.891 98.5312 355.727 99.1074 355.727 99.8418C355.727 100.58 355.889 101.158 356.213 101.576C356.541 101.994 356.994 102.203 357.572 102.203C358.146 102.203 358.6 101.992 358.932 101.57C359.264 101.148 359.43 100.572 359.43 99.8418C359.43 99.1191 359.262 98.5449 358.926 98.1191C358.594 97.6934 358.143 97.4805 357.572 97.4805ZM368.898 103.111C368.461 103.111 368.062 103.014 367.703 102.818C367.348 102.619 367.07 102.344 366.871 101.992H366.777V103H365.816V94.1758H366.824V97.6797H366.918C367.09 97.3398 367.354 97.0703 367.709 96.8711C368.068 96.6719 368.465 96.5723 368.898 96.5723C369.703 96.5723 370.346 96.8691 370.826 97.4629C371.307 98.0566 371.547 98.8496 371.547 99.8418C371.547 100.83 371.305 101.623 370.82 102.221C370.34 102.814 369.699 103.111 368.898 103.111ZM368.664 97.4805C368.09 97.4805 367.635 97.6914 367.299 98.1133C366.967 98.5352 366.801 99.1113 366.801 99.8418C366.801 100.572 366.967 101.148 367.299 101.57C367.635 101.992 368.09 102.203 368.664 102.203C369.242 102.203 369.693 101.994 370.018 101.576C370.342 101.158 370.504 100.58 370.504 99.8418C370.504 99.1035 370.342 98.5254 370.018 98.1074C369.693 97.6895 369.242 97.4805 368.664 97.4805ZM373.434 105.285C373.273 105.285 373.123 105.273 372.982 105.25V104.389C373.084 104.408 373.225 104.418 373.404 104.418C373.697 104.418 373.93 104.34 374.102 104.184C374.277 104.027 374.432 103.76 374.564 103.381L374.682 103.006L372.344 96.6836H373.434L375.168 101.881H375.262L376.99 96.6836H378.062L375.596 103.387C375.326 104.117 375.039 104.615 374.734 104.881C374.43 105.15 373.996 105.285 373.434 105.285ZM138.109 113.443L140.852 110.684H142.088L139.369 113.391L142.27 117H140.986L138.619 114.041L138.016 114.604V117H137.008V108.176H138.016V113.443H138.109ZM145.691 111.463C145.188 111.463 144.773 111.633 144.449 111.973C144.125 112.312 143.943 112.762 143.904 113.32H147.385C147.373 112.762 147.213 112.312 146.904 111.973C146.596 111.633 146.191 111.463 145.691 111.463ZM147.355 115.365H148.363C148.211 115.912 147.9 116.34 147.432 116.648C146.967 116.957 146.391 117.111 145.703 117.111C144.828 117.111 144.135 116.818 143.623 116.232C143.111 115.643 142.855 114.848 142.855 113.848C142.855 112.852 143.113 112.057 143.629 111.463C144.145 110.869 144.836 110.572 145.703 110.572C146.555 110.572 147.225 110.855 147.713 111.422C148.201 111.988 148.445 112.764 148.445 113.748V114.135H143.904V114.182C143.932 114.807 144.107 115.303 144.432 115.67C144.76 116.037 145.191 116.221 145.727 116.221C146.543 116.221 147.086 115.936 147.355 115.365ZM152.547 111.463C152.043 111.463 151.629 111.633 151.305 111.973C150.98 112.312 150.799 112.762 150.76 113.32H154.24C154.229 112.762 154.068 112.312 153.76 111.973C153.451 111.633 153.047 111.463 152.547 111.463ZM154.211 115.365H155.219C155.066 115.912 154.756 116.34 154.287 116.648C153.822 116.957 153.246 117.111 152.559 117.111C151.684 117.111 150.99 116.818 150.479 116.232C149.967 115.643 149.711 114.848 149.711 113.848C149.711 112.852 149.969 112.057 150.484 111.463C151 110.869 151.691 110.572 152.559 110.572C153.41 110.572 154.08 110.855 154.568 111.422C155.057 111.988 155.301 112.764 155.301 113.748V114.135H150.76V114.182C150.787 114.807 150.963 115.303 151.287 115.67C151.615 116.037 152.047 116.221 152.582 116.221C153.398 116.221 153.941 115.936 154.211 115.365ZM159.959 110.572C160.764 110.572 161.406 110.869 161.887 111.463C162.371 112.057 162.613 112.85 162.613 113.842C162.613 114.83 162.371 115.623 161.887 116.221C161.402 116.814 160.76 117.111 159.959 117.111C159.51 117.111 159.111 117.02 158.764 116.836C158.416 116.648 158.156 116.387 157.984 116.051H157.891V119.109H156.883V110.684H157.844V111.738H157.938C158.141 111.375 158.42 111.09 158.775 110.883C159.135 110.676 159.529 110.572 159.959 110.572ZM159.719 116.203C160.297 116.203 160.75 115.994 161.078 115.576C161.406 115.158 161.57 114.58 161.57 113.842C161.57 113.104 161.406 112.525 161.078 112.107C160.754 111.689 160.303 111.48 159.725 111.48C159.154 111.48 158.701 111.693 158.365 112.119C158.029 112.541 157.861 113.115 157.861 113.842C157.861 114.564 158.027 115.139 158.359 115.564C158.695 115.99 159.148 116.203 159.719 116.203ZM164.219 117V110.684H165.227V117H164.219ZM165.221 109.195C165.084 109.332 164.918 109.4 164.723 109.4C164.527 109.4 164.361 109.332 164.225 109.195C164.088 109.055 164.02 108.889 164.02 108.697C164.02 108.506 164.088 108.342 164.225 108.205C164.361 108.064 164.527 107.994 164.723 107.994C164.918 107.994 165.084 108.064 165.221 108.205C165.357 108.342 165.426 108.506 165.426 108.697C165.426 108.889 165.357 109.055 165.221 109.195ZM167.148 117V110.684H168.109V111.68H168.203C168.539 110.941 169.172 110.572 170.102 110.572C170.809 110.572 171.354 110.775 171.736 111.182C172.119 111.584 172.311 112.16 172.311 112.91V117H171.303V113.156C171.303 112.59 171.18 112.17 170.934 111.896C170.691 111.619 170.318 111.48 169.814 111.48C169.307 111.48 168.902 111.641 168.602 111.961C168.305 112.277 168.156 112.711 168.156 113.262V117H167.148ZM176.711 116.016C177.293 116.016 177.75 115.811 178.082 115.4C178.418 114.99 178.586 114.439 178.586 113.748C178.586 113.057 178.418 112.506 178.082 112.096C177.746 111.686 177.289 111.48 176.711 111.48C176.133 111.48 175.684 111.684 175.363 112.09C175.043 112.496 174.883 113.049 174.883 113.748C174.883 114.447 175.043 115 175.363 115.406C175.684 115.812 176.133 116.016 176.711 116.016ZM176.758 119.426C176.004 119.426 175.393 119.27 174.924 118.957C174.459 118.645 174.188 118.225 174.109 117.697H175.176C175.23 117.959 175.396 118.166 175.674 118.318C175.951 118.471 176.312 118.547 176.758 118.547C177.324 118.547 177.766 118.414 178.082 118.148C178.402 117.887 178.562 117.523 178.562 117.059V115.816H178.469C178.27 116.164 177.998 116.434 177.654 116.625C177.311 116.812 176.922 116.906 176.488 116.906C175.676 116.906 175.031 116.619 174.555 116.045C174.078 115.467 173.84 114.701 173.84 113.748C173.84 112.795 174.08 112.027 174.561 111.445C175.041 110.863 175.684 110.572 176.488 110.572C176.93 110.572 177.332 110.674 177.695 110.877C178.059 111.076 178.332 111.346 178.516 111.686H178.609V110.684H179.57V117.111C179.57 117.818 179.316 118.381 178.809 118.799C178.301 119.217 177.617 119.426 176.758 119.426ZM185.277 109.049H186.285V110.684H187.691V111.527H186.285V115.102C186.285 115.473 186.359 115.742 186.508 115.91C186.656 116.078 186.895 116.162 187.223 116.162C187.367 116.162 187.523 116.154 187.691 116.139V116.988C187.469 117.027 187.271 117.047 187.1 117.047C186.447 117.047 185.98 116.916 185.699 116.654C185.418 116.393 185.277 115.961 185.277 115.359V111.527H184.258V110.684H185.277V109.049ZM189.273 117V108.176H190.281V111.68H190.375C190.535 111.324 190.779 111.051 191.107 110.859C191.439 110.668 191.844 110.572 192.32 110.572C192.992 110.572 193.523 110.779 193.914 111.193C194.305 111.604 194.5 112.176 194.5 112.91V117H193.492V113.156C193.492 112.039 193.006 111.48 192.033 111.48C191.479 111.48 191.047 111.643 190.738 111.967C190.434 112.287 190.281 112.719 190.281 113.262V117H189.273ZM198.859 111.463C198.355 111.463 197.941 111.633 197.617 111.973C197.293 112.312 197.111 112.762 197.072 113.32H200.553C200.541 112.762 200.381 112.312 200.072 111.973C199.764 111.633 199.359 111.463 198.859 111.463ZM200.523 115.365H201.531C201.379 115.912 201.068 116.34 200.6 116.648C200.135 116.957 199.559 117.111 198.871 117.111C197.996 117.111 197.303 116.818 196.791 116.232C196.279 115.643 196.023 114.848 196.023 113.848C196.023 112.852 196.281 112.057 196.797 111.463C197.312 110.869 198.004 110.572 198.871 110.572C199.723 110.572 200.393 110.855 200.881 111.422C201.369 111.988 201.613 112.764 201.613 113.748V114.135H197.072V114.182C197.1 114.807 197.275 115.303 197.6 115.67C197.928 116.037 198.359 116.221 198.895 116.221C199.711 116.221 200.254 115.936 200.523 115.365ZM203.195 117V110.684H204.156V111.68H204.25C204.395 111.328 204.619 111.057 204.924 110.865C205.229 110.67 205.592 110.572 206.014 110.572C206.428 110.572 206.783 110.672 207.08 110.871C207.381 111.07 207.607 111.34 207.76 111.68H207.854C208.025 111.34 208.283 111.07 208.627 110.871C208.971 110.672 209.357 110.572 209.787 110.572C210.432 110.572 210.928 110.752 211.275 111.111C211.623 111.467 211.797 111.975 211.797 112.635V117H210.789V112.869C210.789 111.943 210.346 111.48 209.459 111.48C209.029 111.48 208.678 111.621 208.404 111.902C208.131 112.184 207.994 112.529 207.994 112.939V117H206.986V112.711C206.986 112.336 206.865 112.037 206.623 111.814C206.385 111.592 206.066 111.48 205.668 111.48C205.258 111.48 204.91 111.637 204.625 111.949C204.344 112.262 204.203 112.641 204.203 113.086V117H203.195ZM222.133 110.684V117H221.172V116.01H221.078C220.918 116.365 220.672 116.639 220.34 116.83C220.008 117.018 219.602 117.111 219.121 117.111C218.418 117.111 217.883 116.91 217.516 116.508C217.148 116.105 216.965 115.527 216.965 114.773V110.684H217.973V114.527C217.973 115.102 218.086 115.523 218.312 115.793C218.539 116.059 218.902 116.191 219.402 116.191C219.953 116.191 220.377 116.037 220.674 115.729C220.975 115.416 221.125 114.98 221.125 114.422V110.684H222.133ZM227.107 110.572C227.912 110.572 228.555 110.869 229.035 111.463C229.52 112.057 229.762 112.85 229.762 113.842C229.762 114.83 229.52 115.623 229.035 116.221C228.551 116.814 227.908 117.111 227.107 117.111C226.658 117.111 226.26 117.02 225.912 116.836C225.564 116.648 225.305 116.387 225.133 116.051H225.039V119.109H224.031V110.684H224.992V111.738H225.086C225.289 111.375 225.568 111.09 225.924 110.883C226.283 110.676 226.678 110.572 227.107 110.572ZM226.867 116.203C227.445 116.203 227.898 115.994 228.227 115.576C228.555 115.158 228.719 114.58 228.719 113.842C228.719 113.104 228.555 112.525 228.227 112.107C227.902 111.689 227.451 111.48 226.873 111.48C226.303 111.48 225.85 111.693 225.514 112.119C225.178 112.541 225.01 113.115 225.01 113.842C225.01 114.564 225.176 115.139 225.508 115.564C225.844 115.99 226.297 116.203 226.867 116.203ZM233.682 117.111C232.873 117.111 232.229 116.814 231.748 116.221C231.268 115.627 231.027 114.834 231.027 113.842C231.027 112.854 231.268 112.062 231.748 111.469C232.232 110.871 232.877 110.572 233.682 110.572C234.123 110.572 234.518 110.672 234.865 110.871C235.217 111.066 235.482 111.336 235.662 111.68H235.75V108.176H236.758V117H235.797V115.992H235.703C235.504 116.344 235.227 116.619 234.871 116.818C234.516 117.014 234.119 117.111 233.682 117.111ZM233.916 111.48C233.342 111.48 232.891 111.691 232.562 112.113C232.234 112.531 232.07 113.107 232.07 113.842C232.07 114.58 232.232 115.158 232.557 115.576C232.885 115.994 233.338 116.203 233.916 116.203C234.49 116.203 234.943 115.992 235.275 115.57C235.607 115.148 235.773 114.572 235.773 113.842C235.773 113.119 235.605 112.545 235.27 112.119C234.938 111.693 234.486 111.48 233.916 111.48ZM240.66 116.227C241.18 116.227 241.609 116.076 241.949 115.775C242.293 115.475 242.465 115.098 242.465 114.645V114.064L240.766 114.176C240.289 114.207 239.939 114.307 239.717 114.475C239.494 114.643 239.383 114.887 239.383 115.207C239.383 115.523 239.502 115.773 239.74 115.957C239.979 116.137 240.285 116.227 240.66 116.227ZM240.473 117.111C239.852 117.111 239.34 116.941 238.938 116.602C238.539 116.258 238.34 115.801 238.34 115.23C238.34 114.668 238.539 114.227 238.938 113.906C239.336 113.586 239.904 113.404 240.643 113.361L242.465 113.25V112.676C242.465 112.285 242.344 111.986 242.102 111.779C241.859 111.572 241.504 111.469 241.035 111.469C240.656 111.469 240.342 111.537 240.092 111.674C239.842 111.811 239.682 112.004 239.611 112.254H238.592C238.658 111.75 238.918 111.344 239.371 111.035C239.828 110.727 240.395 110.572 241.07 110.572C241.836 110.572 242.428 110.758 242.846 111.129C243.264 111.5 243.473 112.016 243.473 112.676V117H242.512V116.068H242.418C242.215 116.404 241.945 116.662 241.609 116.842C241.273 117.021 240.895 117.111 240.473 117.111ZM245.758 109.049H246.766V110.684H248.172V111.527H246.766V115.102C246.766 115.473 246.84 115.742 246.988 115.91C247.137 116.078 247.375 116.162 247.703 116.162C247.848 116.162 248.004 116.154 248.172 116.139V116.988C247.949 117.027 247.752 117.047 247.58 117.047C246.928 117.047 246.461 116.916 246.18 116.654C245.898 116.393 245.758 115.961 245.758 115.359V111.527H244.738V110.684H245.758V109.049ZM252.121 111.463C251.617 111.463 251.203 111.633 250.879 111.973C250.555 112.312 250.373 112.762 250.334 113.32H253.814C253.803 112.762 253.643 112.312 253.334 111.973C253.025 111.633 252.621 111.463 252.121 111.463ZM253.785 115.365H254.793C254.641 115.912 254.33 116.34 253.861 116.648C253.396 116.957 252.82 117.111 252.133 117.111C251.258 117.111 250.564 116.818 250.053 116.232C249.541 115.643 249.285 114.848 249.285 113.848C249.285 112.852 249.543 112.057 250.059 111.463C250.574 110.869 251.266 110.572 252.133 110.572C252.984 110.572 253.654 110.855 254.143 111.422C254.631 111.988 254.875 112.764 254.875 113.748V114.135H250.334V114.182C250.361 114.807 250.537 115.303 250.861 115.67C251.189 116.037 251.621 116.221 252.156 116.221C252.973 116.221 253.516 115.936 253.785 115.365ZM258.795 117.111C257.986 117.111 257.342 116.814 256.861 116.221C256.381 115.627 256.141 114.834 256.141 113.842C256.141 112.854 256.381 112.062 256.861 111.469C257.346 110.871 257.99 110.572 258.795 110.572C259.236 110.572 259.631 110.672 259.979 110.871C260.33 111.066 260.596 111.336 260.775 111.68H260.863V108.176H261.871V117H260.91V115.992H260.816C260.617 116.344 260.34 116.619 259.984 116.818C259.629 117.014 259.232 117.111 258.795 117.111ZM259.029 111.48C258.455 111.48 258.004 111.691 257.676 112.113C257.348 112.531 257.184 113.107 257.184 113.842C257.184 114.58 257.346 115.158 257.67 115.576C257.998 115.994 258.451 116.203 259.029 116.203C259.604 116.203 260.057 115.992 260.389 115.57C260.721 115.148 260.887 114.572 260.887 113.842C260.887 113.119 260.719 112.545 260.383 112.119C260.051 111.693 259.6 111.48 259.029 111.48ZM275.16 110.684L273.391 117H272.365L270.953 112.113H270.859L269.453 117H268.434L266.664 110.684H267.684L268.926 115.734H269.02L270.432 110.684H271.398L272.811 115.734H272.904L274.146 110.684H275.16ZM276.531 117V110.684H277.539V117H276.531ZM277.533 109.195C277.396 109.332 277.23 109.4 277.035 109.4C276.84 109.4 276.674 109.332 276.537 109.195C276.4 109.055 276.332 108.889 276.332 108.697C276.332 108.506 276.4 108.342 276.537 108.205C276.674 108.064 276.84 107.994 277.035 107.994C277.23 107.994 277.396 108.064 277.533 108.205C277.67 108.342 277.738 108.506 277.738 108.697C277.738 108.889 277.67 109.055 277.533 109.195ZM279.883 109.049H280.891V110.684H282.297V111.527H280.891V115.102C280.891 115.473 280.965 115.742 281.113 115.91C281.262 116.078 281.5 116.162 281.828 116.162C281.973 116.162 282.129 116.154 282.297 116.139V116.988C282.074 117.027 281.877 117.047 281.705 117.047C281.053 117.047 280.586 116.916 280.305 116.654C280.023 116.393 279.883 115.961 279.883 115.359V111.527H278.863V110.684H279.883V109.049ZM283.879 117V108.176H284.887V111.68H284.98C285.141 111.324 285.385 111.051 285.713 110.859C286.045 110.668 286.449 110.572 286.926 110.572C287.598 110.572 288.129 110.779 288.52 111.193C288.91 111.604 289.105 112.176 289.105 112.91V117H288.098V113.156C288.098 112.039 287.611 111.48 286.639 111.48C286.084 111.48 285.652 111.643 285.344 111.967C285.039 112.287 284.887 112.719 284.887 113.262V117H283.879ZM294.391 117V108.176H295.398V117H294.391ZM297.379 117V110.684H298.387V117H297.379ZM298.381 109.195C298.244 109.332 298.078 109.4 297.883 109.4C297.688 109.4 297.521 109.332 297.385 109.195C297.248 109.055 297.18 108.889 297.18 108.697C297.18 108.506 297.248 108.342 297.385 108.205C297.521 108.064 297.688 107.994 297.883 107.994C298.078 107.994 298.244 108.064 298.381 108.205C298.518 108.342 298.586 108.506 298.586 108.697C298.586 108.889 298.518 109.055 298.381 109.195ZM305.465 110.684L303.127 117H302.096L299.758 110.684H300.836L302.564 115.887H302.658L304.387 110.684H305.465ZM309.098 111.463C308.594 111.463 308.18 111.633 307.855 111.973C307.531 112.312 307.35 112.762 307.311 113.32H310.791C310.779 112.762 310.619 112.312 310.311 111.973C310.002 111.633 309.598 111.463 309.098 111.463ZM310.762 115.365H311.77C311.617 115.912 311.307 116.34 310.838 116.648C310.373 116.957 309.797 117.111 309.109 117.111C308.234 117.111 307.541 116.818 307.029 116.232C306.518 115.643 306.262 114.848 306.262 113.848C306.262 112.852 306.52 112.057 307.035 111.463C307.551 110.869 308.242 110.572 309.109 110.572C309.961 110.572 310.631 110.855 311.119 111.422C311.607 111.988 311.852 112.764 311.852 113.748V114.135H307.311V114.182C307.338 114.807 307.514 115.303 307.838 115.67C308.166 116.037 308.598 116.221 309.133 116.221C309.949 116.221 310.492 115.936 310.762 115.365ZM318.766 116.227C319.285 116.227 319.715 116.076 320.055 115.775C320.398 115.475 320.57 115.098 320.57 114.645V114.064L318.871 114.176C318.395 114.207 318.045 114.307 317.822 114.475C317.6 114.643 317.488 114.887 317.488 115.207C317.488 115.523 317.607 115.773 317.846 115.957C318.084 116.137 318.391 116.227 318.766 116.227ZM318.578 117.111C317.957 117.111 317.445 116.941 317.043 116.602C316.645 116.258 316.445 115.801 316.445 115.23C316.445 114.668 316.645 114.227 317.043 113.906C317.441 113.586 318.01 113.404 318.748 113.361L320.57 113.25V112.676C320.57 112.285 320.449 111.986 320.207 111.779C319.965 111.572 319.609 111.469 319.141 111.469C318.762 111.469 318.447 111.537 318.197 111.674C317.947 111.811 317.787 112.004 317.717 112.254H316.697C316.764 111.75 317.023 111.344 317.477 111.035C317.934 110.727 318.5 110.572 319.176 110.572C319.941 110.572 320.533 110.758 320.951 111.129C321.369 111.5 321.578 112.016 321.578 112.676V117H320.617V116.068H320.523C320.32 116.404 320.051 116.662 319.715 116.842C319.379 117.021 319 117.111 318.578 117.111ZM323.863 109.049H324.871V110.684H326.277V111.527H324.871V115.102C324.871 115.473 324.945 115.742 325.094 115.91C325.242 116.078 325.48 116.162 325.809 116.162C325.953 116.162 326.109 116.154 326.277 116.139V116.988C326.055 117.027 325.857 117.047 325.686 117.047C325.033 117.047 324.566 116.916 324.285 116.654C324.004 116.393 323.863 115.961 323.863 115.359V111.527H322.844V110.684H323.863V109.049ZM328.223 109.049H329.23V110.684H330.637V111.527H329.23V115.102C329.23 115.473 329.305 115.742 329.453 115.91C329.602 116.078 329.84 116.162 330.168 116.162C330.312 116.162 330.469 116.154 330.637 116.139V116.988C330.414 117.027 330.217 117.047 330.045 117.047C329.393 117.047 328.926 116.916 328.645 116.654C328.363 116.393 328.223 115.961 328.223 115.359V111.527H327.203V110.684H328.223V109.049ZM334.586 111.463C334.082 111.463 333.668 111.633 333.344 111.973C333.02 112.312 332.838 112.762 332.799 113.32H336.279C336.268 112.762 336.107 112.312 335.799 111.973C335.49 111.633 335.086 111.463 334.586 111.463ZM336.25 115.365H337.258C337.105 115.912 336.795 116.34 336.326 116.648C335.861 116.957 335.285 117.111 334.598 117.111C333.723 117.111 333.029 116.818 332.518 116.232C332.006 115.643 331.75 114.848 331.75 113.848C331.75 112.852 332.008 112.057 332.523 111.463C333.039 110.869 333.73 110.572 334.598 110.572C335.449 110.572 336.119 110.855 336.607 111.422C337.096 111.988 337.34 112.764 337.34 113.748V114.135H332.799V114.182C332.826 114.807 333.002 115.303 333.326 115.67C333.654 116.037 334.086 116.221 334.621 116.221C335.438 116.221 335.98 115.936 336.25 115.365ZM338.922 117V110.684H339.883V111.68H339.977C340.312 110.941 340.945 110.572 341.875 110.572C342.582 110.572 343.127 110.775 343.51 111.182C343.893 111.584 344.084 112.16 344.084 112.91V117H343.076V113.156C343.076 112.59 342.953 112.17 342.707 111.896C342.465 111.619 342.092 111.48 341.588 111.48C341.08 111.48 340.676 111.641 340.375 111.961C340.078 112.277 339.93 112.711 339.93 113.262V117H338.922ZM348.268 117.111C347.459 117.111 346.814 116.814 346.334 116.221C345.854 115.627 345.613 114.834 345.613 113.842C345.613 112.854 345.854 112.062 346.334 111.469C346.818 110.871 347.463 110.572 348.268 110.572C348.709 110.572 349.104 110.672 349.451 110.871C349.803 111.066 350.068 111.336 350.248 111.68H350.336V108.176H351.344V117H350.383V115.992H350.289C350.09 116.344 349.812 116.619 349.457 116.818C349.102 117.014 348.705 117.111 348.268 117.111ZM348.502 111.48C347.928 111.48 347.477 111.691 347.148 112.113C346.82 112.531 346.656 113.107 346.656 113.842C346.656 114.58 346.818 115.158 347.143 115.576C347.471 115.994 347.924 116.203 348.502 116.203C349.076 116.203 349.529 115.992 349.861 115.57C350.193 115.148 350.359 114.572 350.359 113.842C350.359 113.119 350.191 112.545 349.855 112.119C349.523 111.693 349.072 111.48 348.502 111.48ZM355.246 116.227C355.766 116.227 356.195 116.076 356.535 115.775C356.879 115.475 357.051 115.098 357.051 114.645V114.064L355.352 114.176C354.875 114.207 354.525 114.307 354.303 114.475C354.08 114.643 353.969 114.887 353.969 115.207C353.969 115.523 354.088 115.773 354.326 115.957C354.564 116.137 354.871 116.227 355.246 116.227ZM355.059 117.111C354.438 117.111 353.926 116.941 353.523 116.602C353.125 116.258 352.926 115.801 352.926 115.23C352.926 114.668 353.125 114.227 353.523 113.906C353.922 113.586 354.49 113.404 355.229 113.361L357.051 113.25V112.676C357.051 112.285 356.93 111.986 356.688 111.779C356.445 111.572 356.09 111.469 355.621 111.469C355.242 111.469 354.928 111.537 354.678 111.674C354.428 111.811 354.268 112.004 354.197 112.254H353.178C353.244 111.75 353.504 111.344 353.957 111.035C354.414 110.727 354.98 110.572 355.656 110.572C356.422 110.572 357.014 110.758 357.432 111.129C357.85 111.5 358.059 112.016 358.059 112.676V117H357.098V116.068H357.004C356.801 116.404 356.531 116.662 356.195 116.842C355.859 117.021 355.48 117.111 355.059 117.111ZM359.922 117V110.684H360.883V111.68H360.977C361.312 110.941 361.945 110.572 362.875 110.572C363.582 110.572 364.127 110.775 364.51 111.182C364.893 111.584 365.084 112.16 365.084 112.91V117H364.076V113.156C364.076 112.59 363.953 112.17 363.707 111.896C363.465 111.619 363.092 111.48 362.588 111.48C362.08 111.48 361.676 111.641 361.375 111.961C361.078 112.277 360.93 112.711 360.93 113.262V117H359.922ZM372.156 112.617H371.137C371.051 112.285 370.865 112.014 370.58 111.803C370.299 111.588 369.941 111.48 369.508 111.48C368.941 111.48 368.49 111.691 368.154 112.113C367.822 112.535 367.656 113.104 367.656 113.818C367.656 114.545 367.824 115.125 368.16 115.559C368.496 115.988 368.945 116.203 369.508 116.203C369.934 116.203 370.287 116.107 370.568 115.916C370.854 115.725 371.043 115.451 371.137 115.096H372.156C372.062 115.693 371.783 116.18 371.318 116.555C370.854 116.926 370.252 117.111 369.514 117.111C368.627 117.111 367.922 116.814 367.398 116.221C366.875 115.623 366.613 114.822 366.613 113.818C366.613 112.834 366.875 112.047 367.398 111.457C367.922 110.867 368.625 110.572 369.508 110.572C370.246 110.572 370.848 110.766 371.312 111.152C371.781 111.539 372.062 112.027 372.156 112.617ZM376.164 111.463C375.66 111.463 375.246 111.633 374.922 111.973C374.598 112.312 374.416 112.762 374.377 113.32H377.857C377.846 112.762 377.686 112.312 377.377 111.973C377.068 111.633 376.664 111.463 376.164 111.463ZM377.828 115.365H378.836C378.684 115.912 378.373 116.34 377.904 116.648C377.439 116.957 376.863 117.111 376.176 117.111C375.301 117.111 374.607 116.818 374.096 116.232C373.584 115.643 373.328 114.848 373.328 113.848C373.328 112.852 373.586 112.057 374.102 111.463C374.617 110.869 375.309 110.572 376.176 110.572C377.027 110.572 377.697 110.855 378.186 111.422C378.674 111.988 378.918 112.764 378.918 113.748V114.135H374.377V114.182C374.404 114.807 374.58 115.303 374.904 115.67C375.232 116.037 375.664 116.221 376.199 116.221C377.016 116.221 377.559 115.936 377.828 115.365Z" fill="white"/>
</svg>
