<svg width="414" height="180" viewBox="0 0 414 180" fill="none" xmlns="http://www.w3.org/2000/svg">
<rect width="414" height="180" fill="#9C27B0"/>
<g opacity="0.6">
<rect x="132.364" y="18" width="43.6364" height="43.6364" fill="white" fill-opacity="0.06"/>
<rect x="107.818" y="47.4546" width="35.4545" height="36" fill="white" fill-opacity="0.06"/>
<rect x="278" y="139.091" width="22.9091" height="22.9091" fill="white" fill-opacity="0.08"/>
<circle cx="332.273" cy="45" r="27" fill="white" fill-opacity="0.06"/>
<ellipse cx="312.091" cy="65.4546" rx="17.7273" ry="18" fill="white" fill-opacity="0.06"/>
<ellipse cx="233.818" cy="135.545" rx="8.72727" ry="8.45455" fill="white" fill-opacity="0.08"/>
<g opacity="0.15">
<path fill-rule="evenodd" clip-rule="evenodd" d="M366.8 115.357L384.233 97.9233C384.577 97.5794 385.136 97.5813 385.483 97.9274L393.004 105.448C394.042 106.487 394.048 108.165 393.016 109.197L375.583 126.63C375.239 126.974 374.68 126.972 374.333 126.626L366.812 119.105C365.774 118.066 365.768 116.388 366.8 115.357Z" fill="#EEEEEE" fill-opacity="0.6"/>
<path fill-rule="evenodd" clip-rule="evenodd" d="M382.419 114.783L366.751 99.1147C365.712 98.0763 365.707 96.3982 366.738 95.3666L374.21 87.8952C374.553 87.5514 375.113 87.5532 375.459 87.8994L393.008 105.448C394.046 106.487 394.052 108.165 393.02 109.196L385.549 116.668L383.058 119.158C384.09 118.127 384.084 116.449 383.046 115.41L382.419 114.783Z" fill="white"/>
</g>
</g>
<path d="M98.5 65.625H53.5C50.3985 65.625 47.875 68.1485 47.875 71.25V126.375C47.875 129.476 50.3985 132 53.5 132H98.5C101.601 132 104.125 129.476 104.125 126.375V71.25C104.125 68.1485 101.601 65.625 98.5 65.625Z" fill="#D663E9"/>
<path d="M98.4438 70.125C99.0961 70.125 99.625 70.6493 99.625 71.296V126.329C99.625 126.976 99.0961 127.5 98.4438 127.5H53.5563C52.9039 127.5 52.375 126.976 52.375 126.329V71.2958C52.375 70.6492 52.9039 70.125 53.5563 70.125H98.4438Z" fill="white"/>
<path d="M68.125 90.375H61.375C60.1347 90.375 59.125 89.3653 59.125 88.125V81.375C59.125 80.1347 60.1347 79.125 61.375 79.125H68.125C69.3653 79.125 70.375 80.1347 70.375 81.375V88.125C70.375 89.3653 69.3653 90.375 68.125 90.375ZM61.375 81.375V88.125H68.1273L68.125 81.375H61.375Z" fill="#B4B6BC"/>
<path d="M77.125 82.5H73.75C73.1282 82.5 72.625 81.9968 72.625 81.375C72.625 80.7532 73.1282 80.25 73.75 80.25H77.125C77.7468 80.25 78.25 80.7532 78.25 81.375C78.25 81.9968 77.7468 82.5 77.125 82.5Z" fill="#5C546A"/>
<path d="M90.625 87H73.75C73.1282 87 72.625 86.4968 72.625 85.875C72.625 85.2532 73.1282 84.75 73.75 84.75H90.625C91.2468 84.75 91.75 85.2532 91.75 85.875C91.75 86.4968 91.2468 87 90.625 87Z" fill="#868491"/>
<path d="M85 98.25H73.75C73.1282 98.25 72.625 97.7468 72.625 97.125C72.625 96.5032 73.1282 96 73.75 96H85C85.6218 96 86.125 96.5032 86.125 97.125C86.125 97.7468 85.6218 98.25 85 98.25Z" fill="#5C546A"/>
<path d="M90.625 102.75H73.75C73.1282 102.75 72.625 102.247 72.625 101.625C72.625 101.003 73.1282 100.5 73.75 100.5H90.625C91.2468 100.5 91.75 101.003 91.75 101.625C91.75 102.247 91.2468 102.75 90.625 102.75Z" fill="#868491"/>
<path d="M78.25 112.875H73.75C73.1282 112.875 72.625 112.372 72.625 111.75C72.625 111.128 73.1282 110.625 73.75 110.625H78.25C78.8718 110.625 79.375 111.128 79.375 111.75C79.375 112.372 78.8718 112.875 78.25 112.875Z" fill="#5C546A"/>
<path d="M90.625 117.375H73.75C73.1282 117.375 72.625 116.872 72.625 116.25C72.625 115.628 73.1282 115.125 73.75 115.125H90.625C91.2468 115.125 91.75 115.628 91.75 116.25C91.75 116.872 91.2468 117.375 90.625 117.375Z" fill="#868491"/>
<path d="M80.5 65.625C79.8782 65.625 79.375 65.1218 79.375 64.5V63.375C79.375 62.7543 78.8707 62.25 78.25 62.25H73.75C73.1293 62.25 72.625 62.7543 72.625 63.375V64.5C72.625 65.1218 72.1218 65.625 71.5 65.625C70.8782 65.625 70.375 65.1218 70.375 64.5V63.375C70.375 61.514 71.889 60 73.75 60H78.25C80.111 60 81.625 61.514 81.625 63.375V64.5C81.625 65.1218 81.1218 65.625 80.5 65.625Z" fill="#A0A0A3"/>
<path d="M88.375 63.375H63.625C63.0037 63.375 62.5 63.8787 62.5 64.5V67.875C62.5 70.9815 65.0185 73.5 68.125 73.5H83.875C86.9815 73.5 89.5 70.9815 89.5 67.875V64.5C89.5 63.8787 88.9963 63.375 88.375 63.375Z" fill="#BDBEC3"/>
<path d="M68.125 105H61.375C60.1347 105 59.125 103.99 59.125 102.75V96C59.125 94.7597 60.1347 93.75 61.375 93.75H68.125C69.3653 93.75 70.375 94.7597 70.375 96V102.75C70.375 103.99 69.3653 105 68.125 105ZM61.375 96V102.75H68.1273L68.125 96H61.375Z" fill="#B4B6BC"/>
<path d="M68.125 119.625H61.375C60.1347 119.625 59.125 118.615 59.125 117.375V110.625C59.125 109.385 60.1347 108.375 61.375 108.375H68.125C69.3653 108.375 70.375 109.385 70.375 110.625V117.375C70.375 118.615 69.3653 119.625 68.125 119.625ZM61.375 110.625V117.375H68.1273L68.125 110.625H61.375Z" fill="#B4B6BC"/>
<path d="M65.875 101.625C65.5871 101.625 65.2992 101.515 65.0796 101.295L62.8296 99.0455C62.3901 98.606 62.3901 97.894 62.8296 97.4546C63.269 97.0151 63.981 97.0151 64.4205 97.4546L65.875 98.9092L70.7046 94.0796C71.144 93.6401 71.856 93.6401 72.2955 94.0796C72.7349 94.519 72.7349 95.2309 72.2955 95.6703L66.6705 101.295C66.4507 101.515 66.1628 101.625 65.875 101.625Z" fill="#FF4F19"/>
<path d="M143.822 64.5566C139.73 64.5566 137.143 67.3984 137.143 71.9492C137.143 76.5 139.682 79.3516 143.822 79.3516C147.934 79.3516 150.473 76.4902 150.473 71.9492C150.473 67.3984 147.914 64.5566 143.822 64.5566ZM143.822 66.793C146.322 66.793 147.895 68.7949 147.895 71.9492C147.895 75.0938 146.332 77.1152 143.822 77.1152C141.273 77.1152 139.721 75.0938 139.721 71.9492C139.721 68.7949 141.312 66.793 143.822 66.793ZM153.109 79H155.531V72.7793C155.531 71.207 156.439 70.2109 157.885 70.2109C159.359 70.2109 160.043 71.0312 160.043 72.6621V79H162.465V72.0859C162.465 69.5371 161.166 68.1016 158.783 68.1016C157.191 68.1016 156.117 68.834 155.609 70.0254H155.443V68.3164H153.109V79ZM165.434 79H167.855V64.1855H165.434V79ZM170.951 79H173.363V68.3164H170.951V79ZM172.152 66.5781C173.041 66.5781 173.646 66.0117 173.646 65.2402C173.646 64.4688 173.041 63.9023 172.152 63.9023C171.273 63.9023 170.658 64.4688 170.658 65.2402C170.658 66.0117 171.273 66.5781 172.152 66.5781ZM176.371 79H178.793V72.7793C178.793 71.207 179.701 70.2109 181.146 70.2109C182.621 70.2109 183.305 71.0312 183.305 72.6621V79H185.727V72.0859C185.727 69.5371 184.428 68.1016 182.045 68.1016C180.453 68.1016 179.379 68.834 178.871 70.0254H178.705V68.3164H176.371V79ZM193.08 70.0254C194.535 70.0254 195.492 71.041 195.541 72.623H190.512C190.619 71.0605 191.635 70.0254 193.08 70.0254ZM195.561 76.0605C195.209 76.8516 194.379 77.291 193.178 77.291C191.586 77.291 190.561 76.1777 190.502 74.4004V74.2734H197.963V73.4922C197.963 70.123 196.137 68.1016 193.09 68.1016C189.994 68.1016 188.07 70.2598 188.07 73.6973C188.07 77.1348 189.965 79.2148 193.109 79.2148C195.629 79.2148 197.396 78.0039 197.855 76.0605H195.561ZM212.006 79V67.0859H216.352V64.9082H205.15V67.0859H209.486V79H212.006ZM221.322 70.0254C222.777 70.0254 223.734 71.041 223.783 72.623H218.754C218.861 71.0605 219.877 70.0254 221.322 70.0254ZM223.803 76.0605C223.451 76.8516 222.621 77.291 221.42 77.291C219.828 77.291 218.803 76.1777 218.744 74.4004V74.2734H226.205V73.4922C226.205 70.123 224.379 68.1016 221.332 68.1016C218.236 68.1016 216.312 70.2598 216.312 73.6973C216.312 77.1348 218.207 79.2148 221.352 79.2148C223.871 79.2148 225.639 78.0039 226.098 76.0605H223.803ZM228.393 71.373C228.393 72.9844 229.359 73.9316 231.41 74.4004L233.305 74.8398C234.32 75.0645 234.779 75.4453 234.779 76.0508C234.779 76.8418 233.93 77.3789 232.709 77.3789C231.498 77.3789 230.746 76.9102 230.512 76.1191H228.119C228.305 78.0625 229.984 79.2148 232.65 79.2148C235.316 79.2148 237.201 77.8477 237.201 75.7969C237.201 74.2246 236.254 73.3457 234.213 72.8867L232.328 72.457C231.254 72.2129 230.746 71.8418 230.746 71.2363C230.746 70.4648 231.576 69.9375 232.68 69.9375C233.812 69.9375 234.525 70.416 234.701 71.168H236.977C236.801 69.2246 235.209 68.1016 232.67 68.1016C230.15 68.1016 228.393 69.4395 228.393 71.373ZM240.346 65.6992V68.3848H238.656V70.3184H240.346V76.1484C240.346 78.2188 241.322 79.0488 243.773 79.0488C244.242 79.0488 244.691 79 245.043 78.9316V77.0371C244.75 77.0664 244.564 77.0859 244.223 77.0859C243.207 77.0859 242.758 76.6172 242.758 75.5625V70.3184H245.043V68.3848H242.758V65.6992H240.346ZM247.084 71.373C247.084 72.9844 248.051 73.9316 250.102 74.4004L251.996 74.8398C253.012 75.0645 253.471 75.4453 253.471 76.0508C253.471 76.8418 252.621 77.3789 251.4 77.3789C250.189 77.3789 249.438 76.9102 249.203 76.1191H246.811C246.996 78.0625 248.676 79.2148 251.342 79.2148C254.008 79.2148 255.893 77.8477 255.893 75.7969C255.893 74.2246 254.945 73.3457 252.904 72.8867L251.02 72.457C249.945 72.2129 249.438 71.8418 249.438 71.2363C249.438 70.4648 250.268 69.9375 251.371 69.9375C252.504 69.9375 253.217 70.416 253.393 71.168H255.668C255.492 69.2246 253.9 68.1016 251.361 68.1016C248.842 68.1016 247.084 69.4395 247.084 71.373Z" fill="white"/>
<path d="M140.482 103.199C139.334 103.199 138.424 102.803 137.752 102.01C137.084 101.217 136.75 100.139 136.75 98.7754C136.75 97.4121 137.084 96.334 137.752 95.541C138.42 94.7441 139.328 94.3457 140.477 94.3457C141.367 94.3457 142.129 94.5996 142.762 95.1074C143.395 95.6152 143.773 96.2773 143.898 97.0938H142.826C142.686 96.5469 142.404 96.1152 141.982 95.7988C141.561 95.4785 141.059 95.3184 140.477 95.3184C139.664 95.3184 139.02 95.6289 138.543 96.25C138.07 96.8711 137.834 97.7129 137.834 98.7754C137.834 99.8379 138.072 100.68 138.549 101.301C139.025 101.918 139.67 102.227 140.482 102.227C141.072 102.227 141.576 102.086 141.994 101.805C142.416 101.52 142.693 101.133 142.826 100.645H143.898C143.758 101.422 143.377 102.043 142.756 102.508C142.139 102.969 141.381 103.199 140.482 103.199ZM150.262 102.238C149.742 102.82 149.033 103.111 148.135 103.111C147.236 103.111 146.525 102.82 146.002 102.238C145.482 101.652 145.223 100.854 145.223 99.8418C145.223 98.8262 145.482 98.0273 146.002 97.4453C146.521 96.8633 147.232 96.5723 148.135 96.5723C149.037 96.5723 149.748 96.8633 150.268 97.4453C150.787 98.0273 151.047 98.8262 151.047 99.8418C151.047 100.854 150.785 101.652 150.262 102.238ZM146.752 101.588C147.076 101.998 147.537 102.203 148.135 102.203C148.732 102.203 149.193 101.998 149.518 101.588C149.842 101.174 150.004 100.592 150.004 99.8418C150.004 99.0918 149.842 98.5117 149.518 98.1016C149.193 97.6875 148.732 97.4805 148.135 97.4805C147.537 97.4805 147.076 97.6875 146.752 98.1016C146.428 98.5117 146.266 99.0918 146.266 99.8418C146.266 100.592 146.428 101.174 146.752 101.588ZM152.629 103V96.6836H153.59V97.6797H153.684C154.02 96.9414 154.652 96.5723 155.582 96.5723C156.289 96.5723 156.834 96.7754 157.217 97.1816C157.6 97.584 157.791 98.1602 157.791 98.9102V103H156.783V99.1562C156.783 98.5898 156.66 98.1699 156.414 97.8965C156.172 97.6191 155.799 97.4805 155.295 97.4805C154.787 97.4805 154.383 97.6406 154.082 97.9609C153.785 98.2773 153.637 98.7109 153.637 99.2617V103H152.629ZM161.975 103.111C161.166 103.111 160.521 102.814 160.041 102.221C159.561 101.627 159.32 100.834 159.32 99.8418C159.32 98.8535 159.561 98.0625 160.041 97.4688C160.525 96.8711 161.17 96.5723 161.975 96.5723C162.416 96.5723 162.811 96.6719 163.158 96.8711C163.51 97.0664 163.775 97.3359 163.955 97.6797H164.043V94.1758H165.051V103H164.09V101.992H163.996C163.797 102.344 163.52 102.619 163.164 102.818C162.809 103.014 162.412 103.111 161.975 103.111ZM162.209 97.4805C161.635 97.4805 161.184 97.6914 160.855 98.1133C160.527 98.5312 160.363 99.1074 160.363 99.8418C160.363 100.58 160.525 101.158 160.85 101.576C161.178 101.994 161.631 102.203 162.209 102.203C162.783 102.203 163.236 101.992 163.568 101.57C163.9 101.148 164.066 100.572 164.066 99.8418C164.066 99.1191 163.898 98.5449 163.562 98.1191C163.23 97.6934 162.779 97.4805 162.209 97.4805ZM172.117 96.6836V103H171.156V102.01H171.062C170.902 102.365 170.656 102.639 170.324 102.83C169.992 103.018 169.586 103.111 169.105 103.111C168.402 103.111 167.867 102.91 167.5 102.508C167.133 102.105 166.949 101.527 166.949 100.773V96.6836H167.957V100.527C167.957 101.102 168.07 101.523 168.297 101.793C168.523 102.059 168.887 102.191 169.387 102.191C169.938 102.191 170.361 102.037 170.658 101.729C170.959 101.416 171.109 100.98 171.109 100.422V96.6836H172.117ZM179.242 98.6172H178.223C178.137 98.2852 177.951 98.0137 177.666 97.8027C177.385 97.5879 177.027 97.4805 176.594 97.4805C176.027 97.4805 175.576 97.6914 175.24 98.1133C174.908 98.5352 174.742 99.1035 174.742 99.8184C174.742 100.545 174.91 101.125 175.246 101.559C175.582 101.988 176.031 102.203 176.594 102.203C177.02 102.203 177.373 102.107 177.654 101.916C177.939 101.725 178.129 101.451 178.223 101.096H179.242C179.148 101.693 178.869 102.18 178.404 102.555C177.939 102.926 177.338 103.111 176.6 103.111C175.713 103.111 175.008 102.814 174.484 102.221C173.961 101.623 173.699 100.822 173.699 99.8184C173.699 98.834 173.961 98.0469 174.484 97.457C175.008 96.8672 175.711 96.5723 176.594 96.5723C177.332 96.5723 177.934 96.7656 178.398 97.1523C178.867 97.5391 179.148 98.0273 179.242 98.6172ZM181.27 95.0488H182.277V96.6836H183.684V97.5273H182.277V101.102C182.277 101.473 182.352 101.742 182.5 101.91C182.648 102.078 182.887 102.162 183.215 102.162C183.359 102.162 183.516 102.154 183.684 102.139V102.988C183.461 103.027 183.264 103.047 183.092 103.047C182.439 103.047 181.973 102.916 181.691 102.654C181.41 102.393 181.27 101.961 181.27 101.359V97.5273H180.25V96.6836H181.27V95.0488ZM193.316 102.238C192.797 102.82 192.088 103.111 191.189 103.111C190.291 103.111 189.58 102.82 189.057 102.238C188.537 101.652 188.277 100.854 188.277 99.8418C188.277 98.8262 188.537 98.0273 189.057 97.4453C189.576 96.8633 190.287 96.5723 191.189 96.5723C192.092 96.5723 192.803 96.8633 193.322 97.4453C193.842 98.0273 194.102 98.8262 194.102 99.8418C194.102 100.854 193.84 101.652 193.316 102.238ZM189.807 101.588C190.131 101.998 190.592 102.203 191.189 102.203C191.787 102.203 192.248 101.998 192.572 101.588C192.896 101.174 193.059 100.592 193.059 99.8418C193.059 99.0918 192.896 98.5117 192.572 98.1016C192.248 97.6875 191.787 97.4805 191.189 97.4805C190.592 97.4805 190.131 97.6875 189.807 98.1016C189.482 98.5117 189.32 99.0918 189.32 99.8418C189.32 100.592 189.482 101.174 189.807 101.588ZM195.684 103V96.6836H196.645V97.6797H196.738C197.074 96.9414 197.707 96.5723 198.637 96.5723C199.344 96.5723 199.889 96.7754 200.271 97.1816C200.654 97.584 200.846 98.1602 200.846 98.9102V103H199.838V99.1562C199.838 98.5898 199.715 98.1699 199.469 97.8965C199.227 97.6191 198.854 97.4805 198.35 97.4805C197.842 97.4805 197.438 97.6406 197.137 97.9609C196.84 98.2773 196.691 98.7109 196.691 99.2617V103H195.684ZM202.75 103V94.1758H203.758V103H202.75ZM205.738 103V96.6836H206.746V103H205.738ZM206.74 95.1953C206.604 95.332 206.438 95.4004 206.242 95.4004C206.047 95.4004 205.881 95.332 205.744 95.1953C205.607 95.0547 205.539 94.8887 205.539 94.6973C205.539 94.5059 205.607 94.3418 205.744 94.2051C205.881 94.0645 206.047 93.9941 206.242 93.9941C206.438 93.9941 206.604 94.0645 206.74 94.2051C206.877 94.3418 206.945 94.5059 206.945 94.6973C206.945 94.8887 206.877 95.0547 206.74 95.1953ZM208.668 103V96.6836H209.629V97.6797H209.723C210.059 96.9414 210.691 96.5723 211.621 96.5723C212.328 96.5723 212.873 96.7754 213.256 97.1816C213.639 97.584 213.83 98.1602 213.83 98.9102V103H212.822V99.1562C212.822 98.5898 212.699 98.1699 212.453 97.8965C212.211 97.6191 211.838 97.4805 211.334 97.4805C210.826 97.4805 210.422 97.6406 210.121 97.9609C209.824 98.2773 209.676 98.7109 209.676 99.2617V103H208.668ZM218.195 97.4629C217.691 97.4629 217.277 97.6328 216.953 97.9727C216.629 98.3125 216.447 98.7617 216.408 99.3203H219.889C219.877 98.7617 219.717 98.3125 219.408 97.9727C219.1 97.6328 218.695 97.4629 218.195 97.4629ZM219.859 101.365H220.867C220.715 101.912 220.404 102.34 219.936 102.648C219.471 102.957 218.895 103.111 218.207 103.111C217.332 103.111 216.639 102.818 216.127 102.232C215.615 101.643 215.359 100.848 215.359 99.8477C215.359 98.8516 215.617 98.0566 216.133 97.4629C216.648 96.8691 217.34 96.5723 218.207 96.5723C219.059 96.5723 219.729 96.8555 220.217 97.4219C220.705 97.9883 220.949 98.7637 220.949 99.748V100.135H216.408V100.182C216.436 100.807 216.611 101.303 216.936 101.67C217.264 102.037 217.695 102.221 218.23 102.221C219.047 102.221 219.59 101.936 219.859 101.365ZM226.34 95.0488H227.348V96.6836H228.754V97.5273H227.348V101.102C227.348 101.473 227.422 101.742 227.57 101.91C227.719 102.078 227.957 102.162 228.285 102.162C228.43 102.162 228.586 102.154 228.754 102.139V102.988C228.531 103.027 228.334 103.047 228.162 103.047C227.51 103.047 227.043 102.916 226.762 102.654C226.48 102.393 226.34 101.961 226.34 101.359V97.5273H225.32V96.6836H226.34V95.0488ZM232.703 97.4629C232.199 97.4629 231.785 97.6328 231.461 97.9727C231.137 98.3125 230.955 98.7617 230.916 99.3203H234.396C234.385 98.7617 234.225 98.3125 233.916 97.9727C233.607 97.6328 233.203 97.4629 232.703 97.4629ZM234.367 101.365H235.375C235.223 101.912 234.912 102.34 234.443 102.648C233.979 102.957 233.402 103.111 232.715 103.111C231.84 103.111 231.146 102.818 230.635 102.232C230.123 101.643 229.867 100.848 229.867 99.8477C229.867 98.8516 230.125 98.0566 230.641 97.4629C231.156 96.8691 231.848 96.5723 232.715 96.5723C233.566 96.5723 234.236 96.8555 234.725 97.4219C235.213 97.9883 235.457 98.7637 235.457 99.748V100.135H230.916V100.182C230.943 100.807 231.119 101.303 231.443 101.67C231.771 102.037 232.203 102.221 232.738 102.221C233.555 102.221 234.098 101.936 234.367 101.365ZM236.893 98.4121C236.893 97.8887 237.117 97.4512 237.566 97.0996C238.016 96.748 238.576 96.5723 239.248 96.5723C239.908 96.5723 240.453 96.7246 240.883 97.0293C241.312 97.334 241.561 97.7461 241.627 98.2656H240.631C240.561 98.0078 240.404 97.8047 240.162 97.6562C239.924 97.5039 239.617 97.4277 239.242 97.4277C238.863 97.4277 238.545 97.5156 238.287 97.6914C238.033 97.8672 237.906 98.0938 237.906 98.3711C237.906 98.5859 237.994 98.7656 238.17 98.9102C238.35 99.0508 238.627 99.166 239.002 99.2559L239.975 99.4902C240.576 99.6348 241.02 99.8438 241.305 100.117C241.594 100.391 241.738 100.752 241.738 101.201C241.738 101.76 241.498 102.219 241.018 102.578C240.537 102.934 239.934 103.111 239.207 103.111C238.504 103.111 237.928 102.955 237.479 102.643C237.029 102.33 236.777 101.912 236.723 101.389H237.76C237.846 101.662 238.016 101.877 238.27 102.033C238.523 102.186 238.848 102.262 239.242 102.262C239.668 102.262 240.018 102.17 240.291 101.986C240.564 101.803 240.701 101.566 240.701 101.277C240.701 100.848 240.367 100.551 239.699 100.387L238.615 100.123C238.018 99.9785 237.58 99.7715 237.303 99.502C237.029 99.2285 236.893 98.8652 236.893 98.4121ZM243.684 95.0488H244.691V96.6836H246.098V97.5273H244.691V101.102C244.691 101.473 244.766 101.742 244.914 101.91C245.062 102.078 245.301 102.162 245.629 102.162C245.773 102.162 245.93 102.154 246.098 102.139V102.988C245.875 103.027 245.678 103.047 245.506 103.047C244.854 103.047 244.387 102.916 244.105 102.654C243.824 102.393 243.684 101.961 243.684 101.359V97.5273H242.664V96.6836H243.684V95.0488ZM247.357 98.4121C247.357 97.8887 247.582 97.4512 248.031 97.0996C248.48 96.748 249.041 96.5723 249.713 96.5723C250.373 96.5723 250.918 96.7246 251.348 97.0293C251.777 97.334 252.025 97.7461 252.092 98.2656H251.096C251.025 98.0078 250.869 97.8047 250.627 97.6562C250.389 97.5039 250.082 97.4277 249.707 97.4277C249.328 97.4277 249.01 97.5156 248.752 97.6914C248.498 97.8672 248.371 98.0938 248.371 98.3711C248.371 98.5859 248.459 98.7656 248.635 98.9102C248.814 99.0508 249.092 99.166 249.467 99.2559L250.439 99.4902C251.041 99.6348 251.484 99.8438 251.77 100.117C252.059 100.391 252.203 100.752 252.203 101.201C252.203 101.76 251.963 102.219 251.482 102.578C251.002 102.934 250.398 103.111 249.672 103.111C248.969 103.111 248.393 102.955 247.943 102.643C247.494 102.33 247.242 101.912 247.188 101.389H248.225C248.311 101.662 248.48 101.877 248.734 102.033C248.988 102.186 249.312 102.262 249.707 102.262C250.133 102.262 250.482 102.17 250.756 101.986C251.029 101.803 251.166 101.566 251.166 101.277C251.166 100.848 250.832 100.551 250.164 100.387L249.08 100.123C248.482 99.9785 248.045 99.7715 247.768 99.502C247.494 99.2285 247.357 98.8652 247.357 98.4121ZM257.195 103V96.6836H258.203V103H257.195ZM258.197 95.1953C258.061 95.332 257.895 95.4004 257.699 95.4004C257.504 95.4004 257.338 95.332 257.201 95.1953C257.064 95.0547 256.996 94.8887 256.996 94.6973C256.996 94.5059 257.064 94.3418 257.201 94.2051C257.338 94.0645 257.504 93.9941 257.699 93.9941C257.895 93.9941 258.061 94.0645 258.197 94.2051C258.334 94.3418 258.402 94.5059 258.402 94.6973C258.402 94.8887 258.334 95.0547 258.197 95.1953ZM260.125 103V96.6836H261.086V97.6797H261.18C261.516 96.9414 262.148 96.5723 263.078 96.5723C263.785 96.5723 264.33 96.7754 264.713 97.1816C265.096 97.584 265.287 98.1602 265.287 98.9102V103H264.279V99.1562C264.279 98.5898 264.156 98.1699 263.91 97.8965C263.668 97.6191 263.295 97.4805 262.791 97.4805C262.283 97.4805 261.879 97.6406 261.578 97.9609C261.281 98.2773 261.133 98.7109 261.133 99.2617V103H260.125ZM271.059 105.285C270.898 105.285 270.748 105.273 270.607 105.25V104.389C270.709 104.408 270.85 104.418 271.029 104.418C271.322 104.418 271.555 104.34 271.727 104.184C271.902 104.027 272.057 103.76 272.189 103.381L272.307 103.006L269.969 96.6836H271.059L272.793 101.881H272.887L274.615 96.6836H275.688L273.221 103.387C272.951 104.117 272.664 104.615 272.359 104.881C272.055 105.15 271.621 105.285 271.059 105.285ZM281.523 102.238C281.004 102.82 280.295 103.111 279.396 103.111C278.498 103.111 277.787 102.82 277.264 102.238C276.744 101.652 276.484 100.854 276.484 99.8418C276.484 98.8262 276.744 98.0273 277.264 97.4453C277.783 96.8633 278.494 96.5723 279.396 96.5723C280.299 96.5723 281.01 96.8633 281.529 97.4453C282.049 98.0273 282.309 98.8262 282.309 99.8418C282.309 100.854 282.047 101.652 281.523 102.238ZM278.014 101.588C278.338 101.998 278.799 102.203 279.396 102.203C279.994 102.203 280.455 101.998 280.779 101.588C281.104 101.174 281.266 100.592 281.266 99.8418C281.266 99.0918 281.104 98.5117 280.779 98.1016C280.455 97.6875 279.994 97.4805 279.396 97.4805C278.799 97.4805 278.338 97.6875 278.014 98.1016C277.689 98.5117 277.527 99.0918 277.527 99.8418C277.527 100.592 277.689 101.174 278.014 101.588ZM289 96.6836V103H288.039V102.01H287.945C287.785 102.365 287.539 102.639 287.207 102.83C286.875 103.018 286.469 103.111 285.988 103.111C285.285 103.111 284.75 102.91 284.383 102.508C284.016 102.105 283.832 101.527 283.832 100.773V96.6836H284.84V100.527C284.84 101.102 284.953 101.523 285.18 101.793C285.406 102.059 285.77 102.191 286.27 102.191C286.82 102.191 287.244 102.037 287.541 101.729C287.842 101.416 287.992 100.98 287.992 100.422V96.6836H289ZM290.898 103V96.6836H291.859V97.6211H291.953C292.047 97.3125 292.258 97.0605 292.586 96.8652C292.914 96.6699 293.287 96.5723 293.705 96.5723C293.896 96.5723 294.064 96.582 294.209 96.6016V97.6094C294.072 97.5703 293.857 97.5508 293.564 97.5508C293.084 97.5508 292.688 97.6953 292.375 97.9844C292.062 98.2734 291.906 98.6406 291.906 99.0859V103H290.898ZM303.578 102.238C303.059 102.82 302.35 103.111 301.451 103.111C300.553 103.111 299.842 102.82 299.318 102.238C298.799 101.652 298.539 100.854 298.539 99.8418C298.539 98.8262 298.799 98.0273 299.318 97.4453C299.838 96.8633 300.549 96.5723 301.451 96.5723C302.354 96.5723 303.064 96.8633 303.584 97.4453C304.104 98.0273 304.363 98.8262 304.363 99.8418C304.363 100.854 304.102 101.652 303.578 102.238ZM300.068 101.588C300.393 101.998 300.854 102.203 301.451 102.203C302.049 102.203 302.51 101.998 302.834 101.588C303.158 101.174 303.32 100.592 303.32 99.8418C303.32 99.0918 303.158 98.5117 302.834 98.1016C302.51 97.6875 302.049 97.4805 301.451 97.4805C300.854 97.4805 300.393 97.6875 300.068 98.1016C299.744 98.5117 299.582 99.0918 299.582 99.8418C299.582 100.592 299.744 101.174 300.068 101.588ZM313.656 96.6836L311.887 103H310.861L309.449 98.1133H309.355L307.949 103H306.93L305.16 96.6836H306.18L307.422 101.734H307.516L308.928 96.6836H309.895L311.307 101.734H311.4L312.643 96.6836H313.656ZM315.004 103V96.6836H315.965V97.6797H316.059C316.395 96.9414 317.027 96.5723 317.957 96.5723C318.664 96.5723 319.209 96.7754 319.592 97.1816C319.975 97.584 320.166 98.1602 320.166 98.9102V103H319.158V99.1562C319.158 98.5898 319.035 98.1699 318.789 97.8965C318.547 97.6191 318.174 97.4805 317.67 97.4805C317.162 97.4805 316.758 97.6406 316.457 97.9609C316.16 98.2773 316.012 98.7109 316.012 99.2617V103H315.004ZM327.344 102.227C327.863 102.227 328.293 102.076 328.633 101.775C328.977 101.475 329.148 101.098 329.148 100.645V100.064L327.449 100.176C326.973 100.207 326.623 100.307 326.4 100.475C326.178 100.643 326.066 100.887 326.066 101.207C326.066 101.523 326.186 101.773 326.424 101.957C326.662 102.137 326.969 102.227 327.344 102.227ZM327.156 103.111C326.535 103.111 326.023 102.941 325.621 102.602C325.223 102.258 325.023 101.801 325.023 101.23C325.023 100.668 325.223 100.227 325.621 99.9062C326.02 99.5859 326.588 99.4043 327.326 99.3613L329.148 99.25V98.6758C329.148 98.2852 329.027 97.9863 328.785 97.7793C328.543 97.5723 328.188 97.4688 327.719 97.4688C327.34 97.4688 327.025 97.5371 326.775 97.6738C326.525 97.8105 326.365 98.0039 326.295 98.2539H325.275C325.342 97.75 325.602 97.3438 326.055 97.0352C326.512 96.7266 327.078 96.5723 327.754 96.5723C328.52 96.5723 329.111 96.7578 329.529 97.1289C329.947 97.5 330.156 98.0156 330.156 98.6758V103H329.195V102.068H329.102C328.898 102.404 328.629 102.662 328.293 102.842C327.957 103.021 327.578 103.111 327.156 103.111ZM335.096 96.5723C335.9 96.5723 336.543 96.8691 337.023 97.4629C337.508 98.0566 337.75 98.8496 337.75 99.8418C337.75 100.83 337.508 101.623 337.023 102.221C336.539 102.814 335.896 103.111 335.096 103.111C334.646 103.111 334.248 103.02 333.9 102.836C333.553 102.648 333.293 102.387 333.121 102.051H333.027V105.109H332.02V96.6836H332.98V97.7383H333.074C333.277 97.375 333.557 97.0898 333.912 96.8828C334.271 96.6758 334.666 96.5723 335.096 96.5723ZM334.855 102.203C335.434 102.203 335.887 101.994 336.215 101.576C336.543 101.158 336.707 100.58 336.707 99.8418C336.707 99.1035 336.543 98.5254 336.215 98.1074C335.891 97.6895 335.439 97.4805 334.861 97.4805C334.291 97.4805 333.838 97.6934 333.502 98.1191C333.166 98.541 332.998 99.1152 332.998 99.8418C332.998 100.564 333.164 101.139 333.496 101.564C333.832 101.99 334.285 102.203 334.855 102.203ZM342.408 96.5723C343.213 96.5723 343.855 96.8691 344.336 97.4629C344.82 98.0566 345.062 98.8496 345.062 99.8418C345.062 100.83 344.82 101.623 344.336 102.221C343.852 102.814 343.209 103.111 342.408 103.111C341.959 103.111 341.561 103.02 341.213 102.836C340.865 102.648 340.605 102.387 340.434 102.051H340.34V105.109H339.332V96.6836H340.293V97.7383H340.387C340.59 97.375 340.869 97.0898 341.225 96.8828C341.584 96.6758 341.979 96.5723 342.408 96.5723ZM342.168 102.203C342.746 102.203 343.199 101.994 343.527 101.576C343.855 101.158 344.02 100.58 344.02 99.8418C344.02 99.1035 343.855 98.5254 343.527 98.1074C343.203 97.6895 342.752 97.4805 342.174 97.4805C341.604 97.4805 341.15 97.6934 340.814 98.1191C340.479 98.541 340.311 99.1152 340.311 99.8418C340.311 100.564 340.477 101.139 340.809 101.564C341.145 101.99 341.598 102.203 342.168 102.203ZM351.977 102.227C352.496 102.227 352.926 102.076 353.266 101.775C353.609 101.475 353.781 101.098 353.781 100.645V100.064L352.082 100.176C351.605 100.207 351.256 100.307 351.033 100.475C350.811 100.643 350.699 100.887 350.699 101.207C350.699 101.523 350.818 101.773 351.057 101.957C351.295 102.137 351.602 102.227 351.977 102.227ZM351.789 103.111C351.168 103.111 350.656 102.941 350.254 102.602C349.855 102.258 349.656 101.801 349.656 101.23C349.656 100.668 349.855 100.227 350.254 99.9062C350.652 99.5859 351.221 99.4043 351.959 99.3613L353.781 99.25V98.6758C353.781 98.2852 353.66 97.9863 353.418 97.7793C353.176 97.5723 352.82 97.4688 352.352 97.4688C351.973 97.4688 351.658 97.5371 351.408 97.6738C351.158 97.8105 350.998 98.0039 350.928 98.2539H349.908C349.975 97.75 350.234 97.3438 350.688 97.0352C351.145 96.7266 351.711 96.5723 352.387 96.5723C353.152 96.5723 353.744 96.7578 354.162 97.1289C354.58 97.5 354.789 98.0156 354.789 98.6758V103H353.828V102.068H353.734C353.531 102.404 353.262 102.662 352.926 102.842C352.59 103.021 352.211 103.111 351.789 103.111ZM356.652 103V96.6836H357.613V97.6797H357.707C358.043 96.9414 358.676 96.5723 359.605 96.5723C360.312 96.5723 360.857 96.7754 361.24 97.1816C361.623 97.584 361.814 98.1602 361.814 98.9102V103H360.807V99.1562C360.807 98.5898 360.684 98.1699 360.438 97.8965C360.195 97.6191 359.822 97.4805 359.318 97.4805C358.811 97.4805 358.406 97.6406 358.105 97.9609C357.809 98.2773 357.66 98.7109 357.66 99.2617V103H356.652ZM365.998 103.111C365.189 103.111 364.545 102.814 364.064 102.221C363.584 101.627 363.344 100.834 363.344 99.8418C363.344 98.8535 363.584 98.0625 364.064 97.4688C364.549 96.8711 365.193 96.5723 365.998 96.5723C366.439 96.5723 366.834 96.6719 367.182 96.8711C367.533 97.0664 367.799 97.3359 367.979 97.6797H368.066V94.1758H369.074V103H368.113V101.992H368.02C367.82 102.344 367.543 102.619 367.188 102.818C366.832 103.014 366.436 103.111 365.998 103.111ZM366.232 97.4805C365.658 97.4805 365.207 97.6914 364.879 98.1133C364.551 98.5312 364.387 99.1074 364.387 99.8418C364.387 100.58 364.549 101.158 364.873 101.576C365.201 101.994 365.654 102.203 366.232 102.203C366.807 102.203 367.26 101.992 367.592 101.57C367.924 101.148 368.09 100.572 368.09 99.8418C368.09 99.1191 367.922 98.5449 367.586 98.1191C367.254 97.6934 366.803 97.4805 366.232 97.4805ZM137.008 117V108.176H138.016V117H137.008ZM142.492 111.463C141.988 111.463 141.574 111.633 141.25 111.973C140.926 112.312 140.744 112.762 140.705 113.32H144.186C144.174 112.762 144.014 112.312 143.705 111.973C143.396 111.633 142.992 111.463 142.492 111.463ZM144.156 115.365H145.164C145.012 115.912 144.701 116.34 144.232 116.648C143.768 116.957 143.191 117.111 142.504 117.111C141.629 117.111 140.936 116.818 140.424 116.232C139.912 115.643 139.656 114.848 139.656 113.848C139.656 112.852 139.914 112.057 140.43 111.463C140.945 110.869 141.637 110.572 142.504 110.572C143.355 110.572 144.025 110.855 144.514 111.422C145.002 111.988 145.246 112.764 145.246 113.748V114.135H140.705V114.182C140.732 114.807 140.908 115.303 141.232 115.67C141.561 116.037 141.992 116.221 142.527 116.221C143.344 116.221 143.887 115.936 144.156 115.365ZM148.773 116.227C149.293 116.227 149.723 116.076 150.062 115.775C150.406 115.475 150.578 115.098 150.578 114.645V114.064L148.879 114.176C148.402 114.207 148.053 114.307 147.83 114.475C147.607 114.643 147.496 114.887 147.496 115.207C147.496 115.523 147.615 115.773 147.854 115.957C148.092 116.137 148.398 116.227 148.773 116.227ZM148.586 117.111C147.965 117.111 147.453 116.941 147.051 116.602C146.652 116.258 146.453 115.801 146.453 115.23C146.453 114.668 146.652 114.227 147.051 113.906C147.449 113.586 148.018 113.404 148.756 113.361L150.578 113.25V112.676C150.578 112.285 150.457 111.986 150.215 111.779C149.973 111.572 149.617 111.469 149.148 111.469C148.77 111.469 148.455 111.537 148.205 111.674C147.955 111.811 147.795 112.004 147.725 112.254H146.705C146.771 111.75 147.031 111.344 147.484 111.035C147.941 110.727 148.508 110.572 149.184 110.572C149.949 110.572 150.541 110.758 150.959 111.129C151.377 111.5 151.586 112.016 151.586 112.676V117H150.625V116.068H150.531C150.328 116.404 150.059 116.662 149.723 116.842C149.387 117.021 149.008 117.111 148.586 117.111ZM158.371 110.684L156.033 117H155.002L152.664 110.684H153.742L155.471 115.887H155.564L157.293 110.684H158.371ZM162.004 111.463C161.5 111.463 161.086 111.633 160.762 111.973C160.438 112.312 160.256 112.762 160.217 113.32H163.697C163.686 112.762 163.525 112.312 163.217 111.973C162.908 111.633 162.504 111.463 162.004 111.463ZM163.668 115.365H164.676C164.523 115.912 164.213 116.34 163.744 116.648C163.279 116.957 162.703 117.111 162.016 117.111C161.141 117.111 160.447 116.818 159.936 116.232C159.424 115.643 159.168 114.848 159.168 113.848C159.168 112.852 159.426 112.057 159.941 111.463C160.457 110.869 161.148 110.572 162.016 110.572C162.867 110.572 163.537 110.855 164.025 111.422C164.514 111.988 164.758 112.764 164.758 113.748V114.135H160.217V114.182C160.244 114.807 160.42 115.303 160.744 115.67C161.072 116.037 161.504 116.221 162.039 116.221C162.855 116.221 163.398 115.936 163.668 115.365ZM170.148 109.049H171.156V110.684H172.562V111.527H171.156V115.102C171.156 115.473 171.23 115.742 171.379 115.91C171.527 116.078 171.766 116.162 172.094 116.162C172.238 116.162 172.395 116.154 172.562 116.139V116.988C172.34 117.027 172.143 117.047 171.971 117.047C171.318 117.047 170.852 116.916 170.57 116.654C170.289 116.393 170.148 115.961 170.148 115.359V111.527H169.129V110.684H170.148V109.049ZM174.145 117V108.176H175.152V111.68H175.246C175.406 111.324 175.65 111.051 175.979 110.859C176.311 110.668 176.715 110.572 177.191 110.572C177.863 110.572 178.395 110.779 178.785 111.193C179.176 111.604 179.371 112.176 179.371 112.91V117H178.363V113.156C178.363 112.039 177.877 111.48 176.904 111.48C176.35 111.48 175.918 111.643 175.609 111.967C175.305 112.287 175.152 112.719 175.152 113.262V117H174.145ZM183.73 111.463C183.227 111.463 182.812 111.633 182.488 111.973C182.164 112.312 181.982 112.762 181.943 113.32H185.424C185.412 112.762 185.252 112.312 184.943 111.973C184.635 111.633 184.23 111.463 183.73 111.463ZM185.395 115.365H186.402C186.25 115.912 185.939 116.34 185.471 116.648C185.006 116.957 184.43 117.111 183.742 117.111C182.867 117.111 182.174 116.818 181.662 116.232C181.15 115.643 180.895 114.848 180.895 113.848C180.895 112.852 181.152 112.057 181.668 111.463C182.184 110.869 182.875 110.572 183.742 110.572C184.594 110.572 185.264 110.855 185.752 111.422C186.24 111.988 186.484 112.764 186.484 113.748V114.135H181.943V114.182C181.971 114.807 182.146 115.303 182.471 115.67C182.799 116.037 183.23 116.221 183.766 116.221C184.582 116.221 185.125 115.936 185.395 115.365ZM191.512 117V108.176H192.52V111.68H192.613C192.773 111.324 193.018 111.051 193.346 110.859C193.678 110.668 194.082 110.572 194.559 110.572C195.23 110.572 195.762 110.779 196.152 111.193C196.543 111.604 196.738 112.176 196.738 112.91V117H195.73V113.156C195.73 112.039 195.244 111.48 194.271 111.48C193.717 111.48 193.285 111.643 192.977 111.967C192.672 112.287 192.52 112.719 192.52 113.262V117H191.512ZM200.523 116.227C201.043 116.227 201.473 116.076 201.812 115.775C202.156 115.475 202.328 115.098 202.328 114.645V114.064L200.629 114.176C200.152 114.207 199.803 114.307 199.58 114.475C199.357 114.643 199.246 114.887 199.246 115.207C199.246 115.523 199.365 115.773 199.604 115.957C199.842 116.137 200.148 116.227 200.523 116.227ZM200.336 117.111C199.715 117.111 199.203 116.941 198.801 116.602C198.402 116.258 198.203 115.801 198.203 115.23C198.203 114.668 198.402 114.227 198.801 113.906C199.199 113.586 199.768 113.404 200.506 113.361L202.328 113.25V112.676C202.328 112.285 202.207 111.986 201.965 111.779C201.723 111.572 201.367 111.469 200.898 111.469C200.52 111.469 200.205 111.537 199.955 111.674C199.705 111.811 199.545 112.004 199.475 112.254H198.455C198.521 111.75 198.781 111.344 199.234 111.035C199.691 110.727 200.258 110.572 200.934 110.572C201.699 110.572 202.291 110.758 202.709 111.129C203.127 111.5 203.336 112.016 203.336 112.676V117H202.375V116.068H202.281C202.078 116.404 201.809 116.662 201.473 116.842C201.137 117.021 200.758 117.111 200.336 117.111ZM205.053 112.412C205.053 111.889 205.277 111.451 205.727 111.1C206.176 110.748 206.736 110.572 207.408 110.572C208.068 110.572 208.613 110.725 209.043 111.029C209.473 111.334 209.721 111.746 209.787 112.266H208.791C208.721 112.008 208.564 111.805 208.322 111.656C208.084 111.504 207.777 111.428 207.402 111.428C207.023 111.428 206.705 111.516 206.447 111.691C206.193 111.867 206.066 112.094 206.066 112.371C206.066 112.586 206.154 112.766 206.33 112.91C206.51 113.051 206.787 113.166 207.162 113.256L208.135 113.49C208.736 113.635 209.18 113.844 209.465 114.117C209.754 114.391 209.898 114.752 209.898 115.201C209.898 115.76 209.658 116.219 209.178 116.578C208.697 116.934 208.094 117.111 207.367 117.111C206.664 117.111 206.088 116.955 205.639 116.643C205.189 116.33 204.938 115.912 204.883 115.389H205.92C206.006 115.662 206.176 115.877 206.43 116.033C206.684 116.186 207.008 116.262 207.402 116.262C207.828 116.262 208.178 116.17 208.451 115.986C208.725 115.803 208.861 115.566 208.861 115.277C208.861 114.848 208.527 114.551 207.859 114.387L206.775 114.123C206.178 113.979 205.74 113.771 205.463 113.502C205.189 113.229 205.053 112.865 205.053 112.412ZM211.217 112.412C211.217 111.889 211.441 111.451 211.891 111.1C212.34 110.748 212.9 110.572 213.572 110.572C214.232 110.572 214.777 110.725 215.207 111.029C215.637 111.334 215.885 111.746 215.951 112.266H214.955C214.885 112.008 214.729 111.805 214.486 111.656C214.248 111.504 213.941 111.428 213.566 111.428C213.188 111.428 212.869 111.516 212.611 111.691C212.357 111.867 212.23 112.094 212.23 112.371C212.23 112.586 212.318 112.766 212.494 112.91C212.674 113.051 212.951 113.166 213.326 113.256L214.299 113.49C214.9 113.635 215.344 113.844 215.629 114.117C215.918 114.391 216.062 114.752 216.062 115.201C216.062 115.76 215.822 116.219 215.342 116.578C214.861 116.934 214.258 117.111 213.531 117.111C212.828 117.111 212.252 116.955 211.803 116.643C211.354 116.33 211.102 115.912 211.047 115.389H212.084C212.17 115.662 212.34 115.877 212.594 116.033C212.848 116.186 213.172 116.262 213.566 116.262C213.992 116.262 214.342 116.17 214.615 115.986C214.889 115.803 215.025 115.566 215.025 115.277C215.025 114.848 214.691 114.551 214.023 114.387L212.939 114.123C212.342 113.979 211.904 113.771 211.627 113.502C211.354 113.229 211.217 112.865 211.217 112.412ZM217.703 117V108.176H218.711V117H217.703ZM223.188 111.463C222.684 111.463 222.27 111.633 221.945 111.973C221.621 112.312 221.439 112.762 221.4 113.32H224.881C224.869 112.762 224.709 112.312 224.4 111.973C224.092 111.633 223.688 111.463 223.188 111.463ZM224.852 115.365H225.859C225.707 115.912 225.396 116.34 224.928 116.648C224.463 116.957 223.887 117.111 223.199 117.111C222.324 117.111 221.631 116.818 221.119 116.232C220.607 115.643 220.352 114.848 220.352 113.848C220.352 112.852 220.609 112.057 221.125 111.463C221.641 110.869 222.332 110.572 223.199 110.572C224.051 110.572 224.721 110.855 225.209 111.422C225.697 111.988 225.941 112.764 225.941 113.748V114.135H221.4V114.182C221.428 114.807 221.604 115.303 221.928 115.67C222.256 116.037 222.688 116.221 223.223 116.221C224.039 116.221 224.582 115.936 224.852 115.365ZM235.633 116.238C235.113 116.82 234.404 117.111 233.506 117.111C232.607 117.111 231.896 116.82 231.373 116.238C230.854 115.652 230.594 114.854 230.594 113.842C230.594 112.826 230.854 112.027 231.373 111.445C231.893 110.863 232.604 110.572 233.506 110.572C234.408 110.572 235.119 110.863 235.639 111.445C236.158 112.027 236.418 112.826 236.418 113.842C236.418 114.854 236.156 115.652 235.633 116.238ZM232.123 115.588C232.447 115.998 232.908 116.203 233.506 116.203C234.104 116.203 234.564 115.998 234.889 115.588C235.213 115.174 235.375 114.592 235.375 113.842C235.375 113.092 235.213 112.512 234.889 112.102C234.564 111.688 234.104 111.48 233.506 111.48C232.908 111.48 232.447 111.688 232.123 112.102C231.799 112.512 231.637 113.092 231.637 113.842C231.637 114.592 231.799 115.174 232.123 115.588ZM238.422 117V111.527H237.373V110.684H238.422V109.98C238.422 108.738 239.033 108.117 240.256 108.117C240.51 108.117 240.736 108.137 240.936 108.176V108.996C240.834 108.977 240.676 108.967 240.461 108.967C240.102 108.967 239.84 109.053 239.676 109.225C239.512 109.396 239.43 109.658 239.43 110.01V110.684H240.877V111.527H239.43V117H238.422ZM250.961 112.617H249.941C249.855 112.285 249.67 112.014 249.385 111.803C249.104 111.588 248.746 111.48 248.312 111.48C247.746 111.48 247.295 111.691 246.959 112.113C246.627 112.535 246.461 113.104 246.461 113.818C246.461 114.545 246.629 115.125 246.965 115.559C247.301 115.988 247.75 116.203 248.312 116.203C248.738 116.203 249.092 116.107 249.373 115.916C249.658 115.725 249.848 115.451 249.941 115.096H250.961C250.867 115.693 250.588 116.18 250.123 116.555C249.658 116.926 249.057 117.111 248.318 117.111C247.432 117.111 246.727 116.814 246.203 116.221C245.68 115.623 245.418 114.822 245.418 113.818C245.418 112.834 245.68 112.047 246.203 111.457C246.727 110.867 247.43 110.572 248.312 110.572C249.051 110.572 249.652 110.766 250.117 111.152C250.586 111.539 250.867 112.027 250.961 112.617ZM252.508 117V108.176H253.516V111.68H253.609C253.77 111.324 254.014 111.051 254.342 110.859C254.674 110.668 255.078 110.572 255.555 110.572C256.227 110.572 256.758 110.779 257.148 111.193C257.539 111.604 257.734 112.176 257.734 112.91V117H256.727V113.156C256.727 112.039 256.24 111.48 255.268 111.48C254.713 111.48 254.281 111.643 253.973 111.967C253.668 112.287 253.516 112.719 253.516 113.262V117H252.508ZM262.094 111.463C261.59 111.463 261.176 111.633 260.852 111.973C260.527 112.312 260.346 112.762 260.307 113.32H263.787C263.775 112.762 263.615 112.312 263.307 111.973C262.998 111.633 262.594 111.463 262.094 111.463ZM263.758 115.365H264.766C264.613 115.912 264.303 116.34 263.834 116.648C263.369 116.957 262.793 117.111 262.105 117.111C261.23 117.111 260.537 116.818 260.025 116.232C259.514 115.643 259.258 114.848 259.258 113.848C259.258 112.852 259.516 112.057 260.031 111.463C260.547 110.869 261.238 110.572 262.105 110.572C262.957 110.572 263.627 110.855 264.115 111.422C264.604 111.988 264.848 112.764 264.848 113.748V114.135H260.307V114.182C260.334 114.807 260.51 115.303 260.834 115.67C261.162 116.037 261.594 116.221 262.129 116.221C262.945 116.221 263.488 115.936 263.758 115.365ZM271.656 112.617H270.637C270.551 112.285 270.365 112.014 270.08 111.803C269.799 111.588 269.441 111.48 269.008 111.48C268.441 111.48 267.99 111.691 267.654 112.113C267.322 112.535 267.156 113.104 267.156 113.818C267.156 114.545 267.324 115.125 267.66 115.559C267.996 115.988 268.445 116.203 269.008 116.203C269.434 116.203 269.787 116.107 270.068 115.916C270.354 115.725 270.543 115.451 270.637 115.096H271.656C271.562 115.693 271.283 116.18 270.818 116.555C270.354 116.926 269.752 117.111 269.014 117.111C268.127 117.111 267.422 116.814 266.898 116.221C266.375 115.623 266.113 114.822 266.113 113.818C266.113 112.834 266.375 112.047 266.898 111.457C267.422 110.867 268.125 110.572 269.008 110.572C269.746 110.572 270.348 110.766 270.812 111.152C271.281 111.539 271.562 112.027 271.656 112.617ZM274.305 113.443L277.047 110.684H278.283L275.564 113.391L278.465 117H277.182L274.814 114.041L274.211 114.604V117H273.203V108.176H274.211V113.443H274.305ZM279.684 117V110.684H280.691V117H279.684ZM280.686 109.195C280.549 109.332 280.383 109.4 280.188 109.4C279.992 109.4 279.826 109.332 279.689 109.195C279.553 109.055 279.484 108.889 279.484 108.697C279.484 108.506 279.553 108.342 279.689 108.205C279.826 108.064 279.992 107.994 280.188 107.994C280.383 107.994 280.549 108.064 280.686 108.205C280.822 108.342 280.891 108.506 280.891 108.697C280.891 108.889 280.822 109.055 280.686 109.195ZM282.613 117V110.684H283.574V111.68H283.668C284.004 110.941 284.637 110.572 285.566 110.572C286.273 110.572 286.818 110.775 287.201 111.182C287.584 111.584 287.775 112.16 287.775 112.91V117H286.768V113.156C286.768 112.59 286.645 112.17 286.398 111.896C286.156 111.619 285.783 111.48 285.279 111.48C284.771 111.48 284.367 111.641 284.066 111.961C283.77 112.277 283.621 112.711 283.621 113.262V117H282.613ZM292.176 116.016C292.758 116.016 293.215 115.811 293.547 115.4C293.883 114.99 294.051 114.439 294.051 113.748C294.051 113.057 293.883 112.506 293.547 112.096C293.211 111.686 292.754 111.48 292.176 111.48C291.598 111.48 291.148 111.684 290.828 112.09C290.508 112.496 290.348 113.049 290.348 113.748C290.348 114.447 290.508 115 290.828 115.406C291.148 115.812 291.598 116.016 292.176 116.016ZM292.223 119.426C291.469 119.426 290.857 119.27 290.389 118.957C289.924 118.645 289.652 118.225 289.574 117.697H290.641C290.695 117.959 290.861 118.166 291.139 118.318C291.416 118.471 291.777 118.547 292.223 118.547C292.789 118.547 293.23 118.414 293.547 118.148C293.867 117.887 294.027 117.523 294.027 117.059V115.816H293.934C293.734 116.164 293.463 116.434 293.119 116.625C292.775 116.812 292.387 116.906 291.953 116.906C291.141 116.906 290.496 116.619 290.02 116.045C289.543 115.467 289.305 114.701 289.305 113.748C289.305 112.795 289.545 112.027 290.025 111.445C290.506 110.863 291.148 110.572 291.953 110.572C292.395 110.572 292.797 110.674 293.16 110.877C293.523 111.076 293.797 111.346 293.98 111.686H294.074V110.684H295.035V117.111C295.035 117.818 294.781 118.381 294.273 118.799C293.766 119.217 293.082 119.426 292.223 119.426ZM308.266 110.684L306.496 117H305.471L304.059 112.113H303.965L302.559 117H301.539L299.77 110.684H300.789L302.031 115.734H302.125L303.537 110.684H304.504L305.916 115.734H306.01L307.252 110.684H308.266ZM309.637 117V110.684H310.645V117H309.637ZM310.639 109.195C310.502 109.332 310.336 109.4 310.141 109.4C309.945 109.4 309.779 109.332 309.643 109.195C309.506 109.055 309.438 108.889 309.438 108.697C309.438 108.506 309.506 108.342 309.643 108.205C309.779 108.064 309.945 107.994 310.141 107.994C310.336 107.994 310.502 108.064 310.639 108.205C310.775 108.342 310.844 108.506 310.844 108.697C310.844 108.889 310.775 109.055 310.639 109.195ZM312.988 109.049H313.996V110.684H315.402V111.527H313.996V115.102C313.996 115.473 314.07 115.742 314.219 115.91C314.367 116.078 314.605 116.162 314.934 116.162C315.078 116.162 315.234 116.154 315.402 116.139V116.988C315.18 117.027 314.982 117.047 314.811 117.047C314.158 117.047 313.691 116.916 313.41 116.654C313.129 116.393 312.988 115.961 312.988 115.359V111.527H311.969V110.684H312.988V109.049ZM316.984 117V108.176H317.992V111.68H318.086C318.246 111.324 318.49 111.051 318.818 110.859C319.15 110.668 319.555 110.572 320.031 110.572C320.703 110.572 321.234 110.779 321.625 111.193C322.016 111.604 322.211 112.176 322.211 112.91V117H321.203V113.156C321.203 112.039 320.717 111.48 319.744 111.48C319.189 111.48 318.758 111.643 318.449 111.967C318.145 112.287 317.992 112.719 317.992 113.262V117H316.984ZM329.383 116.227C329.902 116.227 330.332 116.076 330.672 115.775C331.016 115.475 331.188 115.098 331.188 114.645V114.064L329.488 114.176C329.012 114.207 328.662 114.307 328.439 114.475C328.217 114.643 328.105 114.887 328.105 115.207C328.105 115.523 328.225 115.773 328.463 115.957C328.701 116.137 329.008 116.227 329.383 116.227ZM329.195 117.111C328.574 117.111 328.062 116.941 327.66 116.602C327.262 116.258 327.062 115.801 327.062 115.23C327.062 114.668 327.262 114.227 327.66 113.906C328.059 113.586 328.627 113.404 329.365 113.361L331.188 113.25V112.676C331.188 112.285 331.066 111.986 330.824 111.779C330.582 111.572 330.227 111.469 329.758 111.469C329.379 111.469 329.064 111.537 328.814 111.674C328.564 111.811 328.404 112.004 328.334 112.254H327.314C327.381 111.75 327.641 111.344 328.094 111.035C328.551 110.727 329.117 110.572 329.793 110.572C330.559 110.572 331.15 110.758 331.568 111.129C331.986 111.5 332.195 112.016 332.195 112.676V117H331.234V116.068H331.141C330.938 116.404 330.668 116.662 330.332 116.842C329.996 117.021 329.617 117.111 329.195 117.111ZM339.168 110.684V117H338.207V116.01H338.113C337.953 116.365 337.707 116.639 337.375 116.83C337.043 117.018 336.637 117.111 336.156 117.111C335.453 117.111 334.918 116.91 334.551 116.508C334.184 116.105 334 115.527 334 114.773V110.684H335.008V114.527C335.008 115.102 335.121 115.523 335.348 115.793C335.574 116.059 335.938 116.191 336.438 116.191C336.988 116.191 337.412 116.037 337.709 115.729C338.01 115.416 338.16 114.98 338.16 114.422V110.684H339.168ZM341.488 109.049H342.496V110.684H343.902V111.527H342.496V115.102C342.496 115.473 342.57 115.742 342.719 115.91C342.867 116.078 343.105 116.162 343.434 116.162C343.578 116.162 343.734 116.154 343.902 116.139V116.988C343.68 117.027 343.482 117.047 343.311 117.047C342.658 117.047 342.191 116.916 341.91 116.654C341.629 116.393 341.488 115.961 341.488 115.359V111.527H340.469V110.684H341.488V109.049ZM350.055 116.238C349.535 116.82 348.826 117.111 347.928 117.111C347.029 117.111 346.318 116.82 345.795 116.238C345.275 115.652 345.016 114.854 345.016 113.842C345.016 112.826 345.275 112.027 345.795 111.445C346.314 110.863 347.025 110.572 347.928 110.572C348.83 110.572 349.541 110.863 350.061 111.445C350.58 112.027 350.84 112.826 350.84 113.842C350.84 114.854 350.578 115.652 350.055 116.238ZM346.545 115.588C346.869 115.998 347.33 116.203 347.928 116.203C348.525 116.203 348.986 115.998 349.311 115.588C349.635 115.174 349.797 114.592 349.797 113.842C349.797 113.092 349.635 112.512 349.311 112.102C348.986 111.688 348.525 111.48 347.928 111.48C347.33 111.48 346.869 111.688 346.545 112.102C346.221 112.512 346.059 113.092 346.059 113.842C346.059 114.592 346.221 115.174 346.545 115.588ZM352.422 117V110.684H353.383V111.68H353.477C353.621 111.328 353.846 111.057 354.15 110.865C354.455 110.67 354.818 110.572 355.24 110.572C355.654 110.572 356.01 110.672 356.307 110.871C356.607 111.07 356.834 111.34 356.986 111.68H357.08C357.252 111.34 357.51 111.07 357.854 110.871C358.197 110.672 358.584 110.572 359.014 110.572C359.658 110.572 360.154 110.752 360.502 111.111C360.85 111.467 361.023 111.975 361.023 112.635V117H360.016V112.869C360.016 111.943 359.572 111.48 358.686 111.48C358.256 111.48 357.904 111.621 357.631 111.902C357.357 112.184 357.221 112.529 357.221 112.939V117H356.213V112.711C356.213 112.336 356.092 112.037 355.85 111.814C355.611 111.592 355.293 111.48 354.895 111.48C354.484 111.48 354.137 111.637 353.852 111.949C353.57 112.262 353.43 112.641 353.43 113.086V117H352.422ZM364.809 116.227C365.328 116.227 365.758 116.076 366.098 115.775C366.441 115.475 366.613 115.098 366.613 114.645V114.064L364.914 114.176C364.438 114.207 364.088 114.307 363.865 114.475C363.643 114.643 363.531 114.887 363.531 115.207C363.531 115.523 363.65 115.773 363.889 115.957C364.127 116.137 364.434 116.227 364.809 116.227ZM364.621 117.111C364 117.111 363.488 116.941 363.086 116.602C362.688 116.258 362.488 115.801 362.488 115.23C362.488 114.668 362.688 114.227 363.086 113.906C363.484 113.586 364.053 113.404 364.791 113.361L366.613 113.25V112.676C366.613 112.285 366.492 111.986 366.25 111.779C366.008 111.572 365.652 111.469 365.184 111.469C364.805 111.469 364.49 111.537 364.24 111.674C363.99 111.811 363.83 112.004 363.76 112.254H362.74C362.807 111.75 363.066 111.344 363.52 111.035C363.977 110.727 364.543 110.572 365.219 110.572C365.984 110.572 366.576 110.758 366.994 111.129C367.412 111.5 367.621 112.016 367.621 112.676V117H366.66V116.068H366.566C366.363 116.404 366.094 116.662 365.758 116.842C365.422 117.021 365.043 117.111 364.621 117.111ZM369.906 109.049H370.914V110.684H372.32V111.527H370.914V115.102C370.914 115.473 370.988 115.742 371.137 115.91C371.285 116.078 371.523 116.162 371.852 116.162C371.996 116.162 372.152 116.154 372.32 116.139V116.988C372.098 117.027 371.9 117.047 371.729 117.047C371.076 117.047 370.609 116.916 370.328 116.654C370.047 116.393 369.906 115.961 369.906 115.359V111.527H368.887V110.684H369.906V109.049ZM373.867 117V110.684H374.875V117H373.867ZM374.869 109.195C374.732 109.332 374.566 109.4 374.371 109.4C374.176 109.4 374.01 109.332 373.873 109.195C373.736 109.055 373.668 108.889 373.668 108.697C373.668 108.506 373.736 108.342 373.873 108.205C374.01 108.064 374.176 107.994 374.371 107.994C374.566 107.994 374.732 108.064 374.869 108.205C375.006 108.342 375.074 108.506 375.074 108.697C375.074 108.889 375.006 109.055 374.869 109.195ZM382.023 112.617H381.004C380.918 112.285 380.732 112.014 380.447 111.803C380.166 111.588 379.809 111.48 379.375 111.48C378.809 111.48 378.357 111.691 378.021 112.113C377.689 112.535 377.523 113.104 377.523 113.818C377.523 114.545 377.691 115.125 378.027 115.559C378.363 115.988 378.812 116.203 379.375 116.203C379.801 116.203 380.154 116.107 380.436 115.916C380.721 115.725 380.91 115.451 381.004 115.096H382.023C381.93 115.693 381.65 116.18 381.186 116.555C380.721 116.926 380.119 117.111 379.381 117.111C378.494 117.111 377.789 116.814 377.266 116.221C376.742 115.623 376.48 114.822 376.48 113.818C376.48 112.834 376.742 112.047 377.266 111.457C377.789 110.867 378.492 110.572 379.375 110.572C380.113 110.572 380.715 110.766 381.18 111.152C381.648 111.539 381.93 112.027 382.023 112.617ZM142.176 126.617H141.156C141.07 126.285 140.885 126.014 140.6 125.803C140.318 125.588 139.961 125.48 139.527 125.48C138.961 125.48 138.51 125.691 138.174 126.113C137.842 126.535 137.676 127.104 137.676 127.818C137.676 128.545 137.844 129.125 138.18 129.559C138.516 129.988 138.965 130.203 139.527 130.203C139.953 130.203 140.307 130.107 140.588 129.916C140.873 129.725 141.062 129.451 141.156 129.096H142.176C142.082 129.693 141.803 130.18 141.338 130.555C140.873 130.926 140.271 131.111 139.533 131.111C138.646 131.111 137.941 130.814 137.418 130.221C136.895 129.623 136.633 128.822 136.633 127.818C136.633 126.834 136.895 126.047 137.418 125.457C137.941 124.867 138.645 124.572 139.527 124.572C140.266 124.572 140.867 124.766 141.332 125.152C141.801 125.539 142.082 126.027 142.176 126.617ZM143.723 131V122.176H144.73V125.68H144.824C144.984 125.324 145.229 125.051 145.557 124.859C145.889 124.668 146.293 124.572 146.77 124.572C147.441 124.572 147.973 124.779 148.363 125.193C148.754 125.604 148.949 126.176 148.949 126.91V131H147.941V127.156C147.941 126.039 147.455 125.48 146.482 125.48C145.928 125.48 145.496 125.643 145.188 125.967C144.883 126.287 144.73 126.719 144.73 127.262V131H143.723ZM153.309 125.463C152.805 125.463 152.391 125.633 152.066 125.973C151.742 126.312 151.561 126.762 151.521 127.32H155.002C154.99 126.762 154.83 126.312 154.521 125.973C154.213 125.633 153.809 125.463 153.309 125.463ZM154.973 129.365H155.98C155.828 129.912 155.518 130.34 155.049 130.648C154.584 130.957 154.008 131.111 153.32 131.111C152.445 131.111 151.752 130.818 151.24 130.232C150.729 129.643 150.473 128.848 150.473 127.848C150.473 126.852 150.73 126.057 151.246 125.463C151.762 124.869 152.453 124.572 153.32 124.572C154.172 124.572 154.842 124.855 155.33 125.422C155.818 125.988 156.062 126.764 156.062 127.748V128.135H151.521V128.182C151.549 128.807 151.725 129.303 152.049 129.67C152.377 130.037 152.809 130.221 153.344 130.221C154.16 130.221 154.703 129.936 154.973 129.365ZM162.871 126.617H161.852C161.766 126.285 161.58 126.014 161.295 125.803C161.014 125.588 160.656 125.48 160.223 125.48C159.656 125.48 159.205 125.691 158.869 126.113C158.537 126.535 158.371 127.104 158.371 127.818C158.371 128.545 158.539 129.125 158.875 129.559C159.211 129.988 159.66 130.203 160.223 130.203C160.648 130.203 161.002 130.107 161.283 129.916C161.568 129.725 161.758 129.451 161.852 129.096H162.871C162.777 129.693 162.498 130.18 162.033 130.555C161.568 130.926 160.967 131.111 160.229 131.111C159.342 131.111 158.637 130.814 158.113 130.221C157.59 129.623 157.328 128.822 157.328 127.818C157.328 126.834 157.59 126.047 158.113 125.457C158.637 124.867 159.34 124.572 160.223 124.572C160.961 124.572 161.562 124.766 162.027 125.152C162.496 125.539 162.777 126.027 162.871 126.617ZM165.52 127.443L168.262 124.684H169.498L166.779 127.391L169.68 131H168.396L166.029 128.041L165.426 128.604V131H164.418V122.176H165.426V127.443H165.52ZM170.898 131V124.684H171.906V131H170.898ZM171.9 123.195C171.764 123.332 171.598 123.4 171.402 123.4C171.207 123.4 171.041 123.332 170.904 123.195C170.768 123.055 170.699 122.889 170.699 122.697C170.699 122.506 170.768 122.342 170.904 122.205C171.041 122.064 171.207 121.994 171.402 121.994C171.598 121.994 171.764 122.064 171.9 122.205C172.037 122.342 172.105 122.506 172.105 122.697C172.105 122.889 172.037 123.055 171.9 123.195ZM173.828 131V124.684H174.789V125.68H174.883C175.219 124.941 175.852 124.572 176.781 124.572C177.488 124.572 178.033 124.775 178.416 125.182C178.799 125.584 178.99 126.16 178.99 126.91V131H177.982V127.156C177.982 126.59 177.859 126.17 177.613 125.896C177.371 125.619 176.998 125.48 176.494 125.48C175.986 125.48 175.582 125.641 175.281 125.961C174.984 126.277 174.836 126.711 174.836 127.262V131H173.828ZM183.391 130.016C183.973 130.016 184.43 129.811 184.762 129.4C185.098 128.99 185.266 128.439 185.266 127.748C185.266 127.057 185.098 126.506 184.762 126.096C184.426 125.686 183.969 125.48 183.391 125.48C182.812 125.48 182.363 125.684 182.043 126.09C181.723 126.496 181.562 127.049 181.562 127.748C181.562 128.447 181.723 129 182.043 129.406C182.363 129.812 182.812 130.016 183.391 130.016ZM183.438 133.426C182.684 133.426 182.072 133.27 181.604 132.957C181.139 132.645 180.867 132.225 180.789 131.697H181.855C181.91 131.959 182.076 132.166 182.354 132.318C182.631 132.471 182.992 132.547 183.438 132.547C184.004 132.547 184.445 132.414 184.762 132.148C185.082 131.887 185.242 131.523 185.242 131.059V129.816H185.148C184.949 130.164 184.678 130.434 184.334 130.625C183.99 130.812 183.602 130.906 183.168 130.906C182.355 130.906 181.711 130.619 181.234 130.045C180.758 129.467 180.52 128.701 180.52 127.748C180.52 126.795 180.76 126.027 181.24 125.445C181.721 124.863 182.363 124.572 183.168 124.572C183.609 124.572 184.012 124.674 184.375 124.877C184.738 125.076 185.012 125.346 185.195 125.686H185.289V124.684H186.25V131.111C186.25 131.818 185.996 132.381 185.488 132.799C184.98 133.217 184.297 133.426 183.438 133.426ZM191.957 131V125.527H190.908V124.684H191.957V123.98C191.957 122.738 192.568 122.117 193.791 122.117C194.045 122.117 194.271 122.137 194.471 122.176V122.996C194.369 122.977 194.211 122.967 193.996 122.967C193.637 122.967 193.375 123.053 193.211 123.225C193.047 123.396 192.965 123.658 192.965 124.01V124.684H194.412V125.527H192.965V131H191.957ZM198.133 125.463C197.629 125.463 197.215 125.633 196.891 125.973C196.566 126.312 196.385 126.762 196.346 127.32H199.826C199.814 126.762 199.654 126.312 199.346 125.973C199.037 125.633 198.633 125.463 198.133 125.463ZM199.797 129.365H200.805C200.652 129.912 200.342 130.34 199.873 130.648C199.408 130.957 198.832 131.111 198.145 131.111C197.27 131.111 196.576 130.818 196.064 130.232C195.553 129.643 195.297 128.848 195.297 127.848C195.297 126.852 195.555 126.057 196.07 125.463C196.586 124.869 197.277 124.572 198.145 124.572C198.996 124.572 199.666 124.855 200.154 125.422C200.643 125.988 200.887 126.764 200.887 127.748V128.135H196.346V128.182C196.373 128.807 196.549 129.303 196.873 129.67C197.201 130.037 197.633 130.221 198.168 130.221C198.984 130.221 199.527 129.936 199.797 129.365ZM204.414 130.227C204.934 130.227 205.363 130.076 205.703 129.775C206.047 129.475 206.219 129.098 206.219 128.645V128.064L204.52 128.176C204.043 128.207 203.693 128.307 203.471 128.475C203.248 128.643 203.137 128.887 203.137 129.207C203.137 129.523 203.256 129.773 203.494 129.957C203.732 130.137 204.039 130.227 204.414 130.227ZM204.227 131.111C203.605 131.111 203.094 130.941 202.691 130.602C202.293 130.258 202.094 129.801 202.094 129.23C202.094 128.668 202.293 128.227 202.691 127.906C203.09 127.586 203.658 127.404 204.396 127.361L206.219 127.25V126.676C206.219 126.285 206.098 125.986 205.855 125.779C205.613 125.572 205.258 125.469 204.789 125.469C204.41 125.469 204.096 125.537 203.846 125.674C203.596 125.811 203.436 126.004 203.365 126.254H202.346C202.412 125.75 202.672 125.344 203.125 125.035C203.582 124.727 204.148 124.572 204.824 124.572C205.59 124.572 206.182 124.758 206.6 125.129C207.018 125.5 207.227 126.016 207.227 126.676V131H206.266V130.068H206.172C205.969 130.404 205.699 130.662 205.363 130.842C205.027 131.021 204.648 131.111 204.227 131.111ZM209.512 123.049H210.52V124.684H211.926V125.527H210.52V129.102C210.52 129.473 210.594 129.742 210.742 129.91C210.891 130.078 211.129 130.162 211.457 130.162C211.602 130.162 211.758 130.154 211.926 130.139V130.988C211.703 131.027 211.506 131.047 211.334 131.047C210.682 131.047 210.215 130.916 209.934 130.654C209.652 130.393 209.512 129.961 209.512 129.359V125.527H208.492V124.684H209.512V123.049ZM218.559 124.684V131H217.598V130.01H217.504C217.344 130.365 217.098 130.639 216.766 130.83C216.434 131.018 216.027 131.111 215.547 131.111C214.844 131.111 214.309 130.91 213.941 130.508C213.574 130.105 213.391 129.527 213.391 128.773V124.684H214.398V128.527C214.398 129.102 214.512 129.523 214.738 129.793C214.965 130.059 215.328 130.191 215.828 130.191C216.379 130.191 216.803 130.037 217.1 129.729C217.4 129.416 217.551 128.98 217.551 128.422V124.684H218.559ZM220.457 131V124.684H221.418V125.621H221.512C221.605 125.312 221.816 125.061 222.145 124.865C222.473 124.67 222.846 124.572 223.264 124.572C223.455 124.572 223.623 124.582 223.768 124.602V125.609C223.631 125.57 223.416 125.551 223.123 125.551C222.643 125.551 222.246 125.695 221.934 125.984C221.621 126.273 221.465 126.641 221.465 127.086V131H220.457ZM227.371 125.463C226.867 125.463 226.453 125.633 226.129 125.973C225.805 126.312 225.623 126.762 225.584 127.32H229.064C229.053 126.762 228.893 126.312 228.584 125.973C228.275 125.633 227.871 125.463 227.371 125.463ZM229.035 129.365H230.043C229.891 129.912 229.58 130.34 229.111 130.648C228.646 130.957 228.07 131.111 227.383 131.111C226.508 131.111 225.814 130.818 225.303 130.232C224.791 129.643 224.535 128.848 224.535 127.848C224.535 126.852 224.793 126.057 225.309 125.463C225.824 124.869 226.516 124.572 227.383 124.572C228.234 124.572 228.904 124.855 229.393 125.422C229.881 125.988 230.125 126.764 230.125 127.748V128.135H225.584V128.182C225.611 128.807 225.787 129.303 226.111 129.67C226.439 130.037 226.871 130.221 227.406 130.221C228.223 130.221 228.766 129.936 229.035 129.365Z" fill="white"/>
</svg>
