<svg width="414" height="180" viewBox="0 0 414 180" fill="none" xmlns="http://www.w3.org/2000/svg">
<rect width="414" height="180" fill="#F44336"/>
<g opacity="0.6">
<rect x="132.364" y="18" width="43.6364" height="43.6364" fill="white" fill-opacity="0.06"/>
<rect x="107.818" y="47.4546" width="35.4545" height="36" fill="white" fill-opacity="0.06"/>
<rect x="278" y="139.091" width="22.9091" height="22.9091" fill="white" fill-opacity="0.08"/>
<circle cx="332.273" cy="45" r="27" fill="white" fill-opacity="0.06"/>
<ellipse cx="312.091" cy="65.4546" rx="17.7273" ry="18" fill="white" fill-opacity="0.06"/>
<ellipse cx="233.818" cy="135.545" rx="8.72727" ry="8.45455" fill="white" fill-opacity="0.08"/>
<g opacity="0.15">
<path fill-rule="evenodd" clip-rule="evenodd" d="M366.8 115.357L384.233 97.9233C384.577 97.5794 385.136 97.5813 385.483 97.9274L393.004 105.448C394.042 106.487 394.048 108.165 393.016 109.197L375.583 126.63C375.239 126.974 374.68 126.972 374.333 126.626L366.812 119.105C365.774 118.066 365.768 116.388 366.8 115.357Z" fill="#EEEEEE" fill-opacity="0.6"/>
<path fill-rule="evenodd" clip-rule="evenodd" d="M382.419 114.783L366.751 99.1147C365.712 98.0763 365.707 96.3982 366.738 95.3666L374.21 87.8952C374.553 87.5514 375.113 87.5532 375.459 87.8994L393.008 105.448C394.046 106.487 394.052 108.165 393.02 109.196L385.549 116.668L383.058 119.158C384.09 118.127 384.084 116.449 383.046 115.41L382.419 114.783Z" fill="white"/>
</g>
</g>
<g clip-path="url(#clip0)">
<path d="M74.7591 64.9656H104.552C107.283 64.9656 109.518 67.2001 109.518 69.931V87.3103C109.518 90.0414 107.283 92.2757 104.552 92.2757H88.4141V96.9841C88.4141 97.5372 87.7455 97.814 87.3547 97.423L82.2072 92.2759H74.7589C72.0278 92.2759 69.7935 90.0414 69.7935 87.3104V69.9312C69.7936 67.2001 72.028 64.9656 74.7591 64.9656Z" fill="#C7CFE2"/>
<path d="M103.268 74.8966H84.6895V72.4139H94.5783C95.2394 72.4139 95.8164 71.915 95.8593 71.2554C95.9061 70.5325 95.3342 69.9312 94.6205 69.9312H84.6895V64.9656H82.2068C82.2068 64.9656 82.2068 81.3048 82.2068 82.3448C82.2068 85.0759 79.9722 87.3103 77.2413 87.3103H69.793C69.793 88.2176 70.0573 89.0591 70.487 89.793H77.2413C81.3482 89.793 84.6896 86.4516 84.6896 82.3447H89.6167C90.2388 82.3447 90.7947 81.9034 90.8833 81.2875C90.9934 80.5201 90.4019 79.862 89.6551 79.862H84.6896V77.3792H103.31C104.024 77.3792 104.596 76.7781 104.549 76.055C104.506 75.3956 103.929 74.8966 103.268 74.8966Z" fill="#AFB9D2"/>
<path d="M103.311 72.4138H99.5866C98.9005 72.4138 98.3452 71.8579 98.3452 71.1723C98.3452 70.4868 98.9004 69.9309 99.5866 69.9309H103.311C103.997 69.9309 104.552 70.4868 104.552 71.1723C104.552 71.8579 103.997 72.4138 103.311 72.4138Z" fill="#959CB3"/>
<path d="M103.31 82.3447H94.6208C93.9347 82.3447 93.3794 81.7888 93.3794 81.1033C93.3794 80.4177 93.9346 79.8618 94.6208 79.8618H103.31C103.997 79.8618 104.552 80.4177 104.552 81.1033C104.552 81.7888 103.997 82.3447 103.31 82.3447Z" fill="#959CB3"/>
<path d="M103.31 87.3103H85.9304C85.2443 87.3103 84.689 86.7544 84.689 86.0688C84.689 85.3833 85.2442 84.8274 85.9304 84.8274H103.31C103.996 84.8274 104.551 85.3833 104.551 86.0688C104.551 86.7544 103.996 87.3103 103.31 87.3103Z" fill="#AFB9D2"/>
<path d="M77.2419 60H47.4489C44.7178 60 42.4834 62.2345 42.4834 64.9655V82.3447C42.4834 85.0758 44.7179 87.3102 47.4489 87.3102H63.5868V92.0186C63.5868 92.5716 64.2555 92.8484 64.6463 92.4575L69.7937 87.3103H77.242C79.9731 87.3103 82.2075 85.0758 82.2075 82.3448V64.9655C82.2074 62.2345 79.973 60 77.2419 60Z" fill="#E4EAF6"/>
<path d="M52.4132 67.4484H48.6892C48.0031 67.4484 47.4478 66.8926 47.4478 66.207C47.4478 65.5215 48.0029 64.9656 48.6892 64.9656H52.4134C53.0995 64.9656 53.6548 65.5215 53.6548 66.207C53.6548 66.8926 53.0995 67.4484 52.4132 67.4484Z" fill="#AFB9D2"/>
<path d="M75.9988 67.4484H57.3782C56.692 67.4484 56.1367 66.8926 56.1367 66.207C56.1367 65.5215 56.6919 64.9656 57.3782 64.9656H75.9988C76.6849 64.9656 77.2403 65.5215 77.2403 66.207C77.2403 66.8926 76.6849 67.4484 75.9988 67.4484Z" fill="#C7CFE2"/>
<path d="M75.9995 72.414H48.6892C48.0031 72.414 47.4478 71.8581 47.4478 71.1726C47.4478 70.487 48.0029 69.9312 48.6892 69.9312H75.9995C76.6856 69.9312 77.2409 70.487 77.2409 71.1726C77.2408 71.8581 76.6856 72.414 75.9995 72.414Z" fill="#C7CFE2"/>
<path d="M76.0008 77.3794H72.2766C71.5905 77.3794 71.0352 76.8235 71.0352 76.1379C71.0352 75.4524 71.5903 74.8965 72.2766 74.8965H76.0008C76.6869 74.8965 77.2422 75.4524 77.2422 76.1379C77.2421 76.8236 76.6869 77.3794 76.0008 77.3794Z" fill="#AFB9D2"/>
<path d="M67.3097 77.3794H48.6892C48.0031 77.3794 47.4478 76.8235 47.4478 76.1379C47.4478 75.4524 48.0029 74.8965 48.6892 74.8965H67.3099C67.996 74.8965 68.5513 75.4524 68.5513 76.1379C68.5512 76.8236 67.996 77.3794 67.3097 77.3794Z" fill="#C7CFE2"/>
<path d="M75.9995 82.3449H48.6892C48.0031 82.3449 47.4478 81.789 47.4478 81.1035C47.4478 80.418 48.0029 79.8621 48.6892 79.8621H75.9995C76.6856 79.8621 77.2409 80.418 77.2409 81.1035C77.2408 81.789 76.6856 82.3449 75.9995 82.3449Z" fill="#C7CFE2"/>
<path d="M63.7769 122.26V118.249H53.4639V122.26L58.6203 126.843L63.7769 122.26Z" fill="#E6AF78"/>
<path d="M71.7507 124.136L64.6611 122.468C64.5541 122.442 64.4555 122.4 64.3635 122.348L58.6213 125.697L53.1027 122.186C52.9599 122.32 52.7827 122.42 52.5812 122.467L45.4916 124.135C44.4563 124.379 43.7246 125.303 43.7246 126.366V130.854C43.7246 131.487 44.2376 132 44.8706 132H72.3718C73.0046 132 73.5178 131.487 73.5178 130.854V126.366C73.5176 125.303 72.7861 124.379 71.7507 124.136Z" fill="#EFF2FA"/>
<path d="M53.4639 118.249V122.481C59.9597 124.821 63.7769 118.964 63.7769 118.964V118.249H53.4639Z" fill="#D29B6E"/>
<path d="M51.1724 105.071L51.6717 116.055C51.7184 117.082 52.2216 118.033 53.0432 118.649L55.4122 120.426C56.0073 120.872 56.731 121.114 57.4747 121.114H59.7665C60.5103 121.114 61.2341 120.872 61.8291 120.426L64.198 118.649C65.0198 118.033 65.5228 117.082 65.5695 116.055L66.0687 105.071H51.1724V105.071Z" fill="#F0C087"/>
<path d="M56.9017 107.363C59.1935 107.363 62.6312 106.79 63.4465 105.072H51.1724L51.6716 116.056C51.7183 117.082 52.2214 118.033 53.0431 118.65L55.4121 120.426C56.0072 120.873 56.7308 121.114 57.4746 121.114H58.6206C57.4746 121.114 55.1828 118.822 55.1828 115.957C55.1828 114.556 55.1828 110.801 55.1828 109.082C55.183 108.509 55.7557 107.363 56.9017 107.363Z" fill="#E6AF78"/>
<path d="M69.3102 128.282L73.0228 124.947C73.3339 125.341 73.5164 125.836 73.5164 126.367V130.854C73.5164 131.487 73.0034 132 72.3705 132H68.3599V130.413C68.3599 129.6 68.7054 128.825 69.3102 128.282Z" fill="#E4EAF6"/>
<path d="M47.9299 128.282L44.2172 124.947C43.9062 125.341 43.7236 125.836 43.7236 126.367V130.854C43.7236 131.487 44.2366 132 44.8696 132H48.8802V130.413C48.8803 129.6 48.5348 128.825 47.9299 128.282Z" fill="#E4EAF6"/>
<path d="M60.0523 132H57.1875L57.5457 126.843H59.6943L60.0523 132Z" fill="#5B5D6E"/>
<path d="M60.0523 125.697H57.1875V126.028C57.1875 126.795 57.8088 127.416 58.5753 127.416H58.6642C59.4307 127.416 60.052 126.795 60.052 126.028V125.697H60.0523Z" fill="#515262"/>
<path d="M53.384 120.984L58.6209 125.697C58.6209 125.697 57.1542 126.438 55.3443 127.93C54.971 128.238 54.4062 128.113 54.206 127.672L51.7456 122.259L52.524 121.092C52.7177 120.801 53.1243 120.75 53.384 120.984Z" fill="#E4EAF6"/>
<path d="M63.858 120.984L58.6211 125.697C58.6211 125.697 60.0878 126.438 61.8976 127.93C62.271 128.238 62.8358 128.113 63.036 127.672L65.4964 122.259L64.718 121.092C64.5242 120.801 64.1177 120.75 63.858 120.984Z" fill="#E4EAF6"/>
<path d="M62.0938 101.276L62.6309 105.072C65.0829 105.562 65.4361 109.41 65.487 110.509C65.4963 110.708 65.56 110.901 65.6681 111.069L66.6037 112.52C66.6037 112.52 66.2834 110.121 67.7497 108.509C67.7495 108.509 68.2528 98.9841 62.0938 101.276Z" fill="#785550"/>
<path d="M67.179 112.275L66.532 114.863C66.4554 115.169 66.1798 115.384 65.8636 115.384C65.5162 115.384 65.2232 115.126 65.1801 114.781L64.8492 112.134C64.7607 111.426 65.3127 110.801 66.0261 110.801H66.0285C66.7999 110.801 67.3662 111.526 67.179 112.275Z" fill="#F0C087"/>
<path d="M51.7208 100.249L52.5683 100.828C48.7368 103.657 49.4529 108.509 49.4529 108.509C50.5989 109.655 50.5989 112.52 50.5989 112.52L51.7448 111.374C51.7448 111.374 51.3025 108.064 53.4637 106.79C55.469 105.609 57.2237 106.217 59.014 106.217C63.8124 106.217 65.1552 104.409 64.9225 102.207C64.8021 101.067 63.0598 98.6937 58.6201 98.7691C56.8283 98.7995 53.4635 99.342 51.7208 100.249Z" fill="#694B4B"/>
<path d="M51.3866 105.716C51.3866 105.716 50.7779 103.317 52.5683 100.828C48.7368 103.657 49.4529 108.509 49.4529 108.509C50.5989 109.655 50.5989 112.52 50.5989 112.52L51.7448 111.374C51.7448 111.374 51.3025 108.064 53.4637 106.79C55.469 105.609 57.2237 106.217 59.014 106.217C59.7943 106.217 60.4745 106.165 61.08 106.076C57.3846 106.2 55.2062 103.401 51.3866 105.716Z" fill="#5A4146"/>
<path d="M50.0619 112.275L50.7089 114.863C50.7855 115.169 51.0612 115.384 51.3773 115.384C51.7248 115.384 52.0177 115.126 52.0609 114.781L52.3918 112.134C52.4802 111.426 51.9283 110.801 51.2149 110.801H51.2125C50.441 110.801 49.8747 111.526 50.0619 112.275Z" fill="#E6AF78"/>
<path d="M65.4961 130.854H62.6313C61.9985 130.854 61.4854 131.367 61.4854 132H66.6419C66.6419 131.367 66.1289 130.854 65.4961 130.854Z" fill="#E4EAF6"/>
<path d="M90.8975 99.1396C79.3394 99.1396 80.6209 113.195 80.6736 123.381C80.6756 123.765 80.8771 124.112 81.2066 124.311C82.4874 125.083 86.0049 126.888 90.8975 126.888C95.7901 126.888 99.3076 125.083 100.588 124.311C100.918 124.112 101.119 123.765 101.121 123.381C101.174 113.195 102.456 99.1396 90.8975 99.1396Z" fill="#694B4B"/>
<path d="M90.1515 99.1689C79.402 99.7717 80.6208 113.422 80.6724 123.381C80.6744 123.766 80.8759 124.113 81.2054 124.311C82.4862 125.083 86.0036 126.888 90.8963 126.888L93.8172 106.442" fill="#5A4146"/>
<path d="M90.8976 99.1396C84.3256 99.1396 83.8691 107.081 83.8691 107.081C87.6571 106.442 89.9848 108.039 93.8185 106.442L90.8976 126.888C95.7903 126.888 99.3076 125.083 100.588 124.311C100.918 124.112 101.119 123.765 101.121 123.381C101.174 113.195 102.456 99.1396 90.8976 99.1396Z" fill="#694B4B"/>
<path d="M101.12 123.381C101.165 114.629 102.11 103.027 95.0434 99.9331C94.9202 100.573 94.6969 102.361 95.2771 103.521C96.7377 106.442 98.1981 106.442 99.6584 108.633C101.119 116.665 96.868 125.191 95.456 126.351C97.9576 125.756 99.7507 124.815 100.587 124.311C100.916 124.112 101.118 123.766 101.12 123.381Z" fill="#785550"/>
<path d="M101.963 125.596L95.4471 122.882C94.9029 122.655 94.5484 122.123 94.5484 121.533V119.769H87.2461V121.533C87.2461 122.123 86.8916 122.655 86.3474 122.882L79.8316 125.596C79.0152 125.937 78.4834 126.734 78.4834 127.619V130.54C78.4834 131.346 79.1373 132 79.9439 132H101.85C102.657 132 103.311 131.346 103.311 130.54V127.619C103.311 126.734 102.779 125.937 101.963 125.596Z" fill="#E6AF78"/>
<path d="M101.962 125.596L95.6623 122.971L90.8967 125.028L86.1311 122.971L79.8311 125.596C79.0148 125.937 78.4829 126.734 78.4829 127.619V130.54C78.4829 131.346 79.1368 132 79.9434 132H101.85C102.657 132 103.31 131.346 103.31 130.54V127.619C103.31 126.734 102.779 125.937 101.962 125.596Z" fill="#B4E1FA"/>
<path d="M94.5476 119.769H87.2454V121.533C87.2454 122.123 86.8909 122.655 86.3467 122.881L85.3291 123.305C93.1168 125.291 94.5476 119.769 94.5476 119.769Z" fill="#D29B6E"/>
<path d="M82.0421 128.421L79.1111 126.09C78.7183 126.491 78.4829 127.035 78.4829 127.619V130.54C78.4829 131.346 79.1368 132 79.9434 132H82.8644V130.132C82.8642 129.466 82.5617 128.837 82.0421 128.421Z" fill="#A0D2F0"/>
<path d="M103.309 130.539V127.618C103.309 127.039 103.078 126.499 102.691 126.099L99.7503 128.421C99.2307 128.837 98.9282 129.466 98.9282 130.131V132H101.849C102.656 132 103.309 131.346 103.309 130.539Z" fill="#A0D2F0"/>
<path d="M91.0073 130.539H90.7882C90.4454 130.539 90.1675 130.261 90.1675 129.919V125.03H91.628V129.919C91.6279 130.261 91.35 130.539 91.0073 130.539Z" fill="#A0D2F0"/>
<path d="M90.8965 125.028L86.7172 121.894C86.4488 121.692 86.0666 121.758 85.8806 122.037L85.0547 123.275L87.617 126.863C87.8118 127.135 88.1957 127.189 88.4572 126.98L90.8965 125.028Z" fill="#A0D2F0"/>
<path d="M90.8965 125.028L95.0759 121.894C95.3442 121.692 95.7264 121.758 95.9124 122.037L96.7383 123.275L94.176 126.863C93.9812 127.135 93.5973 127.189 93.3358 126.98L90.8965 125.028Z" fill="#A0D2F0"/>
<path d="M94.5469 105.712C90.8959 109.363 83.7305 106.442 83.7305 112.284L84.1838 116.587C84.2713 117.55 84.8293 118.407 85.6742 118.876L89.8319 121.186C90.4935 121.553 91.2979 121.553 91.9595 121.186L96.1172 118.876C96.9621 118.407 97.5201 117.55 97.6076 116.587L98.131 111.476C98.1683 111.113 98.1761 110.748 98.1639 110.383C97.8908 108.524 95.277 107.172 94.5469 105.712Z" fill="#F0C087"/>
<path d="M83.7305 112.284L84.1838 116.587C84.2713 117.549 84.8293 118.406 85.6742 118.876L89.8319 121.186C90.291 121.441 90.8175 121.507 91.3187 121.408C91.3187 121.408 89.2226 120.772 87.9749 117.395C87.5927 116.361 87.0623 110.884 87.5186 110.215C88.4207 108.892 93.4516 108.754 94.9381 106.3C94.8647 106.209 94.7969 106.118 94.7351 106.026C94.7301 106.019 94.7241 106.011 94.719 106.004C94.6545 105.907 94.596 105.809 94.5469 105.712C90.8959 109.363 83.7305 106.442 83.7305 112.284Z" fill="#E6AF78"/>
<path d="M96.2274 130.539H94.3288C93.6433 130.539 93.0874 131.095 93.0874 131.781V132H97.4687V131.781C97.4688 131.095 96.913 130.539 96.2274 130.539Z" fill="#A0D2F0"/>
</g>
<path d="M137.391 63.7266V75H139.406V71.3047H141.852C144.133 71.3047 145.727 69.7734 145.727 67.5391C145.727 65.2656 144.188 63.7266 141.938 63.7266H137.391ZM139.406 65.4141H141.406C142.859 65.4141 143.68 66.1562 143.68 67.5391C143.68 68.8828 142.836 69.6328 141.398 69.6328H139.406V65.4141ZM150.359 73.6172C149.5 73.6172 148.883 73.1875 148.883 72.4688C148.883 71.7734 149.391 71.3828 150.477 71.3125L152.406 71.1875V71.8672C152.406 72.8594 151.531 73.6172 150.359 73.6172ZM149.789 75.1406C150.906 75.1406 151.844 74.6562 152.32 73.8281H152.453V75H154.32V69.1641C154.32 67.3516 153.086 66.2812 150.891 66.2812C148.859 66.2812 147.445 67.2422 147.289 68.75H149.117C149.297 68.1719 149.906 67.8594 150.797 67.8594C151.844 67.8594 152.406 68.3281 152.406 69.1641V69.8828L150.203 70.0156C148.125 70.1406 146.961 71.0312 146.961 72.5781C146.961 74.1406 148.141 75.1406 149.789 75.1406ZM156.656 75H158.594V70.0625C158.594 68.8672 159.469 68.0859 160.727 68.0859C161.055 68.0859 161.57 68.1406 161.719 68.1953V66.3984C161.539 66.3438 161.195 66.3125 160.914 66.3125C159.812 66.3125 158.891 66.9375 158.656 67.7812H158.523V66.4531H156.656V75ZM166.68 67.8203C167.844 67.8203 168.609 68.6328 168.648 69.8984H164.625C164.711 68.6484 165.523 67.8203 166.68 67.8203ZM168.664 72.6484C168.383 73.2812 167.719 73.6328 166.758 73.6328C165.484 73.6328 164.664 72.7422 164.617 71.3203V71.2188H170.586V70.5938C170.586 67.8984 169.125 66.2812 166.688 66.2812C164.211 66.2812 162.672 68.0078 162.672 70.7578C162.672 73.5078 164.188 75.1719 166.703 75.1719C168.719 75.1719 170.133 74.2031 170.5 72.6484H168.664ZM172.531 75H174.469V70.0234C174.469 68.7656 175.195 67.9688 176.352 67.9688C177.531 67.9688 178.078 68.625 178.078 69.9297V75H180.016V69.4688C180.016 67.4297 178.977 66.2812 177.07 66.2812C175.797 66.2812 174.938 66.8672 174.531 67.8203H174.398V66.4531H172.531V75ZM182.93 64.3594V66.5078H181.578V68.0547H182.93V72.7188C182.93 74.375 183.711 75.0391 185.672 75.0391C186.047 75.0391 186.406 75 186.688 74.9453V73.4297C186.453 73.4531 186.305 73.4688 186.031 73.4688C185.219 73.4688 184.859 73.0938 184.859 72.25V68.0547H186.688V66.5078H184.859V64.3594H182.93ZM193.625 71.3672V69.5469H188.492V71.3672H193.625ZM195.781 71.9375C195.883 73.9844 197.594 75.2812 200.18 75.2812C202.914 75.2812 204.609 73.9141 204.609 71.7188C204.609 70 203.648 69.0469 201.359 68.5312L200.062 68.2344C198.664 67.9141 198.094 67.4688 198.094 66.7109C198.094 65.75 198.953 65.125 200.25 65.125C201.484 65.125 202.359 65.75 202.5 66.7422H204.43C204.336 64.8047 202.625 63.4453 200.258 63.4453C197.734 63.4453 196.062 64.8047 196.062 66.8516C196.062 68.5312 197.023 69.5469 199.07 70.0078L200.531 70.3438C201.977 70.6797 202.594 71.1562 202.594 71.9688C202.594 72.9141 201.633 73.5938 200.305 73.5938C198.875 73.5938 197.875 72.9453 197.75 71.9375H195.781ZM207.289 64.3594V66.5078H205.938V68.0547H207.289V72.7188C207.289 74.375 208.07 75.0391 210.031 75.0391C210.406 75.0391 210.766 75 211.047 74.9453V73.4297C210.812 73.4531 210.664 73.4688 210.391 73.4688C209.578 73.4688 209.219 73.0938 209.219 72.25V68.0547H211.047V66.5078H209.219V64.3594H207.289ZM220.422 66.4531H218.484V71.4297C218.484 72.6953 217.797 73.4688 216.539 73.4688C215.383 73.4688 214.844 72.8281 214.844 71.5234V66.4531H212.906V72.0078C212.906 74.0078 214 75.1719 215.867 75.1719C217.172 75.1719 218.008 74.6172 218.422 73.6406H218.555V75H220.422V66.4531ZM225.891 75.1406C227.078 75.1406 228.062 74.5859 228.547 73.6484H228.68V75H230.555V63.1484H228.617V67.8125H228.484C228.031 66.875 227.062 66.3125 225.891 66.3125C223.734 66.3125 222.375 68.0156 222.375 70.7188C222.375 73.4375 223.727 75.1406 225.891 75.1406ZM226.492 67.9609C227.82 67.9609 228.641 69.0234 228.641 70.7266C228.641 72.4453 227.828 73.4922 226.492 73.4922C225.164 73.4922 224.359 72.4531 224.359 70.7266C224.359 69.0078 225.172 67.9609 226.492 67.9609ZM236.586 67.8203C237.75 67.8203 238.516 68.6328 238.555 69.8984H234.531C234.617 68.6484 235.43 67.8203 236.586 67.8203ZM238.57 72.6484C238.289 73.2812 237.625 73.6328 236.664 73.6328C235.391 73.6328 234.57 72.7422 234.523 71.3203V71.2188H240.492V70.5938C240.492 67.8984 239.031 66.2812 236.594 66.2812C234.117 66.2812 232.578 68.0078 232.578 70.7578C232.578 73.5078 234.094 75.1719 236.609 75.1719C238.625 75.1719 240.039 74.2031 240.406 72.6484H238.57ZM242.438 75H244.375V70.0234C244.375 68.7656 245.102 67.9688 246.258 67.9688C247.438 67.9688 247.984 68.625 247.984 69.9297V75H249.922V69.4688C249.922 67.4297 248.883 66.2812 246.977 66.2812C245.703 66.2812 244.844 66.8672 244.438 67.8203H244.305V66.4531H242.438V75ZM252.836 64.3594V66.5078H251.484V68.0547H252.836V72.7188C252.836 74.375 253.617 75.0391 255.578 75.0391C255.953 75.0391 256.312 75 256.594 74.9453V73.4297C256.359 73.4531 256.211 73.4688 255.938 73.4688C255.125 73.4688 254.766 73.0938 254.766 72.25V68.0547H256.594V66.5078H254.766V64.3594H252.836ZM267.703 75.2812C270.305 75.2812 272.211 73.7266 272.477 71.4219H270.492C270.219 72.6875 269.133 73.4844 267.703 73.4844C265.781 73.4844 264.586 71.9062 264.586 69.3594C264.586 66.8203 265.781 65.2422 267.695 65.2422C269.117 65.2422 270.203 66.1172 270.484 67.4688H272.469C272.234 65.1172 270.258 63.4453 267.695 63.4453C264.5 63.4453 262.523 65.7031 262.523 69.3672C262.523 73.0156 264.508 75.2812 267.703 75.2812ZM278.203 75.1719C280.758 75.1719 282.312 73.5 282.312 70.7266C282.312 67.9609 280.75 66.2812 278.203 66.2812C275.664 66.2812 274.094 67.9688 274.094 70.7266C274.094 73.5 275.641 75.1719 278.203 75.1719ZM278.203 73.5469C276.852 73.5469 276.078 72.5156 276.078 70.7266C276.078 68.9453 276.852 67.9062 278.203 67.9062C279.547 67.9062 280.32 68.9453 280.32 70.7266C280.32 72.5156 279.555 73.5469 278.203 73.5469ZM284.266 75H286.203V69.8047C286.203 68.7578 286.914 67.9688 287.875 67.9688C288.828 67.9688 289.422 68.5391 289.422 69.4766V75H291.305V69.6797C291.305 68.7031 291.969 67.9688 292.977 67.9688C294.016 67.9688 294.539 68.5156 294.539 69.6172V75H296.469V69.125C296.469 67.3516 295.438 66.2812 293.727 66.2812C292.539 66.2812 291.555 66.8984 291.133 67.8359H291C290.641 66.875 289.82 66.2812 288.641 66.2812C287.508 66.2812 286.633 66.8594 286.266 67.8359H286.133V66.4531H284.266V75ZM298.766 75H300.703V69.8047C300.703 68.7578 301.414 67.9688 302.375 67.9688C303.328 67.9688 303.922 68.5391 303.922 69.4766V75H305.805V69.6797C305.805 68.7031 306.469 67.9688 307.477 67.9688C308.516 67.9688 309.039 68.5156 309.039 69.6172V75H310.969V69.125C310.969 67.3516 309.938 66.2812 308.227 66.2812C307.039 66.2812 306.055 66.8984 305.633 67.8359H305.5C305.141 66.875 304.32 66.2812 303.141 66.2812C302.008 66.2812 301.133 66.8594 300.766 67.8359H300.633V66.4531H298.766V75ZM320.703 66.4531H318.766V71.4297C318.766 72.6953 318.078 73.4688 316.82 73.4688C315.664 73.4688 315.125 72.8281 315.125 71.5234V66.4531H313.188V72.0078C313.188 74.0078 314.281 75.1719 316.148 75.1719C317.453 75.1719 318.289 74.6172 318.703 73.6406H318.836V75H320.703V66.4531ZM323.078 75H325.016V70.0234C325.016 68.7656 325.742 67.9688 326.898 67.9688C328.078 67.9688 328.625 68.625 328.625 69.9297V75H330.562V69.4688C330.562 67.4297 329.523 66.2812 327.617 66.2812C326.344 66.2812 325.484 66.8672 325.078 67.8203H324.945V66.4531H323.078V75ZM332.883 75H334.812V66.4531H332.883V75ZM333.844 65.0625C334.555 65.0625 335.039 64.6094 335.039 63.9922C335.039 63.375 334.555 62.9219 333.844 62.9219C333.141 62.9219 332.648 63.375 332.648 63.9922C332.648 64.6094 333.141 65.0625 333.844 65.0625ZM344.602 69.3281C344.398 67.5312 343.07 66.2812 340.875 66.2812C338.305 66.2812 336.797 67.9297 336.797 70.7031C336.797 73.5156 338.312 75.1719 340.883 75.1719C343.047 75.1719 344.391 73.9688 344.602 72.1797H342.758C342.555 73.0703 341.883 73.5469 340.875 73.5469C339.555 73.5469 338.758 72.5 338.758 70.7031C338.758 68.9297 339.547 67.9062 340.875 67.9062C341.938 67.9062 342.578 68.5 342.758 69.3281H344.602ZM349.375 73.6172C348.516 73.6172 347.898 73.1875 347.898 72.4688C347.898 71.7734 348.406 71.3828 349.492 71.3125L351.422 71.1875V71.8672C351.422 72.8594 350.547 73.6172 349.375 73.6172ZM348.805 75.1406C349.922 75.1406 350.859 74.6562 351.336 73.8281H351.469V75H353.336V69.1641C353.336 67.3516 352.102 66.2812 349.906 66.2812C347.875 66.2812 346.461 67.2422 346.305 68.75H348.133C348.312 68.1719 348.922 67.8594 349.812 67.8594C350.859 67.8594 351.422 68.3281 351.422 69.1641V69.8828L349.219 70.0156C347.141 70.1406 345.977 71.0312 345.977 72.5781C345.977 74.1406 347.156 75.1406 348.805 75.1406ZM356.289 64.3594V66.5078H354.938V68.0547H356.289V72.7188C356.289 74.375 357.07 75.0391 359.031 75.0391C359.406 75.0391 359.766 75 360.047 74.9453V73.4297C359.812 73.4531 359.664 73.4688 359.391 73.4688C358.578 73.4688 358.219 73.0938 358.219 72.25V68.0547H360.047V66.5078H358.219V64.3594H356.289ZM362.008 75H363.938V66.4531H362.008V75ZM362.969 65.0625C363.68 65.0625 364.164 64.6094 364.164 63.9922C364.164 63.375 363.68 62.9219 362.969 62.9219C362.266 62.9219 361.773 63.375 361.773 63.9922C361.773 64.6094 362.266 65.0625 362.969 65.0625ZM370.031 75.1719C372.586 75.1719 374.141 73.5 374.141 70.7266C374.141 67.9609 372.578 66.2812 370.031 66.2812C367.492 66.2812 365.922 67.9688 365.922 70.7266C365.922 73.5 367.469 75.1719 370.031 75.1719ZM370.031 73.5469C368.68 73.5469 367.906 72.5156 367.906 70.7266C367.906 68.9453 368.68 67.9062 370.031 67.9062C371.375 67.9062 372.148 68.9453 372.148 70.7266C372.148 72.5156 371.383 73.5469 370.031 73.5469ZM376.094 75H378.031V70.0234C378.031 68.7656 378.758 67.9688 379.914 67.9688C381.094 67.9688 381.641 68.625 381.641 69.9297V75H383.578V69.4688C383.578 67.4297 382.539 66.2812 380.633 66.2812C379.359 66.2812 378.5 66.8672 378.094 67.8203H377.961V66.4531H376.094V75Z" fill="white"/>
<path d="M137.078 94.5449H140.271C141.072 94.5449 141.723 94.8008 142.223 95.3125C142.727 95.8203 142.979 96.4766 142.979 97.2812C142.979 98.0703 142.723 98.7188 142.211 99.2266C141.703 99.7305 141.053 99.9824 140.26 99.9824H138.133V103H137.078V94.5449ZM138.133 95.4824V99.0449H139.996C140.598 99.0449 141.064 98.8906 141.396 98.582C141.729 98.2734 141.895 97.8398 141.895 97.2812C141.895 96.6992 141.73 96.2539 141.402 95.9453C141.078 95.6367 140.609 95.4824 139.996 95.4824H138.133ZM146.289 102.227C146.809 102.227 147.238 102.076 147.578 101.775C147.922 101.475 148.094 101.098 148.094 100.645V100.064L146.395 100.176C145.918 100.207 145.568 100.307 145.346 100.475C145.123 100.643 145.012 100.887 145.012 101.207C145.012 101.523 145.131 101.773 145.369 101.957C145.607 102.137 145.914 102.227 146.289 102.227ZM146.102 103.111C145.48 103.111 144.969 102.941 144.566 102.602C144.168 102.258 143.969 101.801 143.969 101.23C143.969 100.668 144.168 100.227 144.566 99.9062C144.965 99.5859 145.533 99.4043 146.271 99.3613L148.094 99.25V98.6758C148.094 98.2852 147.973 97.9863 147.73 97.7793C147.488 97.5723 147.133 97.4688 146.664 97.4688C146.285 97.4688 145.971 97.5371 145.721 97.6738C145.471 97.8105 145.311 98.0039 145.24 98.2539H144.221C144.287 97.75 144.547 97.3438 145 97.0352C145.457 96.7266 146.023 96.5723 146.699 96.5723C147.465 96.5723 148.057 96.7578 148.475 97.1289C148.893 97.5 149.102 98.0156 149.102 98.6758V103H148.141V102.068H148.047C147.844 102.404 147.574 102.662 147.238 102.842C146.902 103.021 146.523 103.111 146.102 103.111ZM150.965 103V96.6836H151.926V97.6211H152.02C152.113 97.3125 152.324 97.0605 152.652 96.8652C152.98 96.6699 153.354 96.5723 153.771 96.5723C153.963 96.5723 154.131 96.582 154.275 96.6016V97.6094C154.139 97.5703 153.924 97.5508 153.631 97.5508C153.15 97.5508 152.754 97.6953 152.441 97.9844C152.129 98.2734 151.973 98.6406 151.973 99.0859V103H150.965ZM157.879 97.4629C157.375 97.4629 156.961 97.6328 156.637 97.9727C156.312 98.3125 156.131 98.7617 156.092 99.3203H159.572C159.561 98.7617 159.4 98.3125 159.092 97.9727C158.783 97.6328 158.379 97.4629 157.879 97.4629ZM159.543 101.365H160.551C160.398 101.912 160.088 102.34 159.619 102.648C159.154 102.957 158.578 103.111 157.891 103.111C157.016 103.111 156.322 102.818 155.811 102.232C155.299 101.643 155.043 100.848 155.043 99.8477C155.043 98.8516 155.301 98.0566 155.816 97.4629C156.332 96.8691 157.023 96.5723 157.891 96.5723C158.742 96.5723 159.412 96.8555 159.9 97.4219C160.389 97.9883 160.633 98.7637 160.633 99.748V100.135H156.092V100.182C156.119 100.807 156.295 101.303 156.619 101.67C156.947 102.037 157.379 102.221 157.914 102.221C158.73 102.221 159.273 101.936 159.543 101.365ZM162.215 103V96.6836H163.176V97.6797H163.27C163.605 96.9414 164.238 96.5723 165.168 96.5723C165.875 96.5723 166.42 96.7754 166.803 97.1816C167.186 97.584 167.377 98.1602 167.377 98.9102V103H166.369V99.1562C166.369 98.5898 166.246 98.1699 166 97.8965C165.758 97.6191 165.385 97.4805 164.881 97.4805C164.373 97.4805 163.969 97.6406 163.668 97.9609C163.371 98.2773 163.223 98.7109 163.223 99.2617V103H162.215ZM169.645 95.0488H170.652V96.6836H172.059V97.5273H170.652V101.102C170.652 101.473 170.727 101.742 170.875 101.91C171.023 102.078 171.262 102.162 171.59 102.162C171.734 102.162 171.891 102.154 172.059 102.139V102.988C171.836 103.027 171.639 103.047 171.467 103.047C170.814 103.047 170.348 102.916 170.066 102.654C169.785 102.393 169.645 101.961 169.645 101.359V97.5273H168.625V96.6836H169.645V95.0488ZM173.318 98.4121C173.318 97.8887 173.543 97.4512 173.992 97.0996C174.441 96.748 175.002 96.5723 175.674 96.5723C176.334 96.5723 176.879 96.7246 177.309 97.0293C177.738 97.334 177.986 97.7461 178.053 98.2656H177.057C176.986 98.0078 176.83 97.8047 176.588 97.6562C176.35 97.5039 176.043 97.4277 175.668 97.4277C175.289 97.4277 174.971 97.5156 174.713 97.6914C174.459 97.8672 174.332 98.0938 174.332 98.3711C174.332 98.5859 174.42 98.7656 174.596 98.9102C174.775 99.0508 175.053 99.166 175.428 99.2559L176.4 99.4902C177.002 99.6348 177.445 99.8438 177.73 100.117C178.02 100.391 178.164 100.752 178.164 101.201C178.164 101.76 177.924 102.219 177.443 102.578C176.963 102.934 176.359 103.111 175.633 103.111C174.93 103.111 174.354 102.955 173.904 102.643C173.455 102.33 173.203 101.912 173.148 101.389H174.186C174.271 101.662 174.441 101.877 174.695 102.033C174.949 102.186 175.273 102.262 175.668 102.262C176.094 102.262 176.443 102.17 176.717 101.986C176.99 101.803 177.127 101.566 177.127 101.277C177.127 100.848 176.793 100.551 176.125 100.387L175.041 100.123C174.443 99.9785 174.006 99.7715 173.729 99.502C173.455 99.2285 173.318 98.8652 173.318 98.4121ZM185.078 102.227C185.598 102.227 186.027 102.076 186.367 101.775C186.711 101.475 186.883 101.098 186.883 100.645V100.064L185.184 100.176C184.707 100.207 184.357 100.307 184.135 100.475C183.912 100.643 183.801 100.887 183.801 101.207C183.801 101.523 183.92 101.773 184.158 101.957C184.396 102.137 184.703 102.227 185.078 102.227ZM184.891 103.111C184.27 103.111 183.758 102.941 183.355 102.602C182.957 102.258 182.758 101.801 182.758 101.23C182.758 100.668 182.957 100.227 183.355 99.9062C183.754 99.5859 184.322 99.4043 185.061 99.3613L186.883 99.25V98.6758C186.883 98.2852 186.762 97.9863 186.52 97.7793C186.277 97.5723 185.922 97.4688 185.453 97.4688C185.074 97.4688 184.76 97.5371 184.51 97.6738C184.26 97.8105 184.1 98.0039 184.029 98.2539H183.01C183.076 97.75 183.336 97.3438 183.789 97.0352C184.246 96.7266 184.812 96.5723 185.488 96.5723C186.254 96.5723 186.846 96.7578 187.264 97.1289C187.682 97.5 187.891 98.0156 187.891 98.6758V103H186.93V102.068H186.836C186.633 102.404 186.363 102.662 186.027 102.842C185.691 103.021 185.312 103.111 184.891 103.111ZM189.754 103V96.6836H190.715V97.6211H190.809C190.902 97.3125 191.113 97.0605 191.441 96.8652C191.77 96.6699 192.143 96.5723 192.561 96.5723C192.752 96.5723 192.92 96.582 193.064 96.6016V97.6094C192.928 97.5703 192.713 97.5508 192.42 97.5508C191.939 97.5508 191.543 97.6953 191.23 97.9844C190.918 98.2734 190.762 98.6406 190.762 99.0859V103H189.754ZM196.668 97.4629C196.164 97.4629 195.75 97.6328 195.426 97.9727C195.102 98.3125 194.92 98.7617 194.881 99.3203H198.361C198.35 98.7617 198.189 98.3125 197.881 97.9727C197.572 97.6328 197.168 97.4629 196.668 97.4629ZM198.332 101.365H199.34C199.188 101.912 198.877 102.34 198.408 102.648C197.943 102.957 197.367 103.111 196.68 103.111C195.805 103.111 195.111 102.818 194.6 102.232C194.088 101.643 193.832 100.848 193.832 99.8477C193.832 98.8516 194.09 98.0566 194.605 97.4629C195.121 96.8691 195.812 96.5723 196.68 96.5723C197.531 96.5723 198.201 96.8555 198.689 97.4219C199.178 97.9883 199.422 98.7637 199.422 99.748V100.135H194.881V100.182C194.908 100.807 195.084 101.303 195.408 101.67C195.736 102.037 196.168 102.221 196.703 102.221C197.52 102.221 198.062 101.936 198.332 101.365ZM209.617 98.6172H208.598C208.512 98.2852 208.326 98.0137 208.041 97.8027C207.76 97.5879 207.402 97.4805 206.969 97.4805C206.402 97.4805 205.951 97.6914 205.615 98.1133C205.283 98.5352 205.117 99.1035 205.117 99.8184C205.117 100.545 205.285 101.125 205.621 101.559C205.957 101.988 206.406 102.203 206.969 102.203C207.395 102.203 207.748 102.107 208.029 101.916C208.314 101.725 208.504 101.451 208.598 101.096H209.617C209.523 101.693 209.244 102.18 208.779 102.555C208.314 102.926 207.713 103.111 206.975 103.111C206.088 103.111 205.383 102.814 204.859 102.221C204.336 101.623 204.074 100.822 204.074 99.8184C204.074 98.834 204.336 98.0469 204.859 97.457C205.383 96.8672 206.086 96.5723 206.969 96.5723C207.707 96.5723 208.309 96.7656 208.773 97.1523C209.242 97.5391 209.523 98.0273 209.617 98.6172ZM215.828 102.238C215.309 102.82 214.6 103.111 213.701 103.111C212.803 103.111 212.092 102.82 211.568 102.238C211.049 101.652 210.789 100.854 210.789 99.8418C210.789 98.8262 211.049 98.0273 211.568 97.4453C212.088 96.8633 212.799 96.5723 213.701 96.5723C214.604 96.5723 215.314 96.8633 215.834 97.4453C216.354 98.0273 216.613 98.8262 216.613 99.8418C216.613 100.854 216.352 101.652 215.828 102.238ZM212.318 101.588C212.643 101.998 213.104 102.203 213.701 102.203C214.299 102.203 214.76 101.998 215.084 101.588C215.408 101.174 215.57 100.592 215.57 99.8418C215.57 99.0918 215.408 98.5117 215.084 98.1016C214.76 97.6875 214.299 97.4805 213.701 97.4805C213.104 97.4805 212.643 97.6875 212.318 98.1016C211.994 98.5117 211.832 99.0918 211.832 99.8418C211.832 100.592 211.994 101.174 212.318 101.588ZM218.195 103V96.6836H219.156V97.6797H219.25C219.586 96.9414 220.219 96.5723 221.148 96.5723C221.855 96.5723 222.4 96.7754 222.783 97.1816C223.166 97.584 223.357 98.1602 223.357 98.9102V103H222.35V99.1562C222.35 98.5898 222.227 98.1699 221.98 97.8965C221.738 97.6191 221.365 97.4805 220.861 97.4805C220.354 97.4805 219.949 97.6406 219.648 97.9609C219.352 98.2773 219.203 98.7109 219.203 99.2617V103H218.195ZM230.43 98.6172H229.41C229.324 98.2852 229.139 98.0137 228.854 97.8027C228.572 97.5879 228.215 97.4805 227.781 97.4805C227.215 97.4805 226.764 97.6914 226.428 98.1133C226.096 98.5352 225.93 99.1035 225.93 99.8184C225.93 100.545 226.098 101.125 226.434 101.559C226.77 101.988 227.219 102.203 227.781 102.203C228.207 102.203 228.561 102.107 228.842 101.916C229.127 101.725 229.316 101.451 229.41 101.096H230.43C230.336 101.693 230.057 102.18 229.592 102.555C229.127 102.926 228.525 103.111 227.787 103.111C226.9 103.111 226.195 102.814 225.672 102.221C225.148 101.623 224.887 100.822 224.887 99.8184C224.887 98.834 225.148 98.0469 225.672 97.457C226.195 96.8672 226.898 96.5723 227.781 96.5723C228.52 96.5723 229.121 96.7656 229.586 97.1523C230.055 97.5391 230.336 98.0273 230.43 98.6172ZM234.438 97.4629C233.934 97.4629 233.52 97.6328 233.195 97.9727C232.871 98.3125 232.689 98.7617 232.65 99.3203H236.131C236.119 98.7617 235.959 98.3125 235.65 97.9727C235.342 97.6328 234.938 97.4629 234.438 97.4629ZM236.102 101.365H237.109C236.957 101.912 236.646 102.34 236.178 102.648C235.713 102.957 235.137 103.111 234.449 103.111C233.574 103.111 232.881 102.818 232.369 102.232C231.857 101.643 231.602 100.848 231.602 99.8477C231.602 98.8516 231.859 98.0566 232.375 97.4629C232.891 96.8691 233.582 96.5723 234.449 96.5723C235.301 96.5723 235.971 96.8555 236.459 97.4219C236.947 97.9883 237.191 98.7637 237.191 99.748V100.135H232.65V100.182C232.678 100.807 232.854 101.303 233.178 101.67C233.506 102.037 233.938 102.221 234.473 102.221C235.289 102.221 235.832 101.936 236.102 101.365ZM238.773 103V96.6836H239.734V97.6211H239.828C239.922 97.3125 240.133 97.0605 240.461 96.8652C240.789 96.6699 241.162 96.5723 241.58 96.5723C241.771 96.5723 241.939 96.582 242.084 96.6016V97.6094C241.947 97.5703 241.732 97.5508 241.439 97.5508C240.959 97.5508 240.562 97.6953 240.25 97.9844C239.938 98.2734 239.781 98.6406 239.781 99.0859V103H238.773ZM243.461 103V96.6836H244.422V97.6797H244.516C244.852 96.9414 245.484 96.5723 246.414 96.5723C247.121 96.5723 247.666 96.7754 248.049 97.1816C248.432 97.584 248.623 98.1602 248.623 98.9102V103H247.615V99.1562C247.615 98.5898 247.492 98.1699 247.246 97.8965C247.004 97.6191 246.631 97.4805 246.127 97.4805C245.619 97.4805 245.215 97.6406 244.914 97.9609C244.617 98.2773 244.469 98.7109 244.469 99.2617V103H243.461ZM252.988 97.4629C252.484 97.4629 252.07 97.6328 251.746 97.9727C251.422 98.3125 251.24 98.7617 251.201 99.3203H254.682C254.67 98.7617 254.51 98.3125 254.201 97.9727C253.893 97.6328 253.488 97.4629 252.988 97.4629ZM254.652 101.365H255.66C255.508 101.912 255.197 102.34 254.729 102.648C254.264 102.957 253.688 103.111 253 103.111C252.125 103.111 251.432 102.818 250.92 102.232C250.408 101.643 250.152 100.848 250.152 99.8477C250.152 98.8516 250.41 98.0566 250.926 97.4629C251.441 96.8691 252.133 96.5723 253 96.5723C253.852 96.5723 254.521 96.8555 255.01 97.4219C255.498 97.9883 255.742 98.7637 255.742 99.748V100.135H251.201V100.182C251.229 100.807 251.404 101.303 251.729 101.67C252.057 102.037 252.488 102.221 253.023 102.221C253.84 102.221 254.383 101.936 254.652 101.365ZM259.662 103.111C258.854 103.111 258.209 102.814 257.729 102.221C257.248 101.627 257.008 100.834 257.008 99.8418C257.008 98.8535 257.248 98.0625 257.729 97.4688C258.213 96.8711 258.857 96.5723 259.662 96.5723C260.104 96.5723 260.498 96.6719 260.846 96.8711C261.197 97.0664 261.463 97.3359 261.643 97.6797H261.73V94.1758H262.738V103H261.777V101.992H261.684C261.484 102.344 261.207 102.619 260.852 102.818C260.496 103.014 260.1 103.111 259.662 103.111ZM259.896 97.4805C259.322 97.4805 258.871 97.6914 258.543 98.1133C258.215 98.5312 258.051 99.1074 258.051 99.8418C258.051 100.58 258.213 101.158 258.537 101.576C258.865 101.994 259.318 102.203 259.896 102.203C260.471 102.203 260.924 101.992 261.256 101.57C261.588 101.148 261.754 100.572 261.754 99.8418C261.754 99.1191 261.586 98.5449 261.25 98.1191C260.918 97.6934 260.467 97.4805 259.896 97.4805ZM270.027 102.227C270.547 102.227 270.977 102.076 271.316 101.775C271.66 101.475 271.832 101.098 271.832 100.645V100.064L270.133 100.176C269.656 100.207 269.307 100.307 269.084 100.475C268.861 100.643 268.75 100.887 268.75 101.207C268.75 101.523 268.869 101.773 269.107 101.957C269.346 102.137 269.652 102.227 270.027 102.227ZM269.84 103.111C269.219 103.111 268.707 102.941 268.305 102.602C267.906 102.258 267.707 101.801 267.707 101.23C267.707 100.668 267.906 100.227 268.305 99.9062C268.703 99.5859 269.271 99.4043 270.01 99.3613L271.832 99.25V98.6758C271.832 98.2852 271.711 97.9863 271.469 97.7793C271.227 97.5723 270.871 97.4688 270.402 97.4688C270.023 97.4688 269.709 97.5371 269.459 97.6738C269.209 97.8105 269.049 98.0039 268.979 98.2539H267.959C268.025 97.75 268.285 97.3438 268.738 97.0352C269.195 96.7266 269.762 96.5723 270.438 96.5723C271.203 96.5723 271.795 96.7578 272.213 97.1289C272.631 97.5 272.84 98.0156 272.84 98.6758V103H271.879V102.068H271.785C271.582 102.404 271.312 102.662 270.977 102.842C270.641 103.021 270.262 103.111 269.84 103.111ZM274.703 103V96.6836H275.664V97.6797H275.758C276.094 96.9414 276.727 96.5723 277.656 96.5723C278.363 96.5723 278.908 96.7754 279.291 97.1816C279.674 97.584 279.865 98.1602 279.865 98.9102V103H278.857V99.1562C278.857 98.5898 278.734 98.1699 278.488 97.8965C278.246 97.6191 277.873 97.4805 277.369 97.4805C276.861 97.4805 276.457 97.6406 276.156 97.9609C275.859 98.2773 275.711 98.7109 275.711 99.2617V103H274.703ZM284.049 103.111C283.24 103.111 282.596 102.814 282.115 102.221C281.635 101.627 281.395 100.834 281.395 99.8418C281.395 98.8535 281.635 98.0625 282.115 97.4688C282.6 96.8711 283.244 96.5723 284.049 96.5723C284.49 96.5723 284.885 96.6719 285.232 96.8711C285.584 97.0664 285.85 97.3359 286.029 97.6797H286.117V94.1758H287.125V103H286.164V101.992H286.07C285.871 102.344 285.594 102.619 285.238 102.818C284.883 103.014 284.486 103.111 284.049 103.111ZM284.283 97.4805C283.709 97.4805 283.258 97.6914 282.93 98.1133C282.602 98.5312 282.438 99.1074 282.438 99.8418C282.438 100.58 282.6 101.158 282.924 101.576C283.252 101.994 283.705 102.203 284.283 102.203C284.857 102.203 285.311 101.992 285.643 101.57C285.975 101.148 286.141 100.572 286.141 99.8418C286.141 99.1191 285.973 98.5449 285.637 98.1191C285.305 97.6934 284.854 97.4805 284.283 97.4805ZM292.891 95.0488H293.898V96.6836H295.305V97.5273H293.898V101.102C293.898 101.473 293.973 101.742 294.121 101.91C294.27 102.078 294.508 102.162 294.836 102.162C294.98 102.162 295.137 102.154 295.305 102.139V102.988C295.082 103.027 294.885 103.047 294.713 103.047C294.061 103.047 293.594 102.916 293.312 102.654C293.031 102.393 292.891 101.961 292.891 101.359V97.5273H291.871V96.6836H292.891V95.0488ZM296.887 103V94.1758H297.895V97.6797H297.988C298.148 97.3242 298.393 97.0508 298.721 96.8594C299.053 96.668 299.457 96.5723 299.934 96.5723C300.605 96.5723 301.137 96.7793 301.527 97.1934C301.918 97.6035 302.113 98.1758 302.113 98.9102V103H301.105V99.1562C301.105 98.0391 300.619 97.4805 299.646 97.4805C299.092 97.4805 298.66 97.6426 298.352 97.9668C298.047 98.2871 297.895 98.7188 297.895 99.2617V103H296.887ZM306.473 97.4629C305.969 97.4629 305.555 97.6328 305.23 97.9727C304.906 98.3125 304.725 98.7617 304.686 99.3203H308.166C308.154 98.7617 307.994 98.3125 307.686 97.9727C307.377 97.6328 306.973 97.4629 306.473 97.4629ZM308.137 101.365H309.145C308.992 101.912 308.682 102.34 308.213 102.648C307.748 102.957 307.172 103.111 306.484 103.111C305.609 103.111 304.916 102.818 304.404 102.232C303.893 101.643 303.637 100.848 303.637 99.8477C303.637 98.8516 303.895 98.0566 304.41 97.4629C304.926 96.8691 305.617 96.5723 306.484 96.5723C307.336 96.5723 308.006 96.8555 308.494 97.4219C308.982 97.9883 309.227 98.7637 309.227 99.748V100.135H304.686V100.182C304.713 100.807 304.889 101.303 305.213 101.67C305.541 102.037 305.973 102.221 306.508 102.221C307.324 102.221 307.867 101.936 308.137 101.365ZM311.23 105.285C311.07 105.285 310.92 105.273 310.779 105.25V104.389C310.881 104.408 311.021 104.418 311.201 104.418C311.494 104.418 311.727 104.34 311.898 104.184C312.074 104.027 312.229 103.76 312.361 103.381L312.479 103.006L310.141 96.6836H311.23L312.965 101.881H313.059L314.787 96.6836H315.859L313.393 103.387C313.123 104.117 312.836 104.615 312.531 104.881C312.227 105.15 311.793 105.285 311.23 105.285ZM328.539 96.6836L326.77 103H325.744L324.332 98.1133H324.238L322.832 103H321.812L320.043 96.6836H321.062L322.305 101.734H322.398L323.811 96.6836H324.777L326.189 101.734H326.283L327.525 96.6836H328.539ZM331.656 102.227C332.176 102.227 332.605 102.076 332.945 101.775C333.289 101.475 333.461 101.098 333.461 100.645V100.064L331.762 100.176C331.285 100.207 330.936 100.307 330.713 100.475C330.49 100.643 330.379 100.887 330.379 101.207C330.379 101.523 330.498 101.773 330.736 101.957C330.975 102.137 331.281 102.227 331.656 102.227ZM331.469 103.111C330.848 103.111 330.336 102.941 329.934 102.602C329.535 102.258 329.336 101.801 329.336 101.23C329.336 100.668 329.535 100.227 329.934 99.9062C330.332 99.5859 330.9 99.4043 331.639 99.3613L333.461 99.25V98.6758C333.461 98.2852 333.34 97.9863 333.098 97.7793C332.855 97.5723 332.5 97.4688 332.031 97.4688C331.652 97.4688 331.338 97.5371 331.088 97.6738C330.838 97.8105 330.678 98.0039 330.607 98.2539H329.588C329.654 97.75 329.914 97.3438 330.367 97.0352C330.824 96.7266 331.391 96.5723 332.066 96.5723C332.832 96.5723 333.424 96.7578 333.842 97.1289C334.26 97.5 334.469 98.0156 334.469 98.6758V103H333.508V102.068H333.414C333.211 102.404 332.941 102.662 332.605 102.842C332.27 103.021 331.891 103.111 331.469 103.111ZM336.332 103V96.6836H337.293V97.6797H337.387C337.723 96.9414 338.355 96.5723 339.285 96.5723C339.992 96.5723 340.537 96.7754 340.92 97.1816C341.303 97.584 341.494 98.1602 341.494 98.9102V103H340.486V99.1562C340.486 98.5898 340.363 98.1699 340.117 97.8965C339.875 97.6191 339.502 97.4805 338.998 97.4805C338.49 97.4805 338.086 97.6406 337.785 97.9609C337.488 98.2773 337.34 98.7109 337.34 99.2617V103H336.332ZM343.762 95.0488H344.77V96.6836H346.176V97.5273H344.77V101.102C344.77 101.473 344.844 101.742 344.992 101.91C345.141 102.078 345.379 102.162 345.707 102.162C345.852 102.162 346.008 102.154 346.176 102.139V102.988C345.953 103.027 345.756 103.047 345.584 103.047C344.932 103.047 344.465 102.916 344.184 102.654C343.902 102.393 343.762 101.961 343.762 101.359V97.5273H342.742V96.6836H343.762V95.0488ZM351.508 95.0488H352.516V96.6836H353.922V97.5273H352.516V101.102C352.516 101.473 352.59 101.742 352.738 101.91C352.887 102.078 353.125 102.162 353.453 102.162C353.598 102.162 353.754 102.154 353.922 102.139V102.988C353.699 103.027 353.502 103.047 353.33 103.047C352.678 103.047 352.211 102.916 351.93 102.654C351.648 102.393 351.508 101.961 351.508 101.359V97.5273H350.488V96.6836H351.508V95.0488ZM360.074 102.238C359.555 102.82 358.846 103.111 357.947 103.111C357.049 103.111 356.338 102.82 355.814 102.238C355.295 101.652 355.035 100.854 355.035 99.8418C355.035 98.8262 355.295 98.0273 355.814 97.4453C356.334 96.8633 357.045 96.5723 357.947 96.5723C358.85 96.5723 359.561 96.8633 360.08 97.4453C360.6 98.0273 360.859 98.8262 360.859 99.8418C360.859 100.854 360.598 101.652 360.074 102.238ZM356.564 101.588C356.889 101.998 357.35 102.203 357.947 102.203C358.545 102.203 359.006 101.998 359.33 101.588C359.654 101.174 359.816 100.592 359.816 99.8418C359.816 99.0918 359.654 98.5117 359.33 98.1016C359.006 97.6875 358.545 97.4805 357.947 97.4805C357.35 97.4805 356.889 97.6875 356.564 98.1016C356.24 98.5117 356.078 99.0918 356.078 99.8418C356.078 100.592 356.24 101.174 356.564 101.588ZM366.25 95.0488H367.258V96.6836H368.664V97.5273H367.258V101.102C367.258 101.473 367.332 101.742 367.48 101.91C367.629 102.078 367.867 102.162 368.195 102.162C368.34 102.162 368.496 102.154 368.664 102.139V102.988C368.441 103.027 368.244 103.047 368.072 103.047C367.42 103.047 366.953 102.916 366.672 102.654C366.391 102.393 366.25 101.961 366.25 101.359V97.5273H365.23V96.6836H366.25V95.0488ZM372.133 102.227C372.652 102.227 373.082 102.076 373.422 101.775C373.766 101.475 373.938 101.098 373.938 100.645V100.064L372.238 100.176C371.762 100.207 371.412 100.307 371.189 100.475C370.967 100.643 370.855 100.887 370.855 101.207C370.855 101.523 370.975 101.773 371.213 101.957C371.451 102.137 371.758 102.227 372.133 102.227ZM371.945 103.111C371.324 103.111 370.812 102.941 370.41 102.602C370.012 102.258 369.812 101.801 369.812 101.23C369.812 100.668 370.012 100.227 370.41 99.9062C370.809 99.5859 371.377 99.4043 372.115 99.3613L373.938 99.25V98.6758C373.938 98.2852 373.816 97.9863 373.574 97.7793C373.332 97.5723 372.977 97.4688 372.508 97.4688C372.129 97.4688 371.814 97.5371 371.564 97.6738C371.314 97.8105 371.154 98.0039 371.084 98.2539H370.064C370.131 97.75 370.391 97.3438 370.844 97.0352C371.301 96.7266 371.867 96.5723 372.543 96.5723C373.309 96.5723 373.9 96.7578 374.318 97.1289C374.736 97.5 374.945 98.0156 374.945 98.6758V103H373.984V102.068H373.891C373.688 102.404 373.418 102.662 373.082 102.842C372.746 103.021 372.367 103.111 371.945 103.111ZM376.867 103V94.1758H377.875V103H376.867ZM380.992 99.4434L383.734 96.6836H384.971L382.252 99.3906L385.152 103H383.869L381.502 100.041L380.898 100.604V103H379.891V94.1758H380.898V99.4434H380.992ZM386.676 94.5391H387.848L387.748 100.188H386.775L386.676 94.5391ZM387.848 102.877C387.699 103.029 387.506 103.105 387.268 103.105C387.029 103.105 386.834 103.029 386.682 102.877C386.529 102.725 386.453 102.529 386.453 102.291C386.453 102.053 386.529 101.857 386.682 101.705C386.834 101.549 387.029 101.471 387.268 101.471C387.506 101.471 387.699 101.547 387.848 101.699C388 101.852 388.076 102.049 388.076 102.291C388.076 102.529 388 102.725 387.848 102.877ZM138.121 117H137.078V108.545H138.104L142.691 115.125H142.785V108.545H143.828V117H142.803L138.215 110.443H138.121V117ZM150.578 116.238C150.059 116.82 149.35 117.111 148.451 117.111C147.553 117.111 146.842 116.82 146.318 116.238C145.799 115.652 145.539 114.854 145.539 113.842C145.539 112.826 145.799 112.027 146.318 111.445C146.838 110.863 147.549 110.572 148.451 110.572C149.354 110.572 150.064 110.863 150.584 111.445C151.104 112.027 151.363 112.826 151.363 113.842C151.363 114.854 151.102 115.652 150.578 116.238ZM147.068 115.588C147.393 115.998 147.854 116.203 148.451 116.203C149.049 116.203 149.51 115.998 149.834 115.588C150.158 115.174 150.32 114.592 150.32 113.842C150.32 113.092 150.158 112.512 149.834 112.102C149.51 111.688 149.049 111.48 148.451 111.48C147.854 111.48 147.393 111.688 147.068 112.102C146.744 112.512 146.582 113.092 146.582 113.842C146.582 114.592 146.744 115.174 147.068 115.588ZM160.656 110.684L158.887 117H157.861L156.449 112.113H156.355L154.949 117H153.93L152.16 110.684H153.18L154.422 115.734H154.516L155.928 110.684H156.895L158.307 115.734H158.4L159.643 110.684H160.656ZM165.391 117V110.684H166.352V111.68H166.445C166.59 111.328 166.814 111.057 167.119 110.865C167.424 110.67 167.787 110.572 168.209 110.572C168.623 110.572 168.979 110.672 169.275 110.871C169.576 111.07 169.803 111.34 169.955 111.68H170.049C170.221 111.34 170.479 111.07 170.822 110.871C171.166 110.672 171.553 110.572 171.982 110.572C172.627 110.572 173.123 110.752 173.471 111.111C173.818 111.467 173.992 111.975 173.992 112.635V117H172.984V112.869C172.984 111.943 172.541 111.48 171.654 111.48C171.225 111.48 170.873 111.621 170.6 111.902C170.326 112.184 170.189 112.529 170.189 112.939V117H169.182V112.711C169.182 112.336 169.061 112.037 168.818 111.814C168.58 111.592 168.262 111.48 167.863 111.48C167.453 111.48 167.105 111.637 166.82 111.949C166.539 112.262 166.398 112.641 166.398 113.086V117H165.391ZM177.777 116.227C178.297 116.227 178.727 116.076 179.066 115.775C179.41 115.475 179.582 115.098 179.582 114.645V114.064L177.883 114.176C177.406 114.207 177.057 114.307 176.834 114.475C176.611 114.643 176.5 114.887 176.5 115.207C176.5 115.523 176.619 115.773 176.857 115.957C177.096 116.137 177.402 116.227 177.777 116.227ZM177.59 117.111C176.969 117.111 176.457 116.941 176.055 116.602C175.656 116.258 175.457 115.801 175.457 115.23C175.457 114.668 175.656 114.227 176.055 113.906C176.453 113.586 177.021 113.404 177.76 113.361L179.582 113.25V112.676C179.582 112.285 179.461 111.986 179.219 111.779C178.977 111.572 178.621 111.469 178.152 111.469C177.773 111.469 177.459 111.537 177.209 111.674C176.959 111.811 176.799 112.004 176.729 112.254H175.709C175.775 111.75 176.035 111.344 176.488 111.035C176.945 110.727 177.512 110.572 178.188 110.572C178.953 110.572 179.545 110.758 179.963 111.129C180.381 111.5 180.59 112.016 180.59 112.676V117H179.629V116.068H179.535C179.332 116.404 179.062 116.662 178.727 116.842C178.391 117.021 178.012 117.111 177.59 117.111ZM183.613 113.443L186.355 110.684H187.592L184.873 113.391L187.773 117H186.49L184.123 114.041L183.52 114.604V117H182.512V108.176H183.52V113.443H183.613ZM191.195 111.463C190.691 111.463 190.277 111.633 189.953 111.973C189.629 112.312 189.447 112.762 189.408 113.32H192.889C192.877 112.762 192.717 112.312 192.408 111.973C192.1 111.633 191.695 111.463 191.195 111.463ZM192.859 115.365H193.867C193.715 115.912 193.404 116.34 192.936 116.648C192.471 116.957 191.895 117.111 191.207 117.111C190.332 117.111 189.639 116.818 189.127 116.232C188.615 115.643 188.359 114.848 188.359 113.848C188.359 112.852 188.617 112.057 189.133 111.463C189.648 110.869 190.34 110.572 191.207 110.572C192.059 110.572 192.729 110.855 193.217 111.422C193.705 111.988 193.949 112.764 193.949 113.748V114.135H189.408V114.182C189.436 114.807 189.611 115.303 189.936 115.67C190.264 116.037 190.695 116.221 191.23 116.221C192.047 116.221 192.59 115.936 192.859 115.365ZM199.34 109.049H200.348V110.684H201.754V111.527H200.348V115.102C200.348 115.473 200.422 115.742 200.57 115.91C200.719 116.078 200.957 116.162 201.285 116.162C201.43 116.162 201.586 116.154 201.754 116.139V116.988C201.531 117.027 201.334 117.047 201.162 117.047C200.51 117.047 200.043 116.916 199.762 116.654C199.48 116.393 199.34 115.961 199.34 115.359V111.527H198.32V110.684H199.34V109.049ZM203.336 117V108.176H204.344V111.68H204.438C204.598 111.324 204.842 111.051 205.17 110.859C205.502 110.668 205.906 110.572 206.383 110.572C207.055 110.572 207.586 110.779 207.977 111.193C208.367 111.604 208.562 112.176 208.562 112.91V117H207.555V113.156C207.555 112.039 207.068 111.48 206.096 111.48C205.541 111.48 205.109 111.643 204.801 111.967C204.496 112.287 204.344 112.719 204.344 113.262V117H203.336ZM210.426 117V110.684H211.434V117H210.426ZM211.428 109.195C211.291 109.332 211.125 109.4 210.93 109.4C210.734 109.4 210.568 109.332 210.432 109.195C210.295 109.055 210.227 108.889 210.227 108.697C210.227 108.506 210.295 108.342 210.432 108.205C210.568 108.064 210.734 107.994 210.93 107.994C211.125 107.994 211.291 108.064 211.428 108.205C211.564 108.342 211.633 108.506 211.633 108.697C211.633 108.889 211.564 109.055 211.428 109.195ZM213.209 112.412C213.209 111.889 213.434 111.451 213.883 111.1C214.332 110.748 214.893 110.572 215.564 110.572C216.225 110.572 216.77 110.725 217.199 111.029C217.629 111.334 217.877 111.746 217.943 112.266H216.947C216.877 112.008 216.721 111.805 216.479 111.656C216.24 111.504 215.934 111.428 215.559 111.428C215.18 111.428 214.861 111.516 214.604 111.691C214.35 111.867 214.223 112.094 214.223 112.371C214.223 112.586 214.311 112.766 214.486 112.91C214.666 113.051 214.943 113.166 215.318 113.256L216.291 113.49C216.893 113.635 217.336 113.844 217.621 114.117C217.91 114.391 218.055 114.752 218.055 115.201C218.055 115.76 217.814 116.219 217.334 116.578C216.854 116.934 216.25 117.111 215.523 117.111C214.82 117.111 214.244 116.955 213.795 116.643C213.346 116.33 213.094 115.912 213.039 115.389H214.076C214.162 115.662 214.332 115.877 214.586 116.033C214.84 116.186 215.164 116.262 215.559 116.262C215.984 116.262 216.334 116.17 216.607 115.986C216.881 115.803 217.018 115.566 217.018 115.277C217.018 114.848 216.684 114.551 216.016 114.387L214.932 114.123C214.334 113.979 213.896 113.771 213.619 113.502C213.346 113.229 213.209 112.865 213.209 112.412ZM223.082 117V108.176H224.09V111.68H224.184C224.344 111.324 224.588 111.051 224.916 110.859C225.248 110.668 225.652 110.572 226.129 110.572C226.801 110.572 227.332 110.779 227.723 111.193C228.113 111.604 228.309 112.176 228.309 112.91V117H227.301V113.156C227.301 112.039 226.814 111.48 225.842 111.48C225.287 111.48 224.855 111.643 224.547 111.967C224.242 112.287 224.09 112.719 224.09 113.262V117H223.082ZM232.094 116.227C232.613 116.227 233.043 116.076 233.383 115.775C233.727 115.475 233.898 115.098 233.898 114.645V114.064L232.199 114.176C231.723 114.207 231.373 114.307 231.15 114.475C230.928 114.643 230.816 114.887 230.816 115.207C230.816 115.523 230.936 115.773 231.174 115.957C231.412 116.137 231.719 116.227 232.094 116.227ZM231.906 117.111C231.285 117.111 230.773 116.941 230.371 116.602C229.973 116.258 229.773 115.801 229.773 115.23C229.773 114.668 229.973 114.227 230.371 113.906C230.77 113.586 231.338 113.404 232.076 113.361L233.898 113.25V112.676C233.898 112.285 233.777 111.986 233.535 111.779C233.293 111.572 232.938 111.469 232.469 111.469C232.09 111.469 231.775 111.537 231.525 111.674C231.275 111.811 231.115 112.004 231.045 112.254H230.025C230.092 111.75 230.352 111.344 230.805 111.035C231.262 110.727 231.828 110.572 232.504 110.572C233.27 110.572 233.861 110.758 234.279 111.129C234.697 111.5 234.906 112.016 234.906 112.676V117H233.945V116.068H233.852C233.648 116.404 233.379 116.662 233.043 116.842C232.707 117.021 232.328 117.111 231.906 117.111ZM239.846 110.572C240.65 110.572 241.293 110.869 241.773 111.463C242.258 112.057 242.5 112.85 242.5 113.842C242.5 114.83 242.258 115.623 241.773 116.221C241.289 116.814 240.646 117.111 239.846 117.111C239.396 117.111 238.998 117.02 238.65 116.836C238.303 116.648 238.043 116.387 237.871 116.051H237.777V119.109H236.77V110.684H237.73V111.738H237.824C238.027 111.375 238.307 111.09 238.662 110.883C239.021 110.676 239.416 110.572 239.846 110.572ZM239.605 116.203C240.184 116.203 240.637 115.994 240.965 115.576C241.293 115.158 241.457 114.58 241.457 113.842C241.457 113.104 241.293 112.525 240.965 112.107C240.641 111.689 240.189 111.48 239.611 111.48C239.041 111.48 238.588 111.693 238.252 112.119C237.916 112.541 237.748 113.115 237.748 113.842C237.748 114.564 237.914 115.139 238.246 115.564C238.582 115.99 239.035 116.203 239.605 116.203ZM247.158 110.572C247.963 110.572 248.605 110.869 249.086 111.463C249.57 112.057 249.812 112.85 249.812 113.842C249.812 114.83 249.57 115.623 249.086 116.221C248.602 116.814 247.959 117.111 247.158 117.111C246.709 117.111 246.311 117.02 245.963 116.836C245.615 116.648 245.355 116.387 245.184 116.051H245.09V119.109H244.082V110.684H245.043V111.738H245.137C245.34 111.375 245.619 111.09 245.975 110.883C246.334 110.676 246.729 110.572 247.158 110.572ZM246.918 116.203C247.496 116.203 247.949 115.994 248.277 115.576C248.605 115.158 248.77 114.58 248.77 113.842C248.77 113.104 248.605 112.525 248.277 112.107C247.953 111.689 247.502 111.48 246.924 111.48C246.354 111.48 245.9 111.693 245.564 112.119C245.229 112.541 245.061 113.115 245.061 113.842C245.061 114.564 245.227 115.139 245.559 115.564C245.895 115.99 246.348 116.203 246.918 116.203ZM253.914 111.463C253.41 111.463 252.996 111.633 252.672 111.973C252.348 112.312 252.166 112.762 252.127 113.32H255.607C255.596 112.762 255.436 112.312 255.127 111.973C254.818 111.633 254.414 111.463 253.914 111.463ZM255.578 115.365H256.586C256.434 115.912 256.123 116.34 255.654 116.648C255.189 116.957 254.613 117.111 253.926 117.111C253.051 117.111 252.357 116.818 251.846 116.232C251.334 115.643 251.078 114.848 251.078 113.848C251.078 112.852 251.336 112.057 251.852 111.463C252.367 110.869 253.059 110.572 253.926 110.572C254.777 110.572 255.447 110.855 255.936 111.422C256.424 111.988 256.668 112.764 256.668 113.748V114.135H252.127V114.182C252.154 114.807 252.33 115.303 252.654 115.67C252.982 116.037 253.414 116.221 253.949 116.221C254.766 116.221 255.309 115.936 255.578 115.365ZM258.25 117V110.684H259.211V111.68H259.305C259.641 110.941 260.273 110.572 261.203 110.572C261.91 110.572 262.455 110.775 262.838 111.182C263.221 111.584 263.412 112.16 263.412 112.91V117H262.404V113.156C262.404 112.59 262.281 112.17 262.035 111.896C261.793 111.619 261.42 111.48 260.916 111.48C260.408 111.48 260.004 111.641 259.703 111.961C259.406 112.277 259.258 112.711 259.258 113.262V117H258.25ZM268.668 117V110.684H269.676V117H268.668ZM269.67 109.195C269.533 109.332 269.367 109.4 269.172 109.4C268.977 109.4 268.811 109.332 268.674 109.195C268.537 109.055 268.469 108.889 268.469 108.697C268.469 108.506 268.537 108.342 268.674 108.205C268.811 108.064 268.977 107.994 269.172 107.994C269.367 107.994 269.533 108.064 269.67 108.205C269.807 108.342 269.875 108.506 269.875 108.697C269.875 108.889 269.807 109.055 269.67 109.195ZM271.598 117V110.684H272.559V111.68H272.652C272.988 110.941 273.621 110.572 274.551 110.572C275.258 110.572 275.803 110.775 276.186 111.182C276.568 111.584 276.76 112.16 276.76 112.91V117H275.752V113.156C275.752 112.59 275.629 112.17 275.383 111.896C275.141 111.619 274.768 111.48 274.264 111.48C273.756 111.48 273.352 111.641 273.051 111.961C272.754 112.277 272.605 112.711 272.605 113.262V117H271.598ZM283.938 116.227C284.457 116.227 284.887 116.076 285.227 115.775C285.57 115.475 285.742 115.098 285.742 114.645V114.064L284.043 114.176C283.566 114.207 283.217 114.307 282.994 114.475C282.771 114.643 282.66 114.887 282.66 115.207C282.66 115.523 282.779 115.773 283.018 115.957C283.256 116.137 283.562 116.227 283.938 116.227ZM283.75 117.111C283.129 117.111 282.617 116.941 282.215 116.602C281.816 116.258 281.617 115.801 281.617 115.23C281.617 114.668 281.816 114.227 282.215 113.906C282.613 113.586 283.182 113.404 283.92 113.361L285.742 113.25V112.676C285.742 112.285 285.621 111.986 285.379 111.779C285.137 111.572 284.781 111.469 284.312 111.469C283.934 111.469 283.619 111.537 283.369 111.674C283.119 111.811 282.959 112.004 282.889 112.254H281.869C281.936 111.75 282.195 111.344 282.648 111.035C283.105 110.727 283.672 110.572 284.348 110.572C285.113 110.572 285.705 110.758 286.123 111.129C286.541 111.5 286.75 112.016 286.75 112.676V117H285.789V116.068H285.695C285.492 116.404 285.223 116.662 284.887 116.842C284.551 117.021 284.172 117.111 283.75 117.111ZM288.613 117V110.684H289.574V111.68H289.668C290.004 110.941 290.637 110.572 291.566 110.572C292.273 110.572 292.818 110.775 293.201 111.182C293.584 111.584 293.775 112.16 293.775 112.91V117H292.768V113.156C292.768 112.59 292.645 112.17 292.398 111.896C292.156 111.619 291.783 111.48 291.279 111.48C290.771 111.48 290.367 111.641 290.066 111.961C289.77 112.277 289.621 112.711 289.621 113.262V117H288.613ZM299.031 117V110.684H300.039V117H299.031ZM300.033 109.195C299.896 109.332 299.73 109.4 299.535 109.4C299.34 109.4 299.174 109.332 299.037 109.195C298.9 109.055 298.832 108.889 298.832 108.697C298.832 108.506 298.9 108.342 299.037 108.205C299.174 108.064 299.34 107.994 299.535 107.994C299.73 107.994 299.896 108.064 300.033 108.205C300.17 108.342 300.238 108.506 300.238 108.697C300.238 108.889 300.17 109.055 300.033 109.195ZM301.961 117V110.684H302.922V111.68H303.016C303.352 110.941 303.984 110.572 304.914 110.572C305.621 110.572 306.166 110.775 306.549 111.182C306.932 111.584 307.123 112.16 307.123 112.91V117H306.115V113.156C306.115 112.59 305.992 112.17 305.746 111.896C305.504 111.619 305.131 111.48 304.627 111.48C304.119 111.48 303.715 111.641 303.414 111.961C303.117 112.277 302.969 112.711 302.969 113.262V117H301.961ZM308.822 112.412C308.822 111.889 309.047 111.451 309.496 111.1C309.945 110.748 310.506 110.572 311.178 110.572C311.838 110.572 312.383 110.725 312.812 111.029C313.242 111.334 313.49 111.746 313.557 112.266H312.561C312.49 112.008 312.334 111.805 312.092 111.656C311.854 111.504 311.547 111.428 311.172 111.428C310.793 111.428 310.475 111.516 310.217 111.691C309.963 111.867 309.836 112.094 309.836 112.371C309.836 112.586 309.924 112.766 310.1 112.91C310.279 113.051 310.557 113.166 310.932 113.256L311.904 113.49C312.506 113.635 312.949 113.844 313.234 114.117C313.523 114.391 313.668 114.752 313.668 115.201C313.668 115.76 313.428 116.219 312.947 116.578C312.467 116.934 311.863 117.111 311.137 117.111C310.434 117.111 309.857 116.955 309.408 116.643C308.959 116.33 308.707 115.912 308.652 115.389H309.689C309.775 115.662 309.945 115.877 310.199 116.033C310.453 116.186 310.777 116.262 311.172 116.262C311.598 116.262 311.947 116.17 312.221 115.986C312.494 115.803 312.631 115.566 312.631 115.277C312.631 114.848 312.297 114.551 311.629 114.387L310.545 114.123C309.947 113.979 309.51 113.771 309.232 113.502C308.959 113.229 308.822 112.865 308.822 112.412ZM315.613 109.049H316.621V110.684H318.027V111.527H316.621V115.102C316.621 115.473 316.695 115.742 316.844 115.91C316.992 116.078 317.23 116.162 317.559 116.162C317.703 116.162 317.859 116.154 318.027 116.139V116.988C317.805 117.027 317.607 117.047 317.436 117.047C316.783 117.047 316.316 116.916 316.035 116.654C315.754 116.393 315.613 115.961 315.613 115.359V111.527H314.594V110.684H315.613V109.049ZM321.496 116.227C322.016 116.227 322.445 116.076 322.785 115.775C323.129 115.475 323.301 115.098 323.301 114.645V114.064L321.602 114.176C321.125 114.207 320.775 114.307 320.553 114.475C320.33 114.643 320.219 114.887 320.219 115.207C320.219 115.523 320.338 115.773 320.576 115.957C320.814 116.137 321.121 116.227 321.496 116.227ZM321.309 117.111C320.688 117.111 320.176 116.941 319.773 116.602C319.375 116.258 319.176 115.801 319.176 115.23C319.176 114.668 319.375 114.227 319.773 113.906C320.172 113.586 320.74 113.404 321.479 113.361L323.301 113.25V112.676C323.301 112.285 323.18 111.986 322.938 111.779C322.695 111.572 322.34 111.469 321.871 111.469C321.492 111.469 321.178 111.537 320.928 111.674C320.678 111.811 320.518 112.004 320.447 112.254H319.428C319.494 111.75 319.754 111.344 320.207 111.035C320.664 110.727 321.23 110.572 321.906 110.572C322.672 110.572 323.264 110.758 323.682 111.129C324.1 111.5 324.309 112.016 324.309 112.676V117H323.348V116.068H323.254C323.051 116.404 322.781 116.662 322.445 116.842C322.109 117.021 321.73 117.111 321.309 117.111ZM326.172 117V110.684H327.133V111.68H327.227C327.562 110.941 328.195 110.572 329.125 110.572C329.832 110.572 330.377 110.775 330.76 111.182C331.143 111.584 331.334 112.16 331.334 112.91V117H330.326V113.156C330.326 112.59 330.203 112.17 329.957 111.896C329.715 111.619 329.342 111.48 328.838 111.48C328.33 111.48 327.926 111.641 327.625 111.961C327.328 112.277 327.18 112.711 327.18 113.262V117H326.172ZM333.602 109.049H334.609V110.684H336.016V111.527H334.609V115.102C334.609 115.473 334.684 115.742 334.832 115.91C334.98 116.078 335.219 116.162 335.547 116.162C335.691 116.162 335.848 116.154 336.016 116.139V116.988C335.793 117.027 335.596 117.047 335.424 117.047C334.771 117.047 334.305 116.916 334.023 116.654C333.742 116.393 333.602 115.961 333.602 115.359V111.527H332.582V110.684H333.602V109.049ZM348.871 110.684L347.102 117H346.076L344.664 112.113H344.57L343.164 117H342.145L340.375 110.684H341.395L342.637 115.734H342.73L344.143 110.684H345.109L346.521 115.734H346.615L347.857 110.684H348.871ZM350.242 117V110.684H351.25V117H350.242ZM351.244 109.195C351.107 109.332 350.941 109.4 350.746 109.4C350.551 109.4 350.385 109.332 350.248 109.195C350.111 109.055 350.043 108.889 350.043 108.697C350.043 108.506 350.111 108.342 350.248 108.205C350.385 108.064 350.551 107.994 350.746 107.994C350.941 107.994 351.107 108.064 351.244 108.205C351.381 108.342 351.449 108.506 351.449 108.697C351.449 108.889 351.381 109.055 351.244 109.195ZM353.594 109.049H354.602V110.684H356.008V111.527H354.602V115.102C354.602 115.473 354.676 115.742 354.824 115.91C354.973 116.078 355.211 116.162 355.539 116.162C355.684 116.162 355.84 116.154 356.008 116.139V116.988C355.785 117.027 355.588 117.047 355.416 117.047C354.764 117.047 354.297 116.916 354.016 116.654C353.734 116.393 353.594 115.961 353.594 115.359V111.527H352.574V110.684H353.594V109.049ZM357.59 117V108.176H358.598V111.68H358.691C358.852 111.324 359.096 111.051 359.424 110.859C359.756 110.668 360.16 110.572 360.637 110.572C361.309 110.572 361.84 110.779 362.23 111.193C362.621 111.604 362.816 112.176 362.816 112.91V117H361.809V113.156C361.809 112.039 361.322 111.48 360.35 111.48C359.795 111.48 359.363 111.643 359.055 111.967C358.75 112.287 358.598 112.719 358.598 113.262V117H357.59ZM368.465 109.049H369.473V110.684H370.879V111.527H369.473V115.102C369.473 115.473 369.547 115.742 369.695 115.91C369.844 116.078 370.082 116.162 370.41 116.162C370.555 116.162 370.711 116.154 370.879 116.139V116.988C370.656 117.027 370.459 117.047 370.287 117.047C369.635 117.047 369.168 116.916 368.887 116.654C368.605 116.393 368.465 115.961 368.465 115.359V111.527H367.445V110.684H368.465V109.049ZM372.461 117V108.176H373.469V111.68H373.562C373.723 111.324 373.967 111.051 374.295 110.859C374.627 110.668 375.031 110.572 375.508 110.572C376.18 110.572 376.711 110.779 377.102 111.193C377.492 111.604 377.688 112.176 377.688 112.91V117H376.68V113.156C376.68 112.039 376.193 111.48 375.221 111.48C374.666 111.48 374.234 111.643 373.926 111.967C373.621 112.287 373.469 112.719 373.469 113.262V117H372.461ZM382.047 111.463C381.543 111.463 381.129 111.633 380.805 111.973C380.48 112.312 380.299 112.762 380.26 113.32H383.74C383.729 112.762 383.568 112.312 383.26 111.973C382.951 111.633 382.547 111.463 382.047 111.463ZM383.711 115.365H384.719C384.566 115.912 384.256 116.34 383.787 116.648C383.322 116.957 382.746 117.111 382.059 117.111C381.184 117.111 380.49 116.818 379.979 116.232C379.467 115.643 379.211 114.848 379.211 113.848C379.211 112.852 379.469 112.057 379.984 111.463C380.5 110.869 381.191 110.572 382.059 110.572C382.91 110.572 383.58 110.855 384.068 111.422C384.557 111.988 384.801 112.764 384.801 113.748V114.135H380.26V114.182C380.287 114.807 380.463 115.303 380.787 115.67C381.115 116.037 381.547 116.221 382.082 116.221C382.898 116.221 383.441 115.936 383.711 115.365ZM142.176 126.617H141.156C141.07 126.285 140.885 126.014 140.6 125.803C140.318 125.588 139.961 125.48 139.527 125.48C138.961 125.48 138.51 125.691 138.174 126.113C137.842 126.535 137.676 127.104 137.676 127.818C137.676 128.545 137.844 129.125 138.18 129.559C138.516 129.988 138.965 130.203 139.527 130.203C139.953 130.203 140.307 130.107 140.588 129.916C140.873 129.725 141.062 129.451 141.156 129.096H142.176C142.082 129.693 141.803 130.18 141.338 130.555C140.873 130.926 140.271 131.111 139.533 131.111C138.646 131.111 137.941 130.814 137.418 130.221C136.895 129.623 136.633 128.822 136.633 127.818C136.633 126.834 136.895 126.047 137.418 125.457C137.941 124.867 138.645 124.572 139.527 124.572C140.266 124.572 140.867 124.766 141.332 125.152C141.801 125.539 142.082 126.027 142.176 126.617ZM143.723 131V122.176H144.73V125.68H144.824C144.984 125.324 145.229 125.051 145.557 124.859C145.889 124.668 146.293 124.572 146.77 124.572C147.441 124.572 147.973 124.779 148.363 125.193C148.754 125.604 148.949 126.176 148.949 126.91V131H147.941V127.156C147.941 126.039 147.455 125.48 146.482 125.48C145.928 125.48 145.496 125.643 145.188 125.967C144.883 126.287 144.73 126.719 144.73 127.262V131H143.723ZM152.734 130.227C153.254 130.227 153.684 130.076 154.023 129.775C154.367 129.475 154.539 129.098 154.539 128.645V128.064L152.84 128.176C152.363 128.207 152.014 128.307 151.791 128.475C151.568 128.643 151.457 128.887 151.457 129.207C151.457 129.523 151.576 129.773 151.814 129.957C152.053 130.137 152.359 130.227 152.734 130.227ZM152.547 131.111C151.926 131.111 151.414 130.941 151.012 130.602C150.613 130.258 150.414 129.801 150.414 129.23C150.414 128.668 150.613 128.227 151.012 127.906C151.41 127.586 151.979 127.404 152.717 127.361L154.539 127.25V126.676C154.539 126.285 154.418 125.986 154.176 125.779C153.934 125.572 153.578 125.469 153.109 125.469C152.73 125.469 152.416 125.537 152.166 125.674C151.916 125.811 151.756 126.004 151.686 126.254H150.666C150.732 125.75 150.992 125.344 151.445 125.035C151.902 124.727 152.469 124.572 153.145 124.572C153.91 124.572 154.502 124.758 154.92 125.129C155.338 125.5 155.547 126.016 155.547 126.676V131H154.586V130.068H154.492C154.289 130.404 154.02 130.662 153.684 130.842C153.348 131.021 152.969 131.111 152.547 131.111ZM157.832 123.049H158.84V124.684H160.246V125.527H158.84V129.102C158.84 129.473 158.914 129.742 159.062 129.91C159.211 130.078 159.449 130.162 159.777 130.162C159.922 130.162 160.078 130.154 160.246 130.139V130.988C160.023 131.027 159.826 131.047 159.654 131.047C159.002 131.047 158.535 130.916 158.254 130.654C157.973 130.393 157.832 129.961 157.832 129.359V125.527H156.812V124.684H157.832V123.049ZM165.578 131V125.527H164.529V124.684H165.578V123.98C165.578 122.738 166.189 122.117 167.412 122.117C167.666 122.117 167.893 122.137 168.092 122.176V122.996C167.99 122.977 167.832 122.967 167.617 122.967C167.258 122.967 166.996 123.053 166.832 123.225C166.668 123.396 166.586 123.658 166.586 124.01V124.684H168.033V125.527H166.586V131H165.578ZM171.754 125.463C171.25 125.463 170.836 125.633 170.512 125.973C170.188 126.312 170.006 126.762 169.967 127.32H173.447C173.436 126.762 173.275 126.312 172.967 125.973C172.658 125.633 172.254 125.463 171.754 125.463ZM173.418 129.365H174.426C174.273 129.912 173.963 130.34 173.494 130.648C173.029 130.957 172.453 131.111 171.766 131.111C170.891 131.111 170.197 130.818 169.686 130.232C169.174 129.643 168.918 128.848 168.918 127.848C168.918 126.852 169.176 126.057 169.691 125.463C170.207 124.869 170.898 124.572 171.766 124.572C172.617 124.572 173.287 124.855 173.775 125.422C174.264 125.988 174.508 126.764 174.508 127.748V128.135H169.967V128.182C169.994 128.807 170.17 129.303 170.494 129.67C170.822 130.037 171.254 130.221 171.789 130.221C172.605 130.221 173.148 129.936 173.418 129.365ZM178.035 130.227C178.555 130.227 178.984 130.076 179.324 129.775C179.668 129.475 179.84 129.098 179.84 128.645V128.064L178.141 128.176C177.664 128.207 177.314 128.307 177.092 128.475C176.869 128.643 176.758 128.887 176.758 129.207C176.758 129.523 176.877 129.773 177.115 129.957C177.354 130.137 177.66 130.227 178.035 130.227ZM177.848 131.111C177.227 131.111 176.715 130.941 176.312 130.602C175.914 130.258 175.715 129.801 175.715 129.23C175.715 128.668 175.914 128.227 176.312 127.906C176.711 127.586 177.279 127.404 178.018 127.361L179.84 127.25V126.676C179.84 126.285 179.719 125.986 179.477 125.779C179.234 125.572 178.879 125.469 178.41 125.469C178.031 125.469 177.717 125.537 177.467 125.674C177.217 125.811 177.057 126.004 176.986 126.254H175.967C176.033 125.75 176.293 125.344 176.746 125.035C177.203 124.727 177.77 124.572 178.445 124.572C179.211 124.572 179.803 124.758 180.221 125.129C180.639 125.5 180.848 126.016 180.848 126.676V131H179.887V130.068H179.793C179.59 130.404 179.32 130.662 178.984 130.842C178.648 131.021 178.27 131.111 177.848 131.111ZM183.133 123.049H184.141V124.684H185.547V125.527H184.141V129.102C184.141 129.473 184.215 129.742 184.363 129.91C184.512 130.078 184.75 130.162 185.078 130.162C185.223 130.162 185.379 130.154 185.547 130.139V130.988C185.324 131.027 185.127 131.047 184.955 131.047C184.303 131.047 183.836 130.916 183.555 130.654C183.273 130.393 183.133 129.961 183.133 129.359V125.527H182.113V124.684H183.133V123.049ZM192.18 124.684V131H191.219V130.01H191.125C190.965 130.365 190.719 130.639 190.387 130.83C190.055 131.018 189.648 131.111 189.168 131.111C188.465 131.111 187.93 130.91 187.562 130.508C187.195 130.105 187.012 129.527 187.012 128.773V124.684H188.02V128.527C188.02 129.102 188.133 129.523 188.359 129.793C188.586 130.059 188.949 130.191 189.449 130.191C190 130.191 190.424 130.037 190.721 129.729C191.021 129.416 191.172 128.98 191.172 128.422V124.684H192.18ZM194.078 131V124.684H195.039V125.621H195.133C195.227 125.312 195.438 125.061 195.766 124.865C196.094 124.67 196.467 124.572 196.885 124.572C197.076 124.572 197.244 124.582 197.389 124.602V125.609C197.252 125.57 197.037 125.551 196.744 125.551C196.264 125.551 195.867 125.695 195.555 125.984C195.242 126.273 195.086 126.641 195.086 127.086V131H194.078ZM200.992 125.463C200.488 125.463 200.074 125.633 199.75 125.973C199.426 126.312 199.244 126.762 199.205 127.32H202.686C202.674 126.762 202.514 126.312 202.205 125.973C201.896 125.633 201.492 125.463 200.992 125.463ZM202.656 129.365H203.664C203.512 129.912 203.201 130.34 202.732 130.648C202.268 130.957 201.691 131.111 201.004 131.111C200.129 131.111 199.436 130.818 198.924 130.232C198.412 129.643 198.156 128.848 198.156 127.848C198.156 126.852 198.414 126.057 198.93 125.463C199.445 124.869 200.137 124.572 201.004 124.572C201.855 124.572 202.525 124.855 203.014 125.422C203.502 125.988 203.746 126.764 203.746 127.748V128.135H199.205V128.182C199.232 128.807 199.408 129.303 199.732 129.67C200.061 130.037 200.492 130.221 201.027 130.221C201.844 130.221 202.387 129.936 202.656 129.365Z" fill="white"/>
<defs>
<clipPath id="clip0">
<rect width="72" height="72" fill="white" transform="translate(40 60)"/>
</clipPath>
</defs>
</svg>
