<svg width="724" height="314" viewBox="0 0 724 314" fill="none" xmlns="http://www.w3.org/2000/svg">
<g filter="url(#filter0_ddd)">
<path d="M0 2C0 0.895426 0.895431 0 2 0H722C723.105 0 724 0.895431 724 2V314H0V2Z" fill="#FF9800"/>
</g>
<path d="M222.812 149V126.453H218.781V149H222.812ZM227.969 149H231.844V139.047C231.844 136.531 233.297 134.938 235.609 134.938C237.969 134.938 239.062 136.25 239.062 138.859V149H242.938V137.938C242.938 133.859 240.859 131.562 237.047 131.562C234.5 131.562 232.781 132.734 231.969 134.641H231.703V131.906H227.969V149ZM247.141 136.797C247.141 139.375 248.688 140.891 251.969 141.641L255 142.344C256.625 142.703 257.359 143.312 257.359 144.281C257.359 145.547 256 146.406 254.047 146.406C252.109 146.406 250.906 145.656 250.531 144.391H246.703C247 147.5 249.688 149.344 253.953 149.344C258.219 149.344 261.234 147.156 261.234 143.875C261.234 141.359 259.719 139.953 256.453 139.219L253.438 138.531C251.719 138.141 250.906 137.547 250.906 136.578C250.906 135.344 252.234 134.5 254 134.5C255.812 134.5 256.953 135.266 257.234 136.469H260.875C260.594 133.359 258.047 131.562 253.984 131.562C249.953 131.562 247.141 133.703 247.141 136.797ZM265.203 149H269.062V131.906H265.203V149ZM267.125 129.125C268.547 129.125 269.516 128.219 269.516 126.984C269.516 125.75 268.547 124.844 267.125 124.844C265.719 124.844 264.734 125.75 264.734 126.984C264.734 128.219 265.719 129.125 267.125 129.125ZM281.219 145.594C278.516 145.594 276.984 143.531 276.984 140.266C276.984 137 278.516 134.922 281.219 134.922C283.906 134.922 285.547 137 285.547 140.266C285.547 143.531 283.922 145.594 281.219 145.594ZM281.219 155.5C286.203 155.5 289.359 153.016 289.359 149.062V131.906H285.625V134.641H285.359C284.422 132.781 282.391 131.625 280.062 131.625C275.703 131.625 273 135.031 273 140.266C273 145.406 275.688 148.75 280 148.75C282.375 148.75 284.234 147.75 285.219 145.922H285.484V149.156C285.484 151.297 283.938 152.547 281.281 152.547C279.156 152.547 277.781 151.797 277.531 150.625H273.641C273.953 153.562 276.828 155.5 281.219 155.5ZM294.281 149H298.156V139.078C298.156 136.625 299.578 134.969 302.125 134.969C304.375 134.969 305.562 136.297 305.562 138.891V149H309.438V137.969C309.438 133.906 307.219 131.594 303.562 131.594C301.016 131.594 299.188 132.75 298.375 134.672H298.094V125.297H294.281V149ZM315.266 127.719V132.016H312.562V135.109H315.266V144.438C315.266 147.75 316.828 149.078 320.75 149.078C321.5 149.078 322.219 149 322.781 148.891V145.859C322.312 145.906 322.016 145.938 321.469 145.938C319.844 145.938 319.125 145.188 319.125 143.5V135.109H322.781V132.016H319.125V127.719H315.266ZM328 149H331.859V135.109H335.531V132.016H331.812V130.469C331.812 128.859 332.531 128.062 334.359 128.062C334.906 128.062 335.375 128.094 335.688 128.141V125.297C335.062 125.188 334.359 125.125 333.531 125.125C329.734 125.125 328 126.828 328 130.219V132.016H325.203V135.109H328V149ZM354.156 131.906H350.281V141.859C350.281 144.391 348.906 145.938 346.391 145.938C344.078 145.938 343 144.656 343 142.047V131.906H339.125V143.016C339.125 147.016 341.312 149.344 345.047 149.344C347.656 149.344 349.328 148.234 350.156 146.281H350.422V149H354.156V131.906ZM359.062 149H362.938V125.297H359.062V149ZM375.75 142.875C375.953 146.969 379.375 149.562 384.547 149.562C390.016 149.562 393.406 146.828 393.406 142.438C393.406 139 391.484 137.094 386.906 136.062L384.312 135.469C381.516 134.828 380.375 133.938 380.375 132.422C380.375 130.5 382.094 129.25 384.688 129.25C387.156 129.25 388.906 130.5 389.188 132.484H393.047C392.859 128.609 389.438 125.891 384.703 125.891C379.656 125.891 376.312 128.609 376.312 132.703C376.312 136.062 378.234 138.094 382.328 139.016L385.25 139.688C388.141 140.359 389.375 141.312 389.375 142.938C389.375 144.828 387.453 146.188 384.797 146.188C381.938 146.188 379.938 144.891 379.688 142.875H375.75ZM398.766 127.719V132.016H396.062V135.109H398.766V144.438C398.766 147.75 400.328 149.078 404.25 149.078C405 149.078 405.719 149 406.281 148.891V145.859C405.812 145.906 405.516 145.938 404.969 145.938C403.344 145.938 402.625 145.188 402.625 143.5V135.109H406.281V132.016H402.625V127.719H398.766ZM425.031 131.906H421.156V141.859C421.156 144.391 419.781 145.938 417.266 145.938C414.953 145.938 413.875 144.656 413.875 142.047V131.906H410V143.016C410 147.016 412.188 149.344 415.922 149.344C418.531 149.344 420.203 148.234 421.031 146.281H421.297V149H425.031V131.906ZM435.969 149.281C438.344 149.281 440.312 148.172 441.281 146.297H441.547V149H445.297V125.297H441.422V134.625H441.156C440.25 132.75 438.312 131.625 435.969 131.625C431.656 131.625 428.938 135.031 428.938 140.438C428.938 145.875 431.641 149.281 435.969 149.281ZM437.172 134.922C439.828 134.922 441.469 137.047 441.469 140.453C441.469 143.891 439.844 145.984 437.172 145.984C434.516 145.984 432.906 143.906 432.906 140.453C432.906 137.016 434.531 134.922 437.172 134.922ZM457.359 134.641C459.688 134.641 461.219 136.266 461.297 138.797H453.25C453.422 136.297 455.047 134.641 457.359 134.641ZM461.328 144.297C460.766 145.562 459.438 146.266 457.516 146.266C454.969 146.266 453.328 144.484 453.234 141.641V141.438H465.172V140.188C465.172 134.797 462.25 131.562 457.375 131.562C452.422 131.562 449.344 135.016 449.344 140.516C449.344 146.016 452.375 149.344 457.406 149.344C461.438 149.344 464.266 147.406 465 144.297H461.328ZM469.062 149H472.938V139.047C472.938 136.531 474.391 134.938 476.703 134.938C479.062 134.938 480.156 136.25 480.156 138.859V149H484.031V137.938C484.031 133.859 481.953 131.562 478.141 131.562C475.594 131.562 473.875 132.734 473.062 134.641H472.797V131.906H469.062V149ZM489.859 127.719V132.016H487.156V135.109H489.859V144.438C489.859 147.75 491.422 149.078 495.344 149.078C496.094 149.078 496.812 149 497.375 148.891V145.859C496.906 145.906 496.609 145.938 496.062 145.938C494.438 145.938 493.719 145.188 493.719 143.5V135.109H497.375V132.016H493.719V127.719H489.859ZM514.219 129.797H518.781C521.344 129.797 522.906 131.234 522.906 133.578C522.906 135.969 521.438 137.344 518.875 137.344H514.219V129.797ZM514.219 140.547H518.688L523.109 149H527.719L522.797 139.922C525.484 138.953 527.047 136.469 527.047 133.5C527.047 129.172 524.078 126.453 519.344 126.453H510.188V149H514.219V140.547ZM538.172 134.641C540.5 134.641 542.031 136.266 542.109 138.797H534.062C534.234 136.297 535.859 134.641 538.172 134.641ZM542.141 144.297C541.578 145.562 540.25 146.266 538.328 146.266C535.781 146.266 534.141 144.484 534.047 141.641V141.438H545.984V140.188C545.984 134.797 543.062 131.562 538.188 131.562C533.234 131.562 530.156 135.016 530.156 140.516C530.156 146.016 533.188 149.344 538.219 149.344C542.25 149.344 545.078 147.406 545.812 144.297H542.141ZM559.188 131.625C556.844 131.625 554.859 132.797 553.875 134.734H553.609V131.906H549.875V154.688H553.75V146.406H554.016C554.891 148.219 556.781 149.281 559.234 149.281C563.547 149.281 566.234 145.906 566.234 140.453C566.234 134.969 563.516 131.625 559.188 131.625ZM557.969 145.984C555.328 145.984 553.688 143.875 553.672 140.453C553.688 137.047 555.344 134.922 557.984 134.922C560.641 134.922 562.25 137 562.25 140.453C562.25 143.906 560.656 145.984 557.969 145.984ZM577.5 149.344C582.609 149.344 585.719 146 585.719 140.453C585.719 134.922 582.594 131.562 577.5 131.562C572.422 131.562 569.281 134.938 569.281 140.453C569.281 146 572.375 149.344 577.5 149.344ZM577.5 146.094C574.797 146.094 573.25 144.031 573.25 140.453C573.25 136.891 574.797 134.812 577.5 134.812C580.188 134.812 581.734 136.891 581.734 140.453C581.734 144.031 580.203 146.094 577.5 146.094ZM589.625 149H593.5V139.125C593.5 136.734 595.25 135.172 597.766 135.172C598.422 135.172 599.453 135.281 599.75 135.391V131.797C599.391 131.688 598.703 131.625 598.141 131.625C595.938 131.625 594.094 132.875 593.625 134.562H593.359V131.906H589.625V149ZM604.953 127.719V132.016H602.25V135.109H604.953V144.438C604.953 147.75 606.516 149.078 610.438 149.078C611.188 149.078 611.906 149 612.469 148.891V145.859C612 145.906 611.703 145.938 611.156 145.938C609.531 145.938 608.812 145.188 608.812 143.5V135.109H612.469V132.016H608.812V127.719H604.953ZM615.734 136.797C615.734 139.375 617.281 140.891 620.562 141.641L623.594 142.344C625.219 142.703 625.953 143.312 625.953 144.281C625.953 145.547 624.594 146.406 622.641 146.406C620.703 146.406 619.5 145.656 619.125 144.391H615.297C615.594 147.5 618.281 149.344 622.547 149.344C626.812 149.344 629.828 147.156 629.828 143.875C629.828 141.359 628.312 139.953 625.047 139.219L622.031 138.531C620.312 138.141 619.5 137.547 619.5 136.578C619.5 135.344 620.828 134.5 622.594 134.5C624.406 134.5 625.547 135.266 625.828 136.469H629.469C629.188 133.359 626.641 131.562 622.578 131.562C618.547 131.562 615.734 133.703 615.734 136.797Z" fill="white"/>
<path d="M226.898 183.641C226.898 185.031 226.461 186.151 225.586 187C224.711 187.844 223.552 188.266 222.109 188.266C220.552 188.266 219.31 187.732 218.383 186.664C217.461 185.596 217 184.161 217 182.359C217 180.578 217.466 179.151 218.398 178.078C219.331 177 220.568 176.461 222.109 176.461C223.359 176.461 224.406 176.786 225.25 177.438C226.099 178.089 226.625 178.971 226.828 180.086H225.398C225.154 179.326 224.753 178.747 224.195 178.352C223.638 177.956 222.943 177.758 222.109 177.758C220.995 177.758 220.104 178.174 219.438 179.008C218.776 179.841 218.445 180.958 218.445 182.359C218.445 183.781 218.773 184.906 219.43 185.734C220.091 186.557 220.987 186.969 222.117 186.969C223.128 186.969 223.943 186.674 224.562 186.086C225.188 185.497 225.5 184.727 225.5 183.773V183.5H222.328V182.266H226.898V183.641ZM232.578 180.617C231.906 180.617 231.354 180.844 230.922 181.297C230.49 181.75 230.247 182.349 230.195 183.094H234.836C234.82 182.349 234.607 181.75 234.195 181.297C233.784 180.844 233.245 180.617 232.578 180.617ZM234.797 185.82H236.141C235.938 186.549 235.523 187.12 234.898 187.531C234.279 187.943 233.51 188.148 232.594 188.148C231.427 188.148 230.503 187.758 229.82 186.977C229.138 186.19 228.797 185.13 228.797 183.797C228.797 182.469 229.141 181.409 229.828 180.617C230.516 179.826 231.438 179.43 232.594 179.43C233.729 179.43 234.622 179.807 235.273 180.562C235.924 181.318 236.25 182.352 236.25 183.664V184.18H230.195V184.242C230.232 185.076 230.466 185.737 230.898 186.227C231.336 186.716 231.911 186.961 232.625 186.961C233.714 186.961 234.438 186.581 234.797 185.82ZM238.922 177.398H240.266V179.578H242.141V180.703H240.266V185.469C240.266 185.964 240.365 186.323 240.562 186.547C240.76 186.771 241.078 186.883 241.516 186.883C241.708 186.883 241.917 186.872 242.141 186.852V187.984C241.844 188.036 241.581 188.062 241.352 188.062C240.482 188.062 239.859 187.888 239.484 187.539C239.109 187.19 238.922 186.615 238.922 185.812V180.703H237.562V179.578H238.922V177.398ZM252.789 179.43C253.862 179.43 254.719 179.826 255.359 180.617C256.005 181.409 256.328 182.466 256.328 183.789C256.328 185.107 256.005 186.164 255.359 186.961C254.714 187.753 253.857 188.148 252.789 188.148C252.19 188.148 251.659 188.026 251.195 187.781C250.732 187.531 250.385 187.182 250.156 186.734H250.031V190.812H248.688V179.578H249.969V180.984H250.094C250.365 180.5 250.737 180.12 251.211 179.844C251.69 179.568 252.216 179.43 252.789 179.43ZM252.469 186.938C253.24 186.938 253.844 186.659 254.281 186.102C254.719 185.544 254.938 184.773 254.938 183.789C254.938 182.805 254.719 182.034 254.281 181.477C253.849 180.919 253.247 180.641 252.477 180.641C251.716 180.641 251.112 180.924 250.664 181.492C250.216 182.055 249.992 182.82 249.992 183.789C249.992 184.753 250.214 185.518 250.656 186.086C251.104 186.654 251.708 186.938 252.469 186.938ZM261.797 180.617C261.125 180.617 260.573 180.844 260.141 181.297C259.708 181.75 259.466 182.349 259.414 183.094H264.055C264.039 182.349 263.826 181.75 263.414 181.297C263.003 180.844 262.464 180.617 261.797 180.617ZM264.016 185.82H265.359C265.156 186.549 264.742 187.12 264.117 187.531C263.497 187.943 262.729 188.148 261.812 188.148C260.646 188.148 259.721 187.758 259.039 186.977C258.357 186.19 258.016 185.13 258.016 183.797C258.016 182.469 258.359 181.409 259.047 180.617C259.734 179.826 260.656 179.43 261.812 179.43C262.948 179.43 263.841 179.807 264.492 180.562C265.143 181.318 265.469 182.352 265.469 183.664V184.18H259.414V184.242C259.451 185.076 259.685 185.737 260.117 186.227C260.555 186.716 261.13 186.961 261.844 186.961C262.932 186.961 263.656 186.581 264.016 185.82ZM267.578 188V179.578H268.859V180.828H268.984C269.109 180.417 269.391 180.081 269.828 179.82C270.266 179.56 270.763 179.43 271.32 179.43C271.576 179.43 271.799 179.443 271.992 179.469V180.812C271.81 180.76 271.523 180.734 271.133 180.734C270.492 180.734 269.964 180.927 269.547 181.312C269.13 181.698 268.922 182.188 268.922 182.781V188H267.578ZM273.32 181.883C273.32 181.185 273.62 180.602 274.219 180.133C274.818 179.664 275.565 179.43 276.461 179.43C277.341 179.43 278.068 179.633 278.641 180.039C279.214 180.445 279.544 180.995 279.633 181.688H278.305C278.211 181.344 278.003 181.073 277.68 180.875C277.362 180.672 276.953 180.57 276.453 180.57C275.948 180.57 275.523 180.688 275.18 180.922C274.841 181.156 274.672 181.458 274.672 181.828C274.672 182.115 274.789 182.354 275.023 182.547C275.263 182.734 275.633 182.888 276.133 183.008L277.43 183.32C278.232 183.513 278.823 183.792 279.203 184.156C279.589 184.521 279.781 185.003 279.781 185.602C279.781 186.346 279.461 186.958 278.82 187.438C278.18 187.911 277.375 188.148 276.406 188.148C275.469 188.148 274.701 187.94 274.102 187.523C273.503 187.107 273.167 186.549 273.094 185.852H274.477C274.591 186.216 274.818 186.503 275.156 186.711C275.495 186.914 275.927 187.016 276.453 187.016C277.021 187.016 277.487 186.893 277.852 186.648C278.216 186.404 278.398 186.089 278.398 185.703C278.398 185.13 277.953 184.734 277.062 184.516L275.617 184.164C274.82 183.971 274.237 183.695 273.867 183.336C273.503 182.971 273.32 182.487 273.32 181.883ZM288.188 186.984C287.495 187.76 286.549 188.148 285.352 188.148C284.154 188.148 283.206 187.76 282.508 186.984C281.815 186.203 281.469 185.138 281.469 183.789C281.469 182.435 281.815 181.37 282.508 180.594C283.201 179.818 284.148 179.43 285.352 179.43C286.555 179.43 287.503 179.818 288.195 180.594C288.888 181.37 289.234 182.435 289.234 183.789C289.234 185.138 288.885 186.203 288.188 186.984ZM283.508 186.117C283.94 186.664 284.555 186.938 285.352 186.938C286.148 186.938 286.763 186.664 287.195 186.117C287.628 185.565 287.844 184.789 287.844 183.789C287.844 182.789 287.628 182.016 287.195 181.469C286.763 180.917 286.148 180.641 285.352 180.641C284.555 180.641 283.94 180.917 283.508 181.469C283.076 182.016 282.859 182.789 282.859 183.789C282.859 184.789 283.076 185.565 283.508 186.117ZM291.344 188V179.578H292.625V180.906H292.75C293.198 179.922 294.042 179.43 295.281 179.43C296.224 179.43 296.951 179.701 297.461 180.242C297.971 180.779 298.227 181.547 298.227 182.547V188H296.883V182.875C296.883 182.12 296.719 181.56 296.391 181.195C296.068 180.826 295.57 180.641 294.898 180.641C294.221 180.641 293.682 180.854 293.281 181.281C292.885 181.703 292.688 182.281 292.688 183.016V188H291.344ZM303.281 186.969C303.974 186.969 304.547 186.768 305 186.367C305.458 185.966 305.688 185.464 305.688 184.859V184.086L303.422 184.234C302.786 184.276 302.32 184.409 302.023 184.633C301.727 184.857 301.578 185.182 301.578 185.609C301.578 186.031 301.737 186.365 302.055 186.609C302.372 186.849 302.781 186.969 303.281 186.969ZM303.031 188.148C302.203 188.148 301.521 187.922 300.984 187.469C300.453 187.01 300.188 186.401 300.188 185.641C300.188 184.891 300.453 184.302 300.984 183.875C301.516 183.448 302.273 183.206 303.258 183.148L305.688 183V182.234C305.688 181.714 305.526 181.315 305.203 181.039C304.88 180.763 304.406 180.625 303.781 180.625C303.276 180.625 302.857 180.716 302.523 180.898C302.19 181.081 301.977 181.339 301.883 181.672H300.523C300.612 181 300.958 180.458 301.562 180.047C302.172 179.635 302.927 179.43 303.828 179.43C304.849 179.43 305.638 179.677 306.195 180.172C306.753 180.667 307.031 181.354 307.031 182.234V188H305.75V186.758H305.625C305.354 187.206 304.995 187.549 304.547 187.789C304.099 188.029 303.594 188.148 303.031 188.148ZM309.594 188V176.234H310.938V188H309.594ZM313.578 188V179.578H314.922V188H313.578ZM314.914 177.594C314.732 177.776 314.51 177.867 314.25 177.867C313.99 177.867 313.768 177.776 313.586 177.594C313.404 177.406 313.312 177.185 313.312 176.93C313.312 176.674 313.404 176.456 313.586 176.273C313.768 176.086 313.99 175.992 314.25 175.992C314.51 175.992 314.732 176.086 314.914 176.273C315.096 176.456 315.188 176.674 315.188 176.93C315.188 177.185 315.096 177.406 314.914 177.594ZM317.289 181.883C317.289 181.185 317.589 180.602 318.188 180.133C318.786 179.664 319.534 179.43 320.43 179.43C321.31 179.43 322.036 179.633 322.609 180.039C323.182 180.445 323.513 180.995 323.602 181.688H322.273C322.18 181.344 321.971 181.073 321.648 180.875C321.331 180.672 320.922 180.57 320.422 180.57C319.917 180.57 319.492 180.688 319.148 180.922C318.81 181.156 318.641 181.458 318.641 181.828C318.641 182.115 318.758 182.354 318.992 182.547C319.232 182.734 319.602 182.888 320.102 183.008L321.398 183.32C322.201 183.513 322.792 183.792 323.172 184.156C323.557 184.521 323.75 185.003 323.75 185.602C323.75 186.346 323.43 186.958 322.789 187.438C322.148 187.911 321.344 188.148 320.375 188.148C319.438 188.148 318.669 187.94 318.07 187.523C317.471 187.107 317.135 186.549 317.062 185.852H318.445C318.56 186.216 318.786 186.503 319.125 186.711C319.464 186.914 319.896 187.016 320.422 187.016C320.99 187.016 321.456 186.893 321.82 186.648C322.185 186.404 322.367 186.089 322.367 185.703C322.367 185.13 321.922 184.734 321.031 184.516L319.586 184.164C318.789 183.971 318.206 183.695 317.836 183.336C317.471 182.971 317.289 182.487 317.289 181.883ZM329.219 180.617C328.547 180.617 327.995 180.844 327.562 181.297C327.13 181.75 326.888 182.349 326.836 183.094H331.477C331.461 182.349 331.247 181.75 330.836 181.297C330.424 180.844 329.885 180.617 329.219 180.617ZM331.438 185.82H332.781C332.578 186.549 332.164 187.12 331.539 187.531C330.919 187.943 330.151 188.148 329.234 188.148C328.068 188.148 327.143 187.758 326.461 186.977C325.779 186.19 325.438 185.13 325.438 183.797C325.438 182.469 325.781 181.409 326.469 180.617C327.156 179.826 328.078 179.43 329.234 179.43C330.37 179.43 331.263 179.807 331.914 180.562C332.565 181.318 332.891 182.352 332.891 183.664V184.18H326.836V184.242C326.872 185.076 327.107 185.737 327.539 186.227C327.977 186.716 328.552 186.961 329.266 186.961C330.354 186.961 331.078 186.581 331.438 185.82ZM338.117 188.148C337.039 188.148 336.18 187.753 335.539 186.961C334.898 186.169 334.578 185.112 334.578 183.789C334.578 182.471 334.898 181.417 335.539 180.625C336.185 179.828 337.044 179.43 338.117 179.43C338.706 179.43 339.232 179.562 339.695 179.828C340.164 180.089 340.518 180.448 340.758 180.906H340.875V176.234H342.219V188H340.938V186.656H340.812C340.547 187.125 340.177 187.492 339.703 187.758C339.229 188.018 338.701 188.148 338.117 188.148ZM338.43 180.641C337.664 180.641 337.062 180.922 336.625 181.484C336.188 182.042 335.969 182.81 335.969 183.789C335.969 184.773 336.185 185.544 336.617 186.102C337.055 186.659 337.659 186.938 338.43 186.938C339.195 186.938 339.799 186.656 340.242 186.094C340.685 185.531 340.906 184.763 340.906 183.789C340.906 182.826 340.682 182.06 340.234 181.492C339.792 180.924 339.19 180.641 338.43 180.641ZM349.344 188V179.578H350.625V180.828H350.75C350.875 180.417 351.156 180.081 351.594 179.82C352.031 179.56 352.529 179.43 353.086 179.43C353.341 179.43 353.565 179.443 353.758 179.469V180.812C353.576 180.76 353.289 180.734 352.898 180.734C352.258 180.734 351.729 180.927 351.312 181.312C350.896 181.698 350.688 182.188 350.688 182.781V188H349.344ZM358.562 180.617C357.891 180.617 357.339 180.844 356.906 181.297C356.474 181.75 356.232 182.349 356.18 183.094H360.82C360.805 182.349 360.591 181.75 360.18 181.297C359.768 180.844 359.229 180.617 358.562 180.617ZM360.781 185.82H362.125C361.922 186.549 361.508 187.12 360.883 187.531C360.263 187.943 359.495 188.148 358.578 188.148C357.411 188.148 356.487 187.758 355.805 186.977C355.122 186.19 354.781 185.13 354.781 183.797C354.781 182.469 355.125 181.409 355.812 180.617C356.5 179.826 357.422 179.43 358.578 179.43C359.714 179.43 360.607 179.807 361.258 180.562C361.909 181.318 362.234 182.352 362.234 183.664V184.18H356.18V184.242C356.216 185.076 356.451 185.737 356.883 186.227C357.32 186.716 357.896 186.961 358.609 186.961C359.698 186.961 360.422 186.581 360.781 185.82ZM368.445 179.43C369.518 179.43 370.375 179.826 371.016 180.617C371.661 181.409 371.984 182.466 371.984 183.789C371.984 185.107 371.661 186.164 371.016 186.961C370.37 187.753 369.513 188.148 368.445 188.148C367.846 188.148 367.315 188.026 366.852 187.781C366.388 187.531 366.042 187.182 365.812 186.734H365.688V190.812H364.344V179.578H365.625V180.984H365.75C366.021 180.5 366.393 180.12 366.867 179.844C367.346 179.568 367.872 179.43 368.445 179.43ZM368.125 186.938C368.896 186.938 369.5 186.659 369.938 186.102C370.375 185.544 370.594 184.773 370.594 183.789C370.594 182.805 370.375 182.034 369.938 181.477C369.505 180.919 368.904 180.641 368.133 180.641C367.372 180.641 366.768 180.924 366.32 181.492C365.872 182.055 365.648 182.82 365.648 183.789C365.648 184.753 365.87 185.518 366.312 186.086C366.76 186.654 367.365 186.938 368.125 186.938ZM380.391 186.984C379.698 187.76 378.753 188.148 377.555 188.148C376.357 188.148 375.409 187.76 374.711 186.984C374.018 186.203 373.672 185.138 373.672 183.789C373.672 182.435 374.018 181.37 374.711 180.594C375.404 179.818 376.352 179.43 377.555 179.43C378.758 179.43 379.706 179.818 380.398 180.594C381.091 181.37 381.438 182.435 381.438 183.789C381.438 185.138 381.089 186.203 380.391 186.984ZM375.711 186.117C376.143 186.664 376.758 186.938 377.555 186.938C378.352 186.938 378.966 186.664 379.398 186.117C379.831 185.565 380.047 184.789 380.047 183.789C380.047 182.789 379.831 182.016 379.398 181.469C378.966 180.917 378.352 180.641 377.555 180.641C376.758 180.641 376.143 180.917 375.711 181.469C375.279 182.016 375.062 182.789 375.062 183.789C375.062 184.789 375.279 185.565 375.711 186.117ZM383.547 188V179.578H384.828V180.828H384.953C385.078 180.417 385.359 180.081 385.797 179.82C386.234 179.56 386.732 179.43 387.289 179.43C387.544 179.43 387.768 179.443 387.961 179.469V180.812C387.779 180.76 387.492 180.734 387.102 180.734C386.461 180.734 385.932 180.927 385.516 181.312C385.099 181.698 384.891 182.188 384.891 182.781V188H383.547ZM390.672 177.398H392.016V179.578H393.891V180.703H392.016V185.469C392.016 185.964 392.115 186.323 392.312 186.547C392.51 186.771 392.828 186.883 393.266 186.883C393.458 186.883 393.667 186.872 393.891 186.852V187.984C393.594 188.036 393.331 188.062 393.102 188.062C392.232 188.062 391.609 187.888 391.234 187.539C390.859 187.19 390.672 186.615 390.672 185.812V180.703H389.312V179.578H390.672V177.398ZM395.57 181.883C395.57 181.185 395.87 180.602 396.469 180.133C397.068 179.664 397.815 179.43 398.711 179.43C399.591 179.43 400.318 179.633 400.891 180.039C401.464 180.445 401.794 180.995 401.883 181.688H400.555C400.461 181.344 400.253 181.073 399.93 180.875C399.612 180.672 399.203 180.57 398.703 180.57C398.198 180.57 397.773 180.688 397.43 180.922C397.091 181.156 396.922 181.458 396.922 181.828C396.922 182.115 397.039 182.354 397.273 182.547C397.513 182.734 397.883 182.888 398.383 183.008L399.68 183.32C400.482 183.513 401.073 183.792 401.453 184.156C401.839 184.521 402.031 185.003 402.031 185.602C402.031 186.346 401.711 186.958 401.07 187.438C400.43 187.911 399.625 188.148 398.656 188.148C397.719 188.148 396.951 187.94 396.352 187.523C395.753 187.107 395.417 186.549 395.344 185.852H396.727C396.841 186.216 397.068 186.503 397.406 186.711C397.745 186.914 398.177 187.016 398.703 187.016C399.271 187.016 399.737 186.893 400.102 186.648C400.466 186.404 400.648 186.089 400.648 185.703C400.648 185.13 400.203 184.734 399.312 184.516L397.867 184.164C397.07 183.971 396.487 183.695 396.117 183.336C395.753 182.971 395.57 182.487 395.57 181.883ZM414.953 186.984C414.26 187.76 413.315 188.148 412.117 188.148C410.919 188.148 409.971 187.76 409.273 186.984C408.581 186.203 408.234 185.138 408.234 183.789C408.234 182.435 408.581 181.37 409.273 180.594C409.966 179.818 410.914 179.43 412.117 179.43C413.32 179.43 414.268 179.818 414.961 180.594C415.654 181.37 416 182.435 416 183.789C416 185.138 415.651 186.203 414.953 186.984ZM410.273 186.117C410.706 186.664 411.32 186.938 412.117 186.938C412.914 186.938 413.529 186.664 413.961 186.117C414.393 185.565 414.609 184.789 414.609 183.789C414.609 182.789 414.393 182.016 413.961 181.469C413.529 180.917 412.914 180.641 412.117 180.641C411.32 180.641 410.706 180.917 410.273 181.469C409.841 182.016 409.625 182.789 409.625 183.789C409.625 184.789 409.841 185.565 410.273 186.117ZM418.672 188V180.703H417.273V179.578H418.672V178.641C418.672 176.984 419.487 176.156 421.117 176.156C421.456 176.156 421.758 176.182 422.023 176.234V177.328C421.888 177.302 421.677 177.289 421.391 177.289C420.911 177.289 420.562 177.404 420.344 177.633C420.125 177.862 420.016 178.211 420.016 178.68V179.578H421.945V180.703H420.016V188H418.672ZM429.141 191.047C428.927 191.047 428.727 191.031 428.539 191V189.852C428.674 189.878 428.862 189.891 429.102 189.891C429.492 189.891 429.802 189.786 430.031 189.578C430.266 189.37 430.471 189.013 430.648 188.508L430.805 188.008L427.688 179.578H429.141L431.453 186.508H431.578L433.883 179.578H435.312L432.023 188.516C431.664 189.49 431.281 190.154 430.875 190.508C430.469 190.867 429.891 191.047 429.141 191.047ZM443.094 186.984C442.401 187.76 441.456 188.148 440.258 188.148C439.06 188.148 438.112 187.76 437.414 186.984C436.721 186.203 436.375 185.138 436.375 183.789C436.375 182.435 436.721 181.37 437.414 180.594C438.107 179.818 439.055 179.43 440.258 179.43C441.461 179.43 442.409 179.818 443.102 180.594C443.794 181.37 444.141 182.435 444.141 183.789C444.141 185.138 443.792 186.203 443.094 186.984ZM438.414 186.117C438.846 186.664 439.461 186.938 440.258 186.938C441.055 186.938 441.669 186.664 442.102 186.117C442.534 185.565 442.75 184.789 442.75 183.789C442.75 182.789 442.534 182.016 442.102 181.469C441.669 180.917 441.055 180.641 440.258 180.641C439.461 180.641 438.846 180.917 438.414 181.469C437.982 182.016 437.766 182.789 437.766 183.789C437.766 184.789 437.982 185.565 438.414 186.117ZM453.062 179.578V188H451.781V186.68H451.656C451.443 187.154 451.115 187.518 450.672 187.773C450.229 188.023 449.688 188.148 449.047 188.148C448.109 188.148 447.396 187.88 446.906 187.344C446.417 186.807 446.172 186.036 446.172 185.031V179.578H447.516V184.703C447.516 185.469 447.667 186.031 447.969 186.391C448.271 186.745 448.755 186.922 449.422 186.922C450.156 186.922 450.721 186.716 451.117 186.305C451.518 185.888 451.719 185.307 451.719 184.562V179.578H453.062ZM455.594 188V179.578H456.875V180.828H457C457.125 180.417 457.406 180.081 457.844 179.82C458.281 179.56 458.779 179.43 459.336 179.43C459.591 179.43 459.815 179.443 460.008 179.469V180.812C459.826 180.76 459.539 180.734 459.148 180.734C458.508 180.734 457.979 180.927 457.562 181.312C457.146 181.698 456.938 182.188 456.938 182.781V188H455.594ZM466.008 181.883C466.008 181.185 466.307 180.602 466.906 180.133C467.505 179.664 468.253 179.43 469.148 179.43C470.029 179.43 470.755 179.633 471.328 180.039C471.901 180.445 472.232 180.995 472.32 181.688H470.992C470.898 181.344 470.69 181.073 470.367 180.875C470.049 180.672 469.641 180.57 469.141 180.57C468.635 180.57 468.211 180.688 467.867 180.922C467.529 181.156 467.359 181.458 467.359 181.828C467.359 182.115 467.477 182.354 467.711 182.547C467.951 182.734 468.32 182.888 468.82 183.008L470.117 183.32C470.919 183.513 471.51 183.792 471.891 184.156C472.276 184.521 472.469 185.003 472.469 185.602C472.469 186.346 472.148 186.958 471.508 187.438C470.867 187.911 470.062 188.148 469.094 188.148C468.156 188.148 467.388 187.94 466.789 187.523C466.19 187.107 465.854 186.549 465.781 185.852H467.164C467.279 186.216 467.505 186.503 467.844 186.711C468.182 186.914 468.615 187.016 469.141 187.016C469.708 187.016 470.174 186.893 470.539 186.648C470.904 186.404 471.086 186.089 471.086 185.703C471.086 185.13 470.641 184.734 469.75 184.516L468.305 184.164C467.508 183.971 466.924 183.695 466.555 183.336C466.19 182.971 466.008 182.487 466.008 181.883ZM475.062 177.398H476.406V179.578H478.281V180.703H476.406V185.469C476.406 185.964 476.505 186.323 476.703 186.547C476.901 186.771 477.219 186.883 477.656 186.883C477.849 186.883 478.057 186.872 478.281 186.852V187.984C477.984 188.036 477.721 188.062 477.492 188.062C476.622 188.062 476 187.888 475.625 187.539C475.25 187.19 475.062 186.615 475.062 185.812V180.703H473.703V179.578H475.062V177.398ZM487.125 179.578V188H485.844V186.68H485.719C485.505 187.154 485.177 187.518 484.734 187.773C484.292 188.023 483.75 188.148 483.109 188.148C482.172 188.148 481.458 187.88 480.969 187.344C480.479 186.807 480.234 186.036 480.234 185.031V179.578H481.578V184.703C481.578 185.469 481.729 186.031 482.031 186.391C482.333 186.745 482.818 186.922 483.484 186.922C484.219 186.922 484.784 186.716 485.18 186.305C485.581 185.888 485.781 185.307 485.781 184.562V179.578H487.125ZM492.773 188.148C491.695 188.148 490.836 187.753 490.195 186.961C489.555 186.169 489.234 185.112 489.234 183.789C489.234 182.471 489.555 181.417 490.195 180.625C490.841 179.828 491.701 179.43 492.773 179.43C493.362 179.43 493.888 179.562 494.352 179.828C494.82 180.089 495.174 180.448 495.414 180.906H495.531V176.234H496.875V188H495.594V186.656H495.469C495.203 187.125 494.833 187.492 494.359 187.758C493.885 188.018 493.357 188.148 492.773 188.148ZM493.086 180.641C492.32 180.641 491.719 180.922 491.281 181.484C490.844 182.042 490.625 182.81 490.625 183.789C490.625 184.773 490.841 185.544 491.273 186.102C491.711 186.659 492.315 186.938 493.086 186.938C493.852 186.938 494.456 186.656 494.898 186.094C495.341 185.531 495.562 184.763 495.562 183.789C495.562 182.826 495.339 182.06 494.891 181.492C494.448 180.924 493.846 180.641 493.086 180.641ZM502.844 180.617C502.172 180.617 501.62 180.844 501.188 181.297C500.755 181.75 500.513 182.349 500.461 183.094H505.102C505.086 182.349 504.872 181.75 504.461 181.297C504.049 180.844 503.51 180.617 502.844 180.617ZM505.062 185.82H506.406C506.203 186.549 505.789 187.12 505.164 187.531C504.544 187.943 503.776 188.148 502.859 188.148C501.693 188.148 500.768 187.758 500.086 186.977C499.404 186.19 499.062 185.13 499.062 183.797C499.062 182.469 499.406 181.409 500.094 180.617C500.781 179.826 501.703 179.43 502.859 179.43C503.995 179.43 504.888 179.807 505.539 180.562C506.19 181.318 506.516 182.352 506.516 183.664V184.18H500.461V184.242C500.497 185.076 500.732 185.737 501.164 186.227C501.602 186.716 502.177 186.961 502.891 186.961C503.979 186.961 504.703 186.581 505.062 185.82ZM508.625 188V179.578H509.906V180.906H510.031C510.479 179.922 511.323 179.43 512.562 179.43C513.505 179.43 514.232 179.701 514.742 180.242C515.253 180.779 515.508 181.547 515.508 182.547V188H514.164V182.875C514.164 182.12 514 181.56 513.672 181.195C513.349 180.826 512.852 180.641 512.18 180.641C511.503 180.641 510.964 180.854 510.562 181.281C510.167 181.703 509.969 182.281 509.969 183.016V188H508.625ZM518.531 177.398H519.875V179.578H521.75V180.703H519.875V185.469C519.875 185.964 519.974 186.323 520.172 186.547C520.37 186.771 520.688 186.883 521.125 186.883C521.318 186.883 521.526 186.872 521.75 186.852V187.984C521.453 188.036 521.19 188.062 520.961 188.062C520.091 188.062 519.469 187.888 519.094 187.539C518.719 187.19 518.531 186.615 518.531 185.812V180.703H517.172V179.578H518.531V177.398ZM523.43 181.883C523.43 181.185 523.729 180.602 524.328 180.133C524.927 179.664 525.674 179.43 526.57 179.43C527.451 179.43 528.177 179.633 528.75 180.039C529.323 180.445 529.654 180.995 529.742 181.688H528.414C528.32 181.344 528.112 181.073 527.789 180.875C527.471 180.672 527.062 180.57 526.562 180.57C526.057 180.57 525.633 180.688 525.289 180.922C524.951 181.156 524.781 181.458 524.781 181.828C524.781 182.115 524.898 182.354 525.133 182.547C525.372 182.734 525.742 182.888 526.242 183.008L527.539 183.32C528.341 183.513 528.932 183.792 529.312 184.156C529.698 184.521 529.891 185.003 529.891 185.602C529.891 186.346 529.57 186.958 528.93 187.438C528.289 187.911 527.484 188.148 526.516 188.148C525.578 188.148 524.81 187.94 524.211 187.523C523.612 187.107 523.276 186.549 523.203 185.852H524.586C524.701 186.216 524.927 186.503 525.266 186.711C525.604 186.914 526.036 187.016 526.562 187.016C527.13 187.016 527.596 186.893 527.961 186.648C528.326 186.404 528.508 186.089 528.508 185.703C528.508 185.13 528.062 184.734 527.172 184.516L525.727 184.164C524.93 183.971 524.346 183.695 523.977 183.336C523.612 182.971 523.43 182.487 523.43 181.883ZM533.117 180.938H532.141L532.852 176.727H534.375L533.117 180.938ZM545.352 179.43C546.424 179.43 547.281 179.826 547.922 180.617C548.568 181.409 548.891 182.466 548.891 183.789C548.891 185.107 548.568 186.164 547.922 186.961C547.276 187.753 546.419 188.148 545.352 188.148C544.753 188.148 544.221 188.026 543.758 187.781C543.294 187.531 542.948 187.182 542.719 186.734H542.594V190.812H541.25V179.578H542.531V180.984H542.656C542.927 180.5 543.299 180.12 543.773 179.844C544.253 179.568 544.779 179.43 545.352 179.43ZM545.031 186.938C545.802 186.938 546.406 186.659 546.844 186.102C547.281 185.544 547.5 184.773 547.5 183.789C547.5 182.805 547.281 182.034 546.844 181.477C546.411 180.919 545.81 180.641 545.039 180.641C544.279 180.641 543.674 180.924 543.227 181.492C542.779 182.055 542.555 182.82 542.555 183.789C542.555 184.753 542.776 185.518 543.219 186.086C543.667 186.654 544.271 186.938 545.031 186.938ZM554.359 180.617C553.688 180.617 553.135 180.844 552.703 181.297C552.271 181.75 552.029 182.349 551.977 183.094H556.617C556.602 182.349 556.388 181.75 555.977 181.297C555.565 180.844 555.026 180.617 554.359 180.617ZM556.578 185.82H557.922C557.719 186.549 557.305 187.12 556.68 187.531C556.06 187.943 555.292 188.148 554.375 188.148C553.208 188.148 552.284 187.758 551.602 186.977C550.919 186.19 550.578 185.13 550.578 183.797C550.578 182.469 550.922 181.409 551.609 180.617C552.297 179.826 553.219 179.43 554.375 179.43C555.51 179.43 556.404 179.807 557.055 180.562C557.706 181.318 558.031 182.352 558.031 183.664V184.18H551.977V184.242C552.013 185.076 552.247 185.737 552.68 186.227C553.117 186.716 553.693 186.961 554.406 186.961C555.495 186.961 556.219 186.581 556.578 185.82ZM560.141 188V179.578H561.422V180.828H561.547C561.672 180.417 561.953 180.081 562.391 179.82C562.828 179.56 563.326 179.43 563.883 179.43C564.138 179.43 564.362 179.443 564.555 179.469V180.812C564.372 180.76 564.086 180.734 563.695 180.734C563.055 180.734 562.526 180.927 562.109 181.312C561.693 181.698 561.484 182.188 561.484 182.781V188H560.141ZM567.266 188V180.703H565.867V179.578H567.266V178.641C567.266 176.984 568.081 176.156 569.711 176.156C570.049 176.156 570.352 176.182 570.617 176.234V177.328C570.482 177.302 570.271 177.289 569.984 177.289C569.505 177.289 569.156 177.404 568.938 177.633C568.719 177.862 568.609 178.211 568.609 178.68V179.578H570.539V180.703H568.609V188H567.266ZM578.438 186.984C577.745 187.76 576.799 188.148 575.602 188.148C574.404 188.148 573.456 187.76 572.758 186.984C572.065 186.203 571.719 185.138 571.719 183.789C571.719 182.435 572.065 181.37 572.758 180.594C573.451 179.818 574.398 179.43 575.602 179.43C576.805 179.43 577.753 179.818 578.445 180.594C579.138 181.37 579.484 182.435 579.484 183.789C579.484 185.138 579.135 186.203 578.438 186.984ZM573.758 186.117C574.19 186.664 574.805 186.938 575.602 186.938C576.398 186.938 577.013 186.664 577.445 186.117C577.878 185.565 578.094 184.789 578.094 183.789C578.094 182.789 577.878 182.016 577.445 181.469C577.013 180.917 576.398 180.641 575.602 180.641C574.805 180.641 574.19 180.917 573.758 181.469C573.326 182.016 573.109 182.789 573.109 183.789C573.109 184.789 573.326 185.565 573.758 186.117ZM581.594 188V179.578H582.875V180.828H583C583.125 180.417 583.406 180.081 583.844 179.82C584.281 179.56 584.779 179.43 585.336 179.43C585.591 179.43 585.815 179.443 586.008 179.469V180.812C585.826 180.76 585.539 180.734 585.148 180.734C584.508 180.734 583.979 180.927 583.562 181.312C583.146 181.698 582.938 182.188 582.938 182.781V188H581.594ZM587.844 188V179.578H589.125V180.906H589.25C589.443 180.438 589.742 180.076 590.148 179.82C590.555 179.56 591.039 179.43 591.602 179.43C592.154 179.43 592.628 179.562 593.023 179.828C593.424 180.094 593.727 180.453 593.93 180.906H594.055C594.284 180.453 594.628 180.094 595.086 179.828C595.544 179.562 596.06 179.43 596.633 179.43C597.492 179.43 598.154 179.669 598.617 180.148C599.081 180.622 599.312 181.299 599.312 182.18V188H597.969V182.492C597.969 181.258 597.378 180.641 596.195 180.641C595.622 180.641 595.154 180.828 594.789 181.203C594.424 181.578 594.242 182.039 594.242 182.586V188H592.898V182.281C592.898 181.781 592.737 181.383 592.414 181.086C592.096 180.789 591.672 180.641 591.141 180.641C590.594 180.641 590.13 180.849 589.75 181.266C589.375 181.682 589.188 182.188 589.188 182.781V188H587.844ZM604.359 186.969C605.052 186.969 605.625 186.768 606.078 186.367C606.536 185.966 606.766 185.464 606.766 184.859V184.086L604.5 184.234C603.865 184.276 603.398 184.409 603.102 184.633C602.805 184.857 602.656 185.182 602.656 185.609C602.656 186.031 602.815 186.365 603.133 186.609C603.451 186.849 603.859 186.969 604.359 186.969ZM604.109 188.148C603.281 188.148 602.599 187.922 602.062 187.469C601.531 187.01 601.266 186.401 601.266 185.641C601.266 184.891 601.531 184.302 602.062 183.875C602.594 183.448 603.352 183.206 604.336 183.148L606.766 183V182.234C606.766 181.714 606.604 181.315 606.281 181.039C605.958 180.763 605.484 180.625 604.859 180.625C604.354 180.625 603.935 180.716 603.602 180.898C603.268 181.081 603.055 181.339 602.961 181.672H601.602C601.69 181 602.036 180.458 602.641 180.047C603.25 179.635 604.005 179.43 604.906 179.43C605.927 179.43 606.716 179.677 607.273 180.172C607.831 180.667 608.109 181.354 608.109 182.234V188H606.828V186.758H606.703C606.432 187.206 606.073 187.549 605.625 187.789C605.177 188.029 604.672 188.148 604.109 188.148ZM610.594 188V179.578H611.875V180.906H612C612.448 179.922 613.292 179.43 614.531 179.43C615.474 179.43 616.201 179.701 616.711 180.242C617.221 180.779 617.477 181.547 617.477 182.547V188H616.133V182.875C616.133 182.12 615.969 181.56 615.641 181.195C615.318 180.826 614.82 180.641 614.148 180.641C613.471 180.641 612.932 180.854 612.531 181.281C612.135 181.703 611.938 182.281 611.938 183.016V188H610.594ZM626.906 182.156H625.547C625.432 181.714 625.185 181.352 624.805 181.07C624.43 180.784 623.953 180.641 623.375 180.641C622.62 180.641 622.018 180.922 621.57 181.484C621.128 182.047 620.906 182.805 620.906 183.758C620.906 184.727 621.13 185.5 621.578 186.078C622.026 186.651 622.625 186.938 623.375 186.938C623.943 186.938 624.414 186.81 624.789 186.555C625.169 186.299 625.422 185.935 625.547 185.461H626.906C626.781 186.258 626.409 186.906 625.789 187.406C625.169 187.901 624.367 188.148 623.383 188.148C622.201 188.148 621.26 187.753 620.562 186.961C619.865 186.164 619.516 185.096 619.516 183.758C619.516 182.445 619.865 181.396 620.562 180.609C621.26 179.823 622.198 179.43 623.375 179.43C624.359 179.43 625.161 179.688 625.781 180.203C626.406 180.719 626.781 181.37 626.906 182.156ZM632.25 180.617C631.578 180.617 631.026 180.844 630.594 181.297C630.161 181.75 629.919 182.349 629.867 183.094H634.508C634.492 182.349 634.279 181.75 633.867 181.297C633.456 180.844 632.917 180.617 632.25 180.617ZM634.469 185.82H635.812C635.609 186.549 635.195 187.12 634.57 187.531C633.951 187.943 633.182 188.148 632.266 188.148C631.099 188.148 630.174 187.758 629.492 186.977C628.81 186.19 628.469 185.13 628.469 183.797C628.469 182.469 628.812 181.409 629.5 180.617C630.188 179.826 631.109 179.43 632.266 179.43C633.401 179.43 634.294 179.807 634.945 180.562C635.596 181.318 635.922 182.352 635.922 183.664V184.18H629.867V184.242C629.904 185.076 630.138 185.737 630.57 186.227C631.008 186.716 631.583 186.961 632.297 186.961C633.385 186.961 634.109 186.581 634.469 185.82ZM638.883 190.867H637.875L638.617 186.422H640.109L638.883 190.867ZM221.367 198.43C222.44 198.43 223.297 198.826 223.938 199.617C224.583 200.409 224.906 201.466 224.906 202.789C224.906 204.107 224.583 205.164 223.938 205.961C223.292 206.753 222.435 207.148 221.367 207.148C220.768 207.148 220.237 207.026 219.773 206.781C219.31 206.531 218.964 206.182 218.734 205.734H218.609V209.812H217.266V198.578H218.547V199.984H218.672C218.943 199.5 219.315 199.12 219.789 198.844C220.268 198.568 220.794 198.43 221.367 198.43ZM221.047 205.938C221.818 205.938 222.422 205.659 222.859 205.102C223.297 204.544 223.516 203.773 223.516 202.789C223.516 201.805 223.297 201.034 222.859 200.477C222.427 199.919 221.826 199.641 221.055 199.641C220.294 199.641 219.69 199.924 219.242 200.492C218.794 201.055 218.57 201.82 218.57 202.789C218.57 203.753 218.792 204.518 219.234 205.086C219.682 205.654 220.286 205.938 221.047 205.938ZM229.609 205.969C230.302 205.969 230.875 205.768 231.328 205.367C231.786 204.966 232.016 204.464 232.016 203.859V203.086L229.75 203.234C229.115 203.276 228.648 203.409 228.352 203.633C228.055 203.857 227.906 204.182 227.906 204.609C227.906 205.031 228.065 205.365 228.383 205.609C228.701 205.849 229.109 205.969 229.609 205.969ZM229.359 207.148C228.531 207.148 227.849 206.922 227.312 206.469C226.781 206.01 226.516 205.401 226.516 204.641C226.516 203.891 226.781 203.302 227.312 202.875C227.844 202.448 228.602 202.206 229.586 202.148L232.016 202V201.234C232.016 200.714 231.854 200.315 231.531 200.039C231.208 199.763 230.734 199.625 230.109 199.625C229.604 199.625 229.185 199.716 228.852 199.898C228.518 200.081 228.305 200.339 228.211 200.672H226.852C226.94 200 227.286 199.458 227.891 199.047C228.5 198.635 229.255 198.43 230.156 198.43C231.177 198.43 231.966 198.677 232.523 199.172C233.081 199.667 233.359 200.354 233.359 201.234V207H232.078V205.758H231.953C231.682 206.206 231.323 206.549 230.875 206.789C230.427 207.029 229.922 207.148 229.359 207.148ZM236.25 210.047C236.036 210.047 235.836 210.031 235.648 210V208.852C235.784 208.878 235.971 208.891 236.211 208.891C236.602 208.891 236.911 208.786 237.141 208.578C237.375 208.37 237.581 208.013 237.758 207.508L237.914 207.008L234.797 198.578H236.25L238.562 205.508H238.688L240.992 198.578H242.422L239.133 207.516C238.773 208.49 238.391 209.154 237.984 209.508C237.578 209.867 237 210.047 236.25 210.047ZM244.219 207V198.578H245.5V199.906H245.625C245.818 199.438 246.117 199.076 246.523 198.82C246.93 198.56 247.414 198.43 247.977 198.43C248.529 198.43 249.003 198.562 249.398 198.828C249.799 199.094 250.102 199.453 250.305 199.906H250.43C250.659 199.453 251.003 199.094 251.461 198.828C251.919 198.562 252.435 198.43 253.008 198.43C253.867 198.43 254.529 198.669 254.992 199.148C255.456 199.622 255.688 200.299 255.688 201.18V207H254.344V201.492C254.344 200.258 253.753 199.641 252.57 199.641C251.997 199.641 251.529 199.828 251.164 200.203C250.799 200.578 250.617 201.039 250.617 201.586V207H249.273V201.281C249.273 200.781 249.112 200.383 248.789 200.086C248.471 199.789 248.047 199.641 247.516 199.641C246.969 199.641 246.505 199.849 246.125 200.266C245.75 200.682 245.562 201.188 245.562 201.781V207H244.219ZM261.5 199.617C260.828 199.617 260.276 199.844 259.844 200.297C259.411 200.75 259.169 201.349 259.117 202.094H263.758C263.742 201.349 263.529 200.75 263.117 200.297C262.706 199.844 262.167 199.617 261.5 199.617ZM263.719 204.82H265.062C264.859 205.549 264.445 206.12 263.82 206.531C263.201 206.943 262.432 207.148 261.516 207.148C260.349 207.148 259.424 206.758 258.742 205.977C258.06 205.19 257.719 204.13 257.719 202.797C257.719 201.469 258.062 200.409 258.75 199.617C259.438 198.826 260.359 198.43 261.516 198.43C262.651 198.43 263.544 198.807 264.195 199.562C264.846 200.318 265.172 201.352 265.172 202.664V203.18H259.117V203.242C259.154 204.076 259.388 204.737 259.82 205.227C260.258 205.716 260.833 205.961 261.547 205.961C262.635 205.961 263.359 205.581 263.719 204.82ZM267.281 207V198.578H268.562V199.906H268.688C269.135 198.922 269.979 198.43 271.219 198.43C272.161 198.43 272.888 198.701 273.398 199.242C273.909 199.779 274.164 200.547 274.164 201.547V207H272.82V201.875C272.82 201.12 272.656 200.56 272.328 200.195C272.005 199.826 271.508 199.641 270.836 199.641C270.159 199.641 269.62 199.854 269.219 200.281C268.823 200.703 268.625 201.281 268.625 202.016V207H267.281ZM277.188 196.398H278.531V198.578H280.406V199.703H278.531V204.469C278.531 204.964 278.63 205.323 278.828 205.547C279.026 205.771 279.344 205.883 279.781 205.883C279.974 205.883 280.182 205.872 280.406 205.852V206.984C280.109 207.036 279.846 207.062 279.617 207.062C278.747 207.062 278.125 206.888 277.75 206.539C277.375 206.19 277.188 205.615 277.188 204.812V199.703H275.828V198.578H277.188V196.398ZM282.086 200.883C282.086 200.185 282.385 199.602 282.984 199.133C283.583 198.664 284.331 198.43 285.227 198.43C286.107 198.43 286.833 198.633 287.406 199.039C287.979 199.445 288.31 199.995 288.398 200.688H287.07C286.977 200.344 286.768 200.073 286.445 199.875C286.128 199.672 285.719 199.57 285.219 199.57C284.714 199.57 284.289 199.688 283.945 199.922C283.607 200.156 283.438 200.458 283.438 200.828C283.438 201.115 283.555 201.354 283.789 201.547C284.029 201.734 284.398 201.888 284.898 202.008L286.195 202.32C286.997 202.513 287.589 202.792 287.969 203.156C288.354 203.521 288.547 204.003 288.547 204.602C288.547 205.346 288.227 205.958 287.586 206.438C286.945 206.911 286.141 207.148 285.172 207.148C284.234 207.148 283.466 206.94 282.867 206.523C282.268 206.107 281.932 205.549 281.859 204.852H283.242C283.357 205.216 283.583 205.503 283.922 205.711C284.26 205.914 284.693 206.016 285.219 206.016C285.786 206.016 286.253 205.893 286.617 205.648C286.982 205.404 287.164 205.089 287.164 204.703C287.164 204.13 286.719 203.734 285.828 203.516L284.383 203.164C283.586 202.971 283.003 202.695 282.633 202.336C282.268 201.971 282.086 201.487 282.086 200.883ZM291.508 209.867H290.5L291.242 205.422H292.734L291.508 209.867ZM299.555 204.055H300.977C301.065 204.643 301.37 205.112 301.891 205.461C302.411 205.81 303.073 205.984 303.875 205.984C304.635 205.984 305.263 205.802 305.758 205.438C306.258 205.068 306.508 204.604 306.508 204.047C306.508 203.568 306.326 203.172 305.961 202.859C305.596 202.542 305.026 202.284 304.25 202.086L302.805 201.711C301.784 201.456 301.042 201.086 300.578 200.602C300.115 200.117 299.883 199.474 299.883 198.672C299.883 197.714 300.247 196.94 300.977 196.352C301.711 195.758 302.674 195.461 303.867 195.461C304.956 195.461 305.867 195.753 306.602 196.336C307.336 196.919 307.732 197.667 307.789 198.578H306.375C306.276 198 306 197.549 305.547 197.227C305.099 196.898 304.523 196.734 303.82 196.734C303.07 196.734 302.466 196.909 302.008 197.258C301.555 197.602 301.328 198.057 301.328 198.625C301.328 199.068 301.495 199.427 301.828 199.703C302.167 199.979 302.724 200.216 303.5 200.414L304.68 200.727C305.846 201.018 306.682 201.409 307.188 201.898C307.698 202.388 307.953 203.047 307.953 203.875C307.953 204.911 307.573 205.737 306.812 206.352C306.052 206.961 305.029 207.266 303.742 207.266C302.549 207.266 301.57 206.974 300.805 206.391C300.044 205.807 299.628 205.029 299.555 204.055ZM321.406 207H320.094V198.391H320L316.445 206.922H315.258L311.703 198.391H311.609V207H310.297V195.727H311.93L315.789 205.055H315.914L319.773 195.727H321.406V207ZM323.742 204.055H325.164C325.253 204.643 325.557 205.112 326.078 205.461C326.599 205.81 327.26 205.984 328.062 205.984C328.823 205.984 329.451 205.802 329.945 205.438C330.445 205.068 330.695 204.604 330.695 204.047C330.695 203.568 330.513 203.172 330.148 202.859C329.784 202.542 329.214 202.284 328.438 202.086L326.992 201.711C325.971 201.456 325.229 201.086 324.766 200.602C324.302 200.117 324.07 199.474 324.07 198.672C324.07 197.714 324.435 196.94 325.164 196.352C325.898 195.758 326.862 195.461 328.055 195.461C329.143 195.461 330.055 195.753 330.789 196.336C331.523 196.919 331.919 197.667 331.977 198.578H330.562C330.464 198 330.188 197.549 329.734 197.227C329.286 196.898 328.711 196.734 328.008 196.734C327.258 196.734 326.654 196.909 326.195 197.258C325.742 197.602 325.516 198.057 325.516 198.625C325.516 199.068 325.682 199.427 326.016 199.703C326.354 199.979 326.911 200.216 327.688 200.414L328.867 200.727C330.034 201.018 330.87 201.409 331.375 201.898C331.885 202.388 332.141 203.047 332.141 203.875C332.141 204.911 331.76 205.737 331 206.352C330.24 206.961 329.216 207.266 327.93 207.266C326.737 207.266 325.758 206.974 324.992 206.391C324.232 205.807 323.815 205.029 323.742 204.055ZM341.945 207.148C340.867 207.148 340.008 206.753 339.367 205.961C338.727 205.169 338.406 204.112 338.406 202.789C338.406 201.471 338.727 200.417 339.367 199.625C340.013 198.828 340.872 198.43 341.945 198.43C342.534 198.43 343.06 198.562 343.523 198.828C343.992 199.089 344.346 199.448 344.586 199.906H344.703V195.234H346.047V207H344.766V205.656H344.641C344.375 206.125 344.005 206.492 343.531 206.758C343.057 207.018 342.529 207.148 341.945 207.148ZM342.258 199.641C341.492 199.641 340.891 199.922 340.453 200.484C340.016 201.042 339.797 201.81 339.797 202.789C339.797 203.773 340.013 204.544 340.445 205.102C340.883 205.659 341.487 205.938 342.258 205.938C343.023 205.938 343.628 205.656 344.07 205.094C344.513 204.531 344.734 203.763 344.734 202.789C344.734 201.826 344.51 201.06 344.062 200.492C343.62 199.924 343.018 199.641 342.258 199.641ZM352.016 199.617C351.344 199.617 350.792 199.844 350.359 200.297C349.927 200.75 349.685 201.349 349.633 202.094H354.273C354.258 201.349 354.044 200.75 353.633 200.297C353.221 199.844 352.682 199.617 352.016 199.617ZM354.234 204.82H355.578C355.375 205.549 354.961 206.12 354.336 206.531C353.716 206.943 352.948 207.148 352.031 207.148C350.865 207.148 349.94 206.758 349.258 205.977C348.576 205.19 348.234 204.13 348.234 202.797C348.234 201.469 348.578 200.409 349.266 199.617C349.953 198.826 350.875 198.43 352.031 198.43C353.167 198.43 354.06 198.807 354.711 199.562C355.362 200.318 355.688 201.352 355.688 202.664V203.18H349.633V203.242C349.669 204.076 349.904 204.737 350.336 205.227C350.773 205.716 351.349 205.961 352.062 205.961C353.151 205.961 353.875 205.581 354.234 204.82ZM357.875 207V195.234H359.219V207H357.875ZM361.859 207V198.578H363.203V207H361.859ZM363.195 196.594C363.013 196.776 362.792 196.867 362.531 196.867C362.271 196.867 362.049 196.776 361.867 196.594C361.685 196.406 361.594 196.185 361.594 195.93C361.594 195.674 361.685 195.456 361.867 195.273C362.049 195.086 362.271 194.992 362.531 194.992C362.792 194.992 363.013 195.086 363.195 195.273C363.378 195.456 363.469 195.674 363.469 195.93C363.469 196.185 363.378 196.406 363.195 196.594ZM372.641 198.578L369.523 207H368.148L365.031 198.578H366.469L368.773 205.516H368.898L371.203 198.578H372.641ZM377.484 199.617C376.812 199.617 376.26 199.844 375.828 200.297C375.396 200.75 375.154 201.349 375.102 202.094H379.742C379.727 201.349 379.513 200.75 379.102 200.297C378.69 199.844 378.151 199.617 377.484 199.617ZM379.703 204.82H381.047C380.844 205.549 380.43 206.12 379.805 206.531C379.185 206.943 378.417 207.148 377.5 207.148C376.333 207.148 375.409 206.758 374.727 205.977C374.044 205.19 373.703 204.13 373.703 202.797C373.703 201.469 374.047 200.409 374.734 199.617C375.422 198.826 376.344 198.43 377.5 198.43C378.635 198.43 379.529 198.807 380.18 199.562C380.831 200.318 381.156 201.352 381.156 202.664V203.18H375.102V203.242C375.138 204.076 375.372 204.737 375.805 205.227C376.242 205.716 376.818 205.961 377.531 205.961C378.62 205.961 379.344 205.581 379.703 204.82ZM383.266 207V198.578H384.547V199.828H384.672C384.797 199.417 385.078 199.081 385.516 198.82C385.953 198.56 386.451 198.43 387.008 198.43C387.263 198.43 387.487 198.443 387.68 198.469V199.812C387.497 199.76 387.211 199.734 386.82 199.734C386.18 199.734 385.651 199.927 385.234 200.312C384.818 200.698 384.609 201.188 384.609 201.781V207H383.266ZM390.078 210.047C389.865 210.047 389.664 210.031 389.477 210V208.852C389.612 208.878 389.799 208.891 390.039 208.891C390.43 208.891 390.74 208.786 390.969 208.578C391.203 208.37 391.409 208.013 391.586 207.508L391.742 207.008L388.625 198.578H390.078L392.391 205.508H392.516L394.82 198.578H396.25L392.961 207.516C392.602 208.49 392.219 209.154 391.812 209.508C391.406 209.867 390.828 210.047 390.078 210.047ZM397.727 209.867H396.719L397.461 205.422H398.953L397.727 209.867ZM409.5 199.617C408.828 199.617 408.276 199.844 407.844 200.297C407.411 200.75 407.169 201.349 407.117 202.094H411.758C411.742 201.349 411.529 200.75 411.117 200.297C410.706 199.844 410.167 199.617 409.5 199.617ZM411.719 204.82H413.062C412.859 205.549 412.445 206.12 411.82 206.531C411.201 206.943 410.432 207.148 409.516 207.148C408.349 207.148 407.424 206.758 406.742 205.977C406.06 205.19 405.719 204.13 405.719 202.797C405.719 201.469 406.062 200.409 406.75 199.617C407.438 198.826 408.359 198.43 409.516 198.43C410.651 198.43 411.544 198.807 412.195 199.562C412.846 200.318 413.172 201.352 413.172 202.664V203.18H407.117V203.242C407.154 204.076 407.388 204.737 407.82 205.227C408.258 205.716 408.833 205.961 409.547 205.961C410.635 205.961 411.359 205.581 411.719 204.82ZM415.281 207V198.578H416.562V199.906H416.688C417.135 198.922 417.979 198.43 419.219 198.43C420.161 198.43 420.888 198.701 421.398 199.242C421.909 199.779 422.164 200.547 422.164 201.547V207H420.82V201.875C420.82 201.12 420.656 200.56 420.328 200.195C420.005 199.826 419.508 199.641 418.836 199.641C418.159 199.641 417.62 199.854 417.219 200.281C416.823 200.703 416.625 201.281 416.625 202.016V207H415.281ZM427.727 198.43C428.299 198.43 428.828 198.57 429.312 198.852C429.802 199.133 430.172 199.51 430.422 199.984H430.547V198.578H431.844V209.812H430.484V205.734H430.359C429.807 206.677 428.93 207.148 427.727 207.148C426.654 207.148 425.797 206.755 425.156 205.969C424.521 205.177 424.203 204.117 424.203 202.789C424.203 201.471 424.523 200.417 425.164 199.625C425.805 198.828 426.659 198.43 427.727 198.43ZM428.031 205.938C428.802 205.938 429.409 205.656 429.852 205.094C430.299 204.526 430.523 203.758 430.523 202.789C430.523 201.826 430.299 201.06 429.852 200.492C429.404 199.924 428.799 199.641 428.039 199.641C427.273 199.641 426.674 199.919 426.242 200.477C425.81 201.034 425.594 201.805 425.594 202.789C425.594 203.779 425.807 204.552 426.234 205.109C426.667 205.661 427.266 205.938 428.031 205.938ZM441.188 198.578V207H439.906V205.68H439.781C439.568 206.154 439.24 206.518 438.797 206.773C438.354 207.023 437.812 207.148 437.172 207.148C436.234 207.148 435.521 206.88 435.031 206.344C434.542 205.807 434.297 205.036 434.297 204.031V198.578H435.641V203.703C435.641 204.469 435.792 205.031 436.094 205.391C436.396 205.745 436.88 205.922 437.547 205.922C438.281 205.922 438.846 205.716 439.242 205.305C439.643 204.888 439.844 204.307 439.844 203.562V198.578H441.188ZM443.75 207V198.578H445.094V207H443.75ZM445.086 196.594C444.904 196.776 444.682 196.867 444.422 196.867C444.161 196.867 443.94 196.776 443.758 196.594C443.576 196.406 443.484 196.185 443.484 195.93C443.484 195.674 443.576 195.456 443.758 195.273C443.94 195.086 444.161 194.992 444.422 194.992C444.682 194.992 444.904 195.086 445.086 195.273C445.268 195.456 445.359 195.674 445.359 195.93C445.359 196.185 445.268 196.406 445.086 196.594ZM447.656 207V198.578H448.938V199.828H449.062C449.188 199.417 449.469 199.081 449.906 198.82C450.344 198.56 450.841 198.43 451.398 198.43C451.654 198.43 451.878 198.443 452.07 198.469V199.812C451.888 199.76 451.602 199.734 451.211 199.734C450.57 199.734 450.042 199.927 449.625 200.312C449.208 200.698 449 201.188 449 201.781V207H447.656ZM453.781 207V198.578H455.125V207H453.781ZM455.117 196.594C454.935 196.776 454.714 196.867 454.453 196.867C454.193 196.867 453.971 196.776 453.789 196.594C453.607 196.406 453.516 196.185 453.516 195.93C453.516 195.674 453.607 195.456 453.789 195.273C453.971 195.086 454.193 194.992 454.453 194.992C454.714 194.992 454.935 195.086 455.117 195.273C455.299 195.456 455.391 195.674 455.391 195.93C455.391 196.185 455.299 196.406 455.117 196.594ZM461.047 199.617C460.375 199.617 459.823 199.844 459.391 200.297C458.958 200.75 458.716 201.349 458.664 202.094H463.305C463.289 201.349 463.076 200.75 462.664 200.297C462.253 199.844 461.714 199.617 461.047 199.617ZM463.266 204.82H464.609C464.406 205.549 463.992 206.12 463.367 206.531C462.747 206.943 461.979 207.148 461.062 207.148C459.896 207.148 458.971 206.758 458.289 205.977C457.607 205.19 457.266 204.13 457.266 202.797C457.266 201.469 457.609 200.409 458.297 199.617C458.984 198.826 459.906 198.43 461.062 198.43C462.198 198.43 463.091 198.807 463.742 199.562C464.393 200.318 464.719 201.352 464.719 202.664V203.18H458.664V203.242C458.701 204.076 458.935 204.737 459.367 205.227C459.805 205.716 460.38 205.961 461.094 205.961C462.182 205.961 462.906 205.581 463.266 204.82ZM466.633 200.883C466.633 200.185 466.932 199.602 467.531 199.133C468.13 198.664 468.878 198.43 469.773 198.43C470.654 198.43 471.38 198.633 471.953 199.039C472.526 199.445 472.857 199.995 472.945 200.688H471.617C471.523 200.344 471.315 200.073 470.992 199.875C470.674 199.672 470.266 199.57 469.766 199.57C469.26 199.57 468.836 199.688 468.492 199.922C468.154 200.156 467.984 200.458 467.984 200.828C467.984 201.115 468.102 201.354 468.336 201.547C468.576 201.734 468.945 201.888 469.445 202.008L470.742 202.32C471.544 202.513 472.135 202.792 472.516 203.156C472.901 203.521 473.094 204.003 473.094 204.602C473.094 205.346 472.773 205.958 472.133 206.438C471.492 206.911 470.688 207.148 469.719 207.148C468.781 207.148 468.013 206.94 467.414 206.523C466.815 206.107 466.479 205.549 466.406 204.852H467.789C467.904 205.216 468.13 205.503 468.469 205.711C468.807 205.914 469.24 206.016 469.766 206.016C470.333 206.016 470.799 205.893 471.164 205.648C471.529 205.404 471.711 205.089 471.711 204.703C471.711 204.13 471.266 203.734 470.375 203.516L468.93 203.164C468.133 202.971 467.549 202.695 467.18 202.336C466.815 201.971 466.633 201.487 466.633 200.883ZM476.055 209.867H475.047L475.789 205.422H477.281L476.055 209.867ZM487.828 199.617C487.156 199.617 486.604 199.844 486.172 200.297C485.74 200.75 485.497 201.349 485.445 202.094H490.086C490.07 201.349 489.857 200.75 489.445 200.297C489.034 199.844 488.495 199.617 487.828 199.617ZM490.047 204.82H491.391C491.188 205.549 490.773 206.12 490.148 206.531C489.529 206.943 488.76 207.148 487.844 207.148C486.677 207.148 485.753 206.758 485.07 205.977C484.388 205.19 484.047 204.13 484.047 202.797C484.047 201.469 484.391 200.409 485.078 199.617C485.766 198.826 486.688 198.43 487.844 198.43C488.979 198.43 489.872 198.807 490.523 199.562C491.174 200.318 491.5 201.352 491.5 202.664V203.18H485.445V203.242C485.482 204.076 485.716 204.737 486.148 205.227C486.586 205.716 487.161 205.961 487.875 205.961C488.964 205.961 489.688 205.581 490.047 204.82ZM494.172 196.398H495.516V198.578H497.391V199.703H495.516V204.469C495.516 204.964 495.615 205.323 495.812 205.547C496.01 205.771 496.328 205.883 496.766 205.883C496.958 205.883 497.167 205.872 497.391 205.852V206.984C497.094 207.036 496.831 207.062 496.602 207.062C495.732 207.062 495.109 206.888 494.734 206.539C494.359 206.19 494.172 205.615 494.172 204.812V199.703H492.812V198.578H494.172V196.398ZM506.266 201.156H504.906C504.792 200.714 504.544 200.352 504.164 200.07C503.789 199.784 503.312 199.641 502.734 199.641C501.979 199.641 501.378 199.922 500.93 200.484C500.487 201.047 500.266 201.805 500.266 202.758C500.266 203.727 500.49 204.5 500.938 205.078C501.385 205.651 501.984 205.938 502.734 205.938C503.302 205.938 503.773 205.81 504.148 205.555C504.529 205.299 504.781 204.935 504.906 204.461H506.266C506.141 205.258 505.768 205.906 505.148 206.406C504.529 206.901 503.727 207.148 502.742 207.148C501.56 207.148 500.62 206.753 499.922 205.961C499.224 205.164 498.875 204.096 498.875 202.758C498.875 201.445 499.224 200.396 499.922 199.609C500.62 198.823 501.557 198.43 502.734 198.43C503.719 198.43 504.521 198.688 505.141 199.203C505.766 199.719 506.141 200.37 506.266 201.156Z" fill="white"/>
<g clip-path="url(#clip0)">
<path d="M116 114C114.857 114 113.931 114.926 113.931 116.069V122.276H118.069V116.069C118.069 114.926 117.142 114 116 114Z" fill="#905601"/>
<path d="M136.691 202.966H95.3115V207.103H136.691V202.966Z" fill="#734500"/>
<path d="M84.992 232.555L92.9635 194.69H99.1705L91.2285 232.414C91.0339 233.339 90.2185 234 89.2742 234H86.1648C85.4033 234 84.8352 233.299 84.992 232.555Z" fill="#915601"/>
<path d="M147.01 232.555L139.038 194.69H132.831L140.773 232.414C140.968 233.339 141.783 234 142.727 234H145.837C146.598 234 147.166 233.299 147.01 232.555Z" fill="#915601"/>
<path d="M173.931 126.414H58.0691C56.9265 126.414 56 125.487 56 124.345V122.276C56 121.133 56.9265 120.207 58.0691 120.207H173.931C175.074 120.207 176 121.133 176 122.276V124.345C176 125.487 175.074 126.414 173.931 126.414Z" fill="#905601"/>
<path d="M174 126H58V192.824C58 195.13 59.8547 197 62.1428 197H169.857C172.145 197 174 195.13 174 192.824V126Z" fill="#FFFCF7"/>
<path d="M120.139 186.414H111.863C110.72 186.414 109.794 185.487 109.794 184.345V151.241C109.794 150.099 110.72 149.172 111.863 149.172H120.139C121.281 149.172 122.208 150.099 122.208 151.241V184.345C122.208 185.487 121.281 186.414 120.139 186.414Z" fill="#FFD782"/>
<path d="M120.139 186.414H111.863C110.72 186.414 109.794 185.487 109.794 184.345V161.586C109.794 160.444 110.72 159.517 111.863 159.517H120.139C121.281 159.517 122.208 160.444 122.208 161.586V184.345C122.208 185.487 121.281 186.414 120.139 186.414Z" fill="#FFC36E"/>
<path d="M101.517 186.414H93.2409C92.0984 186.414 91.1719 185.487 91.1719 184.345V161.586C91.1719 160.444 92.0984 159.517 93.2409 159.517H101.517C102.659 159.517 103.586 160.444 103.586 161.586V184.345C103.586 185.487 102.659 186.414 101.517 186.414Z" fill="#FF6464"/>
<path d="M101.517 186.414H93.2409C92.0984 186.414 91.1719 185.487 91.1719 184.345V171.931C91.1719 170.788 92.0984 169.862 93.2409 169.862H101.517C102.659 169.862 103.586 170.788 103.586 171.931V184.345C103.586 185.487 102.659 186.414 101.517 186.414Z" fill="#D2555A"/>
<path d="M82.8966 186.414H74.6208C73.4782 186.414 72.5518 185.487 72.5518 184.345V171.931C72.5518 170.788 73.4782 169.862 74.6208 169.862H82.8966C84.0392 169.862 84.9657 170.788 84.9657 171.931V184.345C84.9654 185.487 84.0392 186.414 82.8966 186.414Z" fill="#00D2FF"/>
<path d="M82.8966 186.414H74.6208C73.4782 186.414 72.5518 185.487 72.5518 184.345V180.207C72.5518 179.064 73.4782 178.138 74.6208 178.138H82.8966C84.0392 178.138 84.9657 179.064 84.9657 180.207V184.345C84.9654 185.487 84.0392 186.414 82.8966 186.414Z" fill="#18BDF6"/>
<path d="M138.759 186.414H130.483C129.341 186.414 128.414 185.487 128.414 184.345V161.586C128.414 160.444 129.341 159.517 130.483 159.517H138.759C139.901 159.517 140.828 160.444 140.828 161.586V184.345C140.828 185.487 139.901 186.414 138.759 186.414Z" fill="#C3E678"/>
<path d="M138.759 186.414H130.483C129.341 186.414 128.414 185.487 128.414 184.345V171.931C128.414 170.788 129.341 169.862 130.483 169.862H138.759C139.901 169.862 140.828 170.788 140.828 171.931V184.345C140.828 185.487 139.901 186.414 138.759 186.414Z" fill="#A5D76E"/>
<path d="M157.379 186.414H149.103C147.961 186.414 147.034 185.487 147.034 184.345V138.828C147.034 137.685 147.961 136.759 149.103 136.759H157.379C158.522 136.759 159.448 137.685 159.448 138.828V184.345C159.448 185.487 158.522 186.414 157.379 186.414Z" fill="#9BE6D2"/>
<path d="M157.379 186.414H149.103C147.961 186.414 147.034 185.487 147.034 184.345V149.172C147.034 148.03 147.961 147.103 149.103 147.103H157.379C158.522 147.103 159.448 148.03 159.448 149.172V184.345C159.448 185.487 158.522 186.414 157.379 186.414Z" fill="#78D2BE"/>
<path d="M163.587 188.483H68.4148C67.2722 188.483 66.3457 187.556 66.3457 186.414C66.3457 185.271 67.2722 184.344 68.4148 184.344H163.587C164.73 184.344 165.656 185.271 165.656 186.414C165.656 187.557 164.73 188.483 163.587 188.483Z" fill="#AFB9D2"/>
</g>
<defs>
<filter id="filter0_ddd" x="-5" y="-4" width="734" height="325" filterUnits="userSpaceOnUse" color-interpolation-filters="sRGB">
<feFlood flood-opacity="0" result="BackgroundImageFix"/>
<feColorMatrix in="SourceAlpha" type="matrix" values="0 0 0 0 0 0 0 0 0 0 0 0 0 0 0 0 0 0 127 0"/>
<feOffset dy="1"/>
<feGaussianBlur stdDeviation="2.5"/>
<feColorMatrix type="matrix" values="0 0 0 0 0.67451 0 0 0 0 0.678431 0 0 0 0 0.686275 0 0 0 0.2 0"/>
<feBlend mode="normal" in2="BackgroundImageFix" result="effect1_dropShadow"/>
<feColorMatrix in="SourceAlpha" type="matrix" values="0 0 0 0 0 0 0 0 0 0 0 0 0 0 0 0 0 0 127 0"/>
<feOffset dy="3"/>
<feGaussianBlur stdDeviation="2"/>
<feColorMatrix type="matrix" values="0 0 0 0 0.67451 0 0 0 0 0.678431 0 0 0 0 0.686275 0 0 0 0.12 0"/>
<feBlend mode="normal" in2="effect1_dropShadow" result="effect2_dropShadow"/>
<feColorMatrix in="SourceAlpha" type="matrix" values="0 0 0 0 0 0 0 0 0 0 0 0 0 0 0 0 0 0 127 0"/>
<feOffset dy="2"/>
<feGaussianBlur stdDeviation="2"/>
<feColorMatrix type="matrix" values="0 0 0 0 0.67451 0 0 0 0 0.678431 0 0 0 0 0.686275 0 0 0 0.14 0"/>
<feBlend mode="normal" in2="effect2_dropShadow" result="effect3_dropShadow"/>
<feBlend mode="normal" in="SourceGraphic" in2="effect3_dropShadow" result="shape"/>
</filter>
<clipPath id="clip0">
<rect width="120" height="120" fill="white" transform="translate(56 114)"/>
</clipPath>
</defs>
</svg>
