<svg width="414" height="180" viewBox="0 0 414 180" fill="none" xmlns="http://www.w3.org/2000/svg">
<rect width="414" height="180" fill="#FF9800"/>
<g opacity="0.6">
<rect x="132.363" y="18" width="43.6364" height="43.6364" fill="white" fill-opacity="0.06"/>
<rect x="107.818" y="47.4546" width="35.4545" height="36" fill="white" fill-opacity="0.06"/>
<rect x="278" y="139.091" width="22.9091" height="22.9091" fill="white" fill-opacity="0.08"/>
<circle cx="332.272" cy="45" r="27" fill="white" fill-opacity="0.06"/>
<ellipse cx="312.091" cy="65.4546" rx="17.7273" ry="18" fill="white" fill-opacity="0.06"/>
<ellipse cx="233.818" cy="135.545" rx="8.72727" ry="8.45455" fill="white" fill-opacity="0.08"/>
<g opacity="0.15">
<path fill-rule="evenodd" clip-rule="evenodd" d="M366.799 115.357L384.233 97.9233C384.577 97.5794 385.136 97.5813 385.482 97.9274L393.003 105.448C394.042 106.487 394.047 108.165 393.015 109.197L375.582 126.63C375.238 126.974 374.679 126.972 374.333 126.626L366.812 119.105C365.773 118.066 365.768 116.388 366.799 115.357Z" fill="#EEEEEE" fill-opacity="0.6"/>
<path fill-rule="evenodd" clip-rule="evenodd" d="M382.419 114.783L366.75 99.1147C365.712 98.0763 365.706 96.3982 366.738 95.3666L374.209 87.8952C374.553 87.5514 375.112 87.5532 375.458 87.8994L393.007 105.448C394.046 106.487 394.051 108.165 393.02 109.196L385.548 116.668L383.058 119.158C384.09 118.127 384.084 116.449 383.046 115.41L382.419 114.783Z" fill="white"/>
</g>
</g>
<g clip-path="url(#clip0)">
<path d="M76.0001 65.3999C75.3831 65.3999 74.8828 65.9002 74.8828 66.5172V69.8688H77.1173V66.5172C77.1174 65.9002 76.6171 65.3999 76.0001 65.3999Z" fill="#905601"/>
<path d="M87.172 113.441H64.8271V115.676H87.172V113.441Z" fill="#734500"/>
<path d="M59.2563 129.419L63.561 108.972H66.9127L62.624 129.344C62.519 129.843 62.0787 130.2 61.5687 130.2H59.8896C59.4784 130.2 59.1716 129.822 59.2563 129.419Z" fill="#915601"/>
<path d="M92.7453 129.419L88.4406 108.972H85.0889L89.3776 129.344C89.4826 129.843 89.9229 130.2 90.4328 130.2H92.1119C92.523 130.2 92.8299 129.822 92.7453 129.419Z" fill="#915601"/>
<path d="M107.282 72.1033H44.7169C44.0999 72.1033 43.5996 71.603 43.5996 70.9861V69.8688C43.5996 69.2518 44.0999 68.7515 44.7169 68.7515H107.282C107.899 68.7515 108.4 69.2518 108.4 69.8688V70.9861C108.4 71.603 107.899 72.1033 107.282 72.1033Z" fill="#905601"/>
<path d="M107.32 71.8799H44.6797V107.965C44.6797 109.21 45.6812 110.22 46.9168 110.22H105.083C106.318 110.22 107.32 109.21 107.32 107.965V71.8799Z" fill="#FFFCF7"/>
<path d="M78.2347 104.503H73.7657C73.1487 104.503 72.6484 104.003 72.6484 103.386V85.5104C72.6484 84.8934 73.1487 84.3931 73.7657 84.3931H78.2347C78.8516 84.3931 79.352 84.8934 79.352 85.5104V103.386C79.352 104.003 78.8516 104.503 78.2347 104.503Z" fill="#FFD782"/>
<path d="M78.2347 104.503H73.7657C73.1487 104.503 72.6484 104.003 72.6484 103.386V91.0965C72.6484 90.4796 73.1487 89.9792 73.7657 89.9792H78.2347C78.8516 89.9792 79.352 90.4796 79.352 91.0965V103.386C79.352 104.003 78.8516 104.503 78.2347 104.503Z" fill="#FFC36E"/>
<path d="M68.178 104.503H63.7091C63.0921 104.503 62.5918 104.003 62.5918 103.386V91.0965C62.5918 90.4796 63.0921 89.9792 63.7091 89.9792H68.178C68.795 89.9792 69.2953 90.4796 69.2953 91.0965V103.386C69.2953 104.003 68.795 104.503 68.178 104.503Z" fill="#FF6464"/>
<path d="M68.178 104.504H63.7091C63.0921 104.504 62.5918 104.003 62.5918 103.386V96.6827C62.5918 96.0657 63.0921 95.5654 63.7091 95.5654H68.178C68.795 95.5654 69.2953 96.0657 69.2953 96.6827V103.386C69.2953 104.003 68.795 104.504 68.178 104.504Z" fill="#D2555A"/>
<path d="M58.1243 104.504H53.6554C53.0384 104.504 52.5381 104.003 52.5381 103.386V96.6827C52.5381 96.0657 53.0384 95.5654 53.6554 95.5654H58.1243C58.7413 95.5654 59.2416 96.0657 59.2416 96.6827V103.386C59.2415 104.003 58.7413 104.504 58.1243 104.504Z" fill="#00D2FF"/>
<path d="M58.1243 104.503H53.6554C53.0384 104.503 52.5381 104.003 52.5381 103.386V101.152C52.5381 100.535 53.0384 100.034 53.6554 100.034H58.1243C58.7413 100.034 59.2416 100.535 59.2416 101.152V103.386C59.2415 104.003 58.7413 104.503 58.1243 104.503Z" fill="#18BDF6"/>
<path d="M88.2893 104.503H83.8204C83.2034 104.503 82.7031 104.003 82.7031 103.386V91.0965C82.7031 90.4796 83.2034 89.9792 83.8204 89.9792H88.2893C88.9063 89.9792 89.4066 90.4796 89.4066 91.0965V103.386C89.4066 104.003 88.9063 104.503 88.2893 104.503Z" fill="#C3E678"/>
<path d="M88.2893 104.504H83.8204C83.2034 104.504 82.7031 104.003 82.7031 103.386V96.6827C82.7031 96.0657 83.2034 95.5654 83.8204 95.5654H88.2893C88.9063 95.5654 89.4066 96.0657 89.4066 96.6827V103.386C89.4066 104.003 88.9063 104.504 88.2893 104.504Z" fill="#A5D76E"/>
<path d="M98.344 104.503H93.8751C93.2581 104.503 92.7578 104.003 92.7578 103.386V78.8067C92.7578 78.1898 93.2581 77.6895 93.8751 77.6895H98.344C98.961 77.6895 99.4613 78.1898 99.4613 78.8067V103.386C99.4612 104.003 98.961 104.503 98.344 104.503Z" fill="#9BE6D2"/>
<path d="M98.344 104.504H93.8751C93.2581 104.504 92.7578 104.003 92.7578 103.386V84.3932C92.7578 83.7762 93.2581 83.2759 93.8751 83.2759H98.344C98.961 83.2759 99.4613 83.7762 99.4613 84.3932V103.386C99.4612 104.003 98.961 104.504 98.344 104.504Z" fill="#78D2BE"/>
<path d="M101.696 105.62H50.3028C49.6858 105.62 49.1855 105.12 49.1855 104.503C49.1855 103.886 49.6858 103.386 50.3028 103.386H101.696C102.313 103.386 102.813 103.886 102.813 104.503C102.813 105.12 102.313 105.62 101.696 105.62Z" fill="#AFB9D2"/>
</g>
<path d="M140.258 79V64.9082H137.738V79H140.258ZM143.48 79H145.902V72.7793C145.902 71.207 146.811 70.2109 148.256 70.2109C149.73 70.2109 150.414 71.0312 150.414 72.6621V79H152.836V72.0859C152.836 69.5371 151.537 68.1016 149.154 68.1016C147.562 68.1016 146.488 68.834 145.98 70.0254H145.814V68.3164H143.48V79ZM155.463 71.373C155.463 72.9844 156.43 73.9316 158.48 74.4004L160.375 74.8398C161.391 75.0645 161.85 75.4453 161.85 76.0508C161.85 76.8418 161 77.3789 159.779 77.3789C158.568 77.3789 157.816 76.9102 157.582 76.1191H155.189C155.375 78.0625 157.055 79.2148 159.721 79.2148C162.387 79.2148 164.271 77.8477 164.271 75.7969C164.271 74.2246 163.324 73.3457 161.283 72.8867L159.398 72.457C158.324 72.2129 157.816 71.8418 157.816 71.2363C157.816 70.4648 158.646 69.9375 159.75 69.9375C160.883 69.9375 161.596 70.416 161.771 71.168H164.047C163.871 69.2246 162.279 68.1016 159.74 68.1016C157.221 68.1016 155.463 69.4395 155.463 71.373ZM166.752 79H169.164V68.3164H166.752V79ZM167.953 66.5781C168.842 66.5781 169.447 66.0117 169.447 65.2402C169.447 64.4688 168.842 63.9023 167.953 63.9023C167.074 63.9023 166.459 64.4688 166.459 65.2402C166.459 66.0117 167.074 66.5781 167.953 66.5781ZM176.762 76.8711C175.072 76.8711 174.115 75.582 174.115 73.541C174.115 71.5 175.072 70.2012 176.762 70.2012C178.441 70.2012 179.467 71.5 179.467 73.541C179.467 75.582 178.451 76.8711 176.762 76.8711ZM176.762 83.0625C179.877 83.0625 181.85 81.5098 181.85 79.0391V68.3164H179.516V70.0254H179.35C178.764 68.8633 177.494 68.1406 176.039 68.1406C173.314 68.1406 171.625 70.2695 171.625 73.541C171.625 76.7539 173.305 78.8438 176 78.8438C177.484 78.8438 178.646 78.2188 179.262 77.0762H179.428V79.0977C179.428 80.4355 178.461 81.2168 176.801 81.2168C175.473 81.2168 174.613 80.748 174.457 80.0156H172.025C172.221 81.8516 174.018 83.0625 176.762 83.0625ZM184.926 79H187.348V72.7988C187.348 71.2656 188.236 70.2305 189.828 70.2305C191.234 70.2305 191.977 71.0605 191.977 72.6816V79H194.398V72.1055C194.398 69.5664 193.012 68.1211 190.727 68.1211C189.135 68.1211 187.992 68.8438 187.484 70.0449H187.309V64.1855H184.926V79ZM198.041 65.6992V68.3848H196.352V70.3184H198.041V76.1484C198.041 78.2188 199.018 79.0488 201.469 79.0488C201.938 79.0488 202.387 79 202.738 78.9316V77.0371C202.445 77.0664 202.26 77.0859 201.918 77.0859C200.902 77.0859 200.453 76.6172 200.453 75.5625V70.3184H202.738V68.3848H200.453V65.6992H198.041ZM206 79H208.412V70.3184H210.707V68.3848H208.383V67.418C208.383 66.4121 208.832 65.9141 209.975 65.9141C210.316 65.9141 210.609 65.9336 210.805 65.9629V64.1855C210.414 64.1172 209.975 64.0781 209.457 64.0781C207.084 64.0781 206 65.1426 206 67.2617V68.3848H204.252V70.3184H206V79ZM222.348 68.3164H219.926V74.5371C219.926 76.1191 219.066 77.0859 217.494 77.0859C216.049 77.0859 215.375 76.2852 215.375 74.6543V68.3164H212.953V75.2598C212.953 77.7598 214.32 79.2148 216.654 79.2148C218.285 79.2148 219.33 78.5215 219.848 77.3008H220.014V79H222.348V68.3164ZM225.414 79H227.836V64.1855H225.414V79ZM235.844 75.1719C235.971 77.7305 238.109 79.3516 241.342 79.3516C244.76 79.3516 246.879 77.6426 246.879 74.8984C246.879 72.75 245.678 71.5586 242.816 70.9141L241.195 70.543C239.447 70.1426 238.734 69.5859 238.734 68.6387C238.734 67.4375 239.809 66.6562 241.43 66.6562C242.973 66.6562 244.066 67.4375 244.242 68.6777H246.654C246.537 66.2559 244.398 64.5566 241.439 64.5566C238.285 64.5566 236.195 66.2559 236.195 68.8145C236.195 70.9141 237.396 72.1836 239.955 72.7598L241.781 73.1797C243.588 73.5996 244.359 74.1953 244.359 75.2109C244.359 76.3926 243.158 77.2422 241.498 77.2422C239.711 77.2422 238.461 76.4316 238.305 75.1719H235.844ZM250.229 65.6992V68.3848H248.539V70.3184H250.229V76.1484C250.229 78.2188 251.205 79.0488 253.656 79.0488C254.125 79.0488 254.574 79 254.926 78.9316V77.0371C254.633 77.0664 254.447 77.0859 254.105 77.0859C253.09 77.0859 252.641 76.6172 252.641 75.5625V70.3184H254.926V68.3848H252.641V65.6992H250.229ZM266.645 68.3164H264.223V74.5371C264.223 76.1191 263.363 77.0859 261.791 77.0859C260.346 77.0859 259.672 76.2852 259.672 74.6543V68.3164H257.25V75.2598C257.25 77.7598 258.617 79.2148 260.951 79.2148C262.582 79.2148 263.627 78.5215 264.145 77.3008H264.311V79H266.645V68.3164ZM273.48 79.1758C274.965 79.1758 276.195 78.4824 276.801 77.3105H276.967V79H279.311V64.1855H276.889V70.0156H276.723C276.156 68.8438 274.945 68.1406 273.48 68.1406C270.785 68.1406 269.086 70.2695 269.086 73.6484C269.086 77.0469 270.775 79.1758 273.48 79.1758ZM274.232 70.2012C275.893 70.2012 276.918 71.5293 276.918 73.6582C276.918 75.8066 275.902 77.1152 274.232 77.1152C272.572 77.1152 271.566 75.8164 271.566 73.6582C271.566 71.5098 272.582 70.2012 274.232 70.2012ZM286.85 70.0254C288.305 70.0254 289.262 71.041 289.311 72.623H284.281C284.389 71.0605 285.404 70.0254 286.85 70.0254ZM289.33 76.0605C288.979 76.8516 288.148 77.291 286.947 77.291C285.355 77.291 284.33 76.1777 284.271 74.4004V74.2734H291.732V73.4922C291.732 70.123 289.906 68.1016 286.859 68.1016C283.764 68.1016 281.84 70.2598 281.84 73.6973C281.84 77.1348 283.734 79.2148 286.879 79.2148C289.398 79.2148 291.166 78.0039 291.625 76.0605H289.33ZM294.164 79H296.586V72.7793C296.586 71.207 297.494 70.2109 298.939 70.2109C300.414 70.2109 301.098 71.0312 301.098 72.6621V79H303.52V72.0859C303.52 69.5371 302.221 68.1016 299.838 68.1016C298.246 68.1016 297.172 68.834 296.664 70.0254H296.498V68.3164H294.164V79ZM307.162 65.6992V68.3848H305.473V70.3184H307.162V76.1484C307.162 78.2188 308.139 79.0488 310.59 79.0488C311.059 79.0488 311.508 79 311.859 78.9316V77.0371C311.566 77.0664 311.381 77.0859 311.039 77.0859C310.023 77.0859 309.574 76.6172 309.574 75.5625V70.3184H311.859V68.3848H309.574V65.6992H307.162ZM322.387 66.998H325.238C326.84 66.998 327.816 67.8965 327.816 69.3613C327.816 70.8555 326.898 71.7148 325.297 71.7148H322.387V66.998ZM322.387 73.7168H325.18L327.943 79H330.824L327.748 73.3262C329.428 72.7207 330.404 71.168 330.404 69.3125C330.404 66.6074 328.549 64.9082 325.59 64.9082H319.867V79H322.387V73.7168ZM337.357 70.0254C338.812 70.0254 339.77 71.041 339.818 72.623H334.789C334.896 71.0605 335.912 70.0254 337.357 70.0254ZM339.838 76.0605C339.486 76.8516 338.656 77.291 337.455 77.291C335.863 77.291 334.838 76.1777 334.779 74.4004V74.2734H342.24V73.4922C342.24 70.123 340.414 68.1016 337.367 68.1016C334.271 68.1016 332.348 70.2598 332.348 73.6973C332.348 77.1348 334.242 79.2148 337.387 79.2148C339.906 79.2148 341.674 78.0039 342.133 76.0605H339.838ZM350.492 68.1406C349.027 68.1406 347.787 68.873 347.172 70.084H347.006V68.3164H344.672V82.5547H347.094V77.3789H347.26C347.807 78.5117 348.988 79.1758 350.521 79.1758C353.217 79.1758 354.896 77.0664 354.896 73.6582C354.896 70.2305 353.197 68.1406 350.492 68.1406ZM349.73 77.1152C348.08 77.1152 347.055 75.7969 347.045 73.6582C347.055 71.5293 348.09 70.2012 349.74 70.2012C351.4 70.2012 352.406 71.5 352.406 73.6582C352.406 75.8164 351.41 77.1152 349.73 77.1152ZM361.938 79.2148C365.131 79.2148 367.074 77.125 367.074 73.6582C367.074 70.2012 365.121 68.1016 361.938 68.1016C358.764 68.1016 356.801 70.2109 356.801 73.6582C356.801 77.125 358.734 79.2148 361.938 79.2148ZM361.938 77.1836C360.248 77.1836 359.281 75.8945 359.281 73.6582C359.281 71.4316 360.248 70.1328 361.938 70.1328C363.617 70.1328 364.584 71.4316 364.584 73.6582C364.584 75.8945 363.627 77.1836 361.938 77.1836ZM369.516 79H371.938V72.8281C371.938 71.334 373.031 70.3574 374.604 70.3574C375.014 70.3574 375.658 70.4258 375.844 70.4941V68.248C375.619 68.1797 375.189 68.1406 374.838 68.1406C373.461 68.1406 372.309 68.9219 372.016 69.9766H371.85V68.3164H369.516V79ZM379.096 65.6992V68.3848H377.406V70.3184H379.096V76.1484C379.096 78.2188 380.072 79.0488 382.523 79.0488C382.992 79.0488 383.441 79 383.793 78.9316V77.0371C383.5 77.0664 383.314 77.0859 382.973 77.0859C381.957 77.0859 381.508 76.6172 381.508 75.5625V70.3184H383.793V68.3848H381.508V65.6992H379.096ZM385.834 71.373C385.834 72.9844 386.801 73.9316 388.852 74.4004L390.746 74.8398C391.762 75.0645 392.221 75.4453 392.221 76.0508C392.221 76.8418 391.371 77.3789 390.15 77.3789C388.939 77.3789 388.188 76.9102 387.953 76.1191H385.561C385.746 78.0625 387.426 79.2148 390.092 79.2148C392.758 79.2148 394.643 77.8477 394.643 75.7969C394.643 74.2246 393.695 73.3457 391.654 72.8867L389.77 72.457C388.695 72.2129 388.188 71.8418 388.188 71.2363C388.188 70.4648 389.018 69.9375 390.121 69.9375C391.254 69.9375 391.967 70.416 392.143 71.168H394.418C394.242 69.2246 392.65 68.1016 390.111 68.1016C387.592 68.1016 385.834 69.4395 385.834 71.373Z" fill="white"/>
<path d="M144.174 99.7305C144.174 100.773 143.846 101.613 143.189 102.25C142.533 102.883 141.664 103.199 140.582 103.199C139.414 103.199 138.482 102.799 137.787 101.998C137.096 101.197 136.75 100.121 136.75 98.7695C136.75 97.4336 137.1 96.3633 137.799 95.5586C138.498 94.75 139.426 94.3457 140.582 94.3457C141.52 94.3457 142.305 94.5898 142.938 95.0781C143.574 95.5664 143.969 96.2285 144.121 97.0645H143.049C142.865 96.4941 142.564 96.0605 142.146 95.7637C141.729 95.4668 141.207 95.3184 140.582 95.3184C139.746 95.3184 139.078 95.6309 138.578 96.2559C138.082 96.8809 137.834 97.7188 137.834 98.7695C137.834 99.8359 138.08 100.68 138.572 101.301C139.068 101.918 139.74 102.227 140.588 102.227C141.346 102.227 141.957 102.006 142.422 101.564C142.891 101.123 143.125 100.545 143.125 99.8301V99.625H140.746V98.6992H144.174V99.7305ZM148.434 97.4629C147.93 97.4629 147.516 97.6328 147.191 97.9727C146.867 98.3125 146.686 98.7617 146.646 99.3203H150.127C150.115 98.7617 149.955 98.3125 149.646 97.9727C149.338 97.6328 148.934 97.4629 148.434 97.4629ZM150.098 101.365H151.105C150.953 101.912 150.643 102.34 150.174 102.648C149.709 102.957 149.133 103.111 148.445 103.111C147.57 103.111 146.877 102.818 146.365 102.232C145.854 101.643 145.598 100.848 145.598 99.8477C145.598 98.8516 145.855 98.0566 146.371 97.4629C146.887 96.8691 147.578 96.5723 148.445 96.5723C149.297 96.5723 149.967 96.8555 150.455 97.4219C150.943 97.9883 151.188 98.7637 151.188 99.748V100.135H146.646V100.182C146.674 100.807 146.85 101.303 147.174 101.67C147.502 102.037 147.934 102.221 148.469 102.221C149.285 102.221 149.828 101.936 150.098 101.365ZM153.191 95.0488H154.199V96.6836H155.605V97.5273H154.199V101.102C154.199 101.473 154.273 101.742 154.422 101.91C154.57 102.078 154.809 102.162 155.137 102.162C155.281 102.162 155.438 102.154 155.605 102.139V102.988C155.383 103.027 155.186 103.047 155.014 103.047C154.361 103.047 153.895 102.916 153.613 102.654C153.332 102.393 153.191 101.961 153.191 101.359V97.5273H152.172V96.6836H153.191V95.0488ZM163.592 96.5723C164.396 96.5723 165.039 96.8691 165.52 97.4629C166.004 98.0566 166.246 98.8496 166.246 99.8418C166.246 100.83 166.004 101.623 165.52 102.221C165.035 102.814 164.393 103.111 163.592 103.111C163.143 103.111 162.744 103.02 162.396 102.836C162.049 102.648 161.789 102.387 161.617 102.051H161.523V105.109H160.516V96.6836H161.477V97.7383H161.57C161.773 97.375 162.053 97.0898 162.408 96.8828C162.768 96.6758 163.162 96.5723 163.592 96.5723ZM163.352 102.203C163.93 102.203 164.383 101.994 164.711 101.576C165.039 101.158 165.203 100.58 165.203 99.8418C165.203 99.1035 165.039 98.5254 164.711 98.1074C164.387 97.6895 163.936 97.4805 163.357 97.4805C162.787 97.4805 162.334 97.6934 161.998 98.1191C161.662 98.541 161.494 99.1152 161.494 99.8418C161.494 100.564 161.66 101.139 161.992 101.564C162.328 101.99 162.781 102.203 163.352 102.203ZM170.348 97.4629C169.844 97.4629 169.43 97.6328 169.105 97.9727C168.781 98.3125 168.6 98.7617 168.561 99.3203H172.041C172.029 98.7617 171.869 98.3125 171.561 97.9727C171.252 97.6328 170.848 97.4629 170.348 97.4629ZM172.012 101.365H173.02C172.867 101.912 172.557 102.34 172.088 102.648C171.623 102.957 171.047 103.111 170.359 103.111C169.484 103.111 168.791 102.818 168.279 102.232C167.768 101.643 167.512 100.848 167.512 99.8477C167.512 98.8516 167.77 98.0566 168.285 97.4629C168.801 96.8691 169.492 96.5723 170.359 96.5723C171.211 96.5723 171.881 96.8555 172.369 97.4219C172.857 97.9883 173.102 98.7637 173.102 99.748V100.135H168.561V100.182C168.588 100.807 168.764 101.303 169.088 101.67C169.416 102.037 169.848 102.221 170.383 102.221C171.199 102.221 171.742 101.936 172.012 101.365ZM174.684 103V96.6836H175.645V97.6211H175.738C175.832 97.3125 176.043 97.0605 176.371 96.8652C176.699 96.6699 177.072 96.5723 177.49 96.5723C177.682 96.5723 177.85 96.582 177.994 96.6016V97.6094C177.857 97.5703 177.643 97.5508 177.35 97.5508C176.869 97.5508 176.473 97.6953 176.16 97.9844C175.848 98.2734 175.691 98.6406 175.691 99.0859V103H174.684ZM178.99 98.4121C178.99 97.8887 179.215 97.4512 179.664 97.0996C180.113 96.748 180.674 96.5723 181.346 96.5723C182.006 96.5723 182.551 96.7246 182.98 97.0293C183.41 97.334 183.658 97.7461 183.725 98.2656H182.729C182.658 98.0078 182.502 97.8047 182.26 97.6562C182.021 97.5039 181.715 97.4277 181.34 97.4277C180.961 97.4277 180.643 97.5156 180.385 97.6914C180.131 97.8672 180.004 98.0938 180.004 98.3711C180.004 98.5859 180.092 98.7656 180.268 98.9102C180.447 99.0508 180.725 99.166 181.1 99.2559L182.072 99.4902C182.674 99.6348 183.117 99.8438 183.402 100.117C183.691 100.391 183.836 100.752 183.836 101.201C183.836 101.76 183.596 102.219 183.115 102.578C182.635 102.934 182.031 103.111 181.305 103.111C180.602 103.111 180.025 102.955 179.576 102.643C179.127 102.33 178.875 101.912 178.82 101.389H179.857C179.943 101.662 180.113 101.877 180.367 102.033C180.621 102.186 180.945 102.262 181.34 102.262C181.766 102.262 182.115 102.17 182.389 101.986C182.662 101.803 182.799 101.566 182.799 101.277C182.799 100.848 182.465 100.551 181.797 100.387L180.713 100.123C180.115 99.9785 179.678 99.7715 179.4 99.502C179.127 99.2285 178.99 98.8652 178.99 98.4121ZM190.141 102.238C189.621 102.82 188.912 103.111 188.014 103.111C187.115 103.111 186.404 102.82 185.881 102.238C185.361 101.652 185.102 100.854 185.102 99.8418C185.102 98.8262 185.361 98.0273 185.881 97.4453C186.4 96.8633 187.111 96.5723 188.014 96.5723C188.916 96.5723 189.627 96.8633 190.146 97.4453C190.666 98.0273 190.926 98.8262 190.926 99.8418C190.926 100.854 190.664 101.652 190.141 102.238ZM186.631 101.588C186.955 101.998 187.416 102.203 188.014 102.203C188.611 102.203 189.072 101.998 189.396 101.588C189.721 101.174 189.883 100.592 189.883 99.8418C189.883 99.0918 189.721 98.5117 189.396 98.1016C189.072 97.6875 188.611 97.4805 188.014 97.4805C187.416 97.4805 186.955 97.6875 186.631 98.1016C186.307 98.5117 186.145 99.0918 186.145 99.8418C186.145 100.592 186.307 101.174 186.631 101.588ZM192.508 103V96.6836H193.469V97.6797H193.562C193.898 96.9414 194.531 96.5723 195.461 96.5723C196.168 96.5723 196.713 96.7754 197.096 97.1816C197.479 97.584 197.67 98.1602 197.67 98.9102V103H196.662V99.1562C196.662 98.5898 196.539 98.1699 196.293 97.8965C196.051 97.6191 195.678 97.4805 195.174 97.4805C194.666 97.4805 194.262 97.6406 193.961 97.9609C193.664 98.2773 193.516 98.7109 193.516 99.2617V103H192.508ZM201.461 102.227C201.98 102.227 202.41 102.076 202.75 101.775C203.094 101.475 203.266 101.098 203.266 100.645V100.064L201.566 100.176C201.09 100.207 200.74 100.307 200.518 100.475C200.295 100.643 200.184 100.887 200.184 101.207C200.184 101.523 200.303 101.773 200.541 101.957C200.779 102.137 201.086 102.227 201.461 102.227ZM201.273 103.111C200.652 103.111 200.141 102.941 199.738 102.602C199.34 102.258 199.141 101.801 199.141 101.23C199.141 100.668 199.34 100.227 199.738 99.9062C200.137 99.5859 200.705 99.4043 201.443 99.3613L203.266 99.25V98.6758C203.266 98.2852 203.145 97.9863 202.902 97.7793C202.66 97.5723 202.305 97.4688 201.836 97.4688C201.457 97.4688 201.143 97.5371 200.893 97.6738C200.643 97.8105 200.482 98.0039 200.412 98.2539H199.393C199.459 97.75 199.719 97.3438 200.172 97.0352C200.629 96.7266 201.195 96.5723 201.871 96.5723C202.637 96.5723 203.229 96.7578 203.646 97.1289C204.064 97.5 204.273 98.0156 204.273 98.6758V103H203.312V102.068H203.219C203.016 102.404 202.746 102.662 202.41 102.842C202.074 103.021 201.695 103.111 201.273 103.111ZM206.195 103V94.1758H207.203V103H206.195ZM209.184 103V96.6836H210.191V103H209.184ZM210.186 95.1953C210.049 95.332 209.883 95.4004 209.688 95.4004C209.492 95.4004 209.326 95.332 209.189 95.1953C209.053 95.0547 208.984 94.8887 208.984 94.6973C208.984 94.5059 209.053 94.3418 209.189 94.2051C209.326 94.0645 209.492 93.9941 209.688 93.9941C209.883 93.9941 210.049 94.0645 210.186 94.2051C210.322 94.3418 210.391 94.5059 210.391 94.6973C210.391 94.8887 210.322 95.0547 210.186 95.1953ZM211.967 98.4121C211.967 97.8887 212.191 97.4512 212.641 97.0996C213.09 96.748 213.65 96.5723 214.322 96.5723C214.982 96.5723 215.527 96.7246 215.957 97.0293C216.387 97.334 216.635 97.7461 216.701 98.2656H215.705C215.635 98.0078 215.479 97.8047 215.236 97.6562C214.998 97.5039 214.691 97.4277 214.316 97.4277C213.938 97.4277 213.619 97.5156 213.361 97.6914C213.107 97.8672 212.98 98.0938 212.98 98.3711C212.98 98.5859 213.068 98.7656 213.244 98.9102C213.424 99.0508 213.701 99.166 214.076 99.2559L215.049 99.4902C215.65 99.6348 216.094 99.8438 216.379 100.117C216.668 100.391 216.812 100.752 216.812 101.201C216.812 101.76 216.572 102.219 216.092 102.578C215.611 102.934 215.008 103.111 214.281 103.111C213.578 103.111 213.002 102.955 212.553 102.643C212.104 102.33 211.852 101.912 211.797 101.389H212.834C212.92 101.662 213.09 101.877 213.344 102.033C213.598 102.186 213.922 102.262 214.316 102.262C214.742 102.262 215.092 102.17 215.365 101.986C215.639 101.803 215.775 101.566 215.775 101.277C215.775 100.848 215.441 100.551 214.773 100.387L213.689 100.123C213.092 99.9785 212.654 99.7715 212.377 99.502C212.104 99.2285 211.967 98.8652 211.967 98.4121ZM220.914 97.4629C220.41 97.4629 219.996 97.6328 219.672 97.9727C219.348 98.3125 219.166 98.7617 219.127 99.3203H222.607C222.596 98.7617 222.436 98.3125 222.127 97.9727C221.818 97.6328 221.414 97.4629 220.914 97.4629ZM222.578 101.365H223.586C223.434 101.912 223.123 102.34 222.654 102.648C222.189 102.957 221.613 103.111 220.926 103.111C220.051 103.111 219.357 102.818 218.846 102.232C218.334 101.643 218.078 100.848 218.078 99.8477C218.078 98.8516 218.336 98.0566 218.852 97.4629C219.367 96.8691 220.059 96.5723 220.926 96.5723C221.777 96.5723 222.447 96.8555 222.936 97.4219C223.424 97.9883 223.668 98.7637 223.668 99.748V100.135H219.127V100.182C219.154 100.807 219.33 101.303 219.654 101.67C219.982 102.037 220.414 102.221 220.949 102.221C221.766 102.221 222.309 101.936 222.578 101.365ZM227.588 103.111C226.779 103.111 226.135 102.814 225.654 102.221C225.174 101.627 224.934 100.834 224.934 99.8418C224.934 98.8535 225.174 98.0625 225.654 97.4688C226.139 96.8711 226.783 96.5723 227.588 96.5723C228.029 96.5723 228.424 96.6719 228.771 96.8711C229.123 97.0664 229.389 97.3359 229.568 97.6797H229.656V94.1758H230.664V103H229.703V101.992H229.609C229.41 102.344 229.133 102.619 228.777 102.818C228.422 103.014 228.025 103.111 227.588 103.111ZM227.822 97.4805C227.248 97.4805 226.797 97.6914 226.469 98.1133C226.141 98.5312 225.977 99.1074 225.977 99.8418C225.977 100.58 226.139 101.158 226.463 101.576C226.791 101.994 227.244 102.203 227.822 102.203C228.396 102.203 228.85 101.992 229.182 101.57C229.514 101.148 229.68 100.572 229.68 99.8418C229.68 99.1191 229.512 98.5449 229.176 98.1191C228.844 97.6934 228.393 97.4805 227.822 97.4805ZM236.008 103V96.6836H236.969V97.6211H237.062C237.156 97.3125 237.367 97.0605 237.695 96.8652C238.023 96.6699 238.396 96.5723 238.814 96.5723C239.006 96.5723 239.174 96.582 239.318 96.6016V97.6094C239.182 97.5703 238.967 97.5508 238.674 97.5508C238.193 97.5508 237.797 97.6953 237.484 97.9844C237.172 98.2734 237.016 98.6406 237.016 99.0859V103H236.008ZM242.922 97.4629C242.418 97.4629 242.004 97.6328 241.68 97.9727C241.355 98.3125 241.174 98.7617 241.135 99.3203H244.615C244.604 98.7617 244.443 98.3125 244.135 97.9727C243.826 97.6328 243.422 97.4629 242.922 97.4629ZM244.586 101.365H245.594C245.441 101.912 245.131 102.34 244.662 102.648C244.197 102.957 243.621 103.111 242.934 103.111C242.059 103.111 241.365 102.818 240.854 102.232C240.342 101.643 240.086 100.848 240.086 99.8477C240.086 98.8516 240.344 98.0566 240.859 97.4629C241.375 96.8691 242.066 96.5723 242.934 96.5723C243.785 96.5723 244.455 96.8555 244.943 97.4219C245.432 97.9883 245.676 98.7637 245.676 99.748V100.135H241.135V100.182C241.162 100.807 241.338 101.303 241.662 101.67C241.99 102.037 242.422 102.221 242.957 102.221C243.773 102.221 244.316 101.936 244.586 101.365ZM250.334 96.5723C251.139 96.5723 251.781 96.8691 252.262 97.4629C252.746 98.0566 252.988 98.8496 252.988 99.8418C252.988 100.83 252.746 101.623 252.262 102.221C251.777 102.814 251.135 103.111 250.334 103.111C249.885 103.111 249.486 103.02 249.139 102.836C248.791 102.648 248.531 102.387 248.359 102.051H248.266V105.109H247.258V96.6836H248.219V97.7383H248.312C248.516 97.375 248.795 97.0898 249.15 96.8828C249.51 96.6758 249.904 96.5723 250.334 96.5723ZM250.094 102.203C250.672 102.203 251.125 101.994 251.453 101.576C251.781 101.158 251.945 100.58 251.945 99.8418C251.945 99.1035 251.781 98.5254 251.453 98.1074C251.129 97.6895 250.678 97.4805 250.1 97.4805C249.529 97.4805 249.076 97.6934 248.74 98.1191C248.404 98.541 248.236 99.1152 248.236 99.8418C248.236 100.564 248.402 101.139 248.734 101.564C249.07 101.99 249.523 102.203 250.094 102.203ZM259.293 102.238C258.773 102.82 258.064 103.111 257.166 103.111C256.268 103.111 255.557 102.82 255.033 102.238C254.514 101.652 254.254 100.854 254.254 99.8418C254.254 98.8262 254.514 98.0273 255.033 97.4453C255.553 96.8633 256.264 96.5723 257.166 96.5723C258.068 96.5723 258.779 96.8633 259.299 97.4453C259.818 98.0273 260.078 98.8262 260.078 99.8418C260.078 100.854 259.816 101.652 259.293 102.238ZM255.783 101.588C256.107 101.998 256.568 102.203 257.166 102.203C257.764 102.203 258.225 101.998 258.549 101.588C258.873 101.174 259.035 100.592 259.035 99.8418C259.035 99.0918 258.873 98.5117 258.549 98.1016C258.225 97.6875 257.764 97.4805 257.166 97.4805C256.568 97.4805 256.107 97.6875 255.783 98.1016C255.459 98.5117 255.297 99.0918 255.297 99.8418C255.297 100.592 255.459 101.174 255.783 101.588ZM261.66 103V96.6836H262.621V97.6211H262.715C262.809 97.3125 263.02 97.0605 263.348 96.8652C263.676 96.6699 264.049 96.5723 264.467 96.5723C264.658 96.5723 264.826 96.582 264.971 96.6016V97.6094C264.834 97.5703 264.619 97.5508 264.326 97.5508C263.846 97.5508 263.449 97.6953 263.137 97.9844C262.824 98.2734 262.668 98.6406 262.668 99.0859V103H261.66ZM267.004 95.0488H268.012V96.6836H269.418V97.5273H268.012V101.102C268.012 101.473 268.086 101.742 268.234 101.91C268.383 102.078 268.621 102.162 268.949 102.162C269.094 102.162 269.25 102.154 269.418 102.139V102.988C269.195 103.027 268.998 103.047 268.826 103.047C268.174 103.047 267.707 102.916 267.426 102.654C267.145 102.393 267.004 101.961 267.004 101.359V97.5273H265.984V96.6836H267.004V95.0488ZM270.678 98.4121C270.678 97.8887 270.902 97.4512 271.352 97.0996C271.801 96.748 272.361 96.5723 273.033 96.5723C273.693 96.5723 274.238 96.7246 274.668 97.0293C275.098 97.334 275.346 97.7461 275.412 98.2656H274.416C274.346 98.0078 274.189 97.8047 273.947 97.6562C273.709 97.5039 273.402 97.4277 273.027 97.4277C272.648 97.4277 272.33 97.5156 272.072 97.6914C271.818 97.8672 271.691 98.0938 271.691 98.3711C271.691 98.5859 271.779 98.7656 271.955 98.9102C272.135 99.0508 272.412 99.166 272.787 99.2559L273.76 99.4902C274.361 99.6348 274.805 99.8438 275.09 100.117C275.379 100.391 275.523 100.752 275.523 101.201C275.523 101.76 275.283 102.219 274.803 102.578C274.322 102.934 273.719 103.111 272.992 103.111C272.289 103.111 271.713 102.955 271.264 102.643C270.814 102.33 270.562 101.912 270.508 101.389H271.545C271.631 101.662 271.801 101.877 272.055 102.033C272.309 102.186 272.633 102.262 273.027 102.262C273.453 102.262 273.803 102.17 274.076 101.986C274.35 101.803 274.486 101.566 274.486 101.277C274.486 100.848 274.152 100.551 273.484 100.387L272.4 100.123C271.803 99.9785 271.365 99.7715 271.088 99.502C270.814 99.2285 270.678 98.8652 270.678 98.4121ZM285.215 102.238C284.695 102.82 283.986 103.111 283.088 103.111C282.189 103.111 281.479 102.82 280.955 102.238C280.436 101.652 280.176 100.854 280.176 99.8418C280.176 98.8262 280.436 98.0273 280.955 97.4453C281.475 96.8633 282.186 96.5723 283.088 96.5723C283.99 96.5723 284.701 96.8633 285.221 97.4453C285.74 98.0273 286 98.8262 286 99.8418C286 100.854 285.738 101.652 285.215 102.238ZM281.705 101.588C282.029 101.998 282.49 102.203 283.088 102.203C283.686 102.203 284.146 101.998 284.471 101.588C284.795 101.174 284.957 100.592 284.957 99.8418C284.957 99.0918 284.795 98.5117 284.471 98.1016C284.146 97.6875 283.686 97.4805 283.088 97.4805C282.49 97.4805 282.029 97.6875 281.705 98.1016C281.381 98.5117 281.219 99.0918 281.219 99.8418C281.219 100.592 281.381 101.174 281.705 101.588ZM288.004 103V97.5273H286.955V96.6836H288.004V95.9805C288.004 94.7383 288.615 94.1172 289.838 94.1172C290.092 94.1172 290.318 94.1367 290.518 94.1758V94.9961C290.416 94.9766 290.258 94.9668 290.043 94.9668C289.684 94.9668 289.422 95.0527 289.258 95.2246C289.094 95.3965 289.012 95.6582 289.012 96.0098V96.6836H290.459V97.5273H289.012V103H288.004ZM295.855 105.285C295.695 105.285 295.545 105.273 295.404 105.25V104.389C295.506 104.408 295.646 104.418 295.826 104.418C296.119 104.418 296.352 104.34 296.523 104.184C296.699 104.027 296.854 103.76 296.986 103.381L297.104 103.006L294.766 96.6836H295.855L297.59 101.881H297.684L299.412 96.6836H300.484L298.018 103.387C297.748 104.117 297.461 104.615 297.156 104.881C296.852 105.15 296.418 105.285 295.855 105.285ZM306.32 102.238C305.801 102.82 305.092 103.111 304.193 103.111C303.295 103.111 302.584 102.82 302.061 102.238C301.541 101.652 301.281 100.854 301.281 99.8418C301.281 98.8262 301.541 98.0273 302.061 97.4453C302.58 96.8633 303.291 96.5723 304.193 96.5723C305.096 96.5723 305.807 96.8633 306.326 97.4453C306.846 98.0273 307.105 98.8262 307.105 99.8418C307.105 100.854 306.844 101.652 306.32 102.238ZM302.811 101.588C303.135 101.998 303.596 102.203 304.193 102.203C304.791 102.203 305.252 101.998 305.576 101.588C305.9 101.174 306.062 100.592 306.062 99.8418C306.062 99.0918 305.9 98.5117 305.576 98.1016C305.252 97.6875 304.791 97.4805 304.193 97.4805C303.596 97.4805 303.135 97.6875 302.811 98.1016C302.486 98.5117 302.324 99.0918 302.324 99.8418C302.324 100.592 302.486 101.174 302.811 101.588ZM313.797 96.6836V103H312.836V102.01H312.742C312.582 102.365 312.336 102.639 312.004 102.83C311.672 103.018 311.266 103.111 310.785 103.111C310.082 103.111 309.547 102.91 309.18 102.508C308.812 102.105 308.629 101.527 308.629 100.773V96.6836H309.637V100.527C309.637 101.102 309.75 101.523 309.977 101.793C310.203 102.059 310.566 102.191 311.066 102.191C311.617 102.191 312.041 102.037 312.338 101.729C312.639 101.416 312.789 100.98 312.789 100.422V96.6836H313.797ZM315.695 103V96.6836H316.656V97.6211H316.75C316.844 97.3125 317.055 97.0605 317.383 96.8652C317.711 96.6699 318.084 96.5723 318.502 96.5723C318.693 96.5723 318.861 96.582 319.006 96.6016V97.6094C318.869 97.5703 318.654 97.5508 318.361 97.5508C317.881 97.5508 317.484 97.6953 317.172 97.9844C316.859 98.2734 316.703 98.6406 316.703 99.0859V103H315.695ZM323.506 98.4121C323.506 97.8887 323.73 97.4512 324.18 97.0996C324.629 96.748 325.189 96.5723 325.861 96.5723C326.521 96.5723 327.066 96.7246 327.496 97.0293C327.926 97.334 328.174 97.7461 328.24 98.2656H327.244C327.174 98.0078 327.018 97.8047 326.775 97.6562C326.537 97.5039 326.23 97.4277 325.855 97.4277C325.477 97.4277 325.158 97.5156 324.9 97.6914C324.646 97.8672 324.52 98.0938 324.52 98.3711C324.52 98.5859 324.607 98.7656 324.783 98.9102C324.963 99.0508 325.24 99.166 325.615 99.2559L326.588 99.4902C327.189 99.6348 327.633 99.8438 327.918 100.117C328.207 100.391 328.352 100.752 328.352 101.201C328.352 101.76 328.111 102.219 327.631 102.578C327.15 102.934 326.547 103.111 325.82 103.111C325.117 103.111 324.541 102.955 324.092 102.643C323.643 102.33 323.391 101.912 323.336 101.389H324.373C324.459 101.662 324.629 101.877 324.883 102.033C325.137 102.186 325.461 102.262 325.855 102.262C326.281 102.262 326.631 102.17 326.904 101.986C327.178 101.803 327.314 101.566 327.314 101.277C327.314 100.848 326.98 100.551 326.312 100.387L325.229 100.123C324.631 99.9785 324.193 99.7715 323.916 99.502C323.643 99.2285 323.506 98.8652 323.506 98.4121ZM330.297 95.0488H331.305V96.6836H332.711V97.5273H331.305V101.102C331.305 101.473 331.379 101.742 331.527 101.91C331.676 102.078 331.914 102.162 332.242 102.162C332.387 102.162 332.543 102.154 332.711 102.139V102.988C332.488 103.027 332.291 103.047 332.119 103.047C331.467 103.047 331 102.916 330.719 102.654C330.438 102.393 330.297 101.961 330.297 101.359V97.5273H329.277V96.6836H330.297V95.0488ZM339.344 96.6836V103H338.383V102.01H338.289C338.129 102.365 337.883 102.639 337.551 102.83C337.219 103.018 336.812 103.111 336.332 103.111C335.629 103.111 335.094 102.91 334.727 102.508C334.359 102.105 334.176 101.527 334.176 100.773V96.6836H335.184V100.527C335.184 101.102 335.297 101.523 335.523 101.793C335.75 102.059 336.113 102.191 336.613 102.191C337.164 102.191 337.588 102.037 337.885 101.729C338.186 101.416 338.336 100.98 338.336 100.422V96.6836H339.344ZM343.58 103.111C342.771 103.111 342.127 102.814 341.646 102.221C341.166 101.627 340.926 100.834 340.926 99.8418C340.926 98.8535 341.166 98.0625 341.646 97.4688C342.131 96.8711 342.775 96.5723 343.58 96.5723C344.021 96.5723 344.416 96.6719 344.764 96.8711C345.115 97.0664 345.381 97.3359 345.561 97.6797H345.648V94.1758H346.656V103H345.695V101.992H345.602C345.402 102.344 345.125 102.619 344.77 102.818C344.414 103.014 344.018 103.111 343.58 103.111ZM343.814 97.4805C343.24 97.4805 342.789 97.6914 342.461 98.1133C342.133 98.5312 341.969 99.1074 341.969 99.8418C341.969 100.58 342.131 101.158 342.455 101.576C342.783 101.994 343.236 102.203 343.814 102.203C344.389 102.203 344.842 101.992 345.174 101.57C345.506 101.148 345.672 100.572 345.672 99.8418C345.672 99.1191 345.504 98.5449 345.168 98.1191C344.836 97.6934 344.385 97.4805 343.814 97.4805ZM351.133 97.4629C350.629 97.4629 350.215 97.6328 349.891 97.9727C349.566 98.3125 349.385 98.7617 349.346 99.3203H352.826C352.814 98.7617 352.654 98.3125 352.346 97.9727C352.037 97.6328 351.633 97.4629 351.133 97.4629ZM352.797 101.365H353.805C353.652 101.912 353.342 102.34 352.873 102.648C352.408 102.957 351.832 103.111 351.145 103.111C350.27 103.111 349.576 102.818 349.064 102.232C348.553 101.643 348.297 100.848 348.297 99.8477C348.297 98.8516 348.555 98.0566 349.07 97.4629C349.586 96.8691 350.277 96.5723 351.145 96.5723C351.996 96.5723 352.666 96.8555 353.154 97.4219C353.643 97.9883 353.887 98.7637 353.887 99.748V100.135H349.346V100.182C349.373 100.807 349.549 101.303 349.873 101.67C350.201 102.037 350.633 102.221 351.168 102.221C351.984 102.221 352.527 101.936 352.797 101.365ZM355.469 103V96.6836H356.43V97.6797H356.523C356.859 96.9414 357.492 96.5723 358.422 96.5723C359.129 96.5723 359.674 96.7754 360.057 97.1816C360.439 97.584 360.631 98.1602 360.631 98.9102V103H359.623V99.1562C359.623 98.5898 359.5 98.1699 359.254 97.8965C359.012 97.6191 358.639 97.4805 358.135 97.4805C357.627 97.4805 357.223 97.6406 356.922 97.9609C356.625 98.2773 356.477 98.7109 356.477 99.2617V103H355.469ZM362.898 95.0488H363.906V96.6836H365.312V97.5273H363.906V101.102C363.906 101.473 363.98 101.742 364.129 101.91C364.277 102.078 364.516 102.162 364.844 102.162C364.988 102.162 365.145 102.154 365.312 102.139V102.988C365.09 103.027 364.893 103.047 364.721 103.047C364.068 103.047 363.602 102.916 363.32 102.654C363.039 102.393 362.898 101.961 362.898 101.359V97.5273H361.879V96.6836H362.898V95.0488ZM366.572 98.4121C366.572 97.8887 366.797 97.4512 367.246 97.0996C367.695 96.748 368.256 96.5723 368.928 96.5723C369.588 96.5723 370.133 96.7246 370.562 97.0293C370.992 97.334 371.24 97.7461 371.307 98.2656H370.311C370.24 98.0078 370.084 97.8047 369.842 97.6562C369.604 97.5039 369.297 97.4277 368.922 97.4277C368.543 97.4277 368.225 97.5156 367.967 97.6914C367.713 97.8672 367.586 98.0938 367.586 98.3711C367.586 98.5859 367.674 98.7656 367.85 98.9102C368.029 99.0508 368.307 99.166 368.682 99.2559L369.654 99.4902C370.256 99.6348 370.699 99.8438 370.984 100.117C371.273 100.391 371.418 100.752 371.418 101.201C371.418 101.76 371.178 102.219 370.697 102.578C370.217 102.934 369.613 103.111 368.887 103.111C368.184 103.111 367.607 102.955 367.158 102.643C366.709 102.33 366.457 101.912 366.402 101.389H367.439C367.525 101.662 367.695 101.877 367.949 102.033C368.203 102.186 368.527 102.262 368.922 102.262C369.348 102.262 369.697 102.17 369.971 101.986C370.244 101.803 370.381 101.566 370.381 101.277C370.381 100.848 370.047 100.551 369.379 100.387L368.295 100.123C367.697 99.9785 367.26 99.7715 366.982 99.502C366.709 99.2285 366.572 98.8652 366.572 98.4121ZM373.838 97.7031H373.105L373.639 94.5449H374.781L373.838 97.7031ZM140.025 110.572C140.83 110.572 141.473 110.869 141.953 111.463C142.438 112.057 142.68 112.85 142.68 113.842C142.68 114.83 142.438 115.623 141.953 116.221C141.469 116.814 140.826 117.111 140.025 117.111C139.576 117.111 139.178 117.02 138.83 116.836C138.482 116.648 138.223 116.387 138.051 116.051H137.957V119.109H136.949V110.684H137.91V111.738H138.004C138.207 111.375 138.486 111.09 138.842 110.883C139.201 110.676 139.596 110.572 140.025 110.572ZM139.785 116.203C140.363 116.203 140.816 115.994 141.145 115.576C141.473 115.158 141.637 114.58 141.637 113.842C141.637 113.104 141.473 112.525 141.145 112.107C140.82 111.689 140.369 111.48 139.791 111.48C139.221 111.48 138.768 111.693 138.432 112.119C138.096 112.541 137.928 113.115 137.928 113.842C137.928 114.564 138.094 115.139 138.426 115.564C138.762 115.99 139.215 116.203 139.785 116.203ZM146.781 111.463C146.277 111.463 145.863 111.633 145.539 111.973C145.215 112.312 145.033 112.762 144.994 113.32H148.475C148.463 112.762 148.303 112.312 147.994 111.973C147.686 111.633 147.281 111.463 146.781 111.463ZM148.445 115.365H149.453C149.301 115.912 148.99 116.34 148.521 116.648C148.057 116.957 147.48 117.111 146.793 117.111C145.918 117.111 145.225 116.818 144.713 116.232C144.201 115.643 143.945 114.848 143.945 113.848C143.945 112.852 144.203 112.057 144.719 111.463C145.234 110.869 145.926 110.572 146.793 110.572C147.645 110.572 148.314 110.855 148.803 111.422C149.291 111.988 149.535 112.764 149.535 113.748V114.135H144.994V114.182C145.021 114.807 145.197 115.303 145.521 115.67C145.85 116.037 146.281 116.221 146.816 116.221C147.633 116.221 148.176 115.936 148.445 115.365ZM151.117 117V110.684H152.078V111.621H152.172C152.266 111.312 152.477 111.061 152.805 110.865C153.133 110.67 153.506 110.572 153.924 110.572C154.115 110.572 154.283 110.582 154.428 110.602V111.609C154.291 111.57 154.076 111.551 153.783 111.551C153.303 111.551 152.906 111.695 152.594 111.984C152.281 112.273 152.125 112.641 152.125 113.086V117H151.117ZM156.461 117V111.527H155.412V110.684H156.461V109.98C156.461 108.738 157.072 108.117 158.295 108.117C158.549 108.117 158.775 108.137 158.975 108.176V108.996C158.873 108.977 158.715 108.967 158.5 108.967C158.141 108.967 157.879 109.053 157.715 109.225C157.551 109.396 157.469 109.658 157.469 110.01V110.684H158.916V111.527H157.469V117H156.461ZM164.84 116.238C164.32 116.82 163.611 117.111 162.713 117.111C161.814 117.111 161.104 116.82 160.58 116.238C160.061 115.652 159.801 114.854 159.801 113.842C159.801 112.826 160.061 112.027 160.58 111.445C161.1 110.863 161.811 110.572 162.713 110.572C163.615 110.572 164.326 110.863 164.846 111.445C165.365 112.027 165.625 112.826 165.625 113.842C165.625 114.854 165.363 115.652 164.84 116.238ZM161.33 115.588C161.654 115.998 162.115 116.203 162.713 116.203C163.311 116.203 163.771 115.998 164.096 115.588C164.42 115.174 164.582 114.592 164.582 113.842C164.582 113.092 164.42 112.512 164.096 112.102C163.771 111.688 163.311 111.48 162.713 111.48C162.115 111.48 161.654 111.688 161.33 112.102C161.006 112.512 160.844 113.092 160.844 113.842C160.844 114.592 161.006 115.174 161.33 115.588ZM167.207 117V110.684H168.168V111.621H168.262C168.355 111.312 168.566 111.061 168.895 110.865C169.223 110.67 169.596 110.572 170.014 110.572C170.205 110.572 170.373 110.582 170.518 110.602V111.609C170.381 111.57 170.166 111.551 169.873 111.551C169.393 111.551 168.996 111.695 168.684 111.984C168.371 112.273 168.215 112.641 168.215 113.086V117H167.207ZM171.895 117V110.684H172.855V111.68H172.949C173.094 111.328 173.318 111.057 173.623 110.865C173.928 110.67 174.291 110.572 174.713 110.572C175.127 110.572 175.482 110.672 175.779 110.871C176.08 111.07 176.307 111.34 176.459 111.68H176.553C176.725 111.34 176.982 111.07 177.326 110.871C177.67 110.672 178.057 110.572 178.486 110.572C179.131 110.572 179.627 110.752 179.975 111.111C180.322 111.467 180.496 111.975 180.496 112.635V117H179.488V112.869C179.488 111.943 179.045 111.48 178.158 111.48C177.729 111.48 177.377 111.621 177.104 111.902C176.83 112.184 176.693 112.529 176.693 112.939V117H175.686V112.711C175.686 112.336 175.564 112.037 175.322 111.814C175.084 111.592 174.766 111.48 174.367 111.48C173.957 111.48 173.609 111.637 173.324 111.949C173.043 112.262 172.902 112.641 172.902 113.086V117H171.895ZM184.281 116.227C184.801 116.227 185.23 116.076 185.57 115.775C185.914 115.475 186.086 115.098 186.086 114.645V114.064L184.387 114.176C183.91 114.207 183.561 114.307 183.338 114.475C183.115 114.643 183.004 114.887 183.004 115.207C183.004 115.523 183.123 115.773 183.361 115.957C183.6 116.137 183.906 116.227 184.281 116.227ZM184.094 117.111C183.473 117.111 182.961 116.941 182.559 116.602C182.16 116.258 181.961 115.801 181.961 115.23C181.961 114.668 182.16 114.227 182.559 113.906C182.957 113.586 183.525 113.404 184.264 113.361L186.086 113.25V112.676C186.086 112.285 185.965 111.986 185.723 111.779C185.48 111.572 185.125 111.469 184.656 111.469C184.277 111.469 183.963 111.537 183.713 111.674C183.463 111.811 183.303 112.004 183.232 112.254H182.213C182.279 111.75 182.539 111.344 182.992 111.035C183.449 110.727 184.016 110.572 184.691 110.572C185.457 110.572 186.049 110.758 186.467 111.129C186.885 111.5 187.094 112.016 187.094 112.676V117H186.133V116.068H186.039C185.836 116.404 185.566 116.662 185.23 116.842C184.895 117.021 184.516 117.111 184.094 117.111ZM188.957 117V110.684H189.918V111.68H190.012C190.348 110.941 190.98 110.572 191.91 110.572C192.617 110.572 193.162 110.775 193.545 111.182C193.928 111.584 194.119 112.16 194.119 112.91V117H193.111V113.156C193.111 112.59 192.988 112.17 192.742 111.896C192.5 111.619 192.127 111.48 191.623 111.48C191.115 111.48 190.711 111.641 190.41 111.961C190.113 112.277 189.965 112.711 189.965 113.262V117H188.957ZM201.191 112.617H200.172C200.086 112.285 199.9 112.014 199.615 111.803C199.334 111.588 198.977 111.48 198.543 111.48C197.977 111.48 197.525 111.691 197.189 112.113C196.857 112.535 196.691 113.104 196.691 113.818C196.691 114.545 196.859 115.125 197.195 115.559C197.531 115.988 197.98 116.203 198.543 116.203C198.969 116.203 199.322 116.107 199.604 115.916C199.889 115.725 200.078 115.451 200.172 115.096H201.191C201.098 115.693 200.818 116.18 200.354 116.555C199.889 116.926 199.287 117.111 198.549 117.111C197.662 117.111 196.957 116.814 196.434 116.221C195.91 115.623 195.648 114.822 195.648 113.818C195.648 112.834 195.91 112.047 196.434 111.457C196.957 110.867 197.66 110.572 198.543 110.572C199.281 110.572 199.883 110.766 200.348 111.152C200.816 111.539 201.098 112.027 201.191 112.617ZM205.199 111.463C204.695 111.463 204.281 111.633 203.957 111.973C203.633 112.312 203.451 112.762 203.412 113.32H206.893C206.881 112.762 206.721 112.312 206.412 111.973C206.104 111.633 205.699 111.463 205.199 111.463ZM206.863 115.365H207.871C207.719 115.912 207.408 116.34 206.939 116.648C206.475 116.957 205.898 117.111 205.211 117.111C204.336 117.111 203.643 116.818 203.131 116.232C202.619 115.643 202.363 114.848 202.363 113.848C202.363 112.852 202.621 112.057 203.137 111.463C203.652 110.869 204.344 110.572 205.211 110.572C206.062 110.572 206.732 110.855 207.221 111.422C207.709 111.988 207.953 112.764 207.953 113.748V114.135H203.412V114.182C203.439 114.807 203.615 115.303 203.939 115.67C204.268 116.037 204.699 116.221 205.234 116.221C206.051 116.221 206.594 115.936 206.863 115.365ZM210.174 119.15H209.418L209.975 115.816H211.094L210.174 119.15ZM219.561 110.572C220.365 110.572 221.008 110.869 221.488 111.463C221.973 112.057 222.215 112.85 222.215 113.842C222.215 114.83 221.973 115.623 221.488 116.221C221.004 116.814 220.361 117.111 219.561 117.111C219.111 117.111 218.713 117.02 218.365 116.836C218.018 116.648 217.758 116.387 217.586 116.051H217.492V119.109H216.484V110.684H217.445V111.738H217.539C217.742 111.375 218.021 111.09 218.377 110.883C218.736 110.676 219.131 110.572 219.561 110.572ZM219.32 116.203C219.898 116.203 220.352 115.994 220.68 115.576C221.008 115.158 221.172 114.58 221.172 113.842C221.172 113.104 221.008 112.525 220.68 112.107C220.355 111.689 219.904 111.48 219.326 111.48C218.756 111.48 218.303 111.693 217.967 112.119C217.631 112.541 217.463 113.115 217.463 113.842C217.463 114.564 217.629 115.139 217.961 115.564C218.297 115.99 218.75 116.203 219.32 116.203ZM225.742 116.227C226.262 116.227 226.691 116.076 227.031 115.775C227.375 115.475 227.547 115.098 227.547 114.645V114.064L225.848 114.176C225.371 114.207 225.021 114.307 224.799 114.475C224.576 114.643 224.465 114.887 224.465 115.207C224.465 115.523 224.584 115.773 224.822 115.957C225.061 116.137 225.367 116.227 225.742 116.227ZM225.555 117.111C224.934 117.111 224.422 116.941 224.02 116.602C223.621 116.258 223.422 115.801 223.422 115.23C223.422 114.668 223.621 114.227 224.02 113.906C224.418 113.586 224.986 113.404 225.725 113.361L227.547 113.25V112.676C227.547 112.285 227.426 111.986 227.184 111.779C226.941 111.572 226.586 111.469 226.117 111.469C225.738 111.469 225.424 111.537 225.174 111.674C224.924 111.811 224.764 112.004 224.693 112.254H223.674C223.74 111.75 224 111.344 224.453 111.035C224.91 110.727 225.477 110.572 226.152 110.572C226.918 110.572 227.51 110.758 227.928 111.129C228.346 111.5 228.555 112.016 228.555 112.676V117H227.594V116.068H227.5C227.297 116.404 227.027 116.662 226.691 116.842C226.355 117.021 225.977 117.111 225.555 117.111ZM230.723 119.285C230.562 119.285 230.412 119.273 230.271 119.25V118.389C230.373 118.408 230.514 118.418 230.693 118.418C230.986 118.418 231.219 118.34 231.391 118.184C231.566 118.027 231.721 117.76 231.854 117.381L231.971 117.006L229.633 110.684H230.723L232.457 115.881H232.551L234.279 110.684H235.352L232.885 117.387C232.615 118.117 232.328 118.615 232.023 118.881C231.719 119.15 231.285 119.285 230.723 119.285ZM236.699 117V110.684H237.66V111.68H237.754C237.898 111.328 238.123 111.057 238.428 110.865C238.732 110.67 239.096 110.572 239.518 110.572C239.932 110.572 240.287 110.672 240.584 110.871C240.885 111.07 241.111 111.34 241.264 111.68H241.357C241.529 111.34 241.787 111.07 242.131 110.871C242.475 110.672 242.861 110.572 243.291 110.572C243.936 110.572 244.432 110.752 244.779 111.111C245.127 111.467 245.301 111.975 245.301 112.635V117H244.293V112.869C244.293 111.943 243.85 111.48 242.963 111.48C242.533 111.48 242.182 111.621 241.908 111.902C241.635 112.184 241.498 112.529 241.498 112.939V117H240.49V112.711C240.49 112.336 240.369 112.037 240.127 111.814C239.889 111.592 239.57 111.48 239.172 111.48C238.762 111.48 238.414 111.637 238.129 111.949C237.848 112.262 237.707 112.641 237.707 113.086V117H236.699ZM249.66 111.463C249.156 111.463 248.742 111.633 248.418 111.973C248.094 112.312 247.912 112.762 247.873 113.32H251.354C251.342 112.762 251.182 112.312 250.873 111.973C250.564 111.633 250.16 111.463 249.66 111.463ZM251.324 115.365H252.332C252.18 115.912 251.869 116.34 251.4 116.648C250.936 116.957 250.359 117.111 249.672 117.111C248.797 117.111 248.104 116.818 247.592 116.232C247.08 115.643 246.824 114.848 246.824 113.848C246.824 112.852 247.082 112.057 247.598 111.463C248.113 110.869 248.805 110.572 249.672 110.572C250.523 110.572 251.193 110.855 251.682 111.422C252.17 111.988 252.414 112.764 252.414 113.748V114.135H247.873V114.182C247.9 114.807 248.076 115.303 248.4 115.67C248.729 116.037 249.16 116.221 249.695 116.221C250.512 116.221 251.055 115.936 251.324 115.365ZM253.996 117V110.684H254.957V111.68H255.051C255.387 110.941 256.02 110.572 256.949 110.572C257.656 110.572 258.201 110.775 258.584 111.182C258.967 111.584 259.158 112.16 259.158 112.91V117H258.15V113.156C258.15 112.59 258.027 112.17 257.781 111.896C257.539 111.619 257.166 111.48 256.662 111.48C256.154 111.48 255.75 111.641 255.449 111.961C255.152 112.277 255.004 112.711 255.004 113.262V117H253.996ZM261.426 109.049H262.434V110.684H263.84V111.527H262.434V115.102C262.434 115.473 262.508 115.742 262.656 115.91C262.805 116.078 263.043 116.162 263.371 116.162C263.516 116.162 263.672 116.154 263.84 116.139V116.988C263.617 117.027 263.42 117.047 263.248 117.047C262.596 117.047 262.129 116.916 261.848 116.654C261.566 116.393 261.426 115.961 261.426 115.359V111.527H260.406V110.684H261.426V109.049ZM265.1 112.412C265.1 111.889 265.324 111.451 265.773 111.1C266.223 110.748 266.783 110.572 267.455 110.572C268.115 110.572 268.66 110.725 269.09 111.029C269.52 111.334 269.768 111.746 269.834 112.266H268.838C268.768 112.008 268.611 111.805 268.369 111.656C268.131 111.504 267.824 111.428 267.449 111.428C267.07 111.428 266.752 111.516 266.494 111.691C266.24 111.867 266.113 112.094 266.113 112.371C266.113 112.586 266.201 112.766 266.377 112.91C266.557 113.051 266.834 113.166 267.209 113.256L268.182 113.49C268.783 113.635 269.227 113.844 269.512 114.117C269.801 114.391 269.945 114.752 269.945 115.201C269.945 115.76 269.705 116.219 269.225 116.578C268.744 116.934 268.141 117.111 267.414 117.111C266.711 117.111 266.135 116.955 265.686 116.643C265.236 116.33 264.984 115.912 264.93 115.389H265.967C266.053 115.662 266.223 115.877 266.477 116.033C266.73 116.186 267.055 116.262 267.449 116.262C267.875 116.262 268.225 116.17 268.498 115.986C268.771 115.803 268.908 115.566 268.908 115.277C268.908 114.848 268.574 114.551 267.906 114.387L266.822 114.123C266.225 113.979 265.787 113.771 265.51 113.502C265.236 113.229 265.1 112.865 265.1 112.412ZM272.166 119.15H271.41L271.967 115.816H273.086L272.166 119.15ZM278.201 114.791H279.268C279.334 115.232 279.562 115.584 279.953 115.846C280.344 116.107 280.84 116.238 281.441 116.238C282.012 116.238 282.482 116.102 282.854 115.828C283.229 115.551 283.416 115.203 283.416 114.785C283.416 114.426 283.279 114.129 283.006 113.895C282.732 113.656 282.305 113.463 281.723 113.314L280.639 113.033C279.873 112.842 279.316 112.564 278.969 112.201C278.621 111.838 278.447 111.355 278.447 110.754C278.447 110.035 278.721 109.455 279.268 109.014C279.818 108.568 280.541 108.346 281.436 108.346C282.252 108.346 282.936 108.564 283.486 109.002C284.037 109.439 284.334 110 284.377 110.684H283.316C283.242 110.25 283.035 109.912 282.695 109.67C282.359 109.424 281.928 109.301 281.4 109.301C280.838 109.301 280.385 109.432 280.041 109.693C279.701 109.951 279.531 110.293 279.531 110.719C279.531 111.051 279.656 111.32 279.906 111.527C280.16 111.734 280.578 111.912 281.16 112.061L282.045 112.295C282.92 112.514 283.547 112.807 283.926 113.174C284.309 113.541 284.5 114.035 284.5 114.656C284.5 115.434 284.215 116.053 283.645 116.514C283.074 116.971 282.307 117.199 281.342 117.199C280.447 117.199 279.713 116.98 279.139 116.543C278.568 116.105 278.256 115.521 278.201 114.791ZM294.59 117H293.605V110.543H293.535L290.869 116.941H289.979L287.312 110.543H287.242V117H286.258V108.545H287.482L290.377 115.541H290.471L293.365 108.545H294.59V117ZM296.342 114.791H297.408C297.475 115.232 297.703 115.584 298.094 115.846C298.484 116.107 298.98 116.238 299.582 116.238C300.152 116.238 300.623 116.102 300.994 115.828C301.369 115.551 301.557 115.203 301.557 114.785C301.557 114.426 301.42 114.129 301.146 113.895C300.873 113.656 300.445 113.463 299.863 113.314L298.779 113.033C298.014 112.842 297.457 112.564 297.109 112.201C296.762 111.838 296.588 111.355 296.588 110.754C296.588 110.035 296.861 109.455 297.408 109.014C297.959 108.568 298.682 108.346 299.576 108.346C300.393 108.346 301.076 108.564 301.627 109.002C302.178 109.439 302.475 110 302.518 110.684H301.457C301.383 110.25 301.176 109.912 300.836 109.67C300.5 109.424 300.068 109.301 299.541 109.301C298.979 109.301 298.525 109.432 298.182 109.693C297.842 109.951 297.672 110.293 297.672 110.719C297.672 111.051 297.797 111.32 298.047 111.527C298.301 111.734 298.719 111.912 299.301 112.061L300.186 112.295C301.061 112.514 301.688 112.807 302.066 113.174C302.449 113.541 302.641 114.035 302.641 114.656C302.641 115.434 302.355 116.053 301.785 116.514C301.215 116.971 300.447 117.199 299.482 117.199C298.588 117.199 297.854 116.98 297.279 116.543C296.709 116.105 296.396 115.521 296.342 114.791ZM309.994 117.111C309.186 117.111 308.541 116.814 308.061 116.221C307.58 115.627 307.34 114.834 307.34 113.842C307.34 112.854 307.58 112.062 308.061 111.469C308.545 110.871 309.189 110.572 309.994 110.572C310.436 110.572 310.83 110.672 311.178 110.871C311.529 111.066 311.795 111.336 311.975 111.68H312.062V108.176H313.07V117H312.109V115.992H312.016C311.816 116.344 311.539 116.619 311.184 116.818C310.828 117.014 310.432 117.111 309.994 117.111ZM310.229 111.48C309.654 111.48 309.203 111.691 308.875 112.113C308.547 112.531 308.383 113.107 308.383 113.842C308.383 114.58 308.545 115.158 308.869 115.576C309.197 115.994 309.65 116.203 310.229 116.203C310.803 116.203 311.256 115.992 311.588 115.57C311.92 115.148 312.086 114.572 312.086 113.842C312.086 113.119 311.918 112.545 311.582 112.119C311.25 111.693 310.799 111.48 310.229 111.48ZM317.547 111.463C317.043 111.463 316.629 111.633 316.305 111.973C315.98 112.312 315.799 112.762 315.76 113.32H319.24C319.229 112.762 319.068 112.312 318.76 111.973C318.451 111.633 318.047 111.463 317.547 111.463ZM319.211 115.365H320.219C320.066 115.912 319.756 116.34 319.287 116.648C318.822 116.957 318.246 117.111 317.559 117.111C316.684 117.111 315.99 116.818 315.479 116.232C314.967 115.643 314.711 114.848 314.711 113.848C314.711 112.852 314.969 112.057 315.484 111.463C316 110.869 316.691 110.572 317.559 110.572C318.41 110.572 319.08 110.855 319.568 111.422C320.057 111.988 320.301 112.764 320.301 113.748V114.135H315.76V114.182C315.787 114.807 315.963 115.303 316.287 115.67C316.615 116.037 317.047 116.221 317.582 116.221C318.398 116.221 318.941 115.936 319.211 115.365ZM321.941 117V108.176H322.949V117H321.941ZM324.93 117V110.684H325.938V117H324.93ZM325.932 109.195C325.795 109.332 325.629 109.4 325.434 109.4C325.238 109.4 325.072 109.332 324.936 109.195C324.799 109.055 324.73 108.889 324.73 108.697C324.73 108.506 324.799 108.342 324.936 108.205C325.072 108.064 325.238 107.994 325.434 107.994C325.629 107.994 325.795 108.064 325.932 108.205C326.068 108.342 326.137 108.506 326.137 108.697C326.137 108.889 326.068 109.055 325.932 109.195ZM333.016 110.684L330.678 117H329.646L327.309 110.684H328.387L330.115 115.887H330.209L331.938 110.684H333.016ZM336.648 111.463C336.145 111.463 335.73 111.633 335.406 111.973C335.082 112.312 334.9 112.762 334.861 113.32H338.342C338.33 112.762 338.17 112.312 337.861 111.973C337.553 111.633 337.148 111.463 336.648 111.463ZM338.312 115.365H339.32C339.168 115.912 338.857 116.34 338.389 116.648C337.924 116.957 337.348 117.111 336.66 117.111C335.785 117.111 335.092 116.818 334.58 116.232C334.068 115.643 333.812 114.848 333.812 113.848C333.812 112.852 334.07 112.057 334.586 111.463C335.102 110.869 335.793 110.572 336.66 110.572C337.512 110.572 338.182 110.855 338.67 111.422C339.158 111.988 339.402 112.764 339.402 113.748V114.135H334.861V114.182C334.889 114.807 335.064 115.303 335.389 115.67C335.717 116.037 336.148 116.221 336.684 116.221C337.5 116.221 338.043 115.936 338.312 115.365ZM340.984 117V110.684H341.945V111.621H342.039C342.133 111.312 342.344 111.061 342.672 110.865C343 110.67 343.373 110.572 343.791 110.572C343.982 110.572 344.15 110.582 344.295 110.602V111.609C344.158 111.57 343.943 111.551 343.65 111.551C343.17 111.551 342.773 111.695 342.461 111.984C342.148 112.273 341.992 112.641 341.992 113.086V117H340.984ZM346.094 119.285C345.934 119.285 345.783 119.273 345.643 119.25V118.389C345.744 118.408 345.885 118.418 346.064 118.418C346.357 118.418 346.59 118.34 346.762 118.184C346.938 118.027 347.092 117.76 347.225 117.381L347.342 117.006L345.004 110.684H346.094L347.828 115.881H347.922L349.65 110.684H350.723L348.256 117.387C347.986 118.117 347.699 118.615 347.395 118.881C347.09 119.15 346.656 119.285 346.094 119.285ZM351.83 119.15H351.074L351.631 115.816H352.75L351.83 119.15ZM139.469 125.463C138.965 125.463 138.551 125.633 138.227 125.973C137.902 126.312 137.721 126.762 137.682 127.32H141.162C141.15 126.762 140.99 126.312 140.682 125.973C140.373 125.633 139.969 125.463 139.469 125.463ZM141.133 129.365H142.141C141.988 129.912 141.678 130.34 141.209 130.648C140.744 130.957 140.168 131.111 139.48 131.111C138.605 131.111 137.912 130.818 137.4 130.232C136.889 129.643 136.633 128.848 136.633 127.848C136.633 126.852 136.891 126.057 137.406 125.463C137.922 124.869 138.613 124.572 139.48 124.572C140.332 124.572 141.002 124.855 141.49 125.422C141.979 125.988 142.223 126.764 142.223 127.748V128.135H137.682V128.182C137.709 128.807 137.885 129.303 138.209 129.67C138.537 130.037 138.969 130.221 139.504 130.221C140.32 130.221 140.863 129.936 141.133 129.365ZM143.805 131V124.684H144.766V125.68H144.859C145.195 124.941 145.828 124.572 146.758 124.572C147.465 124.572 148.01 124.775 148.393 125.182C148.775 125.584 148.967 126.16 148.967 126.91V131H147.959V127.156C147.959 126.59 147.836 126.17 147.59 125.896C147.348 125.619 146.975 125.48 146.471 125.48C145.963 125.48 145.559 125.641 145.258 125.961C144.961 126.277 144.812 126.711 144.812 127.262V131H143.805ZM153.139 124.572C153.568 124.572 153.965 124.678 154.328 124.889C154.695 125.1 154.973 125.383 155.16 125.738H155.254V124.684H156.227V133.109H155.207V130.051H155.113C154.699 130.758 154.041 131.111 153.139 131.111C152.334 131.111 151.691 130.816 151.211 130.227C150.734 129.633 150.496 128.838 150.496 127.842C150.496 126.854 150.736 126.062 151.217 125.469C151.697 124.871 152.338 124.572 153.139 124.572ZM153.367 130.203C153.945 130.203 154.4 129.992 154.732 129.57C155.068 129.145 155.236 128.568 155.236 127.842C155.236 127.119 155.068 126.545 154.732 126.119C154.396 125.693 153.943 125.48 153.373 125.48C152.799 125.48 152.35 125.689 152.025 126.107C151.701 126.525 151.539 127.104 151.539 127.842C151.539 128.584 151.699 129.164 152.02 129.582C152.344 129.996 152.793 130.203 153.367 130.203ZM163.234 124.684V131H162.273V130.01H162.18C162.02 130.365 161.773 130.639 161.441 130.83C161.109 131.018 160.703 131.111 160.223 131.111C159.52 131.111 158.984 130.91 158.617 130.508C158.25 130.105 158.066 129.527 158.066 128.773V124.684H159.074V128.527C159.074 129.102 159.188 129.523 159.414 129.793C159.641 130.059 160.004 130.191 160.504 130.191C161.055 130.191 161.479 130.037 161.775 129.729C162.076 129.416 162.227 128.98 162.227 128.422V124.684H163.234ZM165.156 131V124.684H166.164V131H165.156ZM166.158 123.195C166.021 123.332 165.855 123.4 165.66 123.4C165.465 123.4 165.299 123.332 165.162 123.195C165.025 123.055 164.957 122.889 164.957 122.697C164.957 122.506 165.025 122.342 165.162 122.205C165.299 122.064 165.465 121.994 165.66 121.994C165.855 121.994 166.021 122.064 166.158 122.205C166.295 122.342 166.363 122.506 166.363 122.697C166.363 122.889 166.295 123.055 166.158 123.195ZM168.086 131V124.684H169.047V125.621H169.141C169.234 125.312 169.445 125.061 169.773 124.865C170.102 124.67 170.475 124.572 170.893 124.572C171.084 124.572 171.252 124.582 171.396 124.602V125.609C171.26 125.57 171.045 125.551 170.752 125.551C170.271 125.551 169.875 125.695 169.562 125.984C169.25 126.273 169.094 126.641 169.094 127.086V131H168.086ZM172.68 131V124.684H173.688V131H172.68ZM173.682 123.195C173.545 123.332 173.379 123.4 173.184 123.4C172.988 123.4 172.822 123.332 172.686 123.195C172.549 123.055 172.48 122.889 172.48 122.697C172.48 122.506 172.549 122.342 172.686 122.205C172.822 122.064 172.988 121.994 173.184 121.994C173.379 121.994 173.545 122.064 173.682 122.205C173.818 122.342 173.887 122.506 173.887 122.697C173.887 122.889 173.818 123.055 173.682 123.195ZM178.129 125.463C177.625 125.463 177.211 125.633 176.887 125.973C176.562 126.312 176.381 126.762 176.342 127.32H179.822C179.811 126.762 179.65 126.312 179.342 125.973C179.033 125.633 178.629 125.463 178.129 125.463ZM179.793 129.365H180.801C180.648 129.912 180.338 130.34 179.869 130.648C179.404 130.957 178.828 131.111 178.141 131.111C177.266 131.111 176.572 130.818 176.061 130.232C175.549 129.643 175.293 128.848 175.293 127.848C175.293 126.852 175.551 126.057 176.066 125.463C176.582 124.869 177.273 124.572 178.141 124.572C178.992 124.572 179.662 124.855 180.15 125.422C180.639 125.988 180.883 126.764 180.883 127.748V128.135H176.342V128.182C176.369 128.807 176.545 129.303 176.869 129.67C177.197 130.037 177.629 130.221 178.164 130.221C178.98 130.221 179.523 129.936 179.793 129.365ZM182.318 126.412C182.318 125.889 182.543 125.451 182.992 125.1C183.441 124.748 184.002 124.572 184.674 124.572C185.334 124.572 185.879 124.725 186.309 125.029C186.738 125.334 186.986 125.746 187.053 126.266H186.057C185.986 126.008 185.83 125.805 185.588 125.656C185.35 125.504 185.043 125.428 184.668 125.428C184.289 125.428 183.971 125.516 183.713 125.691C183.459 125.867 183.332 126.094 183.332 126.371C183.332 126.586 183.42 126.766 183.596 126.91C183.775 127.051 184.053 127.166 184.428 127.256L185.4 127.49C186.002 127.635 186.445 127.844 186.73 128.117C187.02 128.391 187.164 128.752 187.164 129.201C187.164 129.76 186.924 130.219 186.443 130.578C185.963 130.934 185.359 131.111 184.633 131.111C183.93 131.111 183.354 130.955 182.904 130.643C182.455 130.33 182.203 129.912 182.148 129.389H183.186C183.271 129.662 183.441 129.877 183.695 130.033C183.949 130.186 184.273 130.262 184.668 130.262C185.094 130.262 185.443 130.17 185.717 129.986C185.99 129.803 186.127 129.566 186.127 129.277C186.127 128.848 185.793 128.551 185.125 128.387L184.041 128.123C183.443 127.979 183.006 127.771 182.729 127.502C182.455 127.229 182.318 126.865 182.318 126.412ZM189.385 133.15H188.629L189.186 129.816H190.305L189.385 133.15ZM198.215 125.463C197.711 125.463 197.297 125.633 196.973 125.973C196.648 126.312 196.467 126.762 196.428 127.32H199.908C199.896 126.762 199.736 126.312 199.428 125.973C199.119 125.633 198.715 125.463 198.215 125.463ZM199.879 129.365H200.887C200.734 129.912 200.424 130.34 199.955 130.648C199.49 130.957 198.914 131.111 198.227 131.111C197.352 131.111 196.658 130.818 196.146 130.232C195.635 129.643 195.379 128.848 195.379 127.848C195.379 126.852 195.637 126.057 196.152 125.463C196.668 124.869 197.359 124.572 198.227 124.572C199.078 124.572 199.748 124.855 200.236 125.422C200.725 125.988 200.969 126.764 200.969 127.748V128.135H196.428V128.182C196.455 128.807 196.631 129.303 196.955 129.67C197.283 130.037 197.715 130.221 198.25 130.221C199.066 130.221 199.609 129.936 199.879 129.365ZM202.973 123.049H203.98V124.684H205.387V125.527H203.98V129.102C203.98 129.473 204.055 129.742 204.203 129.91C204.352 130.078 204.59 130.162 204.918 130.162C205.062 130.162 205.219 130.154 205.387 130.139V130.988C205.164 131.027 204.967 131.047 204.795 131.047C204.143 131.047 203.676 130.916 203.395 130.654C203.113 130.393 202.973 129.961 202.973 129.359V125.527H201.953V124.684H202.973V123.049ZM212.043 126.617H211.023C210.938 126.285 210.752 126.014 210.467 125.803C210.186 125.588 209.828 125.48 209.395 125.48C208.828 125.48 208.377 125.691 208.041 126.113C207.709 126.535 207.543 127.104 207.543 127.818C207.543 128.545 207.711 129.125 208.047 129.559C208.383 129.988 208.832 130.203 209.395 130.203C209.82 130.203 210.174 130.107 210.455 129.916C210.74 129.725 210.93 129.451 211.023 129.096H212.043C211.949 129.693 211.67 130.18 211.205 130.555C210.74 130.926 210.139 131.111 209.4 131.111C208.514 131.111 207.809 130.814 207.285 130.221C206.762 129.623 206.5 128.822 206.5 127.818C206.5 126.834 206.762 126.047 207.285 125.457C207.809 124.867 208.512 124.572 209.395 124.572C210.133 124.572 210.734 124.766 211.199 125.152C211.668 125.539 211.949 126.027 212.043 126.617Z" fill="white"/>
<defs>
<clipPath id="clip0">
<rect width="64.8" height="64.8" fill="white" transform="translate(43.5996 65.3999)"/>
</clipPath>
</defs>
</svg>
