<svg width="724" height="314" viewBox="0 0 724 314" fill="none" xmlns="http://www.w3.org/2000/svg">
<g clip-path="url(#clip0)">
<rect width="724" height="314" fill="white"/>
<path d="M0 312C0 313.105 0.895431 314 2 314H722C723.105 314 724 313.105 724 312V0H0V312Z" fill="#673AB7"/>
<path d="M217.75 142.875C217.953 146.969 221.375 149.562 226.547 149.562C232.016 149.562 235.406 146.828 235.406 142.438C235.406 139 233.484 137.094 228.906 136.062L226.312 135.469C223.516 134.828 222.375 133.938 222.375 132.422C222.375 130.5 224.094 129.25 226.688 129.25C229.156 129.25 230.906 130.5 231.188 132.484H235.047C234.859 128.609 231.438 125.891 226.703 125.891C221.656 125.891 218.312 128.609 218.312 132.703C218.312 136.062 220.234 138.094 224.328 139.016L227.25 139.688C230.141 140.359 231.375 141.312 231.375 142.938C231.375 144.828 229.453 146.188 226.797 146.188C223.938 146.188 221.938 144.891 221.688 142.875H217.75ZM239.531 149H243.406V138.609C243.406 136.516 244.828 134.938 246.75 134.938C248.656 134.938 249.844 136.078 249.844 137.953V149H253.609V138.359C253.609 136.406 254.938 134.938 256.953 134.938C259.031 134.938 260.078 136.031 260.078 138.234V149H263.938V137.25C263.938 133.703 261.875 131.562 258.453 131.562C256.078 131.562 254.109 132.797 253.266 134.672H253C252.281 132.75 250.641 131.562 248.281 131.562C246.016 131.562 244.266 132.719 243.531 134.672H243.266V131.906H239.531V149ZM274.375 146.234C272.656 146.234 271.422 145.375 271.422 143.938C271.422 142.547 272.438 141.766 274.609 141.625L278.469 141.375V142.734C278.469 144.719 276.719 146.234 274.375 146.234ZM273.234 149.281C275.469 149.281 277.344 148.312 278.297 146.656H278.562V149H282.297V137.328C282.297 133.703 279.828 131.562 275.438 131.562C271.375 131.562 268.547 133.484 268.234 136.5H271.891C272.25 135.344 273.469 134.719 275.25 134.719C277.344 134.719 278.469 135.656 278.469 137.328V138.766L274.062 139.031C269.906 139.281 267.578 141.062 267.578 144.156C267.578 147.281 269.938 149.281 273.234 149.281ZM286.969 149H290.844V139.125C290.844 136.734 292.594 135.172 295.109 135.172C295.766 135.172 296.797 135.281 297.094 135.391V131.797C296.734 131.688 296.047 131.625 295.484 131.625C293.281 131.625 291.438 132.875 290.969 134.562H290.703V131.906H286.969V149ZM302.297 127.719V132.016H299.594V135.109H302.297V144.438C302.297 147.75 303.859 149.078 307.781 149.078C308.531 149.078 309.25 149 309.812 148.891V145.859C309.344 145.906 309.047 145.938 308.5 145.938C306.875 145.938 306.156 145.188 306.156 143.5V135.109H309.812V132.016H306.156V127.719H302.297ZM337.172 149H341.5L333.484 126.453H328.953L320.953 149H325.031L326.969 143.234H335.266L337.172 149ZM331 130.75H331.266L334.328 140.047H327.906L331 130.75ZM345.266 127.719V132.016H342.562V135.109H345.266V144.438C345.266 147.75 346.828 149.078 350.75 149.078C351.5 149.078 352.219 149 352.781 148.891V145.859C352.312 145.906 352.016 145.938 351.469 145.938C349.844 145.938 349.125 145.188 349.125 143.5V135.109H352.781V132.016H349.125V127.719H345.266ZM357.984 127.719V132.016H355.281V135.109H357.984V144.438C357.984 147.75 359.547 149.078 363.469 149.078C364.219 149.078 364.938 149 365.5 148.891V145.859C365.031 145.906 364.734 145.938 364.188 145.938C362.562 145.938 361.844 145.188 361.844 143.5V135.109H365.5V132.016H361.844V127.719H357.984ZM376.391 134.641C378.719 134.641 380.25 136.266 380.328 138.797H372.281C372.453 136.297 374.078 134.641 376.391 134.641ZM380.359 144.297C379.797 145.562 378.469 146.266 376.547 146.266C374 146.266 372.359 144.484 372.266 141.641V141.438H384.203V140.188C384.203 134.797 381.281 131.562 376.406 131.562C371.453 131.562 368.375 135.016 368.375 140.516C368.375 146.016 371.406 149.344 376.438 149.344C380.469 149.344 383.297 147.406 384.031 144.297H380.359ZM388.094 149H391.969V139.047C391.969 136.531 393.422 134.938 395.734 134.938C398.094 134.938 399.188 136.25 399.188 138.859V149H403.062V137.938C403.062 133.859 400.984 131.562 397.172 131.562C394.625 131.562 392.906 132.734 392.094 134.641H391.828V131.906H388.094V149ZM413.844 149.281C416.219 149.281 418.188 148.172 419.156 146.297H419.422V149H423.172V125.297H419.297V134.625H419.031C418.125 132.75 416.188 131.625 413.844 131.625C409.531 131.625 406.812 135.031 406.812 140.438C406.812 145.875 409.516 149.281 413.844 149.281ZM415.047 134.922C417.703 134.922 419.344 137.047 419.344 140.453C419.344 143.891 417.719 145.984 415.047 145.984C412.391 145.984 410.781 143.906 410.781 140.453C410.781 137.016 412.406 134.922 415.047 134.922ZM433.906 146.234C432.188 146.234 430.953 145.375 430.953 143.938C430.953 142.547 431.969 141.766 434.141 141.625L438 141.375V142.734C438 144.719 436.25 146.234 433.906 146.234ZM432.766 149.281C435 149.281 436.875 148.312 437.828 146.656H438.094V149H441.828V137.328C441.828 133.703 439.359 131.562 434.969 131.562C430.906 131.562 428.078 133.484 427.766 136.5H431.422C431.781 135.344 433 134.719 434.781 134.719C436.875 134.719 438 135.656 438 137.328V138.766L433.594 139.031C429.438 139.281 427.109 141.062 427.109 144.156C427.109 147.281 429.469 149.281 432.766 149.281ZM446.5 149H450.375V139.047C450.375 136.531 451.828 134.938 454.141 134.938C456.5 134.938 457.594 136.25 457.594 138.859V149H461.469V137.938C461.469 133.859 459.391 131.562 455.578 131.562C453.031 131.562 451.312 132.734 450.5 134.641H450.234V131.906H446.5V149ZM480.828 137.656C480.422 134.062 477.766 131.562 473.375 131.562C468.234 131.562 465.219 134.859 465.219 140.406C465.219 146.031 468.25 149.344 473.391 149.344C477.719 149.344 480.406 146.938 480.828 143.359H477.141C476.734 145.141 475.391 146.094 473.375 146.094C470.734 146.094 469.141 144 469.141 140.406C469.141 136.859 470.719 134.812 473.375 134.812C475.5 134.812 476.781 136 477.141 137.656H480.828ZM491.703 134.641C494.031 134.641 495.562 136.266 495.641 138.797H487.594C487.766 136.297 489.391 134.641 491.703 134.641ZM495.672 144.297C495.109 145.562 493.781 146.266 491.859 146.266C489.312 146.266 487.672 144.484 487.578 141.641V141.438H499.516V140.188C499.516 134.797 496.594 131.562 491.719 131.562C486.766 131.562 483.688 135.016 483.688 140.516C483.688 146.016 486.719 149.344 491.75 149.344C495.781 149.344 498.609 147.406 499.344 144.297H495.672Z" fill="white"/>
<path d="M217.438 176.727H221.305C222.977 176.727 224.281 177.224 225.219 178.219C226.156 179.208 226.625 180.589 226.625 182.359C226.625 184.135 226.156 185.521 225.219 186.516C224.286 187.505 222.982 188 221.305 188H217.438V176.727ZM218.844 177.992V186.734H221.211C222.466 186.734 223.443 186.352 224.141 185.586C224.839 184.82 225.188 183.75 225.188 182.375C225.188 180.995 224.836 179.919 224.133 179.148C223.435 178.378 222.461 177.992 221.211 177.992H218.844ZM235.188 186.984C234.495 187.76 233.549 188.148 232.352 188.148C231.154 188.148 230.206 187.76 229.508 186.984C228.815 186.203 228.469 185.138 228.469 183.789C228.469 182.435 228.815 181.37 229.508 180.594C230.201 179.818 231.148 179.43 232.352 179.43C233.555 179.43 234.503 179.818 235.195 180.594C235.888 181.37 236.234 182.435 236.234 183.789C236.234 185.138 235.885 186.203 235.188 186.984ZM230.508 186.117C230.94 186.664 231.555 186.938 232.352 186.938C233.148 186.938 233.763 186.664 234.195 186.117C234.628 185.565 234.844 184.789 234.844 183.789C234.844 182.789 234.628 182.016 234.195 181.469C233.763 180.917 233.148 180.641 232.352 180.641C231.555 180.641 230.94 180.917 230.508 181.469C230.076 182.016 229.859 182.789 229.859 183.789C229.859 184.789 230.076 185.565 230.508 186.117ZM238.344 188V179.578H239.625V180.906H239.75C240.198 179.922 241.042 179.43 242.281 179.43C243.224 179.43 243.951 179.701 244.461 180.242C244.971 180.779 245.227 181.547 245.227 182.547V188H243.883V182.875C243.883 182.12 243.719 181.56 243.391 181.195C243.068 180.826 242.57 180.641 241.898 180.641C241.221 180.641 240.682 180.854 240.281 181.281C239.885 181.703 239.688 182.281 239.688 183.016V188H238.344ZM248.805 180.938H247.828L248.539 176.727H250.062L248.805 180.938ZM252.984 177.398H254.328V179.578H256.203V180.703H254.328V185.469C254.328 185.964 254.427 186.323 254.625 186.547C254.823 186.771 255.141 186.883 255.578 186.883C255.771 186.883 255.979 186.872 256.203 186.852V187.984C255.906 188.036 255.643 188.062 255.414 188.062C254.544 188.062 253.922 187.888 253.547 187.539C253.172 187.19 252.984 186.615 252.984 185.812V180.703H251.625V179.578H252.984V177.398ZM262.828 188V176.234H264.172V188H262.828ZM270.141 180.617C269.469 180.617 268.917 180.844 268.484 181.297C268.052 181.75 267.81 182.349 267.758 183.094H272.398C272.383 182.349 272.169 181.75 271.758 181.297C271.346 180.844 270.807 180.617 270.141 180.617ZM272.359 185.82H273.703C273.5 186.549 273.086 187.12 272.461 187.531C271.841 187.943 271.073 188.148 270.156 188.148C268.99 188.148 268.065 187.758 267.383 186.977C266.701 186.19 266.359 185.13 266.359 183.797C266.359 182.469 266.703 181.409 267.391 180.617C268.078 179.826 269 179.43 270.156 179.43C271.292 179.43 272.185 179.807 272.836 180.562C273.487 181.318 273.812 182.352 273.812 183.664V184.18H267.758V184.242C267.794 185.076 268.029 185.737 268.461 186.227C268.898 186.716 269.474 186.961 270.188 186.961C271.276 186.961 272 186.581 272.359 185.82ZM276.484 177.398H277.828V179.578H279.703V180.703H277.828V185.469C277.828 185.964 277.927 186.323 278.125 186.547C278.323 186.771 278.641 186.883 279.078 186.883C279.271 186.883 279.479 186.872 279.703 186.852V187.984C279.406 188.036 279.143 188.062 278.914 188.062C278.044 188.062 277.422 187.888 277.047 187.539C276.672 187.19 276.484 186.615 276.484 185.812V180.703H275.125V179.578H276.484V177.398ZM290.352 179.43C291.424 179.43 292.281 179.826 292.922 180.617C293.568 181.409 293.891 182.466 293.891 183.789C293.891 185.107 293.568 186.164 292.922 186.961C292.276 187.753 291.419 188.148 290.352 188.148C289.753 188.148 289.221 188.026 288.758 187.781C288.294 187.531 287.948 187.182 287.719 186.734H287.594V190.812H286.25V179.578H287.531V180.984H287.656C287.927 180.5 288.299 180.12 288.773 179.844C289.253 179.568 289.779 179.43 290.352 179.43ZM290.031 186.938C290.802 186.938 291.406 186.659 291.844 186.102C292.281 185.544 292.5 184.773 292.5 183.789C292.5 182.805 292.281 182.034 291.844 181.477C291.411 180.919 290.81 180.641 290.039 180.641C289.279 180.641 288.674 180.924 288.227 181.492C287.779 182.055 287.555 182.82 287.555 183.789C287.555 184.753 287.776 185.518 288.219 186.086C288.667 186.654 289.271 186.938 290.031 186.938ZM298.594 186.969C299.286 186.969 299.859 186.768 300.312 186.367C300.771 185.966 301 185.464 301 184.859V184.086L298.734 184.234C298.099 184.276 297.633 184.409 297.336 184.633C297.039 184.857 296.891 185.182 296.891 185.609C296.891 186.031 297.049 186.365 297.367 186.609C297.685 186.849 298.094 186.969 298.594 186.969ZM298.344 188.148C297.516 188.148 296.833 187.922 296.297 187.469C295.766 187.01 295.5 186.401 295.5 185.641C295.5 184.891 295.766 184.302 296.297 183.875C296.828 183.448 297.586 183.206 298.57 183.148L301 183V182.234C301 181.714 300.839 181.315 300.516 181.039C300.193 180.763 299.719 180.625 299.094 180.625C298.589 180.625 298.169 180.716 297.836 180.898C297.503 181.081 297.289 181.339 297.195 181.672H295.836C295.924 181 296.271 180.458 296.875 180.047C297.484 179.635 298.24 179.43 299.141 179.43C300.161 179.43 300.951 179.677 301.508 180.172C302.065 180.667 302.344 181.354 302.344 182.234V188H301.062V186.758H300.938C300.667 187.206 300.307 187.549 299.859 187.789C299.411 188.029 298.906 188.148 298.344 188.148ZM304.828 188V179.578H306.109V180.828H306.234C306.359 180.417 306.641 180.081 307.078 179.82C307.516 179.56 308.013 179.43 308.57 179.43C308.826 179.43 309.049 179.443 309.242 179.469V180.812C309.06 180.76 308.773 180.734 308.383 180.734C307.742 180.734 307.214 180.927 306.797 181.312C306.38 181.698 306.172 182.188 306.172 182.781V188H304.828ZM314.047 180.617C313.375 180.617 312.823 180.844 312.391 181.297C311.958 181.75 311.716 182.349 311.664 183.094H316.305C316.289 182.349 316.076 181.75 315.664 181.297C315.253 180.844 314.714 180.617 314.047 180.617ZM316.266 185.82H317.609C317.406 186.549 316.992 187.12 316.367 187.531C315.747 187.943 314.979 188.148 314.062 188.148C312.896 188.148 311.971 187.758 311.289 186.977C310.607 186.19 310.266 185.13 310.266 183.797C310.266 182.469 310.609 181.409 311.297 180.617C311.984 179.826 312.906 179.43 314.062 179.43C315.198 179.43 316.091 179.807 316.742 180.562C317.393 181.318 317.719 182.352 317.719 183.664V184.18H311.664V184.242C311.701 185.076 311.935 185.737 312.367 186.227C312.805 186.716 313.38 186.961 314.094 186.961C315.182 186.961 315.906 186.581 316.266 185.82ZM319.828 188V179.578H321.109V180.906H321.234C321.682 179.922 322.526 179.43 323.766 179.43C324.708 179.43 325.435 179.701 325.945 180.242C326.456 180.779 326.711 181.547 326.711 182.547V188H325.367V182.875C325.367 182.12 325.203 181.56 324.875 181.195C324.552 180.826 324.055 180.641 323.383 180.641C322.706 180.641 322.167 180.854 321.766 181.281C321.37 181.703 321.172 182.281 321.172 183.016V188H319.828ZM329.734 177.398H331.078V179.578H332.953V180.703H331.078V185.469C331.078 185.964 331.177 186.323 331.375 186.547C331.573 186.771 331.891 186.883 332.328 186.883C332.521 186.883 332.729 186.872 332.953 186.852V187.984C332.656 188.036 332.393 188.062 332.164 188.062C331.294 188.062 330.672 187.888 330.297 187.539C329.922 187.19 329.734 186.615 329.734 185.812V180.703H328.375V179.578H329.734V177.398ZM334.633 181.883C334.633 181.185 334.932 180.602 335.531 180.133C336.13 179.664 336.878 179.43 337.773 179.43C338.654 179.43 339.38 179.633 339.953 180.039C340.526 180.445 340.857 180.995 340.945 181.688H339.617C339.523 181.344 339.315 181.073 338.992 180.875C338.674 180.672 338.266 180.57 337.766 180.57C337.26 180.57 336.836 180.688 336.492 180.922C336.154 181.156 335.984 181.458 335.984 181.828C335.984 182.115 336.102 182.354 336.336 182.547C336.576 182.734 336.945 182.888 337.445 183.008L338.742 183.32C339.544 183.513 340.135 183.792 340.516 184.156C340.901 184.521 341.094 185.003 341.094 185.602C341.094 186.346 340.773 186.958 340.133 187.438C339.492 187.911 338.688 188.148 337.719 188.148C336.781 188.148 336.013 187.94 335.414 187.523C334.815 187.107 334.479 186.549 334.406 185.852H335.789C335.904 186.216 336.13 186.503 336.469 186.711C336.807 186.914 337.24 187.016 337.766 187.016C338.333 187.016 338.799 186.893 339.164 186.648C339.529 186.404 339.711 186.089 339.711 185.703C339.711 185.13 339.266 184.734 338.375 184.516L336.93 184.164C336.133 183.971 335.549 183.695 335.18 183.336C334.815 182.971 334.633 182.487 334.633 181.883ZM358.312 179.578L355.953 188H354.586L352.703 181.484H352.578L350.703 188H349.344L346.984 179.578H348.344L350 186.312H350.125L352.008 179.578H353.297L355.18 186.312H355.305L356.961 179.578H358.312ZM366.094 186.984C365.401 187.76 364.456 188.148 363.258 188.148C362.06 188.148 361.112 187.76 360.414 186.984C359.721 186.203 359.375 185.138 359.375 183.789C359.375 182.435 359.721 181.37 360.414 180.594C361.107 179.818 362.055 179.43 363.258 179.43C364.461 179.43 365.409 179.818 366.102 180.594C366.794 181.37 367.141 182.435 367.141 183.789C367.141 185.138 366.792 186.203 366.094 186.984ZM361.414 186.117C361.846 186.664 362.461 186.938 363.258 186.938C364.055 186.938 364.669 186.664 365.102 186.117C365.534 185.565 365.75 184.789 365.75 183.789C365.75 182.789 365.534 182.016 365.102 181.469C364.669 180.917 364.055 180.641 363.258 180.641C362.461 180.641 361.846 180.917 361.414 181.469C360.982 182.016 360.766 182.789 360.766 183.789C360.766 184.789 360.982 185.565 361.414 186.117ZM369.25 188V179.578H370.531V180.828H370.656C370.781 180.417 371.062 180.081 371.5 179.82C371.938 179.56 372.435 179.43 372.992 179.43C373.247 179.43 373.471 179.443 373.664 179.469V180.812C373.482 180.76 373.195 180.734 372.805 180.734C372.164 180.734 371.635 180.927 371.219 181.312C370.802 181.698 370.594 182.188 370.594 182.781V188H369.25ZM375.5 188V179.578H376.781V180.828H376.906C377.031 180.417 377.312 180.081 377.75 179.82C378.188 179.56 378.685 179.43 379.242 179.43C379.497 179.43 379.721 179.443 379.914 179.469V180.812C379.732 180.76 379.445 180.734 379.055 180.734C378.414 180.734 377.885 180.927 377.469 181.312C377.052 181.698 376.844 182.188 376.844 182.781V188H375.5ZM382.312 191.047C382.099 191.047 381.898 191.031 381.711 191V189.852C381.846 189.878 382.034 189.891 382.273 189.891C382.664 189.891 382.974 189.786 383.203 189.578C383.438 189.37 383.643 189.013 383.82 188.508L383.977 188.008L380.859 179.578H382.312L384.625 186.508H384.75L387.055 179.578H388.484L385.195 188.516C384.836 189.49 384.453 190.154 384.047 190.508C383.641 190.867 383.062 191.047 382.312 191.047ZM397.391 186.969C398.083 186.969 398.656 186.768 399.109 186.367C399.568 185.966 399.797 185.464 399.797 184.859V184.086L397.531 184.234C396.896 184.276 396.43 184.409 396.133 184.633C395.836 184.857 395.688 185.182 395.688 185.609C395.688 186.031 395.846 186.365 396.164 186.609C396.482 186.849 396.891 186.969 397.391 186.969ZM397.141 188.148C396.312 188.148 395.63 187.922 395.094 187.469C394.562 187.01 394.297 186.401 394.297 185.641C394.297 184.891 394.562 184.302 395.094 183.875C395.625 183.448 396.383 183.206 397.367 183.148L399.797 183V182.234C399.797 181.714 399.635 181.315 399.312 181.039C398.99 180.763 398.516 180.625 397.891 180.625C397.385 180.625 396.966 180.716 396.633 180.898C396.299 181.081 396.086 181.339 395.992 181.672H394.633C394.721 181 395.068 180.458 395.672 180.047C396.281 179.635 397.036 179.43 397.938 179.43C398.958 179.43 399.747 179.677 400.305 180.172C400.862 180.667 401.141 181.354 401.141 182.234V188H399.859V186.758H399.734C399.464 187.206 399.104 187.549 398.656 187.789C398.208 188.029 397.703 188.148 397.141 188.148ZM407.812 188.148C407.229 188.148 406.698 188.018 406.219 187.758C405.745 187.492 405.375 187.125 405.109 186.656H404.984V188H403.703V176.234H405.047V180.906H405.172C405.401 180.453 405.753 180.094 406.227 179.828C406.706 179.562 407.234 179.43 407.812 179.43C408.885 179.43 409.742 179.826 410.383 180.617C411.023 181.409 411.344 182.466 411.344 183.789C411.344 185.107 411.021 186.164 410.375 186.961C409.734 187.753 408.88 188.148 407.812 188.148ZM407.5 180.641C406.734 180.641 406.128 180.922 405.68 181.484C405.237 182.047 405.016 182.815 405.016 183.789C405.016 184.763 405.237 185.531 405.68 186.094C406.128 186.656 406.734 186.938 407.5 186.938C408.271 186.938 408.872 186.659 409.305 186.102C409.737 185.544 409.953 184.773 409.953 183.789C409.953 182.805 409.737 182.034 409.305 181.477C408.872 180.919 408.271 180.641 407.5 180.641ZM419.75 186.984C419.057 187.76 418.112 188.148 416.914 188.148C415.716 188.148 414.768 187.76 414.07 186.984C413.378 186.203 413.031 185.138 413.031 183.789C413.031 182.435 413.378 181.37 414.07 180.594C414.763 179.818 415.711 179.43 416.914 179.43C418.117 179.43 419.065 179.818 419.758 180.594C420.451 181.37 420.797 182.435 420.797 183.789C420.797 185.138 420.448 186.203 419.75 186.984ZM415.07 186.117C415.503 186.664 416.117 186.938 416.914 186.938C417.711 186.938 418.326 186.664 418.758 186.117C419.19 185.565 419.406 184.789 419.406 183.789C419.406 182.789 419.19 182.016 418.758 181.469C418.326 180.917 417.711 180.641 416.914 180.641C416.117 180.641 415.503 180.917 415.07 181.469C414.638 182.016 414.422 182.789 414.422 183.789C414.422 184.789 414.638 185.565 415.07 186.117ZM429.719 179.578V188H428.438V186.68H428.312C428.099 187.154 427.771 187.518 427.328 187.773C426.885 188.023 426.344 188.148 425.703 188.148C424.766 188.148 424.052 187.88 423.562 187.344C423.073 186.807 422.828 186.036 422.828 185.031V179.578H424.172V184.703C424.172 185.469 424.323 186.031 424.625 186.391C424.927 186.745 425.411 186.922 426.078 186.922C426.812 186.922 427.378 186.716 427.773 186.305C428.174 185.888 428.375 185.307 428.375 184.562V179.578H429.719ZM432.812 177.398H434.156V179.578H436.031V180.703H434.156V185.469C434.156 185.964 434.255 186.323 434.453 186.547C434.651 186.771 434.969 186.883 435.406 186.883C435.599 186.883 435.807 186.872 436.031 186.852V187.984C435.734 188.036 435.471 188.062 435.242 188.062C434.372 188.062 433.75 187.888 433.375 187.539C433 187.19 432.812 186.615 432.812 185.812V180.703H431.453V179.578H432.812V177.398ZM443.141 177.398H444.484V179.578H446.359V180.703H444.484V185.469C444.484 185.964 444.583 186.323 444.781 186.547C444.979 186.771 445.297 186.883 445.734 186.883C445.927 186.883 446.135 186.872 446.359 186.852V187.984C446.062 188.036 445.799 188.062 445.57 188.062C444.701 188.062 444.078 187.888 443.703 187.539C443.328 187.19 443.141 186.615 443.141 185.812V180.703H441.781V179.578H443.141V177.398ZM448.469 188V176.234H449.812V180.906H449.938C450.151 180.432 450.477 180.068 450.914 179.812C451.357 179.557 451.896 179.43 452.531 179.43C453.427 179.43 454.135 179.706 454.656 180.258C455.177 180.805 455.438 181.568 455.438 182.547V188H454.094V182.875C454.094 181.385 453.445 180.641 452.148 180.641C451.409 180.641 450.833 180.857 450.422 181.289C450.016 181.716 449.812 182.292 449.812 183.016V188H448.469ZM461.25 180.617C460.578 180.617 460.026 180.844 459.594 181.297C459.161 181.75 458.919 182.349 458.867 183.094H463.508C463.492 182.349 463.279 181.75 462.867 181.297C462.456 180.844 461.917 180.617 461.25 180.617ZM463.469 185.82H464.812C464.609 186.549 464.195 187.12 463.57 187.531C462.951 187.943 462.182 188.148 461.266 188.148C460.099 188.148 459.174 187.758 458.492 186.977C457.81 186.19 457.469 185.13 457.469 183.797C457.469 182.469 457.812 181.409 458.5 180.617C459.188 179.826 460.109 179.43 461.266 179.43C462.401 179.43 463.294 179.807 463.945 180.562C464.596 181.318 464.922 182.352 464.922 183.664V184.18H458.867V184.242C458.904 185.076 459.138 185.737 459.57 186.227C460.008 186.716 460.583 186.961 461.297 186.961C462.385 186.961 463.109 186.581 463.469 185.82ZM467.062 188V179.578H468.406V188H467.062ZM468.398 177.594C468.216 177.776 467.995 177.867 467.734 177.867C467.474 177.867 467.253 177.776 467.07 177.594C466.888 177.406 466.797 177.185 466.797 176.93C466.797 176.674 466.888 176.456 467.07 176.273C467.253 176.086 467.474 175.992 467.734 175.992C467.995 175.992 468.216 176.086 468.398 176.273C468.581 176.456 468.672 176.674 468.672 176.93C468.672 177.185 468.581 177.406 468.398 177.594ZM470.969 188V179.578H472.25V180.828H472.375C472.5 180.417 472.781 180.081 473.219 179.82C473.656 179.56 474.154 179.43 474.711 179.43C474.966 179.43 475.19 179.443 475.383 179.469V180.812C475.201 180.76 474.914 180.734 474.523 180.734C473.883 180.734 473.354 180.927 472.938 181.312C472.521 181.698 472.312 182.188 472.312 182.781V188H470.969ZM488.547 182.156H487.188C487.073 181.714 486.826 181.352 486.445 181.07C486.07 180.784 485.594 180.641 485.016 180.641C484.26 180.641 483.659 180.922 483.211 181.484C482.768 182.047 482.547 182.805 482.547 183.758C482.547 184.727 482.771 185.5 483.219 186.078C483.667 186.651 484.266 186.938 485.016 186.938C485.583 186.938 486.055 186.81 486.43 186.555C486.81 186.299 487.062 185.935 487.188 185.461H488.547C488.422 186.258 488.049 186.906 487.43 187.406C486.81 187.901 486.008 188.148 485.023 188.148C483.841 188.148 482.901 187.753 482.203 186.961C481.505 186.164 481.156 185.096 481.156 183.758C481.156 182.445 481.505 181.396 482.203 180.609C482.901 179.823 483.839 179.43 485.016 179.43C486 179.43 486.802 179.688 487.422 180.203C488.047 180.719 488.422 181.37 488.547 182.156ZM490.609 188V176.234H491.953V180.906H492.078C492.292 180.432 492.617 180.068 493.055 179.812C493.497 179.557 494.036 179.43 494.672 179.43C495.568 179.43 496.276 179.706 496.797 180.258C497.318 180.805 497.578 181.568 497.578 182.547V188H496.234V182.875C496.234 181.385 495.586 180.641 494.289 180.641C493.549 180.641 492.974 180.857 492.562 181.289C492.156 181.716 491.953 182.292 491.953 183.016V188H490.609ZM500.062 188V179.578H501.406V188H500.062ZM501.398 177.594C501.216 177.776 500.995 177.867 500.734 177.867C500.474 177.867 500.253 177.776 500.07 177.594C499.888 177.406 499.797 177.185 499.797 176.93C499.797 176.674 499.888 176.456 500.07 176.273C500.253 176.086 500.474 175.992 500.734 175.992C500.995 175.992 501.216 176.086 501.398 176.273C501.581 176.456 501.672 176.674 501.672 176.93C501.672 177.185 501.581 177.406 501.398 177.594ZM504.047 188V176.234H505.391V188H504.047ZM511.117 188.148C510.039 188.148 509.18 187.753 508.539 186.961C507.898 186.169 507.578 185.112 507.578 183.789C507.578 182.471 507.898 181.417 508.539 180.625C509.185 179.828 510.044 179.43 511.117 179.43C511.706 179.43 512.232 179.562 512.695 179.828C513.164 180.089 513.518 180.448 513.758 180.906H513.875V176.234H515.219V188H513.938V186.656H513.812C513.547 187.125 513.177 187.492 512.703 187.758C512.229 188.018 511.701 188.148 511.117 188.148ZM511.43 180.641C510.664 180.641 510.062 180.922 509.625 181.484C509.188 182.042 508.969 182.81 508.969 183.789C508.969 184.773 509.185 185.544 509.617 186.102C510.055 186.659 510.659 186.938 511.43 186.938C512.195 186.938 512.799 186.656 513.242 186.094C513.685 185.531 513.906 184.763 513.906 183.789C513.906 182.826 513.682 182.06 513.234 181.492C512.792 180.924 512.19 180.641 511.43 180.641ZM526.531 188.148C525.948 188.148 525.417 188.018 524.938 187.758C524.464 187.492 524.094 187.125 523.828 186.656H523.703V188H522.422V176.234H523.766V180.906H523.891C524.12 180.453 524.471 180.094 524.945 179.828C525.424 179.562 525.953 179.43 526.531 179.43C527.604 179.43 528.461 179.826 529.102 180.617C529.742 181.409 530.062 182.466 530.062 183.789C530.062 185.107 529.74 186.164 529.094 186.961C528.453 187.753 527.599 188.148 526.531 188.148ZM526.219 180.641C525.453 180.641 524.846 180.922 524.398 181.484C523.956 182.047 523.734 182.815 523.734 183.789C523.734 184.763 523.956 185.531 524.398 186.094C524.846 186.656 525.453 186.938 526.219 186.938C526.99 186.938 527.591 186.659 528.023 186.102C528.456 185.544 528.672 184.773 528.672 183.789C528.672 182.805 528.456 182.034 528.023 181.477C527.591 180.919 526.99 180.641 526.219 180.641ZM532.578 191.047C532.365 191.047 532.164 191.031 531.977 191V189.852C532.112 189.878 532.299 189.891 532.539 189.891C532.93 189.891 533.24 189.786 533.469 189.578C533.703 189.37 533.909 189.013 534.086 188.508L534.242 188.008L531.125 179.578H532.578L534.891 186.508H535.016L537.32 179.578H538.75L535.461 188.516C535.102 189.49 534.719 190.154 534.312 190.508C533.906 190.867 533.328 191.047 532.578 191.047ZM546.609 183.258L550.266 179.578H551.914L548.289 183.188L552.156 188H550.445L547.289 184.055L546.484 184.805V188H545.141V176.234H546.484V183.258H546.609ZM556.719 180.617C556.047 180.617 555.495 180.844 555.062 181.297C554.63 181.75 554.388 182.349 554.336 183.094H558.977C558.961 182.349 558.747 181.75 558.336 181.297C557.924 180.844 557.385 180.617 556.719 180.617ZM558.938 185.82H560.281C560.078 186.549 559.664 187.12 559.039 187.531C558.419 187.943 557.651 188.148 556.734 188.148C555.568 188.148 554.643 187.758 553.961 186.977C553.279 186.19 552.938 185.13 552.938 183.797C552.938 182.469 553.281 181.409 553.969 180.617C554.656 179.826 555.578 179.43 556.734 179.43C557.87 179.43 558.763 179.807 559.414 180.562C560.065 181.318 560.391 182.352 560.391 183.664V184.18H554.336V184.242C554.372 185.076 554.607 185.737 555.039 186.227C555.477 186.716 556.052 186.961 556.766 186.961C557.854 186.961 558.578 186.581 558.938 185.82ZM565.859 180.617C565.188 180.617 564.635 180.844 564.203 181.297C563.771 181.75 563.529 182.349 563.477 183.094H568.117C568.102 182.349 567.888 181.75 567.477 181.297C567.065 180.844 566.526 180.617 565.859 180.617ZM568.078 185.82H569.422C569.219 186.549 568.805 187.12 568.18 187.531C567.56 187.943 566.792 188.148 565.875 188.148C564.708 188.148 563.784 187.758 563.102 186.977C562.419 186.19 562.078 185.13 562.078 183.797C562.078 182.469 562.422 181.409 563.109 180.617C563.797 179.826 564.719 179.43 565.875 179.43C567.01 179.43 567.904 179.807 568.555 180.562C569.206 181.318 569.531 182.352 569.531 183.664V184.18H563.477V184.242C563.513 185.076 563.747 185.737 564.18 186.227C564.617 186.716 565.193 186.961 565.906 186.961C566.995 186.961 567.719 186.581 568.078 185.82ZM575.742 179.43C576.815 179.43 577.672 179.826 578.312 180.617C578.958 181.409 579.281 182.466 579.281 183.789C579.281 185.107 578.958 186.164 578.312 186.961C577.667 187.753 576.81 188.148 575.742 188.148C575.143 188.148 574.612 188.026 574.148 187.781C573.685 187.531 573.339 187.182 573.109 186.734H572.984V190.812H571.641V179.578H572.922V180.984H573.047C573.318 180.5 573.69 180.12 574.164 179.844C574.643 179.568 575.169 179.43 575.742 179.43ZM575.422 186.938C576.193 186.938 576.797 186.659 577.234 186.102C577.672 185.544 577.891 184.773 577.891 183.789C577.891 182.805 577.672 182.034 577.234 181.477C576.802 180.919 576.201 180.641 575.43 180.641C574.669 180.641 574.065 180.924 573.617 181.492C573.169 182.055 572.945 182.82 572.945 183.789C572.945 184.753 573.167 185.518 573.609 186.086C574.057 186.654 574.661 186.938 575.422 186.938ZM581.422 188V179.578H582.766V188H581.422ZM582.758 177.594C582.576 177.776 582.354 177.867 582.094 177.867C581.833 177.867 581.612 177.776 581.43 177.594C581.247 177.406 581.156 177.185 581.156 176.93C581.156 176.674 581.247 176.456 581.43 176.273C581.612 176.086 581.833 175.992 582.094 175.992C582.354 175.992 582.576 176.086 582.758 176.273C582.94 176.456 583.031 176.674 583.031 176.93C583.031 177.185 582.94 177.406 582.758 177.594ZM585.328 188V179.578H586.609V180.906H586.734C587.182 179.922 588.026 179.43 589.266 179.43C590.208 179.43 590.935 179.701 591.445 180.242C591.956 180.779 592.211 181.547 592.211 182.547V188H590.867V182.875C590.867 182.12 590.703 181.56 590.375 181.195C590.052 180.826 589.555 180.641 588.883 180.641C588.206 180.641 587.667 180.854 587.266 181.281C586.87 181.703 586.672 182.281 586.672 183.016V188H585.328ZM598.078 186.688C598.854 186.688 599.464 186.414 599.906 185.867C600.354 185.32 600.578 184.586 600.578 183.664C600.578 182.742 600.354 182.008 599.906 181.461C599.458 180.914 598.849 180.641 598.078 180.641C597.307 180.641 596.708 180.911 596.281 181.453C595.854 181.995 595.641 182.732 595.641 183.664C595.641 184.596 595.854 185.333 596.281 185.875C596.708 186.417 597.307 186.688 598.078 186.688ZM598.141 191.234C597.135 191.234 596.32 191.026 595.695 190.609C595.076 190.193 594.714 189.633 594.609 188.93H596.031C596.104 189.279 596.326 189.555 596.695 189.758C597.065 189.961 597.547 190.062 598.141 190.062C598.896 190.062 599.484 189.885 599.906 189.531C600.333 189.182 600.547 188.698 600.547 188.078V186.422H600.422C600.156 186.885 599.794 187.245 599.336 187.5C598.878 187.75 598.359 187.875 597.781 187.875C596.698 187.875 595.839 187.492 595.203 186.727C594.568 185.956 594.25 184.935 594.25 183.664C594.25 182.393 594.57 181.37 595.211 180.594C595.852 179.818 596.708 179.43 597.781 179.43C598.37 179.43 598.906 179.565 599.391 179.836C599.875 180.102 600.24 180.461 600.484 180.914H600.609V179.578H601.891V188.148C601.891 189.091 601.552 189.841 600.875 190.398C600.198 190.956 599.286 191.234 598.141 191.234ZM609.5 177.398H610.844V179.578H612.719V180.703H610.844V185.469C610.844 185.964 610.943 186.323 611.141 186.547C611.339 186.771 611.656 186.883 612.094 186.883C612.286 186.883 612.495 186.872 612.719 186.852V187.984C612.422 188.036 612.159 188.062 611.93 188.062C611.06 188.062 610.438 187.888 610.062 187.539C609.688 187.19 609.5 186.615 609.5 185.812V180.703H608.141V179.578H609.5V177.398ZM614.828 188V176.234H616.172V180.906H616.297C616.51 180.432 616.836 180.068 617.273 179.812C617.716 179.557 618.255 179.43 618.891 179.43C619.786 179.43 620.495 179.706 621.016 180.258C621.536 180.805 621.797 181.568 621.797 182.547V188H620.453V182.875C620.453 181.385 619.805 180.641 618.508 180.641C617.768 180.641 617.193 180.857 616.781 181.289C616.375 181.716 616.172 182.292 616.172 183.016V188H614.828ZM627.609 180.617C626.938 180.617 626.385 180.844 625.953 181.297C625.521 181.75 625.279 182.349 625.227 183.094H629.867C629.852 182.349 629.638 181.75 629.227 181.297C628.815 180.844 628.276 180.617 627.609 180.617ZM629.828 185.82H631.172C630.969 186.549 630.555 187.12 629.93 187.531C629.31 187.943 628.542 188.148 627.625 188.148C626.458 188.148 625.534 187.758 624.852 186.977C624.169 186.19 623.828 185.13 623.828 183.797C623.828 182.469 624.172 181.409 624.859 180.617C625.547 179.826 626.469 179.43 627.625 179.43C628.76 179.43 629.654 179.807 630.305 180.562C630.956 181.318 631.281 182.352 631.281 183.664V184.18H625.227V184.242C625.263 185.076 625.497 185.737 625.93 186.227C626.367 186.716 626.943 186.961 627.656 186.961C628.745 186.961 629.469 186.581 629.828 185.82ZM633.391 188V179.578H634.672V180.906H634.797C634.99 180.438 635.289 180.076 635.695 179.82C636.102 179.56 636.586 179.43 637.148 179.43C637.701 179.43 638.174 179.562 638.57 179.828C638.971 180.094 639.273 180.453 639.477 180.906H639.602C639.831 180.453 640.174 180.094 640.633 179.828C641.091 179.562 641.607 179.43 642.18 179.43C643.039 179.43 643.701 179.669 644.164 180.148C644.628 180.622 644.859 181.299 644.859 182.18V188H643.516V182.492C643.516 181.258 642.924 180.641 641.742 180.641C641.169 180.641 640.701 180.828 640.336 181.203C639.971 181.578 639.789 182.039 639.789 182.586V188H638.445V182.281C638.445 181.781 638.284 181.383 637.961 181.086C637.643 180.789 637.219 180.641 636.688 180.641C636.141 180.641 635.677 180.849 635.297 181.266C634.922 181.682 634.734 182.188 634.734 182.781V188H633.391ZM224.078 198.578V207H222.797V205.68H222.672C222.458 206.154 222.13 206.518 221.688 206.773C221.245 207.023 220.703 207.148 220.062 207.148C219.125 207.148 218.411 206.88 217.922 206.344C217.432 205.807 217.188 205.036 217.188 204.031V198.578H218.531V203.703C218.531 204.469 218.682 205.031 218.984 205.391C219.286 205.745 219.771 205.922 220.438 205.922C221.172 205.922 221.737 205.716 222.133 205.305C222.534 204.888 222.734 204.307 222.734 203.562V198.578H224.078ZM230.711 198.43C231.784 198.43 232.641 198.826 233.281 199.617C233.927 200.409 234.25 201.466 234.25 202.789C234.25 204.107 233.927 205.164 233.281 205.961C232.635 206.753 231.779 207.148 230.711 207.148C230.112 207.148 229.581 207.026 229.117 206.781C228.654 206.531 228.307 206.182 228.078 205.734H227.953V209.812H226.609V198.578H227.891V199.984H228.016C228.286 199.5 228.659 199.12 229.133 198.844C229.612 198.568 230.138 198.43 230.711 198.43ZM230.391 205.938C231.161 205.938 231.766 205.659 232.203 205.102C232.641 204.544 232.859 203.773 232.859 202.789C232.859 201.805 232.641 201.034 232.203 200.477C231.771 199.919 231.169 199.641 230.398 199.641C229.638 199.641 229.034 199.924 228.586 200.492C228.138 201.055 227.914 201.82 227.914 202.789C227.914 203.753 228.135 204.518 228.578 205.086C229.026 205.654 229.63 205.938 230.391 205.938ZM239.477 207.148C238.398 207.148 237.539 206.753 236.898 205.961C236.258 205.169 235.938 204.112 235.938 202.789C235.938 201.471 236.258 200.417 236.898 199.625C237.544 198.828 238.404 198.43 239.477 198.43C240.065 198.43 240.591 198.562 241.055 198.828C241.523 199.089 241.878 199.448 242.117 199.906H242.234V195.234H243.578V207H242.297V205.656H242.172C241.906 206.125 241.536 206.492 241.062 206.758C240.589 207.018 240.06 207.148 239.477 207.148ZM239.789 199.641C239.023 199.641 238.422 199.922 237.984 200.484C237.547 201.042 237.328 201.81 237.328 202.789C237.328 203.773 237.544 204.544 237.977 205.102C238.414 205.659 239.018 205.938 239.789 205.938C240.555 205.938 241.159 205.656 241.602 205.094C242.044 204.531 242.266 203.763 242.266 202.789C242.266 201.826 242.042 201.06 241.594 200.492C241.151 199.924 240.549 199.641 239.789 199.641ZM248.781 205.969C249.474 205.969 250.047 205.768 250.5 205.367C250.958 204.966 251.188 204.464 251.188 203.859V203.086L248.922 203.234C248.286 203.276 247.82 203.409 247.523 203.633C247.227 203.857 247.078 204.182 247.078 204.609C247.078 205.031 247.237 205.365 247.555 205.609C247.872 205.849 248.281 205.969 248.781 205.969ZM248.531 207.148C247.703 207.148 247.021 206.922 246.484 206.469C245.953 206.01 245.688 205.401 245.688 204.641C245.688 203.891 245.953 203.302 246.484 202.875C247.016 202.448 247.773 202.206 248.758 202.148L251.188 202V201.234C251.188 200.714 251.026 200.315 250.703 200.039C250.38 199.763 249.906 199.625 249.281 199.625C248.776 199.625 248.357 199.716 248.023 199.898C247.69 200.081 247.477 200.339 247.383 200.672H246.023C246.112 200 246.458 199.458 247.062 199.047C247.672 198.635 248.427 198.43 249.328 198.43C250.349 198.43 251.138 198.677 251.695 199.172C252.253 199.667 252.531 200.354 252.531 201.234V207H251.25V205.758H251.125C250.854 206.206 250.495 206.549 250.047 206.789C249.599 207.029 249.094 207.148 248.531 207.148ZM255.578 196.398H256.922V198.578H258.797V199.703H256.922V204.469C256.922 204.964 257.021 205.323 257.219 205.547C257.417 205.771 257.734 205.883 258.172 205.883C258.365 205.883 258.573 205.872 258.797 205.852V206.984C258.5 207.036 258.237 207.062 258.008 207.062C257.138 207.062 256.516 206.888 256.141 206.539C255.766 206.19 255.578 205.615 255.578 204.812V199.703H254.219V198.578H255.578V196.398ZM264.062 199.617C263.391 199.617 262.839 199.844 262.406 200.297C261.974 200.75 261.732 201.349 261.68 202.094H266.32C266.305 201.349 266.091 200.75 265.68 200.297C265.268 199.844 264.729 199.617 264.062 199.617ZM266.281 204.82H267.625C267.422 205.549 267.008 206.12 266.383 206.531C265.763 206.943 264.995 207.148 264.078 207.148C262.911 207.148 261.987 206.758 261.305 205.977C260.622 205.19 260.281 204.13 260.281 202.797C260.281 201.469 260.625 200.409 261.312 199.617C262 198.826 262.922 198.43 264.078 198.43C265.214 198.43 266.107 198.807 266.758 199.562C267.409 200.318 267.734 201.352 267.734 202.664V203.18H261.68V203.242C261.716 204.076 261.951 204.737 262.383 205.227C262.82 205.716 263.396 205.961 264.109 205.961C265.198 205.961 265.922 205.581 266.281 204.82ZM272.961 207.148C271.883 207.148 271.023 206.753 270.383 205.961C269.742 205.169 269.422 204.112 269.422 202.789C269.422 201.471 269.742 200.417 270.383 199.625C271.029 198.828 271.888 198.43 272.961 198.43C273.549 198.43 274.076 198.562 274.539 198.828C275.008 199.089 275.362 199.448 275.602 199.906H275.719V195.234H277.062V207H275.781V205.656H275.656C275.391 206.125 275.021 206.492 274.547 206.758C274.073 207.018 273.544 207.148 272.961 207.148ZM273.273 199.641C272.508 199.641 271.906 199.922 271.469 200.484C271.031 201.042 270.812 201.81 270.812 202.789C270.812 203.773 271.029 204.544 271.461 205.102C271.898 205.659 272.503 205.938 273.273 205.938C274.039 205.938 274.643 205.656 275.086 205.094C275.529 204.531 275.75 203.763 275.75 202.789C275.75 201.826 275.526 201.06 275.078 200.492C274.635 199.924 274.034 199.641 273.273 199.641ZM294.781 198.578L292.422 207H291.055L289.172 200.484H289.047L287.172 207H285.812L283.453 198.578H284.812L286.469 205.312H286.594L288.477 198.578H289.766L291.648 205.312H291.773L293.43 198.578H294.781ZM296.609 207V198.578H297.953V207H296.609ZM297.945 196.594C297.763 196.776 297.542 196.867 297.281 196.867C297.021 196.867 296.799 196.776 296.617 196.594C296.435 196.406 296.344 196.185 296.344 195.93C296.344 195.674 296.435 195.456 296.617 195.273C296.799 195.086 297.021 194.992 297.281 194.992C297.542 194.992 297.763 195.086 297.945 195.273C298.128 195.456 298.219 195.674 298.219 195.93C298.219 196.185 298.128 196.406 297.945 196.594ZM301.078 196.398H302.422V198.578H304.297V199.703H302.422V204.469C302.422 204.964 302.521 205.323 302.719 205.547C302.917 205.771 303.234 205.883 303.672 205.883C303.865 205.883 304.073 205.872 304.297 205.852V206.984C304 207.036 303.737 207.062 303.508 207.062C302.638 207.062 302.016 206.888 301.641 206.539C301.266 206.19 301.078 205.615 301.078 204.812V199.703H299.719V198.578H301.078V196.398ZM306.406 207V195.234H307.75V199.906H307.875C308.089 199.432 308.414 199.068 308.852 198.812C309.294 198.557 309.833 198.43 310.469 198.43C311.365 198.43 312.073 198.706 312.594 199.258C313.115 199.805 313.375 200.568 313.375 201.547V207H312.031V201.875C312.031 200.385 311.383 199.641 310.086 199.641C309.346 199.641 308.771 199.857 308.359 200.289C307.953 200.716 307.75 201.292 307.75 202.016V207H306.406ZM320.422 207V195.234H321.766V207H320.422ZM324.406 207V198.578H325.75V207H324.406ZM325.742 196.594C325.56 196.776 325.339 196.867 325.078 196.867C324.818 196.867 324.596 196.776 324.414 196.594C324.232 196.406 324.141 196.185 324.141 195.93C324.141 195.674 324.232 195.456 324.414 195.273C324.596 195.086 324.818 194.992 325.078 194.992C325.339 194.992 325.56 195.086 325.742 195.273C325.924 195.456 326.016 195.674 326.016 195.93C326.016 196.185 325.924 196.406 325.742 196.594ZM335.188 198.578L332.07 207H330.695L327.578 198.578H329.016L331.32 205.516H331.445L333.75 198.578H335.188ZM340.031 199.617C339.359 199.617 338.807 199.844 338.375 200.297C337.943 200.75 337.701 201.349 337.648 202.094H342.289C342.273 201.349 342.06 200.75 341.648 200.297C341.237 199.844 340.698 199.617 340.031 199.617ZM342.25 204.82H343.594C343.391 205.549 342.977 206.12 342.352 206.531C341.732 206.943 340.964 207.148 340.047 207.148C338.88 207.148 337.956 206.758 337.273 205.977C336.591 205.19 336.25 204.13 336.25 202.797C336.25 201.469 336.594 200.409 337.281 199.617C337.969 198.826 338.891 198.43 340.047 198.43C341.182 198.43 342.076 198.807 342.727 199.562C343.378 200.318 343.703 201.352 343.703 202.664V203.18H337.648V203.242C337.685 204.076 337.919 204.737 338.352 205.227C338.789 205.716 339.365 205.961 340.078 205.961C341.167 205.961 341.891 205.581 342.25 204.82ZM352.922 205.969C353.615 205.969 354.188 205.768 354.641 205.367C355.099 204.966 355.328 204.464 355.328 203.859V203.086L353.062 203.234C352.427 203.276 351.961 203.409 351.664 203.633C351.367 203.857 351.219 204.182 351.219 204.609C351.219 205.031 351.378 205.365 351.695 205.609C352.013 205.849 352.422 205.969 352.922 205.969ZM352.672 207.148C351.844 207.148 351.161 206.922 350.625 206.469C350.094 206.01 349.828 205.401 349.828 204.641C349.828 203.891 350.094 203.302 350.625 202.875C351.156 202.448 351.914 202.206 352.898 202.148L355.328 202V201.234C355.328 200.714 355.167 200.315 354.844 200.039C354.521 199.763 354.047 199.625 353.422 199.625C352.917 199.625 352.497 199.716 352.164 199.898C351.831 200.081 351.617 200.339 351.523 200.672H350.164C350.253 200 350.599 199.458 351.203 199.047C351.812 198.635 352.568 198.43 353.469 198.43C354.49 198.43 355.279 198.677 355.836 199.172C356.393 199.667 356.672 200.354 356.672 201.234V207H355.391V205.758H355.266C354.995 206.206 354.635 206.549 354.188 206.789C353.74 207.029 353.234 207.148 352.672 207.148ZM359.719 196.398H361.062V198.578H362.938V199.703H361.062V204.469C361.062 204.964 361.161 205.323 361.359 205.547C361.557 205.771 361.875 205.883 362.312 205.883C362.505 205.883 362.714 205.872 362.938 205.852V206.984C362.641 207.036 362.378 207.062 362.148 207.062C361.279 207.062 360.656 206.888 360.281 206.539C359.906 206.19 359.719 205.615 359.719 204.812V199.703H358.359V198.578H359.719V196.398ZM365.531 196.398H366.875V198.578H368.75V199.703H366.875V204.469C366.875 204.964 366.974 205.323 367.172 205.547C367.37 205.771 367.688 205.883 368.125 205.883C368.318 205.883 368.526 205.872 368.75 205.852V206.984C368.453 207.036 368.19 207.062 367.961 207.062C367.091 207.062 366.469 206.888 366.094 206.539C365.719 206.19 365.531 205.615 365.531 204.812V199.703H364.172V198.578H365.531V196.398ZM374.016 199.617C373.344 199.617 372.792 199.844 372.359 200.297C371.927 200.75 371.685 201.349 371.633 202.094H376.273C376.258 201.349 376.044 200.75 375.633 200.297C375.221 199.844 374.682 199.617 374.016 199.617ZM376.234 204.82H377.578C377.375 205.549 376.961 206.12 376.336 206.531C375.716 206.943 374.948 207.148 374.031 207.148C372.865 207.148 371.94 206.758 371.258 205.977C370.576 205.19 370.234 204.13 370.234 202.797C370.234 201.469 370.578 200.409 371.266 199.617C371.953 198.826 372.875 198.43 374.031 198.43C375.167 198.43 376.06 198.807 376.711 199.562C377.362 200.318 377.688 201.352 377.688 202.664V203.18H371.633V203.242C371.669 204.076 371.904 204.737 372.336 205.227C372.773 205.716 373.349 205.961 374.062 205.961C375.151 205.961 375.875 205.581 376.234 204.82ZM379.797 207V198.578H381.078V199.906H381.203C381.651 198.922 382.495 198.43 383.734 198.43C384.677 198.43 385.404 198.701 385.914 199.242C386.424 199.779 386.68 200.547 386.68 201.547V207H385.336V201.875C385.336 201.12 385.172 200.56 384.844 200.195C384.521 199.826 384.023 199.641 383.352 199.641C382.674 199.641 382.135 199.854 381.734 200.281C381.339 200.703 381.141 201.281 381.141 202.016V207H379.797ZM392.258 207.148C391.18 207.148 390.32 206.753 389.68 205.961C389.039 205.169 388.719 204.112 388.719 202.789C388.719 201.471 389.039 200.417 389.68 199.625C390.326 198.828 391.185 198.43 392.258 198.43C392.846 198.43 393.372 198.562 393.836 198.828C394.305 199.089 394.659 199.448 394.898 199.906H395.016V195.234H396.359V207H395.078V205.656H394.953C394.688 206.125 394.318 206.492 393.844 206.758C393.37 207.018 392.841 207.148 392.258 207.148ZM392.57 199.641C391.805 199.641 391.203 199.922 390.766 200.484C390.328 201.042 390.109 201.81 390.109 202.789C390.109 203.773 390.326 204.544 390.758 205.102C391.195 205.659 391.799 205.938 392.57 205.938C393.336 205.938 393.94 205.656 394.383 205.094C394.826 204.531 395.047 203.763 395.047 202.789C395.047 201.826 394.823 201.06 394.375 200.492C393.932 199.924 393.331 199.641 392.57 199.641ZM401.562 205.969C402.255 205.969 402.828 205.768 403.281 205.367C403.74 204.966 403.969 204.464 403.969 203.859V203.086L401.703 203.234C401.068 203.276 400.602 203.409 400.305 203.633C400.008 203.857 399.859 204.182 399.859 204.609C399.859 205.031 400.018 205.365 400.336 205.609C400.654 205.849 401.062 205.969 401.562 205.969ZM401.312 207.148C400.484 207.148 399.802 206.922 399.266 206.469C398.734 206.01 398.469 205.401 398.469 204.641C398.469 203.891 398.734 203.302 399.266 202.875C399.797 202.448 400.555 202.206 401.539 202.148L403.969 202V201.234C403.969 200.714 403.807 200.315 403.484 200.039C403.161 199.763 402.688 199.625 402.062 199.625C401.557 199.625 401.138 199.716 400.805 199.898C400.471 200.081 400.258 200.339 400.164 200.672H398.805C398.893 200 399.24 199.458 399.844 199.047C400.453 198.635 401.208 198.43 402.109 198.43C403.13 198.43 403.919 198.677 404.477 199.172C405.034 199.667 405.312 200.354 405.312 201.234V207H404.031V205.758H403.906C403.635 206.206 403.276 206.549 402.828 206.789C402.38 207.029 401.875 207.148 401.312 207.148ZM407.797 207V198.578H409.078V199.906H409.203C409.651 198.922 410.495 198.43 411.734 198.43C412.677 198.43 413.404 198.701 413.914 199.242C414.424 199.779 414.68 200.547 414.68 201.547V207H413.336V201.875C413.336 201.12 413.172 200.56 412.844 200.195C412.521 199.826 412.023 199.641 411.352 199.641C410.674 199.641 410.135 199.854 409.734 200.281C409.339 200.703 409.141 201.281 409.141 202.016V207H407.797ZM424.109 201.156H422.75C422.635 200.714 422.388 200.352 422.008 200.07C421.633 199.784 421.156 199.641 420.578 199.641C419.823 199.641 419.221 199.922 418.773 200.484C418.331 201.047 418.109 201.805 418.109 202.758C418.109 203.727 418.333 204.5 418.781 205.078C419.229 205.651 419.828 205.938 420.578 205.938C421.146 205.938 421.617 205.81 421.992 205.555C422.372 205.299 422.625 204.935 422.75 204.461H424.109C423.984 205.258 423.612 205.906 422.992 206.406C422.372 206.901 421.57 207.148 420.586 207.148C419.404 207.148 418.464 206.753 417.766 205.961C417.068 205.164 416.719 204.096 416.719 202.758C416.719 201.445 417.068 200.396 417.766 199.609C418.464 198.823 419.401 198.43 420.578 198.43C421.562 198.43 422.365 198.688 422.984 199.203C423.609 199.719 423.984 200.37 424.109 201.156ZM429.453 199.617C428.781 199.617 428.229 199.844 427.797 200.297C427.365 200.75 427.122 201.349 427.07 202.094H431.711C431.695 201.349 431.482 200.75 431.07 200.297C430.659 199.844 430.12 199.617 429.453 199.617ZM431.672 204.82H433.016C432.812 205.549 432.398 206.12 431.773 206.531C431.154 206.943 430.385 207.148 429.469 207.148C428.302 207.148 427.378 206.758 426.695 205.977C426.013 205.19 425.672 204.13 425.672 202.797C425.672 201.469 426.016 200.409 426.703 199.617C427.391 198.826 428.312 198.43 429.469 198.43C430.604 198.43 431.497 198.807 432.148 199.562C432.799 200.318 433.125 201.352 433.125 202.664V203.18H427.07V203.242C427.107 204.076 427.341 204.737 427.773 205.227C428.211 205.716 428.786 205.961 429.5 205.961C430.589 205.961 431.312 205.581 431.672 204.82Z" fill="white"/>
<path d="M56 145.312V222.188C56 227.357 60.2059 231.562 65.375 231.562H166.625C171.794 231.562 176 227.357 176 222.188V145.312H56Z" fill="#D8DCE1"/>
<path d="M166.625 119.062H65.375C60.2059 119.062 56 123.268 56 128.438V145.312H176V128.438C176 123.268 171.794 119.062 166.625 119.062ZM71 137.812C67.8934 137.812 65.375 135.294 65.375 132.188C65.375 129.081 67.8934 126.562 71 126.562C74.1066 126.562 76.625 129.081 76.625 132.188C76.625 135.294 74.1066 137.812 71 137.812ZM161 137.812C157.893 137.812 155.375 135.294 155.375 132.188C155.375 129.081 157.893 126.562 161 126.562C164.107 126.562 166.625 129.081 166.625 132.188C166.625 135.294 164.107 137.812 161 137.812Z" fill="#8252D7"/>
<path d="M116 162.188C111.864 162.188 108.5 165.551 108.5 169.688C108.5 173.824 111.864 177.188 116 177.188C120.136 177.188 123.5 173.824 123.5 169.688C123.5 165.551 120.136 162.188 116 162.188Z" fill="white"/>
<path d="M97.25 162.188C93.1137 162.188 89.75 165.551 89.75 169.688C89.75 173.824 93.1137 177.188 97.25 177.188C101.386 177.188 104.75 173.824 104.75 169.688C104.75 165.551 101.386 162.188 97.25 162.188Z" fill="#52B062"/>
<path d="M78.5 162.188C74.3637 162.188 71 165.551 71 169.688C71 173.824 74.3637 177.188 78.5 177.188C82.6363 177.188 86 173.824 86 169.688C86 165.551 82.6363 162.188 78.5 162.188Z" fill="white"/>
<path d="M134.75 162.188C130.614 162.188 127.25 165.551 127.25 169.688C127.25 173.824 130.614 177.188 134.75 177.188C138.886 177.188 142.25 173.824 142.25 169.688C142.25 165.551 138.886 162.188 134.75 162.188Z" fill="white"/>
<path d="M153.5 177.188C157.636 177.188 161 173.824 161 169.688C161 165.551 157.636 162.188 153.5 162.188C149.364 162.188 146 165.551 146 169.688C146 173.824 149.364 177.188 153.5 177.188Z" fill="white"/>
<path d="M116 180.938C111.864 180.938 108.5 184.301 108.5 188.438C108.5 192.574 111.864 195.938 116 195.938C120.136 195.938 123.5 192.574 123.5 188.438C123.5 184.301 120.136 180.938 116 180.938Z" fill="white"/>
<path d="M97.25 180.938C93.1137 180.938 89.75 184.301 89.75 188.438C89.75 192.574 93.1137 195.938 97.25 195.938C101.386 195.938 104.75 192.574 104.75 188.438C104.75 184.301 101.386 180.938 97.25 180.938Z" fill="white"/>
<path d="M78.5 180.938C74.3637 180.938 71 184.301 71 188.438C71 192.574 74.3637 195.938 78.5 195.938C82.6363 195.938 86 192.574 86 188.438C86 184.301 82.6363 180.938 78.5 180.938Z" fill="white"/>
<path d="M134.75 180.938C130.614 180.938 127.25 184.301 127.25 188.438C127.25 192.574 130.614 195.938 134.75 195.938C138.886 195.938 142.25 192.574 142.25 188.438C142.25 184.301 138.886 180.938 134.75 180.938Z" fill="white"/>
<path d="M153.5 180.938C149.364 180.938 146 184.301 146 188.438C146 192.574 149.364 195.938 153.5 195.938C157.636 195.938 161 192.574 161 188.438C161 184.301 157.636 180.938 153.5 180.938Z" fill="white"/>
<path d="M116 199.688C111.864 199.688 108.5 203.051 108.5 207.188C108.5 211.324 111.864 214.688 116 214.688C120.136 214.688 123.5 211.324 123.5 207.188C123.5 203.051 120.136 199.688 116 199.688Z" fill="white"/>
<path d="M97.25 199.688C93.1137 199.688 89.75 203.051 89.75 207.188C89.75 211.324 93.1137 214.688 97.25 214.688C101.386 214.688 104.75 211.324 104.75 207.188C104.75 203.051 101.386 199.688 97.25 199.688Z" fill="white"/>
<path d="M78.5 199.688C74.3637 199.688 71 203.051 71 207.188C71 211.324 74.3637 214.688 78.5 214.688C82.6363 214.688 86 211.324 86 207.188C86 203.051 82.6363 199.688 78.5 199.688Z" fill="white"/>
<path d="M134.75 199.688C130.614 199.688 127.25 203.051 127.25 207.188C127.25 211.324 130.614 214.688 134.75 214.688C138.886 214.688 142.25 211.324 142.25 207.188C142.25 203.051 138.886 199.688 134.75 199.688Z" fill="white"/>
<path d="M153.5 199.688C149.364 199.688 146 203.051 146 207.188C146 211.324 149.364 214.688 153.5 214.688C157.636 214.688 161 211.324 161 207.188C161 203.051 157.636 199.688 153.5 199.688Z" fill="white"/>
<path d="M71 135C69.4473 135 68.1875 133.741 68.1875 132.188V119.062C68.1875 117.509 69.4473 116.25 71 116.25C72.5527 116.25 73.8125 117.509 73.8125 119.062V132.188C73.8125 133.741 72.5527 135 71 135Z" fill="#E0CFFF"/>
<path d="M161 135C159.447 135 158.188 133.741 158.188 132.188V119.062C158.188 117.509 159.447 116.25 161 116.25C162.553 116.25 163.812 117.509 163.812 119.062V132.188C163.812 133.741 162.553 135 161 135Z" fill="#E0CFFF"/>
<path d="M78.5 177.188C82.6421 177.188 86 173.83 86 169.688C86 165.545 82.6421 162.188 78.5 162.188C74.3579 162.188 71 165.545 71 169.688C71 173.83 74.3579 177.188 78.5 177.188Z" fill="#52B062"/>
<path d="M116 214.688C120.142 214.688 123.5 211.33 123.5 207.188C123.5 203.045 120.142 199.688 116 199.688C111.858 199.688 108.5 203.045 108.5 207.188C108.5 211.33 111.858 214.688 116 214.688Z" fill="#FF9600"/>
<path d="M134.75 195.938C138.892 195.938 142.25 192.58 142.25 188.438C142.25 184.295 138.892 180.938 134.75 180.938C130.608 180.938 127.25 184.295 127.25 188.438C127.25 192.58 130.608 195.938 134.75 195.938Z" fill="#FF4F19"/>
<g opacity="0.6">
<rect x="232" y="36" width="80" height="80" fill="white" fill-opacity="0.06"/>
<rect x="187" y="90" width="65" height="66" fill="white" fill-opacity="0.06"/>
<rect x="499" y="258" width="42" height="42" fill="white" fill-opacity="0.08"/>
<circle cx="598.5" cy="85.5" r="49.5" fill="white" fill-opacity="0.06"/>
<ellipse cx="561.5" cy="123" rx="32.5" ry="33" fill="white" fill-opacity="0.06"/>
<ellipse cx="418" cy="251.5" rx="16" ry="15.5" fill="white" fill-opacity="0.08"/>
<circle cx="440.5" cy="96.5" r="4" stroke="white" stroke-opacity="0.1" stroke-width="5"/>
<circle cx="186.5" cy="251.5" r="4" stroke="white" stroke-opacity="0.4" stroke-width="5"/>
<circle cx="482.5" cy="64.5" r="4" stroke="white" stroke-opacity="0.2" stroke-width="5"/>
<g opacity="0.15">
<path fill-rule="evenodd" clip-rule="evenodd" d="M661.809 214.487L693.77 182.526C694.4 181.896 695.426 181.899 696.061 182.534L709.849 196.322C711.753 198.226 711.763 201.302 709.872 203.194L677.911 235.155C677.28 235.785 676.255 235.782 675.62 235.147L661.832 221.358C659.928 219.455 659.918 216.378 661.809 214.487Z" fill="#EEEEEE" fill-opacity="0.6"/>
<path fill-rule="evenodd" clip-rule="evenodd" d="M690.436 213.437L661.71 184.71C659.807 182.807 659.796 179.73 661.688 177.839L675.385 164.141C676.016 163.511 677.041 163.514 677.676 164.149L709.849 196.322C711.753 198.226 711.763 201.302 709.872 203.194L696.174 216.891L691.608 221.457C693.499 219.566 693.489 216.489 691.585 214.586L690.436 213.437Z" fill="white"/>
</g>
</g>
</g>
<defs>
<clipPath id="clip0">
<rect width="724" height="314" fill="white"/>
</clipPath>
</defs>
</svg>
