<svg width="10" height="10" viewBox="0 0 10 10" fill="none" xmlns="http://www.w3.org/2000/svg">
<path opacity="0.87" fill-rule="evenodd" clip-rule="evenodd" d="M9.87247 9.8738C9.70422 10.0421 9.43098 10.0421 9.26274 9.8738L5 5.61049L0.735918 9.8738C0.567669 10.0421 0.294434 10.0421 0.126186 9.8738C-0.0420621 9.70553 -0.0420621 9.43225 0.126186 9.26398L4.39027 5.00067L0.127532 0.736017C-0.0407161 0.567746 -0.0407161 0.294474 0.127532 0.126203C0.29578 -0.0420677 0.569015 -0.0420677 0.737264 0.126203L5 4.39086L9.26408 0.127549C9.43233 -0.0407216 9.70557 -0.0407216 9.87381 0.127549C10.0421 0.29582 10.0421 0.569092 9.87381 0.737363L5.60973 5.00067L9.87247 9.26533C10.0407 9.4336 10.0407 9.70553 9.87247 9.8738Z" fill="black"/>
</svg>
