<svg width="80" height="133" viewBox="0 0 80 133" fill="none" xmlns="http://www.w3.org/2000/svg">
<path fill-rule="evenodd" clip-rule="evenodd" d="M40 80C62.0914 80 80 62.0914 80 40C80 17.9086 62.0914 0 40 0C17.9086 0 0 17.9086 0 40C0 62.0914 17.9086 80 40 80Z" fill="#009AE0"/>
<path d="M33.9998 48.4002L25.5998 40.0002L22.7998 42.8002L33.9998 54.0002L57.9998 30.0002L55.1998 27.2002L33.9998 48.4002Z" fill="white"/>
<path d="M5.74609 127V119.992H13.0117V117.672H5.74609V112.48H13.6797V110.09H3.12109V127H5.74609ZM20.2188 125.09C18.8477 125.09 17.8516 124.422 17.8516 123.273C17.8516 122.148 18.6484 121.551 20.4062 121.434L23.5234 121.234V122.301C23.5234 123.883 22.1172 125.09 20.2188 125.09ZM19.5742 127.211C21.25 127.211 22.6445 126.484 23.4062 125.207H23.6055V127H26.0312V118.281C26.0312 115.586 24.2266 113.992 21.0273 113.992C18.1328 113.992 16.0703 115.398 15.8125 117.59H18.25C18.5312 116.688 19.5039 116.172 20.9102 116.172C22.6328 116.172 23.5234 116.934 23.5234 118.281V119.383L20.0664 119.582C17.0312 119.77 15.3203 121.094 15.3203 123.391C15.3203 125.723 17.1133 127.211 19.5742 127.211ZM29.6641 127H32.1719V114.238H29.6641V127ZM30.918 112C31.8555 112 32.5469 111.332 32.5469 110.465C32.5469 109.586 31.8555 108.918 30.918 108.918C29.9805 108.918 29.2891 109.586 29.2891 110.465C29.2891 111.332 29.9805 112 30.918 112ZM35.9922 127H38.5117V109.258H35.9922V127ZM47.5352 116.137C49.3984 116.137 50.6172 117.438 50.6758 119.441H44.2305C44.3711 117.449 45.6719 116.137 47.5352 116.137ZM50.6641 123.555C50.1953 124.551 49.1523 125.102 47.6289 125.102C45.6133 125.102 44.3125 123.684 44.2305 121.445V121.305H53.2422V120.426C53.2422 116.418 51.0977 113.992 47.5469 113.992C43.9492 113.992 41.6641 116.582 41.6641 120.66C41.6641 124.738 43.9023 127.246 47.5586 127.246C50.4766 127.246 52.5156 125.84 53.0898 123.555H50.6641ZM60.9297 127.211C62.6875 127.211 64.1758 126.379 64.9375 124.984H65.1367V127H67.5508V109.258H65.0312V116.266H64.8438C64.1523 114.859 62.6758 114.027 60.9297 114.027C57.707 114.027 55.6328 116.582 55.6328 120.613C55.6328 124.656 57.6836 127.211 60.9297 127.211ZM61.6445 116.289C63.7539 116.289 65.0781 117.965 65.0781 120.625C65.0781 123.297 63.7656 124.949 61.6445 124.949C59.5117 124.949 58.2344 123.32 58.2344 120.613C58.2344 117.93 59.5234 116.289 61.6445 116.289ZM72.0039 110.078L72.25 121.398H74.6172L74.8516 110.078H72.0039ZM73.4453 127.27C74.5234 127.27 75.2383 126.555 75.2383 125.488C75.2383 124.398 74.5234 123.684 73.4453 123.684C72.3555 123.684 71.6289 124.398 71.6289 125.488C71.6289 126.555 72.3555 127.27 73.4453 127.27Z" fill="black" fill-opacity="0.87"/>
</svg>
