<svg width="80" height="80" viewBox="0 0 80 80" fill="none" xmlns="http://www.w3.org/2000/svg">
<path fill-rule="evenodd" clip-rule="evenodd" d="M40 80C62.0914 80 80 62.0914 80 40C80 17.9086 62.0914 0 40 0C17.9086 0 0 17.9086 0 40C0 62.0914 17.9086 80 40 80Z" fill="#FF4058"/>
<path d="M52.0199 31.0368L52.3735 30.6833L52.0199 30.3297L49.6699 27.9797L49.3163 27.6261L48.9628 27.9797L39.9997 36.9428L31.0366 27.9797L30.683 27.6261L30.3295 27.9797L27.9795 30.3297L27.6259 30.6833L27.9795 31.0368L36.9426 39.9999L27.9795 48.963L27.6259 49.3166L27.9795 49.6701L30.3295 52.0201L30.683 52.3737L31.0366 52.0201L39.9997 43.057L48.9628 52.0201L49.3163 52.3737L49.6699 52.0201L52.0199 49.6701L52.3735 49.3166L52.0199 48.963L43.0568 39.9999L52.0199 31.0368Z" fill="white" stroke="white"/>
</svg>
