<svg width="105" height="133" viewBox="0 0 105 133" fill="none" xmlns="http://www.w3.org/2000/svg">
<path fill-rule="evenodd" clip-rule="evenodd" d="M53 80C75.0914 80 93 62.0914 93 40C93 17.9086 75.0914 0 53 0C30.9086 0 13 17.9086 13 40C13 62.0914 30.9086 80 53 80Z" fill="#009AE0"/>
<path d="M46.9998 48.4002L38.5998 40.0002L35.7998 42.8002L46.9998 54.0002L70.9998 30.0002L68.1998 27.2002L46.9998 48.4002Z" fill="white"/>
<path d="M1.32422 122.453C1.51172 125.477 4.03125 127.41 7.78125 127.41C11.7891 127.41 14.2969 125.383 14.2969 122.148C14.2969 119.605 12.8672 118.199 9.39844 117.391L7.53516 116.934C5.33203 116.418 4.44141 115.727 4.44141 114.52C4.44141 112.996 5.82422 112 7.89844 112C9.86719 112 11.2266 112.973 11.4727 114.531H14.0273C13.875 111.684 11.3672 109.68 7.93359 109.68C4.24219 109.68 1.78125 111.684 1.78125 114.695C1.78125 117.18 3.17578 118.656 6.23438 119.371L8.41406 119.898C10.6523 120.426 11.6367 121.199 11.6367 122.488C11.6367 123.988 10.0898 125.078 7.98047 125.078C5.71875 125.078 4.14844 124.059 3.92578 122.453H1.32422ZM28.2188 114.238H25.6992V121.703C25.6992 123.707 24.5859 124.914 22.5469 124.914C20.6953 124.914 19.8633 123.93 19.8633 121.867V114.238H17.3438V122.523C17.3438 125.523 18.9141 127.246 21.7383 127.246C23.6719 127.246 24.9727 126.426 25.5938 124.973H25.793V127H28.2188V114.238ZM42.6797 118.41C42.3516 115.855 40.418 113.992 37.2188 113.992C33.5039 113.992 31.2422 116.488 31.2422 120.578C31.2422 124.738 33.5156 127.246 37.2305 127.246C40.3828 127.246 42.3516 125.465 42.6797 122.898H40.2305C39.9023 124.27 38.8125 124.996 37.2188 124.996C35.1211 124.996 33.8203 123.344 33.8203 120.578C33.8203 117.859 35.1094 116.242 37.2188 116.242C38.9062 116.242 39.9375 117.168 40.2305 118.41H42.6797ZM56.3672 118.41C56.0391 115.855 54.1055 113.992 50.9062 113.992C47.1914 113.992 44.9297 116.488 44.9297 120.578C44.9297 124.738 47.2031 127.246 50.918 127.246C54.0703 127.246 56.0391 125.465 56.3672 122.898H53.918C53.5898 124.27 52.5 124.996 50.9062 124.996C48.8086 124.996 47.5078 123.344 47.5078 120.578C47.5078 117.859 48.7969 116.242 50.9062 116.242C52.5938 116.242 53.625 117.168 53.918 118.41H56.3672ZM64.4883 116.137C66.3516 116.137 67.5703 117.438 67.6289 119.441H61.1836C61.3242 117.449 62.625 116.137 64.4883 116.137ZM67.6172 123.555C67.1484 124.551 66.1055 125.102 64.582 125.102C62.5664 125.102 61.2656 123.684 61.1836 121.445V121.305H70.1953V120.426C70.1953 116.418 68.0508 113.992 64.5 113.992C60.9023 113.992 58.6172 116.582 58.6172 120.66C58.6172 124.738 60.8555 127.246 64.5117 127.246C67.4297 127.246 69.4688 125.84 70.043 123.555H67.6172ZM72.9258 117.848C72.9258 119.746 74.0508 120.836 76.4766 121.41L78.7031 121.926C79.9805 122.23 80.5781 122.723 80.5781 123.484C80.5781 124.504 79.4648 125.207 77.8945 125.207C76.3711 125.207 75.4336 124.598 75.1172 123.613H72.5977C72.8203 125.875 74.8008 127.246 77.8359 127.246C80.8828 127.246 83.1211 125.641 83.1211 123.238C83.1211 121.363 81.9844 120.32 79.5586 119.758L77.4375 119.266C76.0547 118.949 75.4102 118.469 75.4102 117.707C75.4102 116.711 76.4766 116.043 77.8828 116.043C79.3125 116.043 80.2266 116.641 80.4609 117.578H82.875C82.6289 115.328 80.7539 113.992 77.8828 113.992C75 113.992 72.9258 115.586 72.9258 117.848ZM85.6289 117.848C85.6289 119.746 86.7539 120.836 89.1797 121.41L91.4062 121.926C92.6836 122.23 93.2812 122.723 93.2812 123.484C93.2812 124.504 92.168 125.207 90.5977 125.207C89.0742 125.207 88.1367 124.598 87.8203 123.613H85.3008C85.5234 125.875 87.5039 127.246 90.5391 127.246C93.5859 127.246 95.8242 125.641 95.8242 123.238C95.8242 121.363 94.6875 120.32 92.2617 119.758L90.1406 119.266C88.7578 118.949 88.1133 118.469 88.1133 117.707C88.1133 116.711 89.1797 116.043 90.5859 116.043C92.0156 116.043 92.9297 116.641 93.1641 117.578H95.5781C95.332 115.328 93.457 113.992 90.5859 113.992C87.7031 113.992 85.6289 115.586 85.6289 117.848ZM99.5273 110.078L99.7734 121.398H102.141L102.375 110.078H99.5273ZM100.969 127.27C102.047 127.27 102.762 126.555 102.762 125.488C102.762 124.398 102.047 123.684 100.969 123.684C99.8789 123.684 99.1523 124.398 99.1523 125.488C99.1523 126.555 99.8789 127.27 100.969 127.27Z" fill="black" fill-opacity="0.87"/>
</svg>
