<svg width="24" height="24" viewBox="0 0 24 24" fill="none" xmlns="http://www.w3.org/2000/svg">
<g opacity="0.870373">
<path d="M18.0234 1.61719C16.1797 0.539062 14.1719 0 12 0C9.82812 0 7.82031 0.539062 5.97656 1.61719C4.13281 2.67969 2.67188 4.13281 1.59375 5.97656C0.53125 7.82031 0 9.82812 0 12C0 14.1719 0.53125 16.1797 1.59375 18.0234C2.67188 19.8672 4.13281 21.3203 5.97656 22.3828C7.82031 23.4609 9.82812 24 12 24C14.1719 24 16.1797 23.4609 18.0234 22.3828C19.8672 21.3203 21.3203 19.8672 22.3828 18.0234C23.4609 16.1797 24 14.1719 24 12C24 9.82812 23.4609 7.82031 22.3828 5.97656C21.3203 4.13281 19.8672 2.67969 18.0234 1.61719ZM19.2891 19.2891C18.3359 20.2422 17.2422 20.9766 16.0078 21.4922C14.7422 22.0391 13.4062 22.3125 12 22.3125C10.5938 22.3125 9.25781 22.0469 7.99219 21.5156C6.75781 20.9844 5.66406 20.2422 4.71094 19.2891C3.75781 18.3359 3.02344 17.2422 2.50781 16.0078C1.96094 14.7422 1.6875 13.4062 1.6875 12C1.6875 10.5938 1.95312 9.25781 2.48438 7.99219C3.01562 6.75781 3.75781 5.66406 4.71094 4.71094C5.66406 3.75781 6.75781 3.02344 7.99219 2.50781C9.25781 1.96094 10.5938 1.6875 12 1.6875C13.4062 1.6875 14.7422 1.95313 16.0078 2.48438C17.2422 3.01562 18.3359 3.75781 19.2891 4.71094C20.2422 5.66406 20.9766 6.75781 21.4922 7.99219C22.0391 9.25781 22.3125 10.5938 22.3125 12C22.3125 13.4062 22.0469 14.7422 21.5156 16.0078C20.9844 17.2422 20.2422 18.3359 19.2891 19.2891ZM17.1797 11.8125H12.8438V6.1875C12.8438 5.95312 12.7578 5.75781 12.5859 5.60156C12.4297 5.42969 12.2344 5.34375 12 5.34375C11.7656 5.34375 11.5625 5.42969 11.3906 5.60156C11.2344 5.75781 11.1562 5.95312 11.1562 6.1875V11.8125C11.1562 12.2812 11.3203 12.6797 11.6484 13.0078C11.9766 13.3359 12.375 13.5 12.8438 13.5H17.1797C17.4141 13.5 17.6094 13.4219 17.7656 13.2656C17.9375 13.0938 18.0234 12.8906 18.0234 12.6562C18.0234 12.4219 17.9375 12.2266 17.7656 12.0703C17.6094 11.8984 17.4141 11.8125 17.1797 11.8125Z" fill="black" fill-opacity="0.87"/>
</g>
</svg>
