<svg width="26" height="26" viewBox="0 0 26 26" fill="none" xmlns="http://www.w3.org/2000/svg">
<g opacity="0.873163">
<path fill-rule="evenodd" clip-rule="evenodd" d="M10.4252 6.66998L19.2252 12.67C19.3344 12.7444 19.4 12.868 19.4 13.0004C19.4 13.1328 19.3344 13.2564 19.2252 13.3308L10.4252 19.3308C10.3576 19.3768 10.2788 19.4004 10.2 19.4004C10.136 19.4004 10.0716 19.3852 10.0132 19.354C9.88199 19.2848 9.79999 19.1488 9.79999 19.0004V7.00038C9.79999 6.85198 9.88199 6.71598 10.0128 6.64678C10.144 6.57758 10.3024 6.58678 10.4252 6.66998ZM18.29 13.0004L10.6 7.75758V18.2432L18.29 13.0004Z" fill="black"/>
<path d="M19.2252 12.67L19.1548 12.7733L19.1548 12.7733L19.2252 12.67ZM10.4252 6.66998L10.4956 6.5667L10.4953 6.5665L10.4252 6.66998ZM19.2252 13.3308L19.1548 13.2275L19.1548 13.2275L19.2252 13.3308ZM10.4252 19.3308L10.4955 19.4341L10.4956 19.4341L10.4252 19.3308ZM10.0132 19.354L10.0721 19.2437L10.0715 19.2434L10.0132 19.354ZM10.0128 6.64678L9.95447 6.53622L9.95433 6.53629L10.0128 6.64678ZM10.6 7.75758L10.6704 7.6543L10.475 7.52107V7.75758H10.6ZM18.29 13.0004L18.3604 13.1037L18.5119 13.0004L18.3604 12.8971L18.29 13.0004ZM10.6 18.2432H10.475V18.4797L10.6704 18.3465L10.6 18.2432ZM19.2956 12.5667L10.4956 6.5667L10.3548 6.77326L19.1548 12.7733L19.2956 12.5667ZM19.525 13.0004C19.525 12.8265 19.4388 12.6643 19.2956 12.5667L19.1548 12.7733C19.2299 12.8245 19.275 12.9094 19.275 13.0004H19.525ZM19.2956 13.4341C19.4388 13.3365 19.525 13.1742 19.525 13.0004H19.275C19.275 13.0913 19.2299 13.1763 19.1548 13.2275L19.2956 13.4341ZM10.4956 19.4341L19.2956 13.4341L19.1548 13.2275L10.3548 19.2275L10.4956 19.4341ZM10.2 19.5254C10.3036 19.5254 10.407 19.4944 10.4955 19.4341L10.3549 19.2274C10.3082 19.2592 10.2539 19.2754 10.2 19.2754V19.5254ZM9.95429 19.4642C10.0315 19.5055 10.1163 19.5254 10.2 19.5254V19.2754C10.1557 19.2754 10.1116 19.2649 10.0721 19.2437L9.95429 19.4642ZM9.67499 19.0004C9.67499 19.1951 9.78263 19.3737 9.95487 19.4645L10.0715 19.2434C9.98134 19.1959 9.92499 19.1024 9.92499 19.0004H9.67499ZM9.67499 7.00038V19.0004H9.92499V7.00038H9.67499ZM9.95433 6.53629C9.78258 6.62716 9.67499 6.80569 9.67499 7.00038H9.92499C9.92499 6.89827 9.9814 6.8048 10.0712 6.75727L9.95433 6.53629ZM10.4953 6.5665C10.3345 6.45758 10.1268 6.44533 9.95447 6.53622L10.0711 6.75734C10.1612 6.70983 10.2702 6.71598 10.3551 6.77347L10.4953 6.5665ZM10.5296 7.86086L18.2196 13.1037L18.3604 12.8971L10.6704 7.6543L10.5296 7.86086ZM10.725 18.2432V7.75758H10.475V18.2432H10.725ZM18.2196 12.8971L10.5296 18.1399L10.6704 18.3465L18.3604 13.1037L18.2196 12.8971Z" fill="black"/>
</g>
<g opacity="0.867932">
<path fill-rule="evenodd" clip-rule="evenodd" d="M1 13C1 6.3832 6.3832 1 13 1C19.6168 1 25 6.3832 25 13C25 19.6168 19.6168 25 13 25C6.3832 25 1 19.6168 1 13ZM1.8 13C1.8 19.1756 6.8244 24.2 13 24.2C19.1756 24.2 24.2 19.1756 24.2 13C24.2 6.8244 19.1756 1.8 13 1.8C6.8244 1.8 1.8 6.8244 1.8 13Z" fill="black"/>
<path d="M13 0.875C6.31416 0.875 0.875 6.31416 0.875 13H1.125C1.125 6.45224 6.45224 1.125 13 1.125V0.875ZM25.125 13C25.125 6.31416 19.6858 0.875 13 0.875V1.125C19.5478 1.125 24.875 6.45224 24.875 13H25.125ZM13 25.125C19.6858 25.125 25.125 19.6858 25.125 13H24.875C24.875 19.5478 19.5478 24.875 13 24.875V25.125ZM0.875 13C0.875 19.6858 6.31416 25.125 13 25.125V24.875C6.45224 24.875 1.125 19.5478 1.125 13H0.875ZM13 24.075C6.89344 24.075 1.925 19.1066 1.925 13H1.675C1.675 19.2446 6.75536 24.325 13 24.325V24.075ZM24.075 13C24.075 19.1066 19.1066 24.075 13 24.075V24.325C19.2446 24.325 24.325 19.2446 24.325 13H24.075ZM13 1.925C19.1066 1.925 24.075 6.89344 24.075 13H24.325C24.325 6.75536 19.2446 1.675 13 1.675V1.925ZM1.925 13C1.925 6.89344 6.89344 1.925 13 1.925V1.675C6.75536 1.675 1.675 6.75536 1.675 13H1.925Z" fill="black"/>
</g>
</svg>
