<svg width="16" height="16" viewBox="0 0 16 16" fill="none" xmlns="http://www.w3.org/2000/svg">
<path fill-rule="evenodd" clip-rule="evenodd" d="M7.95024 0.960037L0.407034 8.49267C0.146933 8.76704 0.0169363 9.08708 0.0169363 9.45282C0.0169363 9.82563 0.146933 10.1419 0.407182 10.4022L5.58727 15.5928C5.86152 15.853 6.18182 15.9832 6.54727 15.9832C6.92029 15.9832 7.23656 15.853 7.49681 15.5928L15.0399 8.03906C15.3072 7.77873 15.534 7.42374 15.7204 6.97349C15.9069 6.52323 15.9999 6.11193 15.9999 5.73916V1.35039C15.9999 0.98461 15.8664 0.66812 15.5991 0.40085C15.3318 0.133727 15.0153 0 14.6495 0H10.2608C9.88798 0 9.47656 0.0931917 9.0263 0.279538C8.5762 0.465848 8.21758 0.692582 7.95024 0.960037ZM12.6241 4.72647C12.2513 4.72647 11.9331 4.59451 11.6692 4.33075C11.4054 4.06696 11.2736 3.7488 11.2736 3.37604C11.2736 3.00327 11.4056 2.68497 11.6692 2.42132C11.933 2.15752 12.2513 2.02557 12.6241 2.02557C12.9967 2.02557 13.315 2.15752 13.5788 2.42132C13.8426 2.68497 13.9744 3.00323 13.9744 3.37604C13.9744 3.7488 13.8426 4.06696 13.5788 4.33075C13.315 4.59451 12.9967 4.72647 12.6241 4.72647Z" fill="black" fill-opacity="0.38"/>
</svg>
