<?xml version="1.0" encoding="UTF-8"?>
<svg width="25px" height="25px" viewBox="0 0 25 25" version="1.1" xmlns="http://www.w3.org/2000/svg" xmlns:xlink="http://www.w3.org/1999/xlink">
    <!-- Generator: Sketch 51.3 (57544) - http://www.bohemiancoding.com/sketch -->
    <title>exam</title>
    <desc>Created with Sketch.</desc>
    <defs></defs>
    <g id="Page-1" stroke="none" stroke-width="1" fill="none" fill-rule="evenodd">
        <g id="Home-page" transform="translate(-130.000000, -833.000000)" fill="#009AE0" fill-rule="nonzero">
            <g id="exam" transform="translate(130.000000, 833.000000)">
                <path d="M13.75,0 L1.25,0 C0.5,0 0,0.5 0,1.25 L0,23.75 C0,24.5 0.625,25 1.25,25 L17.5,25 C18.25,25 18.75,24.5 18.75,23.75 L18.75,5 L13.75,0 Z M8.75,5 L12.5,5 C13.25,5 13.75,5.625 13.75,6.25 C13.75,7 13.25,7.5 12.5,7.5 L8.75,7.5 C8.125,7.5 7.5,7 7.5,6.25 C7.5,5.625 8.125,5 8.75,5 Z M3.75,22.5 C3.125,22.5 2.5,22 2.5,21.25 C2.5,20.625 3.125,20 3.75,20 C4.5,20 5,20.625 5,21.25 C5,22 4.5,22.5 3.75,22.5 Z M3.75,17.5 C3.125,17.5 2.5,17 2.5,16.25 C2.5,15.625 3.125,15 3.75,15 C4.5,15 5,15.625 5,16.25 C5,17 4.5,17.5 3.75,17.5 Z M3.75,12.5 C3.125,12.5 2.5,12 2.5,11.25 C2.5,10.625 3.125,10 3.75,10 C4.5,10 5,10.625 5,11.25 C5,12 4.5,12.5 3.75,12.5 Z M3.75,7.5 C3.125,7.5 2.5,7 2.5,6.25 C2.5,5.625 3.125,5 3.75,5 C4.5,5 5,5.625 5,6.25 C5,7 4.5,7.5 3.75,7.5 Z M15,22.5 L8.75,22.5 C8.125,22.5 7.5,22 7.5,21.25 C7.5,20.625 8.125,20 8.75,20 L15,20 C15.75,20 16.25,20.625 16.25,21.25 C16.25,22 15.75,22.5 15,22.5 Z M15,17.5 L8.75,17.5 C8.125,17.5 7.5,17 7.5,16.25 C7.5,15.625 8.125,15 8.75,15 L15,15 C15.75,15 16.25,15.625 16.25,16.25 C16.25,17 15.75,17.5 15,17.5 Z M15,12.5 L8.75,12.5 C8.125,12.5 7.5,12 7.5,11.25 C7.5,10.625 8.125,10 8.75,10 L15,10 C15.75,10 16.25,10.625 16.25,11.25 C16.25,12 15.75,12.5 15,12.5 Z" id="Shape"></path>
                <path d="M23.125,0 C22.125,0 21.25,0.875 21.25,1.875 L21.25,3.75 L25,3.75 L25,1.875 C25,0.875 24.125,0 23.125,0 Z" id="Shape"></path>
                <path d="M21.25,6.25 L21.25,18.125 C21.25,19.125 22.125,25 23.125,25 C24.125,25 25,19.125 25,18.125 L25,6.25 L21.25,6.25 Z" id="Shape"></path>
            </g>
        </g>
    </g>
</svg>